<svg width="106" height="59" viewBox="0 0 106 59" fill="none" xmlns="http://www.w3.org/2000/svg">
<g filter="url(#filter0_d)">
<path d="M44.3116 44.9178C42.1544 46.2622 41.5337 46.3088 38.791 47.1157C35.746 48.0115 33.7629 48.013 30.5689 47.9721C27.0684 47.9273 24.8123 47.7381 21.7691 46.5662C18.5546 45.3284 16.6391 44.4353 14.1382 42.2588C12.4566 40.7953 11.7333 39.7607 10.5258 37.9554C9.25771 36.0596 8.59978 34.9277 7.89109 32.8059C7.11483 30.4819 6.93055 29.0775 6.93141 26.6471C6.93229 24.182 7.09386 22.7467 7.92316 20.3945C8.88838 17.6567 9.52038 15.9032 11.4279 13.5995C13.2054 11.4528 14.7336 10.5804 17.1508 9.02337C19.3744 7.59106 20.8292 6.99384 23.4296 6.24417C26.1608 5.45675 27.8159 5.22916 30.6794 5.22318C33.5429 5.2172 35.192 5.45144 37.924 6.21391C40.5698 6.95233 42.0705 7.51545 44.322 8.96665C46.7612 10.5389 49.7557 13.7056 51.2124 16.07C51.8432 17.0939 53.0629 18.9848 53.8194 21.7022M44.3116 44.9178C47.2812 43.0671 48.6055 40.934 48.6055 40.934L46.9186 43.4067L44.3116 44.9178ZM53.8194 21.7022C54.47 24.7842 54.5907 25.2229 54.5907 25.2229L53.8194 21.7022Z" stroke="#1A1A1A" stroke-width="4"/>
<line x1="48.4977" y1="50.0005" x2="48.4977" y2="21.4172" stroke="#1A1A1A" stroke-width="5"/>
<path d="M99.6045 15.5197C99.6045 15.5197 97.0252 12.7226 94.8506 10.8521C92.676 8.98159 88.2934 7.07083 85.4431 6.21808C82.8122 5.43096 81.1925 5.29226 78.4213 5.29065C75.5598 5.28899 73.9074 5.50381 71.1749 6.27093C68.4425 7.03806 66.9375 7.69547 64.5902 9.17364C62.3555 10.581 61.1641 11.5381 59.5154 13.4971C57.723 15.6267 57.0606 17.0791 56.0745 19.6018C55.0163 22.3089 54.4861 23.9383 54.4716 26.8094C54.4591 29.2761 54.7805 30.6897 55.5965 33.0439C56.401 35.365 57.0423 36.6571 58.5537 38.67C59.9335 40.5076 60.9369 41.4136 62.7761 42.8868C64.5273 44.2896 65.5609 45.0852 67.6517 46.0356C70.7611 47.449 72.8467 47.6953 76.319 47.9127C79.8094 48.1312 81.8774 48.0105 85.235 47.1225C88.2986 46.3122 90.2316 45.8734 92.8027 44.1184C94.1155 43.2223 95.1573 42.5846 96.8442 40.7988M96.8442 40.7988C99.0719 38.0514 99.2496 37.7132 99.2496 37.7132C99.2496 37.7132 98.2403 39.1504 96.8442 40.7988Z" stroke="#1A1A1A" stroke-width="4"/>
</g>
<defs>
<filter id="filter0_d" x="0.898438" y="3.25659" width="104.175" height="54.7504" filterUnits="userSpaceOnUse" color-interpolation-filters="sRGB">
<feFlood flood-opacity="0" result="BackgroundImageFix"/>
<feColorMatrix in="SourceAlpha" type="matrix" values="0 0 0 0 0 0 0 0 0 0 0 0 0 0 0 0 0 0 127 0"/>
<feOffset dy="4"/>
<feGaussianBlur stdDeviation="2"/>
<feColorMatrix type="matrix" values="0 0 0 0 0 0 0 0 0 0 0 0 0 0 0 0 0 0 0.25 0"/>
<feBlend mode="normal" in2="BackgroundImageFix" result="effect1_dropShadow"/>
<feBlend mode="normal" in="SourceGraphic" in2="effect1_dropShadow" result="shape"/>
</filter>
</defs>
</svg>
