<svg width="338" height="363" viewBox="0 0 338 363" fill="none" xmlns="http://www.w3.org/2000/svg">
<rect x="96" y="162" width="211" height="52" fill="#00CE46"/>
<path d="M148.297 193L146.786 189.14H141.922L140.428 193H139L143.798 180.814H144.985L149.758 193H148.297ZM146.346 187.87L144.935 184.11C144.752 183.634 144.564 183.05 144.371 182.358C144.249 182.89 144.075 183.473 143.848 184.11L142.42 187.87H146.346ZM157.411 191.78H157.336C156.7 192.704 155.748 193.166 154.481 193.166C153.291 193.166 152.364 192.759 151.7 191.946C151.042 191.132 150.712 189.976 150.712 188.476C150.712 186.976 151.044 185.812 151.708 184.981C152.373 184.151 153.297 183.736 154.481 183.736C155.715 183.736 156.661 184.185 157.32 185.081H157.428L157.37 184.425L157.336 183.786V180.084H158.714V193H157.594L157.411 191.78ZM154.655 192.012C155.596 192.012 156.277 191.758 156.697 191.249C157.123 190.734 157.336 189.907 157.336 188.767V188.476C157.336 187.187 157.121 186.268 156.689 185.72C156.263 185.167 155.579 184.89 154.639 184.89C153.831 184.89 153.211 185.206 152.779 185.836C152.353 186.462 152.14 187.347 152.14 188.493C152.14 189.655 152.353 190.532 152.779 191.124C153.205 191.716 153.831 192.012 154.655 192.012ZM167.837 191.78H167.762C167.126 192.704 166.174 193.166 164.907 193.166C163.717 193.166 162.79 192.759 162.126 191.946C161.467 191.132 161.138 189.976 161.138 188.476C161.138 186.976 161.47 185.812 162.134 184.981C162.798 184.151 163.722 183.736 164.907 183.736C166.141 183.736 167.087 184.185 167.746 185.081H167.854L167.795 184.425L167.762 183.786V180.084H169.14V193H168.02L167.837 191.78ZM165.081 192.012C166.022 192.012 166.702 191.758 167.123 191.249C167.549 190.734 167.762 189.907 167.762 188.767V188.476C167.762 187.187 167.546 186.268 167.115 185.72C166.689 185.167 166.005 184.89 165.064 184.89C164.257 184.89 163.637 185.206 163.205 185.836C162.779 186.462 162.566 187.347 162.566 188.493C162.566 189.655 162.779 190.532 163.205 191.124C163.631 191.716 164.257 192.012 165.081 192.012ZM173.448 193H172.07V183.902H173.448V193ZM171.954 181.437C171.954 181.122 172.032 180.892 172.187 180.748C172.341 180.599 172.535 180.524 172.768 180.524C172.989 180.524 173.18 180.599 173.34 180.748C173.501 180.897 173.581 181.127 173.581 181.437C173.581 181.747 173.501 181.979 173.34 182.134C173.18 182.284 172.989 182.358 172.768 182.358C172.535 182.358 172.341 182.284 172.187 182.134C172.032 181.979 171.954 181.747 171.954 181.437ZM179.309 192.029C179.552 192.029 179.787 192.012 180.014 191.979C180.241 191.94 180.421 191.902 180.554 191.863V192.917C180.404 192.989 180.183 193.047 179.89 193.091C179.602 193.141 179.342 193.166 179.109 193.166C177.35 193.166 176.47 192.239 176.47 190.385V184.973H175.167V184.309L176.47 183.736L177.051 181.794H177.848V183.902H180.487V184.973H177.848V190.327C177.848 190.875 177.978 191.296 178.238 191.589C178.498 191.882 178.855 192.029 179.309 192.029ZM183.758 193H182.38V183.902H183.758V193ZM182.264 181.437C182.264 181.122 182.341 180.892 182.496 180.748C182.651 180.599 182.845 180.524 183.077 180.524C183.299 180.524 183.489 180.599 183.65 180.748C183.81 180.897 183.891 181.127 183.891 181.437C183.891 181.747 183.81 181.979 183.65 182.134C183.489 182.284 183.299 182.358 183.077 182.358C182.845 182.358 182.651 182.284 182.496 182.134C182.341 181.979 182.264 181.747 182.264 181.437ZM194.532 188.443C194.532 189.926 194.159 191.085 193.412 191.921C192.665 192.751 191.632 193.166 190.315 193.166C189.502 193.166 188.78 192.975 188.149 192.593C187.518 192.211 187.031 191.664 186.688 190.95C186.345 190.236 186.173 189.4 186.173 188.443C186.173 186.96 186.544 185.806 187.286 184.981C188.027 184.151 189.056 183.736 190.374 183.736C191.646 183.736 192.656 184.16 193.403 185.006C194.156 185.853 194.532 186.999 194.532 188.443ZM187.601 188.443C187.601 189.605 187.833 190.49 188.298 191.099C188.763 191.708 189.447 192.012 190.349 192.012C191.251 192.012 191.934 191.711 192.399 191.107C192.869 190.499 193.104 189.611 193.104 188.443C193.104 187.286 192.869 186.409 192.399 185.812C191.934 185.208 191.245 184.907 190.332 184.907C189.43 184.907 188.749 185.203 188.29 185.795C187.831 186.387 187.601 187.27 187.601 188.443ZM203.182 193V187.115C203.182 186.373 203.013 185.82 202.675 185.455C202.338 185.089 201.809 184.907 201.09 184.907C200.138 184.907 199.441 185.164 198.998 185.679C198.555 186.193 198.334 187.043 198.334 188.227V193H196.956V183.902H198.077L198.301 185.147H198.367C198.649 184.699 199.045 184.353 199.554 184.11C200.063 183.861 200.631 183.736 201.256 183.736C202.352 183.736 203.176 184.002 203.729 184.533C204.283 185.059 204.56 185.903 204.56 187.065V193H203.182ZM212.993 193L212.719 191.705H212.653C212.199 192.275 211.745 192.662 211.292 192.867C210.843 193.066 210.282 193.166 209.606 193.166C208.704 193.166 207.996 192.934 207.481 192.469C206.972 192.004 206.718 191.343 206.718 190.485C206.718 188.648 208.187 187.685 211.125 187.596L212.669 187.546V186.982C212.669 186.268 212.514 185.742 212.205 185.405C211.9 185.062 211.41 184.89 210.735 184.89C209.977 184.89 209.119 185.123 208.162 185.587L207.739 184.533C208.187 184.29 208.677 184.099 209.208 183.96C209.745 183.822 210.282 183.753 210.818 183.753C211.903 183.753 212.705 183.994 213.226 184.475C213.751 184.957 214.014 185.729 214.014 186.791V193H212.993ZM209.88 192.029C210.738 192.029 211.41 191.794 211.897 191.323C212.39 190.853 212.636 190.194 212.636 189.348V188.526L211.258 188.584C210.163 188.623 209.371 188.794 208.884 189.099C208.403 189.397 208.162 189.865 208.162 190.501C208.162 191 208.312 191.379 208.61 191.639C208.915 191.899 209.338 192.029 209.88 192.029ZM218.239 193H216.861V180.084H218.239V193ZM232.633 189.771C232.633 190.839 232.245 191.672 231.471 192.27C230.696 192.867 229.645 193.166 228.316 193.166C226.878 193.166 225.771 192.981 224.996 192.61V191.249C225.494 191.459 226.036 191.625 226.623 191.747C227.21 191.868 227.791 191.929 228.366 191.929C229.307 191.929 230.015 191.752 230.491 191.398C230.967 191.038 231.205 190.54 231.205 189.904C231.205 189.483 231.119 189.14 230.948 188.875C230.782 188.603 230.5 188.354 230.101 188.127C229.708 187.901 229.108 187.643 228.3 187.355C227.171 186.951 226.363 186.473 225.876 185.919C225.395 185.366 225.154 184.644 225.154 183.753C225.154 182.818 225.505 182.073 226.208 181.52C226.911 180.967 227.84 180.69 228.997 180.69C230.203 180.69 231.313 180.911 232.326 181.354L231.886 182.583C230.884 182.162 229.91 181.952 228.964 181.952C228.217 181.952 227.633 182.112 227.212 182.433C226.792 182.754 226.582 183.2 226.582 183.77C226.582 184.19 226.659 184.536 226.814 184.807C226.969 185.073 227.229 185.319 227.594 185.546C227.965 185.767 228.529 186.014 229.288 186.285C230.56 186.738 231.435 187.225 231.911 187.746C232.392 188.266 232.633 188.941 232.633 189.771ZM236.269 188.343C236.507 188.006 236.869 187.563 237.356 187.015L240.294 183.902H241.93L238.244 187.779L242.187 193H240.519L237.306 188.7L236.269 189.597V193H234.907V180.084H236.269V186.932C236.269 187.236 236.246 187.707 236.202 188.343H236.269ZM245.217 193H243.839V183.902H245.217V193ZM243.723 181.437C243.723 181.122 243.8 180.892 243.955 180.748C244.11 180.599 244.304 180.524 244.536 180.524C244.757 180.524 244.948 180.599 245.109 180.748C245.269 180.897 245.35 181.127 245.35 181.437C245.35 181.747 245.269 181.979 245.109 182.134C244.948 182.284 244.757 182.358 244.536 182.358C244.304 182.358 244.11 182.284 243.955 182.134C243.8 181.979 243.723 181.747 243.723 181.437ZM249.517 193H248.139V180.084H249.517V193ZM253.816 193H252.438V180.084H253.816V193ZM262.607 190.518C262.607 191.365 262.292 192.018 261.661 192.477C261.03 192.936 260.144 193.166 259.004 193.166C257.798 193.166 256.857 192.975 256.182 192.593V191.315C256.619 191.536 257.087 191.711 257.585 191.838C258.089 191.965 258.573 192.029 259.038 192.029C259.757 192.029 260.31 191.915 260.698 191.688C261.085 191.456 261.279 191.105 261.279 190.634C261.279 190.28 261.124 189.979 260.814 189.729C260.51 189.475 259.912 189.176 259.021 188.833C258.174 188.518 257.571 188.244 257.211 188.011C256.857 187.773 256.592 187.505 256.415 187.206C256.243 186.907 256.157 186.55 256.157 186.135C256.157 185.394 256.459 184.81 257.062 184.384C257.665 183.952 258.493 183.736 259.544 183.736C260.523 183.736 261.481 183.936 262.416 184.334L261.926 185.455C261.013 185.078 260.186 184.89 259.444 184.89C258.791 184.89 258.299 184.993 257.967 185.197C257.635 185.402 257.469 185.684 257.469 186.044C257.469 186.287 257.53 186.495 257.651 186.667C257.779 186.838 257.981 187.001 258.257 187.156C258.534 187.311 259.065 187.535 259.851 187.829C260.93 188.222 261.658 188.617 262.034 189.016C262.416 189.414 262.607 189.915 262.607 190.518Z" fill="white"/>
<line x1="112.5" y1="260.5" x2="112.5" y2="223.5" stroke="black" stroke-width="9" stroke-linecap="round"/>
<line x1="285.5" y1="262.5" x2="285.5" y2="261.5" stroke="black" stroke-width="9" stroke-linecap="round"/>
<line x1="251.5" y1="229.5" x2="251.5" y2="223.5" stroke="black" stroke-width="9" stroke-linecap="round"/>
<line x1="143.5" y1="303.5" x2="143.5" y2="302.5" stroke="black" stroke-width="9" stroke-linecap="round"/>
<line x1="112.5" y1="150.5" x2="112.5" y2="53.5" stroke="black" stroke-width="9" stroke-linecap="round"/>
<line x1="143.5" y1="150.5" x2="143.5" y2="81.5" stroke="black" stroke-width="9" stroke-linecap="round"/>
<line x1="210.5" y1="150.5" x2="210.5" y2="73.5" stroke="black" stroke-width="9" stroke-linecap="round"/>
<line x1="251.5" y1="150.5" x2="251.5" y2="53.5" stroke="black" stroke-width="9" stroke-linecap="round"/>
<line x1="285.5" y1="150.5" x2="285.5" y2="37.5" stroke="black" stroke-width="9" stroke-linecap="round"/>
<line x1="143" y1="276.504" x2="143" y2="223.496" stroke="black" stroke-width="9" stroke-linecap="round"/>
<line x1="210.5" y1="243.5" x2="210.5" y2="223.5" stroke="black" stroke-width="9" stroke-linecap="round"/>
<line x1="285.5" y1="229.5" x2="285.5" y2="223.5" stroke="black" stroke-width="9" stroke-linecap="round"/>
<path d="M181.094 252.578H182.523L178.406 264H177.094L173 252.578H174.406L177.031 259.969C177.333 260.818 177.573 261.643 177.75 262.445C177.938 261.602 178.182 260.76 178.484 259.922L181.094 252.578ZM185.203 264H183.906V255.438H185.203V264ZM183.797 253.117C183.797 252.82 183.87 252.604 184.016 252.469C184.161 252.328 184.344 252.258 184.562 252.258C184.771 252.258 184.951 252.328 185.102 252.469C185.253 252.609 185.328 252.826 185.328 253.117C185.328 253.409 185.253 253.628 185.102 253.773C184.951 253.914 184.771 253.984 184.562 253.984C184.344 253.984 184.161 253.914 184.016 253.773C183.87 253.628 183.797 253.409 183.797 253.117ZM193.781 262.852H193.711C193.112 263.721 192.216 264.156 191.023 264.156C189.904 264.156 189.031 263.773 188.406 263.008C187.786 262.242 187.477 261.154 187.477 259.742C187.477 258.331 187.789 257.234 188.414 256.453C189.039 255.672 189.909 255.281 191.023 255.281C192.185 255.281 193.076 255.703 193.695 256.547H193.797L193.742 255.93L193.711 255.328V251.844H195.008V264H193.953L193.781 262.852ZM191.188 263.07C192.073 263.07 192.714 262.831 193.109 262.352C193.51 261.867 193.711 261.089 193.711 260.016V259.742C193.711 258.529 193.508 257.664 193.102 257.148C192.701 256.628 192.057 256.367 191.172 256.367C190.411 256.367 189.828 256.664 189.422 257.258C189.021 257.846 188.82 258.68 188.82 259.758C188.82 260.852 189.021 261.677 189.422 262.234C189.823 262.792 190.411 263.07 191.188 263.07ZM201.383 264.156C200.117 264.156 199.117 263.771 198.383 263C197.654 262.229 197.289 261.159 197.289 259.789C197.289 258.409 197.628 257.312 198.305 256.5C198.987 255.688 199.901 255.281 201.047 255.281C202.12 255.281 202.969 255.635 203.594 256.344C204.219 257.047 204.531 257.977 204.531 259.133V259.953H198.633C198.659 260.958 198.911 261.721 199.391 262.242C199.875 262.763 200.555 263.023 201.43 263.023C202.352 263.023 203.263 262.831 204.164 262.445V263.602C203.706 263.799 203.271 263.94 202.859 264.023C202.453 264.112 201.961 264.156 201.383 264.156ZM201.031 256.367C200.344 256.367 199.794 256.591 199.383 257.039C198.977 257.487 198.737 258.107 198.664 258.898H203.141C203.141 258.081 202.958 257.456 202.594 257.023C202.229 256.586 201.708 256.367 201.031 256.367ZM214.141 259.711C214.141 261.107 213.789 262.198 213.086 262.984C212.383 263.766 211.411 264.156 210.172 264.156C209.406 264.156 208.727 263.977 208.133 263.617C207.539 263.258 207.081 262.742 206.758 262.07C206.435 261.398 206.273 260.612 206.273 259.711C206.273 258.315 206.622 257.229 207.32 256.453C208.018 255.672 208.987 255.281 210.227 255.281C211.424 255.281 212.375 255.68 213.078 256.477C213.786 257.273 214.141 258.352 214.141 259.711ZM207.617 259.711C207.617 260.805 207.836 261.638 208.273 262.211C208.711 262.784 209.354 263.07 210.203 263.07C211.052 263.07 211.695 262.786 212.133 262.219C212.576 261.646 212.797 260.81 212.797 259.711C212.797 258.622 212.576 257.797 212.133 257.234C211.695 256.667 211.047 256.383 210.188 256.383C209.339 256.383 208.698 256.661 208.266 257.219C207.833 257.776 207.617 258.607 207.617 259.711ZM177.797 286.156C176.557 286.156 175.596 285.776 174.914 285.016C174.237 284.25 173.898 283.169 173.898 281.773C173.898 280.341 174.242 279.234 174.93 278.453C175.622 277.672 176.607 277.281 177.883 277.281C178.294 277.281 178.706 277.326 179.117 277.414C179.529 277.503 179.852 277.607 180.086 277.727L179.688 278.828C179.401 278.714 179.089 278.62 178.75 278.547C178.411 278.469 178.112 278.43 177.852 278.43C176.112 278.43 175.242 279.539 175.242 281.758C175.242 282.81 175.453 283.617 175.875 284.18C176.302 284.742 176.932 285.023 177.766 285.023C178.479 285.023 179.211 284.87 179.961 284.562V285.711C179.388 286.008 178.667 286.156 177.797 286.156ZM189.391 281.711C189.391 283.107 189.039 284.198 188.336 284.984C187.633 285.766 186.661 286.156 185.422 286.156C184.656 286.156 183.977 285.977 183.383 285.617C182.789 285.258 182.331 284.742 182.008 284.07C181.685 283.398 181.523 282.612 181.523 281.711C181.523 280.315 181.872 279.229 182.57 278.453C183.268 277.672 184.237 277.281 185.477 277.281C186.674 277.281 187.625 277.68 188.328 278.477C189.036 279.273 189.391 280.352 189.391 281.711ZM182.867 281.711C182.867 282.805 183.086 283.638 183.523 284.211C183.961 284.784 184.604 285.07 185.453 285.07C186.302 285.07 186.945 284.786 187.383 284.219C187.826 283.646 188.047 282.81 188.047 281.711C188.047 280.622 187.826 279.797 187.383 279.234C186.945 278.667 186.297 278.383 185.438 278.383C184.589 278.383 183.948 278.661 183.516 279.219C183.083 279.776 182.867 280.607 182.867 281.711ZM197.531 286V280.461C197.531 279.763 197.372 279.242 197.055 278.898C196.737 278.555 196.24 278.383 195.562 278.383C194.667 278.383 194.01 278.625 193.594 279.109C193.177 279.594 192.969 280.393 192.969 281.508V286H191.672V277.438H192.727L192.938 278.609H193C193.266 278.188 193.638 277.862 194.117 277.633C194.596 277.398 195.13 277.281 195.719 277.281C196.75 277.281 197.526 277.531 198.047 278.031C198.568 278.526 198.828 279.32 198.828 280.414V286H197.531ZM204.266 285.086C204.495 285.086 204.716 285.07 204.93 285.039C205.143 285.003 205.312 284.966 205.438 284.93V285.922C205.297 285.99 205.089 286.044 204.812 286.086C204.542 286.133 204.297 286.156 204.078 286.156C202.422 286.156 201.594 285.284 201.594 283.539V278.445H200.367V277.82L201.594 277.281L202.141 275.453H202.891V277.438H205.375V278.445H202.891V283.484C202.891 284 203.013 284.396 203.258 284.672C203.503 284.948 203.839 285.086 204.266 285.086ZM210.773 286.156C209.508 286.156 208.508 285.771 207.773 285C207.044 284.229 206.68 283.159 206.68 281.789C206.68 280.409 207.018 279.312 207.695 278.5C208.378 277.688 209.292 277.281 210.438 277.281C211.51 277.281 212.359 277.635 212.984 278.344C213.609 279.047 213.922 279.977 213.922 281.133V281.953H208.023C208.049 282.958 208.302 283.721 208.781 284.242C209.266 284.763 209.945 285.023 210.82 285.023C211.742 285.023 212.654 284.831 213.555 284.445V285.602C213.096 285.799 212.661 285.94 212.25 286.023C211.844 286.112 211.352 286.156 210.773 286.156ZM210.422 278.367C209.734 278.367 209.185 278.591 208.773 279.039C208.367 279.487 208.128 280.107 208.055 280.898H212.531C212.531 280.081 212.349 279.456 211.984 279.023C211.62 278.586 211.099 278.367 210.422 278.367ZM222 286V280.461C222 279.763 221.841 279.242 221.523 278.898C221.206 278.555 220.708 278.383 220.031 278.383C219.135 278.383 218.479 278.625 218.062 279.109C217.646 279.594 217.438 280.393 217.438 281.508V286H216.141V277.438H217.195L217.406 278.609H217.469C217.734 278.188 218.107 277.862 218.586 277.633C219.065 277.398 219.599 277.281 220.188 277.281C221.219 277.281 221.995 277.531 222.516 278.031C223.036 278.526 223.297 279.32 223.297 280.414V286H222ZM228.734 285.086C228.964 285.086 229.185 285.07 229.398 285.039C229.612 285.003 229.781 284.966 229.906 284.93V285.922C229.766 285.99 229.557 286.044 229.281 286.086C229.01 286.133 228.766 286.156 228.547 286.156C226.891 286.156 226.062 285.284 226.062 283.539V278.445H224.836V277.82L226.062 277.281L226.609 275.453H227.359V277.438H229.844V278.445H227.359V283.484C227.359 284 227.482 284.396 227.727 284.672C227.971 284.948 228.307 285.086 228.734 285.086ZM181.812 299.906C181.812 301.062 181.417 301.953 180.625 302.578C179.839 303.198 178.711 303.508 177.242 303.508H175.898V308H174.57V296.578H177.531C180.385 296.578 181.812 297.688 181.812 299.906ZM175.898 302.367H177.094C178.271 302.367 179.122 302.177 179.648 301.797C180.174 301.417 180.438 300.807 180.438 299.969C180.438 299.214 180.19 298.651 179.695 298.281C179.201 297.911 178.43 297.727 177.383 297.727H175.898V302.367ZM187.922 299.281C188.302 299.281 188.643 299.312 188.945 299.375L188.766 300.578C188.411 300.5 188.099 300.461 187.828 300.461C187.135 300.461 186.542 300.742 186.047 301.305C185.557 301.867 185.312 302.568 185.312 303.406V308H184.016V299.438H185.086L185.234 301.023H185.297C185.615 300.466 185.997 300.036 186.445 299.734C186.893 299.432 187.385 299.281 187.922 299.281ZM197.938 303.711C197.938 305.107 197.586 306.198 196.883 306.984C196.18 307.766 195.208 308.156 193.969 308.156C193.203 308.156 192.523 307.977 191.93 307.617C191.336 307.258 190.878 306.742 190.555 306.07C190.232 305.398 190.07 304.612 190.07 303.711C190.07 302.315 190.419 301.229 191.117 300.453C191.815 299.672 192.784 299.281 194.023 299.281C195.221 299.281 196.172 299.68 196.875 300.477C197.583 301.273 197.938 302.352 197.938 303.711ZM191.414 303.711C191.414 304.805 191.633 305.638 192.07 306.211C192.508 306.784 193.151 307.07 194 307.07C194.849 307.07 195.492 306.786 195.93 306.219C196.372 305.646 196.594 304.81 196.594 303.711C196.594 302.622 196.372 301.797 195.93 301.234C195.492 300.667 194.844 300.383 193.984 300.383C193.135 300.383 192.495 300.661 192.062 301.219C191.63 301.776 191.414 302.607 191.414 303.711ZM206.047 306.852H205.977C205.378 307.721 204.482 308.156 203.289 308.156C202.169 308.156 201.297 307.773 200.672 307.008C200.052 306.242 199.742 305.154 199.742 303.742C199.742 302.331 200.055 301.234 200.68 300.453C201.305 299.672 202.174 299.281 203.289 299.281C204.451 299.281 205.341 299.703 205.961 300.547H206.062L206.008 299.93L205.977 299.328V295.844H207.273V308H206.219L206.047 306.852ZM203.453 307.07C204.339 307.07 204.979 306.831 205.375 306.352C205.776 305.867 205.977 305.089 205.977 304.016V303.742C205.977 302.529 205.773 301.664 205.367 301.148C204.966 300.628 204.323 300.367 203.438 300.367C202.677 300.367 202.094 300.664 201.688 301.258C201.286 301.846 201.086 302.68 201.086 303.758C201.086 304.852 201.286 305.677 201.688 306.234C202.089 306.792 202.677 307.07 203.453 307.07ZM211.25 299.438V304.992C211.25 305.69 211.409 306.211 211.727 306.555C212.044 306.898 212.542 307.07 213.219 307.07C214.115 307.07 214.768 306.826 215.18 306.336C215.596 305.846 215.805 305.047 215.805 303.938V299.438H217.102V308H216.031L215.844 306.852H215.773C215.508 307.273 215.138 307.596 214.664 307.82C214.195 308.044 213.659 308.156 213.055 308.156C212.013 308.156 211.232 307.909 210.711 307.414C210.195 306.919 209.938 306.128 209.938 305.039V299.438H211.25ZM223.281 308.156C222.042 308.156 221.081 307.776 220.398 307.016C219.721 306.25 219.383 305.169 219.383 303.773C219.383 302.341 219.727 301.234 220.414 300.453C221.107 299.672 222.091 299.281 223.367 299.281C223.779 299.281 224.19 299.326 224.602 299.414C225.013 299.503 225.336 299.607 225.57 299.727L225.172 300.828C224.885 300.714 224.573 300.62 224.234 300.547C223.896 300.469 223.596 300.43 223.336 300.43C221.596 300.43 220.727 301.539 220.727 303.758C220.727 304.81 220.938 305.617 221.359 306.18C221.786 306.742 222.417 307.023 223.25 307.023C223.964 307.023 224.695 306.87 225.445 306.562V307.711C224.872 308.008 224.151 308.156 223.281 308.156ZM230.25 307.086C230.479 307.086 230.701 307.07 230.914 307.039C231.128 307.003 231.297 306.966 231.422 306.93V307.922C231.281 307.99 231.073 308.044 230.797 308.086C230.526 308.133 230.281 308.156 230.062 308.156C228.406 308.156 227.578 307.284 227.578 305.539V300.445H226.352V299.82L227.578 299.281L228.125 297.453H228.875V299.438H231.359V300.445H228.875V305.484C228.875 306 228.997 306.396 229.242 306.672C229.487 306.948 229.823 307.086 230.25 307.086ZM234.438 308H233.141V299.438H234.438V308ZM233.031 297.117C233.031 296.82 233.104 296.604 233.25 296.469C233.396 296.328 233.578 296.258 233.797 296.258C234.005 296.258 234.185 296.328 234.336 296.469C234.487 296.609 234.562 296.826 234.562 297.117C234.562 297.409 234.487 297.628 234.336 297.773C234.185 297.914 234.005 297.984 233.797 297.984C233.578 297.984 233.396 297.914 233.25 297.773C233.104 297.628 233.031 297.409 233.031 297.117ZM244.578 303.711C244.578 305.107 244.227 306.198 243.523 306.984C242.82 307.766 241.849 308.156 240.609 308.156C239.844 308.156 239.164 307.977 238.57 307.617C237.977 307.258 237.518 306.742 237.195 306.07C236.872 305.398 236.711 304.612 236.711 303.711C236.711 302.315 237.06 301.229 237.758 300.453C238.456 299.672 239.424 299.281 240.664 299.281C241.862 299.281 242.812 299.68 243.516 300.477C244.224 301.273 244.578 302.352 244.578 303.711ZM238.055 303.711C238.055 304.805 238.273 305.638 238.711 306.211C239.148 306.784 239.792 307.07 240.641 307.07C241.49 307.07 242.133 306.786 242.57 306.219C243.013 305.646 243.234 304.81 243.234 303.711C243.234 302.622 243.013 301.797 242.57 301.234C242.133 300.667 241.484 300.383 240.625 300.383C239.776 300.383 239.135 300.661 238.703 301.219C238.271 301.776 238.055 302.607 238.055 303.711ZM252.719 308V302.461C252.719 301.763 252.56 301.242 252.242 300.898C251.924 300.555 251.427 300.383 250.75 300.383C249.854 300.383 249.198 300.625 248.781 301.109C248.365 301.594 248.156 302.393 248.156 303.508V308H246.859V299.438H247.914L248.125 300.609H248.188C248.453 300.188 248.826 299.862 249.305 299.633C249.784 299.398 250.318 299.281 250.906 299.281C251.938 299.281 252.714 299.531 253.234 300.031C253.755 300.526 254.016 301.32 254.016 302.414V308H252.719Z" fill="black"/>
<path d="M223.276 248V238.72H224.355V247.022H228.449V248H223.276ZM232.81 248.127C231.782 248.127 230.969 247.814 230.373 247.188C229.78 246.561 229.484 245.692 229.484 244.579C229.484 243.457 229.759 242.566 230.309 241.906C230.863 241.246 231.606 240.916 232.537 240.916C233.409 240.916 234.099 241.204 234.606 241.779C235.114 242.351 235.368 243.106 235.368 244.045V244.712H230.576C230.597 245.529 230.802 246.149 231.191 246.572C231.585 246.995 232.137 247.207 232.848 247.207C233.597 247.207 234.338 247.05 235.07 246.737V247.676C234.697 247.837 234.344 247.951 234.01 248.019C233.68 248.091 233.28 248.127 232.81 248.127ZM232.524 241.798C231.966 241.798 231.519 241.98 231.185 242.344C230.855 242.708 230.66 243.212 230.601 243.855H234.238C234.238 243.191 234.09 242.683 233.794 242.332C233.498 241.976 233.075 241.798 232.524 241.798ZM241.449 248L241.24 247.01H241.189C240.842 247.446 240.495 247.742 240.148 247.898C239.805 248.051 239.376 248.127 238.859 248.127C238.17 248.127 237.628 247.949 237.234 247.594C236.845 247.238 236.65 246.733 236.65 246.077C236.65 244.672 237.774 243.935 240.021 243.868L241.202 243.83V243.398C241.202 242.852 241.083 242.45 240.846 242.192C240.613 241.93 240.239 241.798 239.723 241.798C239.143 241.798 238.487 241.976 237.755 242.332L237.431 241.525C237.774 241.339 238.148 241.193 238.555 241.087C238.965 240.982 239.376 240.929 239.786 240.929C240.616 240.929 241.229 241.113 241.627 241.481C242.029 241.849 242.23 242.439 242.23 243.252V248H241.449ZM239.069 247.257C239.725 247.257 240.239 247.077 240.611 246.718C240.988 246.358 241.176 245.854 241.176 245.207V244.579L240.123 244.623C239.285 244.653 238.68 244.784 238.307 245.017C237.939 245.245 237.755 245.603 237.755 246.089C237.755 246.47 237.869 246.76 238.098 246.959C238.33 247.158 238.654 247.257 239.069 247.257ZM249.143 247.067H249.085C248.599 247.774 247.871 248.127 246.902 248.127C245.992 248.127 245.283 247.816 244.775 247.194C244.272 246.572 244.02 245.687 244.02 244.541C244.02 243.394 244.274 242.503 244.782 241.868C245.29 241.233 245.996 240.916 246.902 240.916C247.846 240.916 248.569 241.259 249.073 241.944H249.155L249.111 241.443L249.085 240.954V238.123H250.139V248H249.282L249.143 247.067ZM247.035 247.245C247.755 247.245 248.275 247.05 248.597 246.661C248.923 246.267 249.085 245.634 249.085 244.763V244.541C249.085 243.555 248.92 242.852 248.59 242.433C248.264 242.01 247.742 241.798 247.022 241.798C246.405 241.798 245.931 242.04 245.601 242.522C245.275 243 245.112 243.677 245.112 244.553C245.112 245.442 245.275 246.113 245.601 246.565C245.926 247.018 246.405 247.245 247.035 247.245ZM255.319 248.127C254.291 248.127 253.478 247.814 252.881 247.188C252.289 246.561 251.993 245.692 251.993 244.579C251.993 243.457 252.268 242.566 252.818 241.906C253.372 241.246 254.115 240.916 255.046 240.916C255.918 240.916 256.607 241.204 257.115 241.779C257.623 242.351 257.877 243.106 257.877 244.045V244.712H253.084C253.106 245.529 253.311 246.149 253.7 246.572C254.094 246.995 254.646 247.207 255.357 247.207C256.106 247.207 256.847 247.05 257.579 246.737V247.676C257.206 247.837 256.853 247.951 256.519 248.019C256.188 248.091 255.789 248.127 255.319 248.127ZM255.033 241.798C254.475 241.798 254.028 241.98 253.694 242.344C253.364 242.708 253.169 243.212 253.11 243.855H256.747C256.747 243.191 256.599 242.683 256.303 242.332C256.007 241.976 255.583 241.798 255.033 241.798ZM262.854 240.916C263.162 240.916 263.44 240.941 263.685 240.992L263.539 241.97C263.251 241.906 262.997 241.875 262.777 241.875C262.215 241.875 261.732 242.103 261.33 242.56C260.932 243.017 260.733 243.586 260.733 244.268V248H259.68V241.043H260.549L260.67 242.332H260.721C260.979 241.879 261.29 241.53 261.654 241.284C262.018 241.039 262.418 240.916 262.854 240.916ZM269.474 246.102C269.474 246.75 269.233 247.249 268.75 247.6C268.268 247.951 267.591 248.127 266.719 248.127C265.797 248.127 265.077 247.981 264.561 247.689V246.711C264.895 246.881 265.253 247.014 265.634 247.111C266.019 247.209 266.389 247.257 266.745 247.257C267.295 247.257 267.718 247.171 268.014 246.997C268.31 246.819 268.458 246.551 268.458 246.191C268.458 245.92 268.34 245.689 268.103 245.499C267.87 245.304 267.413 245.076 266.732 244.813C266.084 244.572 265.623 244.363 265.348 244.185C265.077 244.003 264.874 243.798 264.739 243.569C264.608 243.341 264.542 243.068 264.542 242.75C264.542 242.183 264.773 241.737 265.234 241.411C265.695 241.081 266.328 240.916 267.132 240.916C267.881 240.916 268.613 241.068 269.328 241.373L268.954 242.23C268.255 241.942 267.623 241.798 267.056 241.798C266.556 241.798 266.18 241.877 265.926 242.033C265.672 242.19 265.545 242.406 265.545 242.681C265.545 242.867 265.591 243.026 265.685 243.157C265.782 243.288 265.936 243.413 266.148 243.531C266.36 243.65 266.766 243.821 267.367 244.045C268.192 244.346 268.748 244.648 269.036 244.953C269.328 245.258 269.474 245.641 269.474 246.102ZM275.955 248V243.5C275.955 242.932 275.826 242.509 275.568 242.23C275.31 241.951 274.906 241.811 274.355 241.811C273.623 241.811 273.088 242.01 272.75 242.408C272.415 242.806 272.248 243.457 272.248 244.363V248H271.194V238.123H272.248V241.113C272.248 241.472 272.231 241.771 272.197 242.008H272.261C272.468 241.674 272.762 241.411 273.143 241.221C273.528 241.026 273.966 240.929 274.457 240.929C275.308 240.929 275.944 241.132 276.368 241.538C276.795 241.94 277.009 242.581 277.009 243.461V248H275.955ZM280.233 248H279.18V241.043H280.233V248ZM279.091 239.158C279.091 238.917 279.15 238.741 279.269 238.631C279.387 238.517 279.535 238.459 279.713 238.459C279.882 238.459 280.028 238.517 280.151 238.631C280.274 238.745 280.335 238.921 280.335 239.158C280.335 239.395 280.274 239.572 280.151 239.691C280.028 239.805 279.882 239.862 279.713 239.862C279.535 239.862 279.387 239.805 279.269 239.691C279.15 239.572 279.091 239.395 279.091 239.158ZM285.705 248.127C285.252 248.127 284.838 248.044 284.461 247.879C284.089 247.71 283.775 247.452 283.521 247.105H283.445C283.496 247.511 283.521 247.896 283.521 248.26V251.123H282.468V241.043H283.325L283.471 241.995H283.521C283.792 241.614 284.108 241.339 284.467 241.17C284.827 241.001 285.24 240.916 285.705 240.916C286.628 240.916 287.339 241.231 287.838 241.862C288.341 242.492 288.593 243.377 288.593 244.515C288.593 245.658 288.337 246.546 287.825 247.181C287.317 247.812 286.611 248.127 285.705 248.127ZM285.553 241.811C284.842 241.811 284.328 242.008 284.01 242.401C283.693 242.795 283.53 243.421 283.521 244.28V244.515C283.521 245.493 283.684 246.193 284.01 246.616C284.336 247.035 284.859 247.245 285.578 247.245C286.179 247.245 286.649 247.001 286.987 246.515C287.33 246.028 287.501 245.357 287.501 244.502C287.501 243.635 287.33 242.971 286.987 242.509C286.649 242.044 286.171 241.811 285.553 241.811Z" fill="black"/>
<path d="M246.25 273.551C245.23 273.551 244.424 273.892 243.831 274.573C243.243 275.25 242.949 276.179 242.949 277.36C242.949 278.574 243.232 279.514 243.799 280.178C244.371 280.838 245.183 281.168 246.237 281.168C246.884 281.168 247.623 281.052 248.452 280.819V281.765C247.809 282.006 247.015 282.127 246.072 282.127C244.705 282.127 243.649 281.712 242.904 280.883C242.164 280.053 241.793 278.875 241.793 277.347C241.793 276.391 241.971 275.553 242.327 274.833C242.686 274.114 243.203 273.56 243.875 273.17C244.553 272.781 245.348 272.586 246.262 272.586C247.236 272.586 248.086 272.764 248.814 273.12L248.357 274.046C247.654 273.716 246.952 273.551 246.25 273.551ZM256.323 278.515C256.323 279.649 256.038 280.536 255.466 281.175C254.895 281.81 254.106 282.127 253.099 282.127C252.477 282.127 251.924 281.981 251.442 281.689C250.959 281.397 250.587 280.978 250.325 280.432C250.062 279.886 249.931 279.247 249.931 278.515C249.931 277.381 250.215 276.499 250.782 275.868C251.349 275.233 252.136 274.916 253.143 274.916C254.116 274.916 254.889 275.24 255.46 275.887C256.035 276.535 256.323 277.411 256.323 278.515ZM251.023 278.515C251.023 279.404 251.201 280.081 251.556 280.546C251.912 281.012 252.434 281.245 253.124 281.245C253.814 281.245 254.336 281.014 254.692 280.553C255.052 280.087 255.231 279.408 255.231 278.515C255.231 277.631 255.052 276.96 254.692 276.503C254.336 276.042 253.81 275.811 253.111 275.811C252.422 275.811 251.901 276.037 251.55 276.49C251.199 276.943 251.023 277.618 251.023 278.515ZM267.044 282V277.474C267.044 276.92 266.926 276.505 266.689 276.23C266.452 275.951 266.084 275.811 265.584 275.811C264.929 275.811 264.444 275.999 264.131 276.376C263.818 276.753 263.661 277.332 263.661 278.115V282H262.607V277.474C262.607 276.92 262.489 276.505 262.252 276.23C262.015 275.951 261.645 275.811 261.141 275.811C260.481 275.811 259.996 276.01 259.688 276.408C259.383 276.801 259.23 277.449 259.23 278.35V282H258.177V275.043H259.034L259.205 275.995H259.256C259.455 275.657 259.734 275.392 260.094 275.202C260.458 275.011 260.864 274.916 261.312 274.916C262.4 274.916 263.111 275.31 263.445 276.097H263.496C263.703 275.733 264.004 275.445 264.397 275.233C264.791 275.022 265.24 274.916 265.743 274.916C266.53 274.916 267.118 275.119 267.508 275.525C267.901 275.927 268.098 276.573 268.098 277.461V282H267.044ZM279.143 282V277.474C279.143 276.92 279.025 276.505 278.788 276.23C278.551 275.951 278.182 275.811 277.683 275.811C277.027 275.811 276.543 275.999 276.229 276.376C275.916 276.753 275.76 277.332 275.76 278.115V282H274.706V277.474C274.706 276.92 274.588 276.505 274.351 276.23C274.114 275.951 273.743 275.811 273.24 275.811C272.58 275.811 272.095 276.01 271.786 276.408C271.481 276.801 271.329 277.449 271.329 278.35V282H270.275V275.043H271.132L271.304 275.995H271.354C271.553 275.657 271.833 275.392 272.192 275.202C272.556 275.011 272.963 274.916 273.411 274.916C274.499 274.916 275.21 275.31 275.544 276.097H275.595C275.802 275.733 276.103 275.445 276.496 275.233C276.89 275.022 277.338 274.916 277.842 274.916C278.629 274.916 279.217 275.119 279.606 275.525C280 275.927 280.197 276.573 280.197 277.461V282H279.143ZM283.364 275.043V279.556C283.364 280.123 283.493 280.546 283.751 280.826C284.01 281.105 284.414 281.245 284.964 281.245C285.692 281.245 286.223 281.046 286.557 280.648C286.896 280.25 287.065 279.601 287.065 278.699V275.043H288.119V282H287.249L287.097 281.067H287.04C286.824 281.41 286.523 281.672 286.138 281.854C285.757 282.036 285.321 282.127 284.831 282.127C283.984 282.127 283.349 281.926 282.926 281.524C282.507 281.122 282.298 280.479 282.298 279.594V275.043H283.364ZM295.12 282V277.5C295.12 276.932 294.991 276.509 294.733 276.23C294.475 275.951 294.071 275.811 293.521 275.811C292.793 275.811 292.259 276.008 291.921 276.401C291.582 276.795 291.413 277.444 291.413 278.35V282H290.359V275.043H291.216L291.388 275.995H291.438C291.654 275.652 291.957 275.388 292.346 275.202C292.736 275.011 293.169 274.916 293.647 274.916C294.485 274.916 295.116 275.119 295.539 275.525C295.962 275.927 296.174 276.573 296.174 277.461V282H295.12ZM299.398 282H298.345V275.043H299.398V282ZM298.256 273.158C298.256 272.917 298.315 272.741 298.434 272.631C298.552 272.517 298.7 272.459 298.878 272.459C299.047 272.459 299.193 272.517 299.316 272.631C299.439 272.745 299.5 272.921 299.5 273.158C299.5 273.395 299.439 273.572 299.316 273.691C299.193 273.805 299.047 273.862 298.878 273.862C298.7 273.862 298.552 273.805 298.434 273.691C298.315 273.572 298.256 273.395 298.256 273.158ZM304.413 282.127C303.406 282.127 302.625 281.818 302.071 281.2C301.521 280.578 301.246 279.7 301.246 278.566C301.246 277.402 301.525 276.503 302.083 275.868C302.646 275.233 303.446 274.916 304.483 274.916C304.817 274.916 305.152 274.952 305.486 275.024C305.82 275.096 306.083 275.181 306.273 275.278L305.949 276.173C305.716 276.08 305.463 276.004 305.188 275.944C304.912 275.881 304.669 275.849 304.458 275.849C303.044 275.849 302.337 276.75 302.337 278.553C302.337 279.408 302.509 280.064 302.852 280.521C303.199 280.978 303.711 281.207 304.388 281.207C304.967 281.207 305.562 281.082 306.171 280.832V281.765C305.706 282.006 305.12 282.127 304.413 282.127ZM312.106 282L311.897 281.01H311.846C311.499 281.446 311.152 281.742 310.805 281.898C310.462 282.051 310.033 282.127 309.517 282.127C308.827 282.127 308.285 281.949 307.892 281.594C307.502 281.238 307.308 280.733 307.308 280.077C307.308 278.672 308.431 277.935 310.678 277.868L311.859 277.83V277.398C311.859 276.852 311.74 276.45 311.503 276.192C311.271 275.93 310.896 275.798 310.38 275.798C309.8 275.798 309.144 275.976 308.412 276.332L308.088 275.525C308.431 275.339 308.806 275.193 309.212 275.087C309.622 274.982 310.033 274.929 310.443 274.929C311.273 274.929 311.886 275.113 312.284 275.481C312.686 275.849 312.887 276.439 312.887 277.252V282H312.106ZM309.726 281.257C310.382 281.257 310.896 281.077 311.269 280.718C311.645 280.358 311.833 279.854 311.833 279.207V278.579L310.78 278.623C309.942 278.653 309.337 278.784 308.964 279.017C308.596 279.245 308.412 279.603 308.412 280.089C308.412 280.47 308.526 280.76 308.755 280.959C308.988 281.158 309.311 281.257 309.726 281.257ZM317.312 281.257C317.498 281.257 317.678 281.245 317.851 281.219C318.025 281.19 318.162 281.16 318.264 281.13V281.937C318.149 281.992 317.98 282.036 317.756 282.07C317.536 282.108 317.337 282.127 317.159 282.127C315.813 282.127 315.141 281.418 315.141 280V275.862H314.144V275.354L315.141 274.916L315.585 273.431H316.194V275.043H318.213V275.862H316.194V279.956C316.194 280.375 316.294 280.697 316.493 280.921C316.692 281.145 316.965 281.257 317.312 281.257ZM320.714 282H319.66V275.043H320.714V282ZM319.571 273.158C319.571 272.917 319.631 272.741 319.749 272.631C319.868 272.517 320.016 272.459 320.193 272.459C320.363 272.459 320.509 272.517 320.631 272.631C320.754 272.745 320.815 272.921 320.815 273.158C320.815 273.395 320.754 273.572 320.631 273.691C320.509 273.805 320.363 273.862 320.193 273.862C320.016 273.862 319.868 273.805 319.749 273.691C319.631 273.572 319.571 273.395 319.571 273.158ZM328.953 278.515C328.953 279.649 328.667 280.536 328.096 281.175C327.525 281.81 326.736 282.127 325.729 282.127C325.106 282.127 324.554 281.981 324.072 281.689C323.589 281.397 323.217 280.978 322.955 280.432C322.692 279.886 322.561 279.247 322.561 278.515C322.561 277.381 322.845 276.499 323.412 275.868C323.979 275.233 324.766 274.916 325.773 274.916C326.746 274.916 327.519 275.24 328.09 275.887C328.665 276.535 328.953 277.411 328.953 278.515ZM323.653 278.515C323.653 279.404 323.831 280.081 324.186 280.546C324.542 281.012 325.064 281.245 325.754 281.245C326.444 281.245 326.966 281.014 327.322 280.553C327.681 280.087 327.861 279.408 327.861 278.515C327.861 277.631 327.681 276.96 327.322 276.503C326.966 276.042 326.439 275.811 325.741 275.811C325.051 275.811 324.531 276.037 324.18 276.49C323.828 276.943 323.653 277.618 323.653 278.515ZM335.567 282V277.5C335.567 276.932 335.438 276.509 335.18 276.23C334.922 275.951 334.518 275.811 333.968 275.811C333.24 275.811 332.707 276.008 332.368 276.401C332.03 276.795 331.86 277.444 331.86 278.35V282H330.807V275.043H331.664L331.835 275.995H331.886C332.102 275.652 332.404 275.388 332.793 275.202C333.183 275.011 333.617 274.916 334.095 274.916C334.933 274.916 335.563 275.119 335.986 275.525C336.41 275.927 336.621 276.573 336.621 277.461V282H335.567Z" fill="black"/>
<path d="M127.117 315.723H128.904L123.758 330H122.117L117 315.723H118.758L122.039 324.961C122.417 326.022 122.716 327.054 122.938 328.057C123.172 327.002 123.478 325.951 123.855 324.902L127.117 315.723ZM132.254 330H130.633V319.297H132.254V330ZM130.496 316.396C130.496 316.025 130.587 315.755 130.77 315.586C130.952 315.41 131.18 315.322 131.453 315.322C131.714 315.322 131.938 315.41 132.127 315.586C132.316 315.762 132.41 316.032 132.41 316.396C132.41 316.761 132.316 317.035 132.127 317.217C131.938 317.393 131.714 317.48 131.453 317.48C131.18 317.48 130.952 317.393 130.77 317.217C130.587 317.035 130.496 316.761 130.496 316.396ZM142.977 328.564H142.889C142.14 329.652 141.02 330.195 139.529 330.195C138.13 330.195 137.039 329.717 136.258 328.76C135.483 327.803 135.096 326.442 135.096 324.678C135.096 322.913 135.486 321.543 136.268 320.566C137.049 319.59 138.136 319.102 139.529 319.102C140.981 319.102 142.094 319.629 142.869 320.684H142.996L142.928 319.912L142.889 319.16V314.805H144.51V330H143.191L142.977 328.564ZM139.734 328.838C140.841 328.838 141.642 328.538 142.137 327.939C142.638 327.334 142.889 326.361 142.889 325.02V324.678C142.889 323.161 142.635 322.08 142.127 321.436C141.626 320.785 140.822 320.459 139.715 320.459C138.764 320.459 138.035 320.83 137.527 321.572C137.026 322.308 136.775 323.35 136.775 324.697C136.775 326.064 137.026 327.096 137.527 327.793C138.029 328.49 138.764 328.838 139.734 328.838ZM152.479 330.195C150.896 330.195 149.646 329.714 148.729 328.75C147.817 327.786 147.361 326.449 147.361 324.736C147.361 323.011 147.785 321.641 148.631 320.625C149.484 319.609 150.626 319.102 152.059 319.102C153.4 319.102 154.461 319.544 155.242 320.43C156.023 321.309 156.414 322.471 156.414 323.916V324.941H149.041C149.074 326.198 149.389 327.152 149.988 327.803C150.594 328.454 151.443 328.779 152.537 328.779C153.689 328.779 154.829 328.538 155.955 328.057V329.502C155.382 329.749 154.839 329.925 154.324 330.029C153.816 330.14 153.201 330.195 152.479 330.195ZM152.039 320.459C151.18 320.459 150.493 320.739 149.979 321.299C149.471 321.859 149.171 322.633 149.08 323.623H154.676C154.676 322.601 154.448 321.82 153.992 321.279C153.536 320.732 152.885 320.459 152.039 320.459ZM168.426 324.639C168.426 326.383 167.986 327.747 167.107 328.73C166.229 329.707 165.014 330.195 163.465 330.195C162.508 330.195 161.658 329.971 160.916 329.521C160.174 329.072 159.601 328.428 159.197 327.588C158.794 326.748 158.592 325.765 158.592 324.639C158.592 322.894 159.028 321.536 159.9 320.566C160.773 319.59 161.984 319.102 163.533 319.102C165.031 319.102 166.219 319.6 167.098 320.596C167.983 321.592 168.426 322.939 168.426 324.639ZM160.271 324.639C160.271 326.006 160.545 327.048 161.092 327.764C161.639 328.48 162.443 328.838 163.504 328.838C164.565 328.838 165.369 328.483 165.916 327.773C166.469 327.057 166.746 326.012 166.746 324.639C166.746 323.278 166.469 322.246 165.916 321.543C165.369 320.833 164.559 320.479 163.484 320.479C162.423 320.479 161.622 320.827 161.082 321.523C160.542 322.22 160.271 323.258 160.271 324.639ZM126.922 357H118.963V342.723H126.922V344.197H120.623V348.797H126.541V350.262H120.623V355.516H126.922V357ZM137.137 355.564H137.049C136.3 356.652 135.18 357.195 133.689 357.195C132.29 357.195 131.199 356.717 130.418 355.76C129.643 354.803 129.256 353.442 129.256 351.678C129.256 349.913 129.646 348.543 130.428 347.566C131.209 346.59 132.296 346.102 133.689 346.102C135.141 346.102 136.255 346.629 137.029 347.684H137.156L137.088 346.912L137.049 346.16V341.805H138.67V357H137.352L137.137 355.564ZM133.895 355.838C135.001 355.838 135.802 355.538 136.297 354.939C136.798 354.334 137.049 353.361 137.049 352.02V351.678C137.049 350.161 136.795 349.08 136.287 348.436C135.786 347.785 134.982 347.459 133.875 347.459C132.924 347.459 132.195 347.83 131.688 348.572C131.186 349.308 130.936 350.35 130.936 351.697C130.936 353.064 131.186 354.096 131.688 354.793C132.189 355.49 132.924 355.838 133.895 355.838ZM143.738 357H142.117V346.297H143.738V357ZM141.98 343.396C141.98 343.025 142.072 342.755 142.254 342.586C142.436 342.41 142.664 342.322 142.938 342.322C143.198 342.322 143.423 342.41 143.611 342.586C143.8 342.762 143.895 343.032 143.895 343.396C143.895 343.761 143.8 344.035 143.611 344.217C143.423 344.393 143.198 344.48 142.938 344.48C142.664 344.48 142.436 344.393 142.254 344.217C142.072 344.035 141.98 343.761 141.98 343.396ZM150.633 355.857C150.919 355.857 151.196 355.838 151.463 355.799C151.73 355.753 151.941 355.708 152.098 355.662V356.902C151.922 356.987 151.661 357.055 151.316 357.107C150.978 357.166 150.672 357.195 150.398 357.195C148.328 357.195 147.293 356.105 147.293 353.924V347.557H145.76V346.775L147.293 346.102L147.977 343.816H148.914V346.297H152.02V347.557H148.914V353.855C148.914 354.5 149.067 354.995 149.373 355.34C149.679 355.685 150.099 355.857 150.633 355.857ZM155.867 357H154.246V346.297H155.867V357ZM154.109 343.396C154.109 343.025 154.201 342.755 154.383 342.586C154.565 342.41 154.793 342.322 155.066 342.322C155.327 342.322 155.551 342.41 155.74 342.586C155.929 342.762 156.023 343.032 156.023 343.396C156.023 343.761 155.929 344.035 155.74 344.217C155.551 344.393 155.327 344.48 155.066 344.48C154.793 344.48 154.565 344.393 154.383 344.217C154.201 344.035 154.109 343.761 154.109 343.396ZM166.629 357V350.076C166.629 349.204 166.43 348.553 166.033 348.123C165.636 347.693 165.014 347.479 164.168 347.479C163.048 347.479 162.228 347.781 161.707 348.387C161.186 348.992 160.926 349.992 160.926 351.385V357H159.305V346.297H160.623L160.887 347.762H160.965C161.297 347.234 161.762 346.827 162.361 346.541C162.96 346.248 163.628 346.102 164.363 346.102C165.652 346.102 166.622 346.414 167.273 347.039C167.924 347.658 168.25 348.65 168.25 350.018V357H166.629ZM180.35 346.297V347.322L178.367 347.557C178.549 347.785 178.712 348.084 178.855 348.455C178.999 348.82 179.07 349.233 179.07 349.695C179.07 350.743 178.712 351.58 177.996 352.205C177.28 352.83 176.297 353.143 175.047 353.143C174.728 353.143 174.428 353.117 174.148 353.064C173.458 353.429 173.113 353.888 173.113 354.441C173.113 354.734 173.234 354.952 173.475 355.096C173.715 355.232 174.129 355.301 174.715 355.301H176.609C177.768 355.301 178.657 355.545 179.275 356.033C179.9 356.521 180.213 357.231 180.213 358.162C180.213 359.347 179.738 360.249 178.787 360.867C177.837 361.492 176.45 361.805 174.627 361.805C173.227 361.805 172.146 361.544 171.385 361.023C170.63 360.503 170.252 359.767 170.252 358.816C170.252 358.165 170.46 357.602 170.877 357.127C171.294 356.652 171.88 356.329 172.635 356.16C172.361 356.036 172.13 355.844 171.941 355.584C171.759 355.324 171.668 355.021 171.668 354.676C171.668 354.285 171.772 353.943 171.98 353.65C172.189 353.357 172.518 353.074 172.967 352.801C172.413 352.573 171.961 352.186 171.609 351.639C171.264 351.092 171.092 350.467 171.092 349.764C171.092 348.592 171.443 347.69 172.146 347.059C172.85 346.421 173.846 346.102 175.135 346.102C175.695 346.102 176.199 346.167 176.648 346.297H180.35ZM171.814 358.797C171.814 359.376 172.059 359.816 172.547 360.115C173.035 360.415 173.735 360.564 174.646 360.564C176.007 360.564 177.013 360.359 177.664 359.949C178.322 359.546 178.65 358.995 178.65 358.299C178.65 357.719 178.471 357.316 178.113 357.088C177.755 356.867 177.081 356.756 176.092 356.756H174.148C173.413 356.756 172.84 356.932 172.43 357.283C172.02 357.635 171.814 358.139 171.814 358.797ZM172.693 349.725C172.693 350.473 172.905 351.04 173.328 351.424C173.751 351.808 174.34 352 175.096 352C176.678 352 177.469 351.232 177.469 349.695C177.469 348.087 176.668 347.283 175.066 347.283C174.305 347.283 173.719 347.488 173.309 347.898C172.898 348.309 172.693 348.917 172.693 349.725Z" fill="black"/>
<path d="M85.1738 278H84.1777V269.434H88.9531V270.318H85.1738V273.453H88.7246V274.338H85.1738V278ZM91.2031 278H90.2305V271.578H91.2031V278ZM90.1484 269.838C90.1484 269.615 90.2031 269.453 90.3125 269.352C90.4219 269.246 90.5586 269.193 90.7227 269.193C90.8789 269.193 91.0137 269.246 91.127 269.352C91.2402 269.457 91.2969 269.619 91.2969 269.838C91.2969 270.057 91.2402 270.221 91.127 270.33C91.0137 270.436 90.8789 270.488 90.7227 270.488C90.5586 270.488 90.4219 270.436 90.3125 270.33C90.2031 270.221 90.1484 270.057 90.1484 269.838ZM94.2383 278H93.2656V268.883H94.2383V278ZM104.486 278V273.822C104.486 273.311 104.377 272.928 104.158 272.674C103.939 272.416 103.6 272.287 103.139 272.287C102.533 272.287 102.086 272.461 101.797 272.809C101.508 273.156 101.363 273.691 101.363 274.414V278H100.391V273.822C100.391 273.311 100.281 272.928 100.062 272.674C99.8438 272.416 99.502 272.287 99.0371 272.287C98.4277 272.287 97.9805 272.471 97.6953 272.838C97.4141 273.201 97.2734 273.799 97.2734 274.631V278H96.3008V271.578H97.0918L97.25 272.457H97.2969C97.4805 272.145 97.7383 271.9 98.0703 271.725C98.4062 271.549 98.7812 271.461 99.1953 271.461C100.199 271.461 100.855 271.824 101.164 272.551H101.211C101.402 272.215 101.68 271.949 102.043 271.754C102.406 271.559 102.82 271.461 103.285 271.461C104.012 271.461 104.555 271.648 104.914 272.023C105.277 272.395 105.459 272.99 105.459 273.811V278H104.486ZM113.012 274.783C113.012 275.83 112.748 276.648 112.221 277.238C111.693 277.824 110.965 278.117 110.035 278.117C109.461 278.117 108.951 277.982 108.506 277.713C108.061 277.443 107.717 277.057 107.475 276.553C107.232 276.049 107.111 275.459 107.111 274.783C107.111 273.736 107.373 272.922 107.896 272.34C108.42 271.754 109.146 271.461 110.076 271.461C110.975 271.461 111.688 271.76 112.215 272.357C112.746 272.955 113.012 273.764 113.012 274.783ZM108.119 274.783C108.119 275.604 108.283 276.229 108.611 276.658C108.939 277.088 109.422 277.303 110.059 277.303C110.695 277.303 111.178 277.09 111.506 276.664C111.838 276.234 112.004 275.607 112.004 274.783C112.004 273.967 111.838 273.348 111.506 272.926C111.178 272.5 110.691 272.287 110.047 272.287C109.41 272.287 108.93 272.496 108.605 272.914C108.281 273.332 108.119 273.955 108.119 274.783ZM117.652 271.461C117.938 271.461 118.193 271.484 118.42 271.531L118.285 272.434C118.02 272.375 117.785 272.346 117.582 272.346C117.062 272.346 116.617 272.557 116.246 272.979C115.879 273.4 115.695 273.926 115.695 274.555V278H114.723V271.578H115.525L115.637 272.768H115.684C115.922 272.35 116.209 272.027 116.545 271.801C116.881 271.574 117.25 271.461 117.652 271.461ZM123.57 278L123.377 277.086H123.33C123.01 277.488 122.689 277.762 122.369 277.906C122.053 278.047 121.656 278.117 121.18 278.117C120.543 278.117 120.043 277.953 119.68 277.625C119.32 277.297 119.141 276.83 119.141 276.225C119.141 274.928 120.178 274.248 122.252 274.186L123.342 274.15V273.752C123.342 273.248 123.232 272.877 123.014 272.639C122.799 272.396 122.453 272.275 121.977 272.275C121.441 272.275 120.836 272.439 120.16 272.768L119.861 272.023C120.178 271.852 120.523 271.717 120.898 271.619C121.277 271.521 121.656 271.473 122.035 271.473C122.801 271.473 123.367 271.643 123.734 271.982C124.105 272.322 124.291 272.867 124.291 273.617V278H123.57ZM121.373 277.314C121.979 277.314 122.453 277.148 122.797 276.816C123.145 276.484 123.318 276.02 123.318 275.422V274.842L122.346 274.883C121.572 274.91 121.014 275.031 120.67 275.246C120.33 275.457 120.16 275.787 120.16 276.236C120.16 276.588 120.266 276.855 120.477 277.039C120.691 277.223 120.99 277.314 121.373 277.314ZM91.6543 294H90.6699L88.9414 288.264C88.8594 288.01 88.7676 287.689 88.666 287.303C88.5645 286.916 88.5117 286.684 88.5078 286.605C88.4219 287.121 88.2852 287.686 88.0977 288.299L86.4219 294H85.4375L83.1582 285.434H84.2129L85.5664 290.725C85.7539 291.467 85.8906 292.139 85.9766 292.74C86.082 292.025 86.2383 291.326 86.4453 290.643L87.9805 285.434H89.0352L90.6465 290.689C90.834 291.295 90.9922 291.979 91.1211 292.74C91.1953 292.186 91.3359 291.51 91.543 290.713L92.8906 285.434H93.9453L91.6543 294ZM100.684 290.783C100.684 291.83 100.42 292.648 99.8926 293.238C99.3652 293.824 98.6367 294.117 97.707 294.117C97.1328 294.117 96.623 293.982 96.1777 293.713C95.7324 293.443 95.3887 293.057 95.1465 292.553C94.9043 292.049 94.7832 291.459 94.7832 290.783C94.7832 289.736 95.0449 288.922 95.5684 288.34C96.0918 287.754 96.8184 287.461 97.748 287.461C98.6465 287.461 99.3594 287.76 99.8867 288.357C100.418 288.955 100.684 289.764 100.684 290.783ZM95.791 290.783C95.791 291.604 95.9551 292.229 96.2832 292.658C96.6113 293.088 97.0938 293.303 97.7305 293.303C98.3672 293.303 98.8496 293.09 99.1777 292.664C99.5098 292.234 99.6758 291.607 99.6758 290.783C99.6758 289.967 99.5098 289.348 99.1777 288.926C98.8496 288.5 98.3633 288.287 97.7188 288.287C97.082 288.287 96.6016 288.496 96.2773 288.914C95.9531 289.332 95.791 289.955 95.791 290.783ZM106.789 294V289.846C106.789 289.322 106.67 288.932 106.432 288.674C106.193 288.416 105.82 288.287 105.312 288.287C104.641 288.287 104.148 288.469 103.836 288.832C103.523 289.195 103.367 289.795 103.367 290.631V294H102.395V287.578H103.186L103.344 288.457H103.391C103.59 288.141 103.869 287.896 104.229 287.725C104.588 287.549 104.988 287.461 105.43 287.461C106.203 287.461 106.785 287.648 107.176 288.023C107.566 288.395 107.762 288.99 107.762 289.811V294H106.789ZM114.137 293.139H114.084C113.635 293.791 112.963 294.117 112.068 294.117C111.229 294.117 110.574 293.83 110.105 293.256C109.641 292.682 109.408 291.865 109.408 290.807C109.408 289.748 109.643 288.926 110.111 288.34C110.58 287.754 111.232 287.461 112.068 287.461C112.939 287.461 113.607 287.777 114.072 288.41H114.148L114.107 287.947L114.084 287.496V284.883H115.057V294H114.266L114.137 293.139ZM112.191 293.303C112.855 293.303 113.336 293.123 113.633 292.764C113.934 292.4 114.084 291.816 114.084 291.012V290.807C114.084 289.896 113.932 289.248 113.627 288.861C113.326 288.471 112.844 288.275 112.18 288.275C111.609 288.275 111.172 288.498 110.867 288.943C110.566 289.385 110.416 290.01 110.416 290.818C110.416 291.639 110.566 292.258 110.867 292.676C111.168 293.094 111.609 293.303 112.191 293.303ZM119.838 294.117C118.889 294.117 118.139 293.828 117.588 293.25C117.041 292.672 116.768 291.869 116.768 290.842C116.768 289.807 117.021 288.984 117.529 288.375C118.041 287.766 118.727 287.461 119.586 287.461C120.391 287.461 121.027 287.727 121.496 288.258C121.965 288.785 122.199 289.482 122.199 290.35V290.965H117.775C117.795 291.719 117.984 292.291 118.344 292.682C118.707 293.072 119.217 293.268 119.873 293.268C120.564 293.268 121.248 293.123 121.924 292.834V293.701C121.58 293.85 121.254 293.955 120.945 294.018C120.641 294.084 120.271 294.117 119.838 294.117ZM119.574 288.275C119.059 288.275 118.646 288.443 118.338 288.779C118.033 289.115 117.854 289.58 117.799 290.174H121.156C121.156 289.561 121.02 289.092 120.746 288.768C120.473 288.439 120.082 288.275 119.574 288.275ZM126.793 287.461C127.078 287.461 127.334 287.484 127.561 287.531L127.426 288.434C127.16 288.375 126.926 288.346 126.723 288.346C126.203 288.346 125.758 288.557 125.387 288.979C125.02 289.4 124.836 289.926 124.836 290.555V294H123.863V287.578H124.666L124.777 288.768H124.824C125.062 288.35 125.35 288.027 125.686 287.801C126.021 287.574 126.391 287.461 126.793 287.461ZM132.904 292.248C132.904 292.846 132.682 293.307 132.236 293.631C131.791 293.955 131.166 294.117 130.361 294.117C129.51 294.117 128.846 293.982 128.369 293.713V292.811C128.678 292.967 129.008 293.09 129.359 293.18C129.715 293.27 130.057 293.314 130.385 293.314C130.893 293.314 131.283 293.234 131.557 293.074C131.83 292.91 131.967 292.662 131.967 292.33C131.967 292.08 131.857 291.867 131.639 291.691C131.424 291.512 131.002 291.301 130.373 291.059C129.775 290.836 129.35 290.643 129.096 290.479C128.846 290.311 128.658 290.121 128.533 289.91C128.412 289.699 128.352 289.447 128.352 289.154C128.352 288.631 128.564 288.219 128.99 287.918C129.416 287.613 130 287.461 130.742 287.461C131.434 287.461 132.109 287.602 132.77 287.883L132.424 288.674C131.779 288.408 131.195 288.275 130.672 288.275C130.211 288.275 129.863 288.348 129.629 288.492C129.395 288.637 129.277 288.836 129.277 289.09C129.277 289.262 129.32 289.408 129.406 289.529C129.496 289.65 129.639 289.766 129.834 289.875C130.029 289.984 130.404 290.143 130.959 290.35C131.721 290.627 132.234 290.906 132.5 291.188C132.77 291.469 132.904 291.822 132.904 292.248ZM138.887 294V289.846C138.887 289.322 138.768 288.932 138.529 288.674C138.291 288.416 137.918 288.287 137.41 288.287C136.734 288.287 136.24 288.471 135.928 288.838C135.619 289.205 135.465 289.807 135.465 290.643V294H134.492V284.883H135.465V287.643C135.465 287.975 135.449 288.25 135.418 288.469H135.477C135.668 288.16 135.939 287.918 136.291 287.742C136.646 287.562 137.051 287.473 137.504 287.473C138.289 287.473 138.877 287.66 139.268 288.035C139.662 288.406 139.859 288.998 139.859 289.811V294H138.887ZM145.812 294L145.619 293.086H145.572C145.252 293.488 144.932 293.762 144.611 293.906C144.295 294.047 143.898 294.117 143.422 294.117C142.785 294.117 142.285 293.953 141.922 293.625C141.562 293.297 141.383 292.83 141.383 292.225C141.383 290.928 142.42 290.248 144.494 290.186L145.584 290.15V289.752C145.584 289.248 145.475 288.877 145.256 288.639C145.041 288.396 144.695 288.275 144.219 288.275C143.684 288.275 143.078 288.439 142.402 288.768L142.104 288.023C142.42 287.852 142.766 287.717 143.141 287.619C143.52 287.521 143.898 287.473 144.277 287.473C145.043 287.473 145.609 287.643 145.977 287.982C146.348 288.322 146.533 288.867 146.533 289.617V294H145.812ZM143.615 293.314C144.221 293.314 144.695 293.148 145.039 292.816C145.387 292.484 145.561 292.02 145.561 291.422V290.842L144.588 290.883C143.814 290.91 143.256 291.031 142.912 291.246C142.572 291.457 142.402 291.787 142.402 292.236C142.402 292.588 142.508 292.855 142.719 293.039C142.934 293.223 143.232 293.314 143.615 293.314ZM151.473 287.461C151.758 287.461 152.014 287.484 152.24 287.531L152.105 288.434C151.84 288.375 151.605 288.346 151.402 288.346C150.883 288.346 150.438 288.557 150.066 288.979C149.699 289.4 149.516 289.926 149.516 290.555V294H148.543V287.578H149.346L149.457 288.768H149.504C149.742 288.35 150.029 288.027 150.365 287.801C150.701 287.574 151.07 287.461 151.473 287.461ZM156.154 294.117C155.205 294.117 154.455 293.828 153.904 293.25C153.357 292.672 153.084 291.869 153.084 290.842C153.084 289.807 153.338 288.984 153.846 288.375C154.357 287.766 155.043 287.461 155.902 287.461C156.707 287.461 157.344 287.727 157.812 288.258C158.281 288.785 158.516 289.482 158.516 290.35V290.965H154.092C154.111 291.719 154.301 292.291 154.66 292.682C155.023 293.072 155.533 293.268 156.189 293.268C156.881 293.268 157.564 293.123 158.24 292.834V293.701C157.896 293.85 157.57 293.955 157.262 294.018C156.957 294.084 156.588 294.117 156.154 294.117ZM155.891 288.275C155.375 288.275 154.963 288.443 154.654 288.779C154.35 289.115 154.17 289.58 154.115 290.174H157.473C157.473 289.561 157.336 289.092 157.062 288.768C156.789 288.439 156.398 288.275 155.891 288.275Z" fill="black"/>
<path d="M41.1152 156H39.2207L31.418 144.018H31.3398C31.444 145.424 31.4961 146.713 31.4961 147.885V156H29.9629V141.723H31.8379L39.6211 153.656H39.6992C39.6862 153.48 39.6569 152.917 39.6113 151.967C39.5658 151.01 39.5495 150.326 39.5625 149.916V141.723H41.1152V156ZM54.0352 150.639C54.0352 152.383 53.5957 153.747 52.7168 154.73C51.8379 155.707 50.6237 156.195 49.0742 156.195C48.1172 156.195 47.2676 155.971 46.5254 155.521C45.7832 155.072 45.2103 154.428 44.8066 153.588C44.403 152.748 44.2012 151.765 44.2012 150.639C44.2012 148.894 44.6374 147.536 45.5098 146.566C46.3822 145.59 47.5931 145.102 49.1426 145.102C50.64 145.102 51.8281 145.6 52.707 146.596C53.5924 147.592 54.0352 148.939 54.0352 150.639ZM45.8809 150.639C45.8809 152.006 46.1543 153.048 46.7012 153.764C47.248 154.48 48.0521 154.838 49.1133 154.838C50.1745 154.838 50.9785 154.483 51.5254 153.773C52.0788 153.057 52.3555 152.012 52.3555 150.639C52.3555 149.278 52.0788 148.246 51.5254 147.543C50.9785 146.833 50.168 146.479 49.0938 146.479C48.0326 146.479 47.2318 146.827 46.6914 147.523C46.151 148.22 45.8809 149.258 45.8809 150.639ZM59.2305 156L55.168 145.297H56.9062L59.2109 151.645C59.7318 153.129 60.0378 154.092 60.1289 154.535H60.207C60.2786 154.19 60.5033 153.477 60.8809 152.396C61.265 151.309 62.1211 148.943 63.4492 145.297H65.1875L61.125 156H59.2305ZM68.5273 156H66.9062V145.297H68.5273V156ZM66.7695 142.396C66.7695 142.025 66.8607 141.755 67.043 141.586C67.2253 141.41 67.4531 141.322 67.7266 141.322C67.987 141.322 68.2116 141.41 68.4004 141.586C68.5892 141.762 68.6836 142.032 68.6836 142.396C68.6836 142.761 68.5892 143.035 68.4004 143.217C68.2116 143.393 67.987 143.48 67.7266 143.48C67.4531 143.48 67.2253 143.393 67.043 143.217C66.8607 143.035 66.7695 142.761 66.7695 142.396ZM76.2422 156.195C74.6927 156.195 73.4915 155.72 72.6387 154.77C71.7923 153.812 71.3691 152.462 71.3691 150.717C71.3691 148.926 71.7988 147.543 72.6582 146.566C73.5241 145.59 74.7546 145.102 76.3496 145.102C76.8639 145.102 77.3783 145.157 77.8926 145.268C78.4069 145.378 78.8105 145.508 79.1035 145.658L78.6055 147.035C78.2474 146.892 77.8568 146.775 77.4336 146.684C77.0104 146.586 76.6361 146.537 76.3105 146.537C74.1361 146.537 73.0488 147.924 73.0488 150.697C73.0488 152.012 73.3125 153.021 73.8398 153.725C74.3737 154.428 75.1615 154.779 76.2031 154.779C77.0951 154.779 78.0098 154.587 78.9473 154.203V155.639C78.2311 156.01 77.3294 156.195 76.2422 156.195ZM86.0176 156.195C84.4355 156.195 83.1855 155.714 82.2676 154.75C81.3561 153.786 80.9004 152.449 80.9004 150.736C80.9004 149.011 81.3236 147.641 82.1699 146.625C83.0228 145.609 84.1654 145.102 85.5977 145.102C86.9388 145.102 88 145.544 88.7812 146.43C89.5625 147.309 89.9531 148.471 89.9531 149.916V150.941H82.5801C82.6126 152.198 82.9284 153.152 83.5273 153.803C84.1328 154.454 84.9824 154.779 86.0762 154.779C87.2285 154.779 88.3678 154.538 89.4941 154.057V155.502C88.9212 155.749 88.3776 155.925 87.8633 156.029C87.3555 156.14 86.7402 156.195 86.0176 156.195ZM85.5781 146.459C84.7188 146.459 84.0319 146.739 83.5176 147.299C83.0098 147.859 82.7103 148.633 82.6191 149.623H88.2148C88.2148 148.601 87.987 147.82 87.5312 147.279C87.0755 146.732 86.4245 146.459 85.5781 146.459Z" fill="black"/>
<path d="M10.9375 21L9.16016 16.459H3.4375L1.67969 21H0L5.64453 6.66406H7.04102L12.6562 21H10.9375ZM8.64258 14.9648L6.98242 10.541C6.76758 9.98112 6.54622 9.29427 6.31836 8.48047C6.17513 9.10547 5.97005 9.79232 5.70312 10.541L4.02344 14.9648H8.64258ZM21.6602 19.5645H21.5723C20.8236 20.6517 19.7038 21.1953 18.2129 21.1953C16.8132 21.1953 15.7227 20.7168 14.9414 19.7598C14.1667 18.8027 13.7793 17.4421 13.7793 15.6777C13.7793 13.9134 14.1699 12.543 14.9512 11.5664C15.7324 10.5898 16.8197 10.1016 18.2129 10.1016C19.6647 10.1016 20.778 10.6289 21.5527 11.6836H21.6797L21.6113 10.9121L21.5723 10.1602V5.80469H23.1934V21H21.875L21.6602 19.5645ZM18.418 19.8379C19.5247 19.8379 20.3255 19.5384 20.8203 18.9395C21.3216 18.334 21.5723 17.3607 21.5723 16.0195V15.6777C21.5723 14.1608 21.3184 13.0801 20.8105 12.4355C20.3092 11.7845 19.5052 11.459 18.3984 11.459C17.4479 11.459 16.7188 11.8301 16.2109 12.5723C15.7096 13.3079 15.459 14.3496 15.459 15.6973C15.459 17.0645 15.7096 18.0964 16.2109 18.793C16.7122 19.4896 17.4479 19.8379 18.418 19.8379ZM28.9844 21L24.9219 10.2969H26.6602L28.9648 16.6445C29.4857 18.1289 29.7917 19.0924 29.8828 19.5352H29.9609C30.0326 19.1901 30.2572 18.4772 30.6348 17.3965C31.0189 16.3092 31.875 13.9427 33.2031 10.2969H34.9414L30.8789 21H28.9844ZM43.2422 21L42.9199 19.4766H42.8418C42.3079 20.1471 41.7741 20.6029 41.2402 20.8438C40.7129 21.0781 40.0521 21.1953 39.2578 21.1953C38.1966 21.1953 37.3633 20.9219 36.7578 20.375C36.1589 19.8281 35.8594 19.0501 35.8594 18.041C35.8594 15.8796 37.5879 14.7467 41.0449 14.6426L42.8613 14.584V13.9199C42.8613 13.0801 42.679 12.4616 42.3145 12.0645C41.9564 11.6608 41.3802 11.459 40.5859 11.459C39.694 11.459 38.6849 11.7324 37.5586 12.2793L37.0605 11.0391C37.5879 10.7526 38.1641 10.528 38.7891 10.3652C39.4206 10.2025 40.0521 10.1211 40.6836 10.1211C41.9596 10.1211 42.9036 10.4043 43.5156 10.9707C44.1341 11.5371 44.4434 12.4453 44.4434 13.6953V21H43.2422ZM39.5801 19.8574C40.5892 19.8574 41.3802 19.5807 41.9531 19.0273C42.5326 18.474 42.8223 17.6992 42.8223 16.7031V15.7363L41.2012 15.8047C39.9121 15.8503 38.9811 16.0521 38.4082 16.4102C37.8418 16.7617 37.5586 17.3118 37.5586 18.0605C37.5586 18.6465 37.7344 19.0924 38.0859 19.3984C38.444 19.7044 38.9421 19.8574 39.5801 19.8574ZM55.1172 21V14.0762C55.1172 13.2038 54.9186 12.5527 54.5215 12.123C54.1243 11.6934 53.5026 11.4785 52.6562 11.4785C51.5365 11.4785 50.7161 11.7812 50.1953 12.3867C49.6745 12.9922 49.4141 13.9915 49.4141 15.3848V21H47.793V10.2969H49.1113L49.375 11.7617H49.4531C49.7852 11.2344 50.2507 10.8275 50.8496 10.541C51.4486 10.248 52.1159 10.1016 52.8516 10.1016C54.1406 10.1016 55.1107 10.4141 55.7617 11.0391C56.4128 11.6576 56.7383 12.6504 56.7383 14.0176V21H55.1172ZM64.3555 21.1953C62.806 21.1953 61.6048 20.7201 60.752 19.7695C59.9056 18.8125 59.4824 17.4616 59.4824 15.7168C59.4824 13.9264 59.9121 12.543 60.7715 11.5664C61.6374 10.5898 62.8678 10.1016 64.4629 10.1016C64.9772 10.1016 65.4915 10.1569 66.0059 10.2676C66.5202 10.3783 66.9238 10.5085 67.2168 10.6582L66.7188 12.0352C66.3607 11.8919 65.9701 11.7747 65.5469 11.6836C65.1237 11.5859 64.7493 11.5371 64.4238 11.5371C62.2493 11.5371 61.1621 12.9238 61.1621 15.6973C61.1621 17.0124 61.4258 18.0215 61.9531 18.7246C62.487 19.4277 63.2747 19.7793 64.3164 19.7793C65.2083 19.7793 66.123 19.5872 67.0605 19.2031V20.6387C66.3444 21.0098 65.4427 21.1953 64.3555 21.1953ZM74.1309 21.1953C72.5488 21.1953 71.2988 20.7135 70.3809 19.75C69.4694 18.7865 69.0137 17.4486 69.0137 15.7363C69.0137 14.0111 69.4368 12.6406 70.2832 11.625C71.1361 10.6094 72.2786 10.1016 73.7109 10.1016C75.0521 10.1016 76.1133 10.5443 76.8945 11.4297C77.6758 12.3086 78.0664 13.4707 78.0664 14.916V15.9414H70.6934C70.7259 17.1979 71.0417 18.1517 71.6406 18.8027C72.2461 19.4538 73.0957 19.7793 74.1895 19.7793C75.3418 19.7793 76.4811 19.5384 77.6074 19.0566V20.502C77.0345 20.7493 76.4909 20.9251 75.9766 21.0293C75.4688 21.14 74.8535 21.1953 74.1309 21.1953ZM73.6914 11.459C72.832 11.459 72.1452 11.7389 71.6309 12.2988C71.123 12.8587 70.8236 13.6335 70.7324 14.623H76.3281C76.3281 13.6009 76.1003 12.8197 75.6445 12.2793C75.1888 11.7324 74.5378 11.459 73.6914 11.459ZM88.125 19.5645H88.0371C87.2884 20.6517 86.1686 21.1953 84.6777 21.1953C83.278 21.1953 82.1875 20.7168 81.4062 19.7598C80.6315 18.8027 80.2441 17.4421 80.2441 15.6777C80.2441 13.9134 80.6348 12.543 81.416 11.5664C82.1973 10.5898 83.2845 10.1016 84.6777 10.1016C86.1296 10.1016 87.2428 10.6289 88.0176 11.6836H88.1445L88.0762 10.9121L88.0371 10.1602V5.80469H89.6582V21H88.3398L88.125 19.5645ZM84.8828 19.8379C85.9896 19.8379 86.7904 19.5384 87.2852 18.9395C87.7865 18.334 88.0371 17.3607 88.0371 16.0195V15.6777C88.0371 14.1608 87.7832 13.0801 87.2754 12.4355C86.7741 11.7845 85.9701 11.459 84.8633 11.459C83.9128 11.459 83.1836 11.8301 82.6758 12.5723C82.1745 13.3079 81.9238 14.3496 81.9238 15.6973C81.9238 17.0645 82.1745 18.0964 82.6758 18.793C83.1771 19.4896 83.9128 19.8379 84.8828 19.8379Z" fill="black"/>
<line x1="102.984" y1="15.9136" x2="307.012" y2="15.9136" stroke="#B3B3B3"/>
</svg>
