<svg width="469" height="382" viewBox="0 0 469 382" fill="none" xmlns="http://www.w3.org/2000/svg">
<rect x="102" y="161" width="349" height="52" fill="#E97F04"/>
<path d="M190.833 178.864V186.717C190.833 188.1 190.415 189.188 189.579 189.979C188.743 190.77 187.595 191.166 186.134 191.166C184.673 191.166 183.542 190.768 182.739 189.971C181.942 189.174 181.544 188.078 181.544 186.684V178.864H182.955V186.783C182.955 187.796 183.232 188.573 183.785 189.116C184.339 189.658 185.152 189.929 186.226 189.929C187.249 189.929 188.038 189.658 188.591 189.116C189.145 188.568 189.421 187.785 189.421 186.767V178.864H190.833ZM202.13 191H200.528L197.266 185.663L193.945 191H192.451L196.485 184.658L192.725 178.864H194.286L197.299 183.67L200.337 178.864H201.839L198.079 184.608L202.13 191ZM208.264 178.864L203.74 191H202.362L206.886 178.864H208.264ZM210.107 178.864H213.535C215.146 178.864 216.31 179.105 217.03 179.586C217.749 180.068 218.109 180.829 218.109 181.869C218.109 182.589 217.907 183.183 217.503 183.654C217.104 184.119 216.521 184.42 215.751 184.559V184.642C217.594 184.957 218.516 185.925 218.516 187.547C218.516 188.632 218.148 189.478 217.412 190.087C216.681 190.696 215.657 191 214.34 191H210.107V178.864ZM211.518 184.061H213.842C214.838 184.061 215.555 183.906 215.992 183.596C216.429 183.28 216.648 182.752 216.648 182.01C216.648 181.33 216.404 180.84 215.917 180.541C215.431 180.237 214.656 180.084 213.593 180.084H211.518V184.061ZM211.518 185.256V189.796H214.05C215.029 189.796 215.765 189.608 216.258 189.232C216.756 188.85 217.005 188.255 217.005 187.447C217.005 186.695 216.75 186.141 216.241 185.787C215.738 185.433 214.968 185.256 213.934 185.256H211.518ZM224.766 191.166C223.421 191.166 222.359 190.757 221.579 189.938C220.804 189.118 220.417 187.981 220.417 186.526C220.417 185.059 220.776 183.895 221.496 183.031C222.221 182.168 223.192 181.736 224.409 181.736C225.549 181.736 226.451 182.113 227.115 182.865C227.779 183.612 228.111 184.6 228.111 185.829V186.7H221.844C221.872 187.768 222.14 188.579 222.649 189.132C223.164 189.686 223.886 189.962 224.816 189.962C225.795 189.962 226.764 189.758 227.721 189.348V190.577C227.234 190.787 226.772 190.936 226.335 191.025C225.903 191.119 225.38 191.166 224.766 191.166ZM224.393 182.89C223.662 182.89 223.078 183.128 222.641 183.604C222.209 184.08 221.955 184.738 221.877 185.58H226.634C226.634 184.711 226.44 184.047 226.053 183.587C225.665 183.123 225.112 182.89 224.393 182.89ZM236.694 191V185.115C236.694 184.373 236.526 183.82 236.188 183.455C235.85 183.089 235.322 182.907 234.603 182.907C233.645 182.907 232.945 183.167 232.502 183.687C232.065 184.207 231.847 185.059 231.847 186.244V191H230.469V178.084H231.847V181.994C231.847 182.464 231.825 182.854 231.78 183.164H231.863C232.134 182.727 232.519 182.384 233.017 182.135C233.521 181.88 234.093 181.753 234.735 181.753C235.848 181.753 236.681 182.019 237.234 182.55C237.793 183.076 238.072 183.914 238.072 185.065V191H236.694ZM246.506 191L246.232 189.705H246.166C245.712 190.275 245.258 190.662 244.804 190.867C244.356 191.066 243.794 191.166 243.119 191.166C242.217 191.166 241.509 190.934 240.994 190.469C240.485 190.004 240.23 189.343 240.23 188.485C240.23 186.648 241.7 185.685 244.638 185.596L246.182 185.546V184.982C246.182 184.268 246.027 183.742 245.717 183.405C245.413 183.062 244.923 182.89 244.248 182.89C243.49 182.89 242.632 183.123 241.675 183.587L241.251 182.533C241.7 182.29 242.189 182.099 242.721 181.96C243.257 181.822 243.794 181.753 244.331 181.753C245.416 181.753 246.218 181.994 246.738 182.475C247.264 182.957 247.527 183.729 247.527 184.791V191H246.506ZM243.393 190.029C244.251 190.029 244.923 189.794 245.41 189.323C245.903 188.853 246.149 188.194 246.149 187.348V186.526L244.771 186.584C243.675 186.623 242.884 186.794 242.397 187.099C241.916 187.397 241.675 187.865 241.675 188.501C241.675 189 241.824 189.379 242.123 189.639C242.427 189.899 242.851 190.029 243.393 190.029ZM252.366 191L248.913 181.902H250.391L252.35 187.298C252.792 188.56 253.052 189.379 253.13 189.755H253.196C253.257 189.462 253.448 188.856 253.769 187.937C254.096 187.013 254.823 185.001 255.952 181.902H257.43L253.977 191H252.366ZM260.269 191H258.891V181.902H260.269V191ZM258.774 179.437C258.774 179.122 258.852 178.892 259.007 178.748C259.162 178.599 259.355 178.524 259.588 178.524C259.809 178.524 260 178.599 260.161 178.748C260.321 178.897 260.401 179.127 260.401 179.437C260.401 179.747 260.321 179.979 260.161 180.134C260 180.284 259.809 180.358 259.588 180.358C259.355 180.358 259.162 180.284 259.007 180.134C258.852 179.979 258.774 179.747 258.774 179.437ZM271.043 186.443C271.043 187.926 270.669 189.085 269.922 189.921C269.175 190.751 268.143 191.166 266.826 191.166C266.013 191.166 265.291 190.975 264.66 190.593C264.029 190.211 263.542 189.664 263.199 188.95C262.856 188.236 262.684 187.4 262.684 186.443C262.684 184.96 263.055 183.806 263.796 182.981C264.538 182.151 265.567 181.736 266.884 181.736C268.157 181.736 269.167 182.16 269.914 183.006C270.667 183.853 271.043 184.999 271.043 186.443ZM264.112 186.443C264.112 187.605 264.344 188.49 264.809 189.099C265.274 189.708 265.957 190.012 266.859 190.012C267.761 190.012 268.445 189.711 268.91 189.107C269.38 188.499 269.615 187.611 269.615 186.443C269.615 185.286 269.38 184.409 268.91 183.812C268.445 183.208 267.756 182.907 266.843 182.907C265.941 182.907 265.26 183.203 264.801 183.795C264.341 184.387 264.112 185.27 264.112 186.443ZM277.617 181.736C278.021 181.736 278.384 181.77 278.705 181.836L278.514 183.114C278.137 183.031 277.805 182.99 277.518 182.99C276.782 182.99 276.151 183.289 275.625 183.886C275.105 184.484 274.845 185.228 274.845 186.119V191H273.467V181.902H274.604L274.762 183.587H274.828C275.166 182.995 275.572 182.539 276.048 182.218C276.524 181.897 277.047 181.736 277.617 181.736ZM292.658 191L291.147 187.14H286.283L284.789 191H283.361L288.159 178.814H289.346L294.119 191H292.658ZM290.708 185.87L289.296 182.11C289.114 181.634 288.926 181.05 288.732 180.358C288.61 180.89 288.436 181.473 288.209 182.11L286.781 185.87H290.708ZM301.806 191V185.115C301.806 184.373 301.637 183.82 301.299 183.455C300.962 183.089 300.433 182.907 299.714 182.907C298.762 182.907 298.065 183.164 297.622 183.679C297.179 184.193 296.958 185.043 296.958 186.227V191H295.58V181.902H296.701L296.925 183.147H296.991C297.273 182.699 297.669 182.353 298.178 182.11C298.687 181.861 299.255 181.736 299.88 181.736C300.976 181.736 301.8 182.002 302.354 182.533C302.907 183.059 303.184 183.903 303.184 185.065V191H301.806ZM311.617 191L311.343 189.705H311.277C310.823 190.275 310.369 190.662 309.916 190.867C309.467 191.066 308.906 191.166 308.23 191.166C307.328 191.166 306.62 190.934 306.105 190.469C305.596 190.004 305.342 189.343 305.342 188.485C305.342 186.648 306.811 185.685 309.75 185.596L311.293 185.546V184.982C311.293 184.268 311.139 183.742 310.829 183.405C310.524 183.062 310.035 182.89 309.359 182.89C308.601 182.89 307.743 183.123 306.786 183.587L306.363 182.533C306.811 182.29 307.301 182.099 307.832 181.96C308.369 181.822 308.906 181.753 309.442 181.753C310.527 181.753 311.329 181.994 311.85 182.475C312.375 182.957 312.638 183.729 312.638 184.791V191H311.617ZM308.504 190.029C309.362 190.029 310.035 189.794 310.521 189.323C311.014 188.853 311.26 188.194 311.26 187.348V186.526L309.882 186.584C308.787 186.623 307.995 186.794 307.508 187.099C307.027 187.397 306.786 187.865 306.786 188.501C306.786 189 306.936 189.379 307.234 189.639C307.539 189.899 307.962 190.029 308.504 190.029ZM316.863 191H315.485V178.084H316.863V191ZM318.341 181.902H319.818L321.811 187.09C322.248 188.275 322.519 189.13 322.624 189.655H322.69C322.762 189.373 322.912 188.892 323.139 188.211C323.371 187.525 324.124 185.422 325.396 181.902H326.874L322.964 192.262C322.577 193.285 322.123 194.01 321.603 194.437C321.088 194.868 320.455 195.084 319.702 195.084C319.282 195.084 318.867 195.037 318.457 194.943V193.839C318.761 193.905 319.102 193.938 319.478 193.938C320.424 193.938 321.099 193.407 321.503 192.345L322.01 191.05L318.341 181.902ZM334.22 188.518C334.22 189.365 333.905 190.018 333.274 190.477C332.643 190.936 331.758 191.166 330.618 191.166C329.411 191.166 328.471 190.975 327.795 190.593V189.315C328.233 189.536 328.7 189.711 329.198 189.838C329.702 189.965 330.186 190.029 330.651 190.029C331.37 190.029 331.924 189.915 332.311 189.688C332.698 189.456 332.892 189.105 332.892 188.634C332.892 188.28 332.737 187.979 332.427 187.729C332.123 187.475 331.525 187.176 330.634 186.833C329.788 186.518 329.184 186.244 328.825 186.011C328.471 185.773 328.205 185.505 328.028 185.206C327.856 184.907 327.771 184.55 327.771 184.135C327.771 183.394 328.072 182.81 328.675 182.384C329.278 181.952 330.106 181.736 331.157 181.736C332.137 181.736 333.094 181.936 334.029 182.334L333.54 183.455C332.626 183.078 331.799 182.89 331.058 182.89C330.405 182.89 329.912 182.993 329.58 183.197C329.248 183.402 329.082 183.684 329.082 184.044C329.082 184.287 329.143 184.495 329.265 184.667C329.392 184.838 329.594 185.001 329.871 185.156C330.147 185.311 330.679 185.535 331.464 185.829C332.543 186.222 333.271 186.617 333.647 187.016C334.029 187.414 334.22 187.915 334.22 188.518ZM337.848 191H336.47V181.902H337.848V191ZM336.354 179.437C336.354 179.122 336.431 178.892 336.586 178.748C336.741 178.599 336.935 178.524 337.167 178.524C337.388 178.524 337.579 178.599 337.74 178.748C337.9 178.897 337.98 179.127 337.98 179.437C337.98 179.747 337.9 179.979 337.74 180.134C337.579 180.284 337.388 180.358 337.167 180.358C336.935 180.358 336.741 180.284 336.586 180.134C336.431 179.979 336.354 179.747 336.354 179.437ZM346.638 188.518C346.638 189.365 346.323 190.018 345.692 190.477C345.061 190.936 344.176 191.166 343.036 191.166C341.829 191.166 340.889 190.975 340.213 190.593V189.315C340.651 189.536 341.118 189.711 341.616 189.838C342.12 189.965 342.604 190.029 343.069 190.029C343.788 190.029 344.342 189.915 344.729 189.688C345.116 189.456 345.31 189.105 345.31 188.634C345.31 188.28 345.155 187.979 344.845 187.729C344.541 187.475 343.943 187.176 343.052 186.833C342.206 186.518 341.602 186.244 341.243 186.011C340.889 185.773 340.623 185.505 340.446 185.206C340.274 184.907 340.188 184.55 340.188 184.135C340.188 183.394 340.49 182.81 341.093 182.384C341.696 181.952 342.524 181.736 343.575 181.736C344.555 181.736 345.512 181.936 346.447 182.334L345.958 183.455C345.044 183.078 344.217 182.89 343.476 182.89C342.823 182.89 342.33 182.993 341.998 183.197C341.666 183.402 341.5 183.684 341.5 184.044C341.5 184.287 341.561 184.495 341.683 184.667C341.81 184.838 342.012 185.001 342.289 185.156C342.565 185.311 343.097 185.535 343.882 185.829C344.961 186.222 345.689 186.617 346.065 187.016C346.447 187.414 346.638 187.915 346.638 188.518Z" fill="white"/>
<line x1="133.5" y1="285.5" x2="133.5" y2="270.5" stroke="black" stroke-width="9" stroke-linecap="round"/>
<line x1="133.5" y1="149.5" x2="133.5" y2="52.5" stroke="black" stroke-width="9" stroke-linecap="round"/>
<line x1="189.5" y1="149.5" x2="189.5" y2="105.5" stroke="black" stroke-width="9" stroke-linecap="round"/>
<line x1="189.5" y1="223.5" x2="189.5" y2="222.5" stroke="black" stroke-width="9" stroke-linecap="round"/>
<line x1="133.5" y1="225.5" x2="133.5" y2="224.5" stroke="black" stroke-width="9" stroke-linecap="round"/>
<line x1="446.5" y1="223.5" x2="446.5" y2="222.5" stroke="black" stroke-width="9" stroke-linecap="round"/>
<line x1="246.5" y1="290.5" x2="246.5" y2="222.5" stroke="black" stroke-width="9" stroke-linecap="round"/>
<line x1="246.5" y1="149.5" x2="246.5" y2="36.5" stroke="black" stroke-width="9" stroke-linecap="round"/>
<line x1="301.5" y1="149.5" x2="301.5" y2="36.5" stroke="black" stroke-width="9" stroke-linecap="round"/>
<line x1="347.5" y1="149.5" x2="347.5" y2="52.5" stroke="black" stroke-width="9" stroke-linecap="round"/>
<line x1="409.5" y1="149.5" x2="409.5" y2="72.5" stroke="black" stroke-width="9" stroke-linecap="round"/>
<line x1="446.5" y1="148.5" x2="446.5" y2="108.5" stroke="black" stroke-width="9" stroke-linecap="round"/>
<line x1="347.5" y1="357.5" x2="347.5" y2="293.5" stroke="black" stroke-width="9" stroke-linecap="round"/>
<line x1="347.5" y1="265.5" x2="347.5" y2="222.5" stroke="black" stroke-width="9" stroke-linecap="round"/>
<line x1="409.5" y1="267.5" x2="409.5" y2="222.5" stroke="black" stroke-width="9" stroke-linecap="round"/>
<line x1="301.5" y1="242.5" x2="301.5" y2="222.5" stroke="black" stroke-width="9" stroke-linecap="round"/>
<path d="M385.833 275.864V283.717C385.833 285.1 385.415 286.188 384.579 286.979C383.743 287.77 382.595 288.166 381.134 288.166C379.673 288.166 378.542 287.768 377.739 286.971C376.942 286.174 376.544 285.078 376.544 283.684V275.864H377.955V283.783C377.955 284.796 378.232 285.573 378.785 286.116C379.339 286.658 380.152 286.929 381.226 286.929C382.249 286.929 383.038 286.658 383.591 286.116C384.145 285.568 384.421 284.785 384.421 283.767V275.864H385.833ZM397.13 288H395.528L392.266 282.663L388.945 288H387.451L391.485 281.658L387.725 275.864H389.286L392.299 280.67L395.337 275.864H396.839L393.079 281.608L397.13 288ZM384.363 302.4C384.363 303.629 383.943 304.575 383.102 305.239C382.266 305.898 381.068 306.227 379.507 306.227H378.08V311H376.668V298.864H379.814C382.847 298.864 384.363 300.043 384.363 302.4ZM378.08 305.015H379.35C380.6 305.015 381.505 304.813 382.064 304.409C382.623 304.005 382.902 303.358 382.902 302.467C382.902 301.664 382.639 301.067 382.114 300.674C381.588 300.281 380.769 300.084 379.657 300.084H378.08V305.015ZM390.547 311.166C389.203 311.166 388.14 310.757 387.36 309.938C386.585 309.118 386.198 307.981 386.198 306.526C386.198 305.059 386.557 303.895 387.277 303.031C388.002 302.168 388.973 301.736 390.19 301.736C391.33 301.736 392.232 302.113 392.896 302.865C393.561 303.612 393.893 304.6 393.893 305.829V306.7H387.625C387.653 307.768 387.922 308.579 388.431 309.132C388.945 309.686 389.667 309.962 390.597 309.962C391.577 309.962 392.545 309.758 393.502 309.348V310.577C393.015 310.787 392.553 310.936 392.116 311.025C391.685 311.119 391.162 311.166 390.547 311.166ZM390.174 302.89C389.443 302.89 388.86 303.128 388.422 303.604C387.991 304.08 387.736 304.738 387.659 305.58H392.415C392.415 304.711 392.221 304.047 391.834 303.587C391.447 303.123 390.893 302.89 390.174 302.89ZM400.4 301.736C400.804 301.736 401.167 301.77 401.488 301.836L401.297 303.114C400.921 303.031 400.589 302.99 400.301 302.99C399.565 302.99 398.934 303.289 398.408 303.886C397.888 304.484 397.628 305.228 397.628 306.119V311H396.25V301.902H397.387L397.545 303.587H397.611C397.949 302.995 398.356 302.539 398.832 302.218C399.307 301.897 399.83 301.736 400.4 301.736ZM409.058 308.518C409.058 309.365 408.743 310.018 408.112 310.477C407.481 310.936 406.596 311.166 405.456 311.166C404.249 311.166 403.308 310.975 402.633 310.593V309.315C403.07 309.536 403.538 309.711 404.036 309.838C404.54 309.965 405.024 310.029 405.489 310.029C406.208 310.029 406.762 309.915 407.149 309.688C407.536 309.456 407.73 309.105 407.73 308.634C407.73 308.28 407.575 307.979 407.265 307.729C406.961 307.475 406.363 307.176 405.472 306.833C404.625 306.518 404.022 306.244 403.663 306.011C403.308 305.773 403.043 305.505 402.866 305.206C402.694 304.907 402.608 304.55 402.608 304.135C402.608 303.394 402.91 302.81 403.513 302.384C404.116 301.952 404.944 301.736 405.995 301.736C406.975 301.736 407.932 301.936 408.867 302.334L408.377 303.455C407.464 303.078 406.637 302.89 405.896 302.89C405.243 302.89 404.75 302.993 404.418 303.197C404.086 303.402 403.92 303.684 403.92 304.044C403.92 304.287 403.981 304.495 404.103 304.667C404.23 304.838 404.432 305.001 404.708 305.156C404.985 305.311 405.516 305.535 406.302 305.829C407.381 306.222 408.109 306.617 408.485 307.016C408.867 307.414 409.058 307.915 409.058 308.518ZM419.16 306.443C419.16 307.926 418.787 309.085 418.04 309.921C417.292 310.751 416.26 311.166 414.943 311.166C414.13 311.166 413.408 310.975 412.777 310.593C412.146 310.211 411.659 309.664 411.316 308.95C410.973 308.236 410.801 307.4 410.801 306.443C410.801 304.96 411.172 303.806 411.914 302.981C412.655 302.151 413.684 301.736 415.001 301.736C416.274 301.736 417.284 302.16 418.031 303.006C418.784 303.853 419.16 304.999 419.16 306.443ZM412.229 306.443C412.229 307.605 412.461 308.49 412.926 309.099C413.391 309.708 414.075 310.012 414.977 310.012C415.879 310.012 416.562 309.711 417.027 309.107C417.497 308.499 417.732 307.611 417.732 306.443C417.732 305.286 417.497 304.409 417.027 303.812C416.562 303.208 415.873 302.907 414.96 302.907C414.058 302.907 413.377 303.203 412.918 303.795C412.459 304.387 412.229 305.27 412.229 306.443ZM427.81 311V305.115C427.81 304.373 427.641 303.82 427.303 303.455C426.966 303.089 426.437 302.907 425.718 302.907C424.766 302.907 424.069 303.164 423.626 303.679C423.183 304.193 422.962 305.043 422.962 306.227V311H421.584V301.902H422.705L422.929 303.147H422.995C423.277 302.699 423.673 302.353 424.182 302.11C424.691 301.861 425.258 301.736 425.884 301.736C426.979 301.736 427.804 302.002 428.357 302.533C428.911 303.059 429.188 303.903 429.188 305.065V311H427.81ZM437.621 311L437.347 309.705H437.281C436.827 310.275 436.373 310.662 435.919 310.867C435.471 311.066 434.91 311.166 434.234 311.166C433.332 311.166 432.624 310.934 432.109 310.469C431.6 310.004 431.346 309.343 431.346 308.485C431.346 306.648 432.815 305.685 435.753 305.596L437.297 305.546V304.982C437.297 304.268 437.142 303.742 436.833 303.405C436.528 303.062 436.038 302.89 435.363 302.89C434.605 302.89 433.747 303.123 432.79 303.587L432.367 302.533C432.815 302.29 433.305 302.099 433.836 301.96C434.373 301.822 434.91 301.753 435.446 301.753C436.531 301.753 437.333 301.994 437.854 302.475C438.379 302.957 438.642 303.729 438.642 304.791V311H437.621ZM434.508 310.029C435.366 310.029 436.038 309.794 436.525 309.323C437.018 308.853 437.264 308.194 437.264 307.348V306.526L435.886 306.584C434.791 306.623 433.999 306.794 433.512 307.099C433.031 307.397 432.79 307.865 432.79 308.501C432.79 309 432.939 309.379 433.238 309.639C433.543 309.899 433.966 310.029 434.508 310.029ZM447.358 308.518C447.358 309.365 447.042 310.018 446.412 310.477C445.781 310.936 444.895 311.166 443.755 311.166C442.549 311.166 441.608 310.975 440.933 310.593V309.315C441.37 309.536 441.838 309.711 442.336 309.838C442.84 309.965 443.324 310.029 443.789 310.029C444.508 310.029 445.061 309.915 445.449 309.688C445.836 309.456 446.03 309.105 446.03 308.634C446.03 308.28 445.875 307.979 445.565 307.729C445.261 307.475 444.663 307.176 443.772 306.833C442.925 306.518 442.322 306.244 441.962 306.011C441.608 305.773 441.343 305.505 441.166 305.206C440.994 304.907 440.908 304.55 440.908 304.135C440.908 303.394 441.21 302.81 441.813 302.384C442.416 301.952 443.243 301.736 444.295 301.736C445.274 301.736 446.232 301.936 447.167 302.334L446.677 303.455C445.764 303.078 444.937 302.89 444.195 302.89C443.542 302.89 443.05 302.993 442.718 303.197C442.386 303.402 442.22 303.684 442.22 304.044C442.22 304.287 442.281 304.495 442.402 304.667C442.53 304.838 442.732 305.001 443.008 305.156C443.285 305.311 443.816 305.535 444.602 305.829C445.681 306.222 446.409 306.617 446.785 307.016C447.167 307.414 447.358 307.915 447.358 308.518Z" fill="black"/>
<path d="M206.472 300.292H209.497C210.918 300.292 211.946 300.504 212.581 300.929C213.215 301.354 213.533 302.025 213.533 302.943C213.533 303.578 213.354 304.103 212.998 304.518C212.646 304.928 212.131 305.194 211.453 305.316V305.39C213.079 305.668 213.892 306.522 213.892 307.953C213.892 308.91 213.567 309.657 212.917 310.194C212.273 310.731 211.37 311 210.208 311H206.472V300.292ZM207.717 304.877H209.768C210.647 304.877 211.279 304.74 211.665 304.467C212.051 304.188 212.244 303.722 212.244 303.068C212.244 302.467 212.029 302.035 211.599 301.771C211.169 301.503 210.486 301.369 209.548 301.369H207.717V304.877ZM207.717 305.932V309.938H209.951C210.815 309.938 211.465 309.772 211.899 309.44C212.339 309.103 212.559 308.578 212.559 307.865C212.559 307.201 212.334 306.713 211.885 306.4C211.44 306.088 210.762 305.932 209.849 305.932H207.717ZM219.407 311.146C218.22 311.146 217.283 310.785 216.594 310.062C215.911 309.34 215.569 308.336 215.569 307.052C215.569 305.758 215.886 304.73 216.521 303.969C217.161 303.207 218.018 302.826 219.092 302.826C220.098 302.826 220.894 303.158 221.479 303.822C222.065 304.481 222.358 305.353 222.358 306.437V307.206H216.829C216.853 308.148 217.09 308.864 217.539 309.352C217.993 309.84 218.63 310.084 219.451 310.084C220.315 310.084 221.169 309.904 222.014 309.542V310.626C221.584 310.812 221.177 310.944 220.791 311.022C220.41 311.105 219.949 311.146 219.407 311.146ZM219.077 303.844C218.433 303.844 217.917 304.054 217.532 304.474C217.151 304.894 216.926 305.475 216.858 306.217H221.055C221.055 305.451 220.884 304.865 220.542 304.459C220.2 304.049 219.712 303.844 219.077 303.844ZM229.932 311V305.807C229.932 305.153 229.783 304.665 229.485 304.342C229.187 304.02 228.721 303.859 228.086 303.859C227.241 303.859 226.624 304.088 226.233 304.547C225.847 305.006 225.654 305.758 225.654 306.803V311H224.438V299.604H225.654V303.053C225.654 303.468 225.635 303.812 225.596 304.086H225.669C225.908 303.7 226.248 303.397 226.687 303.178C227.131 302.953 227.637 302.841 228.203 302.841C229.185 302.841 229.919 303.075 230.408 303.544C230.901 304.008 231.147 304.748 231.147 305.763V311H229.932ZM238.589 311L238.347 309.857H238.289C237.888 310.36 237.488 310.702 237.087 310.883C236.692 311.059 236.196 311.146 235.601 311.146C234.805 311.146 234.18 310.941 233.726 310.531C233.276 310.121 233.052 309.538 233.052 308.781C233.052 307.16 234.348 306.31 236.941 306.232L238.303 306.188V305.69C238.303 305.06 238.167 304.596 237.893 304.298C237.625 303.996 237.192 303.844 236.597 303.844C235.928 303.844 235.171 304.049 234.326 304.459L233.953 303.529C234.348 303.314 234.78 303.146 235.249 303.024C235.723 302.902 236.196 302.841 236.67 302.841C237.627 302.841 238.335 303.053 238.794 303.478C239.258 303.903 239.49 304.584 239.49 305.521V311H238.589ZM235.842 310.143C236.599 310.143 237.192 309.936 237.622 309.521C238.057 309.105 238.274 308.524 238.274 307.777V307.052L237.058 307.104C236.091 307.138 235.393 307.289 234.963 307.558C234.539 307.821 234.326 308.234 234.326 308.795C234.326 309.235 234.458 309.569 234.722 309.799C234.99 310.028 235.364 310.143 235.842 310.143ZM243.76 311L240.713 302.973H242.017L243.745 307.733C244.136 308.847 244.365 309.569 244.434 309.901H244.492C244.546 309.643 244.714 309.108 244.998 308.297C245.286 307.482 245.928 305.707 246.924 302.973H248.228L245.181 311H243.76ZM250.732 311H249.517V302.973H250.732V311ZM249.414 300.797C249.414 300.519 249.482 300.316 249.619 300.189C249.756 300.058 249.927 299.992 250.132 299.992C250.327 299.992 250.496 300.058 250.637 300.189C250.779 300.321 250.85 300.524 250.85 300.797C250.85 301.071 250.779 301.276 250.637 301.413C250.496 301.544 250.327 301.61 250.132 301.61C249.927 301.61 249.756 301.544 249.619 301.413C249.482 301.276 249.414 301.071 249.414 300.797ZM260.239 306.979C260.239 308.288 259.91 309.311 259.25 310.048C258.591 310.78 257.681 311.146 256.519 311.146C255.801 311.146 255.164 310.978 254.607 310.641C254.05 310.304 253.621 309.821 253.318 309.191C253.015 308.561 252.864 307.824 252.864 306.979C252.864 305.67 253.191 304.652 253.845 303.925C254.5 303.192 255.408 302.826 256.57 302.826C257.693 302.826 258.584 303.2 259.243 303.947C259.907 304.694 260.239 305.705 260.239 306.979ZM254.124 306.979C254.124 308.004 254.329 308.786 254.739 309.323C255.149 309.86 255.752 310.128 256.548 310.128C257.344 310.128 257.947 309.862 258.357 309.33C258.772 308.793 258.979 308.009 258.979 306.979C258.979 305.958 258.772 305.185 258.357 304.657C257.947 304.125 257.339 303.859 256.533 303.859C255.737 303.859 255.137 304.12 254.731 304.643C254.326 305.165 254.124 305.944 254.124 306.979ZM266.04 302.826C266.396 302.826 266.716 302.855 267 302.914L266.831 304.042C266.499 303.969 266.206 303.932 265.952 303.932C265.303 303.932 264.746 304.196 264.282 304.723C263.823 305.25 263.594 305.907 263.594 306.693V311H262.378V302.973H263.381L263.521 304.459H263.579C263.877 303.937 264.236 303.534 264.656 303.251C265.076 302.968 265.537 302.826 266.04 302.826ZM213.203 331L211.87 327.594H207.578L206.26 331H205L209.233 320.248H210.281L214.492 331H213.203ZM211.482 326.474L210.237 323.156C210.076 322.736 209.91 322.221 209.739 321.61C209.631 322.079 209.478 322.594 209.277 323.156L208.018 326.474H211.482ZM220.959 328.81C220.959 329.557 220.681 330.133 220.125 330.539C219.568 330.944 218.787 331.146 217.781 331.146C216.716 331.146 215.886 330.978 215.291 330.641V329.513C215.676 329.708 216.089 329.862 216.528 329.975C216.973 330.087 217.4 330.143 217.81 330.143C218.445 330.143 218.933 330.043 219.275 329.843C219.617 329.638 219.788 329.328 219.788 328.913C219.788 328.6 219.651 328.334 219.377 328.114C219.109 327.89 218.582 327.626 217.795 327.323C217.048 327.045 216.516 326.803 216.199 326.598C215.886 326.388 215.652 326.151 215.496 325.888C215.344 325.624 215.269 325.309 215.269 324.943C215.269 324.289 215.535 323.773 216.067 323.397C216.599 323.017 217.329 322.826 218.257 322.826C219.121 322.826 219.966 323.002 220.791 323.354L220.359 324.342C219.553 324.01 218.823 323.844 218.169 323.844C217.593 323.844 217.158 323.935 216.865 324.115C216.572 324.296 216.426 324.545 216.426 324.862C216.426 325.077 216.479 325.26 216.587 325.412C216.699 325.563 216.877 325.707 217.122 325.844C217.366 325.98 217.834 326.178 218.528 326.437C219.48 326.784 220.122 327.133 220.454 327.484C220.791 327.836 220.959 328.278 220.959 328.81ZM228.123 328.81C228.123 329.557 227.844 330.133 227.288 330.539C226.731 330.944 225.95 331.146 224.944 331.146C223.879 331.146 223.049 330.978 222.454 330.641V329.513C222.839 329.708 223.252 329.862 223.691 329.975C224.136 330.087 224.563 330.143 224.973 330.143C225.608 330.143 226.096 330.043 226.438 329.843C226.78 329.638 226.951 329.328 226.951 328.913C226.951 328.6 226.814 328.334 226.541 328.114C226.272 327.89 225.745 327.626 224.958 327.323C224.211 327.045 223.679 326.803 223.362 326.598C223.049 326.388 222.815 326.151 222.659 325.888C222.507 325.624 222.432 325.309 222.432 324.943C222.432 324.289 222.698 323.773 223.23 323.397C223.762 323.017 224.492 322.826 225.42 322.826C226.284 322.826 227.129 323.002 227.954 323.354L227.522 324.342C226.716 324.01 225.986 323.844 225.332 323.844C224.756 323.844 224.321 323.935 224.028 324.115C223.735 324.296 223.589 324.545 223.589 324.862C223.589 325.077 223.643 325.26 223.75 325.412C223.862 325.563 224.041 325.707 224.285 325.844C224.529 325.98 224.998 326.178 225.691 326.437C226.643 326.784 227.285 327.133 227.617 327.484C227.954 327.836 228.123 328.278 228.123 328.81ZM233.499 331.146C232.312 331.146 231.375 330.785 230.686 330.062C230.002 329.34 229.661 328.336 229.661 327.052C229.661 325.758 229.978 324.73 230.613 323.969C231.252 323.207 232.109 322.826 233.184 322.826C234.189 322.826 234.985 323.158 235.571 323.822C236.157 324.481 236.45 325.353 236.45 326.437V327.206H230.92C230.945 328.148 231.182 328.864 231.631 329.352C232.085 329.84 232.722 330.084 233.542 330.084C234.407 330.084 235.261 329.904 236.106 329.542V330.626C235.676 330.812 235.269 330.944 234.883 331.022C234.502 331.105 234.041 331.146 233.499 331.146ZM233.169 323.844C232.524 323.844 232.009 324.054 231.624 324.474C231.243 324.894 231.018 325.475 230.95 326.217H235.146C235.146 325.451 234.976 324.865 234.634 324.459C234.292 324.049 233.804 323.844 233.169 323.844ZM243.708 328.81C243.708 329.557 243.43 330.133 242.874 330.539C242.317 330.944 241.536 331.146 240.53 331.146C239.465 331.146 238.635 330.978 238.04 330.641V329.513C238.425 329.708 238.838 329.862 239.277 329.975C239.722 330.087 240.149 330.143 240.559 330.143C241.194 330.143 241.682 330.043 242.024 329.843C242.366 329.638 242.537 329.328 242.537 328.913C242.537 328.6 242.4 328.334 242.126 328.114C241.858 327.89 241.331 327.626 240.544 327.323C239.797 327.045 239.265 326.803 238.948 326.598C238.635 326.388 238.401 326.151 238.245 325.888C238.093 325.624 238.018 325.309 238.018 324.943C238.018 324.289 238.284 323.773 238.816 323.397C239.348 323.017 240.078 322.826 241.006 322.826C241.87 322.826 242.715 323.002 243.54 323.354L243.108 324.342C242.302 324.01 241.572 323.844 240.918 323.844C240.342 323.844 239.907 323.935 239.614 324.115C239.321 324.296 239.175 324.545 239.175 324.862C239.175 325.077 239.229 325.26 239.336 325.412C239.448 325.563 239.626 325.707 239.871 325.844C240.115 325.98 240.583 326.178 241.277 326.437C242.229 326.784 242.871 327.133 243.203 327.484C243.54 327.836 243.708 328.278 243.708 328.81ZM250.872 328.81C250.872 329.557 250.593 330.133 250.037 330.539C249.48 330.944 248.699 331.146 247.693 331.146C246.628 331.146 245.798 330.978 245.203 330.641V329.513C245.588 329.708 246.001 329.862 246.44 329.975C246.885 330.087 247.312 330.143 247.722 330.143C248.357 330.143 248.845 330.043 249.187 329.843C249.529 329.638 249.7 329.328 249.7 328.913C249.7 328.6 249.563 328.334 249.29 328.114C249.021 327.89 248.494 327.626 247.708 327.323C246.96 327.045 246.428 326.803 246.111 326.598C245.798 326.388 245.564 326.151 245.408 325.888C245.256 325.624 245.181 325.309 245.181 324.943C245.181 324.289 245.447 323.773 245.979 323.397C246.511 323.017 247.241 322.826 248.169 322.826C249.033 322.826 249.878 323.002 250.703 323.354L250.271 324.342C249.465 324.01 248.735 323.844 248.081 323.844C247.505 323.844 247.07 323.935 246.777 324.115C246.484 324.296 246.338 324.545 246.338 324.862C246.338 325.077 246.392 325.26 246.499 325.412C246.611 325.563 246.79 325.707 247.034 325.844C247.278 325.98 247.747 326.178 248.44 326.437C249.392 326.784 250.034 327.133 250.366 327.484C250.703 327.836 250.872 328.278 250.872 328.81ZM263.088 331V325.778C263.088 325.138 262.952 324.66 262.678 324.342C262.405 324.02 261.98 323.859 261.404 323.859C260.647 323.859 260.088 324.076 259.727 324.511C259.365 324.945 259.185 325.614 259.185 326.518V331H257.969V325.778C257.969 325.138 257.832 324.66 257.559 324.342C257.285 324.02 256.858 323.859 256.277 323.859C255.515 323.859 254.956 324.088 254.6 324.547C254.248 325.001 254.072 325.749 254.072 326.789V331H252.856V322.973H253.845L254.043 324.071H254.102C254.331 323.681 254.653 323.375 255.068 323.156C255.488 322.936 255.957 322.826 256.475 322.826C257.729 322.826 258.55 323.28 258.936 324.188H258.994C259.233 323.769 259.58 323.437 260.034 323.192C260.488 322.948 261.006 322.826 261.587 322.826C262.495 322.826 263.174 323.061 263.623 323.529C264.077 323.993 264.304 324.738 264.304 325.763V331H263.088ZM270.208 331.146C269.021 331.146 268.083 330.785 267.395 330.062C266.711 329.34 266.37 328.336 266.37 327.052C266.37 325.758 266.687 324.73 267.322 323.969C267.961 323.207 268.818 322.826 269.893 322.826C270.898 322.826 271.694 323.158 272.28 323.822C272.866 324.481 273.159 325.353 273.159 326.437V327.206H267.629C267.654 328.148 267.891 328.864 268.34 329.352C268.794 329.84 269.431 330.084 270.251 330.084C271.116 330.084 271.97 329.904 272.815 329.542V330.626C272.385 330.812 271.978 330.944 271.592 331.022C271.211 331.105 270.75 331.146 270.208 331.146ZM269.878 323.844C269.233 323.844 268.718 324.054 268.333 324.474C267.952 324.894 267.727 325.475 267.659 326.217H271.855C271.855 325.451 271.685 324.865 271.343 324.459C271.001 324.049 270.513 323.844 269.878 323.844ZM280.732 331V325.807C280.732 325.153 280.583 324.665 280.286 324.342C279.988 324.02 279.521 323.859 278.887 323.859C278.047 323.859 277.432 324.086 277.041 324.54C276.65 324.994 276.455 325.744 276.455 326.789V331H275.239V322.973H276.228L276.426 324.071H276.484C276.733 323.676 277.083 323.371 277.532 323.156C277.981 322.936 278.481 322.826 279.033 322.826C280 322.826 280.728 323.061 281.216 323.529C281.704 323.993 281.948 324.738 281.948 325.763V331H280.732ZM287.046 330.143C287.261 330.143 287.468 330.128 287.668 330.099C287.869 330.065 288.027 330.031 288.145 329.997V330.927C288.013 330.99 287.817 331.042 287.559 331.081C287.305 331.125 287.075 331.146 286.87 331.146C285.317 331.146 284.541 330.329 284.541 328.693V323.917H283.391V323.332L284.541 322.826L285.054 321.112H285.757V322.973H288.086V323.917H285.757V328.642C285.757 329.125 285.872 329.496 286.101 329.755C286.331 330.014 286.646 330.143 287.046 330.143ZM294.934 328.81C294.934 329.557 294.656 330.133 294.099 330.539C293.542 330.944 292.761 331.146 291.755 331.146C290.691 331.146 289.861 330.978 289.265 330.641V329.513C289.651 329.708 290.063 329.862 290.503 329.975C290.947 330.087 291.375 330.143 291.785 330.143C292.419 330.143 292.908 330.043 293.25 329.843C293.591 329.638 293.762 329.328 293.762 328.913C293.762 328.6 293.625 328.334 293.352 328.114C293.083 327.89 292.556 327.626 291.77 327.323C291.023 327.045 290.491 326.803 290.173 326.598C289.861 326.388 289.626 326.151 289.47 325.888C289.319 325.624 289.243 325.309 289.243 324.943C289.243 324.289 289.509 323.773 290.042 323.397C290.574 323.017 291.304 322.826 292.231 322.826C293.096 322.826 293.94 323.002 294.766 323.354L294.333 324.342C293.528 324.01 292.798 323.844 292.144 323.844C291.567 323.844 291.133 323.935 290.84 324.115C290.547 324.296 290.4 324.545 290.4 324.862C290.4 325.077 290.454 325.26 290.562 325.412C290.674 325.563 290.852 325.707 291.096 325.844C291.34 325.98 291.809 326.178 292.502 326.437C293.455 326.784 294.097 327.133 294.429 327.484C294.766 327.836 294.934 328.278 294.934 328.81Z" fill="black"/>
<path d="M261.472 252.292H264.497C265.918 252.292 266.946 252.504 267.581 252.929C268.215 253.354 268.533 254.025 268.533 254.943C268.533 255.578 268.354 256.103 267.998 256.518C267.646 256.928 267.131 257.194 266.453 257.316V257.39C268.079 257.668 268.892 258.522 268.892 259.953C268.892 260.91 268.567 261.657 267.917 262.194C267.273 262.731 266.37 263 265.208 263H261.472V252.292ZM262.717 256.877H264.768C265.647 256.877 266.279 256.74 266.665 256.467C267.051 256.188 267.244 255.722 267.244 255.068C267.244 254.467 267.029 254.035 266.599 253.771C266.169 253.503 265.486 253.369 264.548 253.369H262.717V256.877ZM262.717 257.932V261.938H264.951C265.815 261.938 266.465 261.772 266.899 261.44C267.339 261.103 267.559 260.578 267.559 259.865C267.559 259.201 267.334 258.713 266.885 258.4C266.44 258.088 265.762 257.932 264.849 257.932H262.717ZM274.407 263.146C273.22 263.146 272.283 262.785 271.594 262.062C270.911 261.34 270.569 260.336 270.569 259.052C270.569 257.758 270.886 256.73 271.521 255.969C272.161 255.207 273.018 254.826 274.092 254.826C275.098 254.826 275.894 255.158 276.479 255.822C277.065 256.481 277.358 257.353 277.358 258.437V259.206H271.829C271.853 260.148 272.09 260.864 272.539 261.352C272.993 261.84 273.63 262.084 274.451 262.084C275.315 262.084 276.169 261.904 277.014 261.542V262.626C276.584 262.812 276.177 262.944 275.791 263.022C275.41 263.105 274.949 263.146 274.407 263.146ZM274.077 255.844C273.433 255.844 272.917 256.054 272.532 256.474C272.151 256.894 271.926 257.475 271.858 258.217H276.055C276.055 257.451 275.884 256.865 275.542 256.459C275.2 256.049 274.712 255.844 274.077 255.844ZM284.932 263V257.807C284.932 257.153 284.783 256.665 284.485 256.342C284.187 256.02 283.721 255.859 283.086 255.859C282.241 255.859 281.624 256.088 281.233 256.547C280.847 257.006 280.654 257.758 280.654 258.803V263H279.438V251.604H280.654V255.053C280.654 255.468 280.635 255.812 280.596 256.086H280.669C280.908 255.7 281.248 255.397 281.687 255.178C282.131 254.953 282.637 254.841 283.203 254.841C284.185 254.841 284.919 255.075 285.408 255.544C285.901 256.008 286.147 256.748 286.147 257.763V263H284.932ZM293.589 263L293.347 261.857H293.289C292.888 262.36 292.488 262.702 292.087 262.883C291.692 263.059 291.196 263.146 290.601 263.146C289.805 263.146 289.18 262.941 288.726 262.531C288.276 262.121 288.052 261.538 288.052 260.781C288.052 259.16 289.348 258.31 291.941 258.232L293.303 258.188V257.69C293.303 257.06 293.167 256.596 292.893 256.298C292.625 255.996 292.192 255.844 291.597 255.844C290.928 255.844 290.171 256.049 289.326 256.459L288.953 255.529C289.348 255.314 289.78 255.146 290.249 255.024C290.723 254.902 291.196 254.841 291.67 254.841C292.627 254.841 293.335 255.053 293.794 255.478C294.258 255.903 294.49 256.584 294.49 257.521V263H293.589ZM290.842 262.143C291.599 262.143 292.192 261.936 292.622 261.521C293.057 261.105 293.274 260.524 293.274 259.777V259.052L292.058 259.104C291.091 259.138 290.393 259.289 289.963 259.558C289.539 259.821 289.326 260.234 289.326 260.795C289.326 261.235 289.458 261.569 289.722 261.799C289.99 262.028 290.364 262.143 290.842 262.143ZM298.76 263L295.713 254.973H297.017L298.745 259.733C299.136 260.847 299.365 261.569 299.434 261.901H299.492C299.546 261.643 299.714 261.108 299.998 260.297C300.286 259.482 300.928 257.707 301.924 254.973H303.228L300.181 263H298.76ZM305.732 263H304.517V254.973H305.732V263ZM304.414 252.797C304.414 252.519 304.482 252.316 304.619 252.189C304.756 252.058 304.927 251.992 305.132 251.992C305.327 251.992 305.496 252.058 305.637 252.189C305.779 252.321 305.85 252.524 305.85 252.797C305.85 253.071 305.779 253.276 305.637 253.413C305.496 253.544 305.327 253.61 305.132 253.61C304.927 253.61 304.756 253.544 304.619 253.413C304.482 253.276 304.414 253.071 304.414 252.797ZM315.239 258.979C315.239 260.288 314.91 261.311 314.25 262.048C313.591 262.78 312.681 263.146 311.519 263.146C310.801 263.146 310.164 262.978 309.607 262.641C309.05 262.304 308.621 261.821 308.318 261.191C308.015 260.561 307.864 259.824 307.864 258.979C307.864 257.67 308.191 256.652 308.845 255.925C309.5 255.192 310.408 254.826 311.57 254.826C312.693 254.826 313.584 255.2 314.243 255.947C314.907 256.694 315.239 257.705 315.239 258.979ZM309.124 258.979C309.124 260.004 309.329 260.786 309.739 261.323C310.149 261.86 310.752 262.128 311.548 262.128C312.344 262.128 312.947 261.862 313.357 261.33C313.772 260.793 313.979 260.009 313.979 258.979C313.979 257.958 313.772 257.185 313.357 256.657C312.947 256.125 312.339 255.859 311.533 255.859C310.737 255.859 310.137 256.12 309.731 256.643C309.326 257.165 309.124 257.944 309.124 258.979ZM321.04 254.826C321.396 254.826 321.716 254.855 322 254.914L321.831 256.042C321.499 255.969 321.206 255.932 320.952 255.932C320.303 255.932 319.746 256.196 319.282 256.723C318.823 257.25 318.594 257.907 318.594 258.693V263H317.378V254.973H318.381L318.521 256.459H318.579C318.877 255.937 319.236 255.534 319.656 255.251C320.076 254.968 320.537 254.826 321.04 254.826ZM261.472 283V272.292H262.717V283H261.472ZM270.942 281.923H270.876C270.315 282.739 269.475 283.146 268.357 283.146C267.307 283.146 266.489 282.788 265.903 282.07C265.322 281.352 265.032 280.332 265.032 279.008C265.032 277.685 265.325 276.657 265.911 275.925C266.497 275.192 267.312 274.826 268.357 274.826C269.446 274.826 270.281 275.222 270.862 276.013H270.957L270.906 275.434L270.876 274.87V271.604H272.092V283H271.104L270.942 281.923ZM268.511 282.128C269.341 282.128 269.941 281.904 270.312 281.455C270.688 281 270.876 280.271 270.876 279.265V279.008C270.876 277.871 270.686 277.06 270.305 276.577C269.929 276.088 269.326 275.844 268.496 275.844C267.783 275.844 267.236 276.123 266.855 276.679C266.479 277.231 266.292 278.012 266.292 279.023C266.292 280.048 266.479 280.822 266.855 281.345C267.231 281.867 267.783 282.128 268.511 282.128ZM278.069 283.146C276.882 283.146 275.945 282.785 275.256 282.062C274.573 281.34 274.231 280.336 274.231 279.052C274.231 277.758 274.548 276.73 275.183 275.969C275.823 275.207 276.68 274.826 277.754 274.826C278.76 274.826 279.556 275.158 280.142 275.822C280.728 276.481 281.021 277.353 281.021 278.437V279.206H275.491C275.515 280.148 275.752 280.864 276.201 281.352C276.655 281.84 277.292 282.084 278.113 282.084C278.977 282.084 279.832 281.904 280.676 281.542V282.626C280.247 282.812 279.839 282.944 279.453 283.022C279.072 283.105 278.611 283.146 278.069 283.146ZM277.739 275.844C277.095 275.844 276.58 276.054 276.194 276.474C275.813 276.894 275.588 277.475 275.52 278.217H279.717C279.717 277.451 279.546 276.865 279.204 276.459C278.862 276.049 278.374 275.844 277.739 275.844ZM288.594 283V277.807C288.594 277.153 288.445 276.665 288.147 276.342C287.849 276.02 287.383 275.859 286.748 275.859C285.908 275.859 285.293 276.086 284.902 276.54C284.512 276.994 284.316 277.744 284.316 278.789V283H283.101V274.973H284.089L284.287 276.071H284.346C284.595 275.676 284.944 275.371 285.393 275.156C285.842 274.936 286.343 274.826 286.895 274.826C287.861 274.826 288.589 275.061 289.077 275.529C289.565 275.993 289.81 276.738 289.81 277.763V283H288.594ZM294.907 282.143C295.122 282.143 295.33 282.128 295.53 282.099C295.73 282.065 295.889 282.031 296.006 281.997V282.927C295.874 282.99 295.679 283.042 295.42 283.081C295.166 283.125 294.937 283.146 294.731 283.146C293.179 283.146 292.402 282.329 292.402 280.693V275.917H291.252V275.332L292.402 274.826L292.915 273.112H293.618V274.973H295.947V275.917H293.618V280.642C293.618 281.125 293.733 281.496 293.962 281.755C294.192 282.014 294.507 282.143 294.907 282.143ZM298.833 283H297.617V274.973H298.833V283ZM297.515 272.797C297.515 272.519 297.583 272.316 297.72 272.189C297.856 272.058 298.027 271.992 298.232 271.992C298.428 271.992 298.596 272.058 298.738 272.189C298.879 272.321 298.95 272.524 298.95 272.797C298.95 273.071 298.879 273.276 298.738 273.413C298.596 273.544 298.428 273.61 298.232 273.61C298.027 273.61 297.856 273.544 297.72 273.413C297.583 273.276 297.515 273.071 297.515 272.797ZM305.029 275.917H302.986V283H301.77V275.917H300.334V275.368L301.77 274.929V274.482C301.77 272.509 302.632 271.523 304.355 271.523C304.78 271.523 305.278 271.608 305.85 271.779L305.535 272.753C305.066 272.602 304.666 272.526 304.333 272.526C303.875 272.526 303.535 272.68 303.315 272.988C303.096 273.291 302.986 273.779 302.986 274.453V274.973H305.029V275.917ZM307.71 283H306.494V274.973H307.71V283ZM306.392 272.797C306.392 272.519 306.46 272.316 306.597 272.189C306.733 272.058 306.904 271.992 307.109 271.992C307.305 271.992 307.473 272.058 307.615 272.189C307.756 272.321 307.827 272.524 307.827 272.797C307.827 273.071 307.756 273.276 307.615 273.413C307.473 273.544 307.305 273.61 307.109 273.61C306.904 273.61 306.733 273.544 306.597 273.413C306.46 273.276 306.392 273.071 306.392 272.797ZM313.496 283.146C312.334 283.146 311.433 282.79 310.793 282.077C310.159 281.359 309.841 280.346 309.841 279.038C309.841 277.695 310.164 276.657 310.808 275.925C311.458 275.192 312.38 274.826 313.577 274.826C313.962 274.826 314.348 274.868 314.734 274.951C315.12 275.034 315.422 275.131 315.642 275.244L315.269 276.276C315 276.169 314.707 276.081 314.39 276.013C314.072 275.939 313.792 275.903 313.547 275.903C311.917 275.903 311.101 276.943 311.101 279.023C311.101 280.009 311.299 280.766 311.694 281.293C312.095 281.821 312.686 282.084 313.467 282.084C314.136 282.084 314.822 281.94 315.525 281.652V282.729C314.988 283.007 314.312 283.146 313.496 283.146ZM322.373 283L322.131 281.857H322.073C321.672 282.36 321.272 282.702 320.872 282.883C320.476 283.059 319.98 283.146 319.385 283.146C318.589 283.146 317.964 282.941 317.51 282.531C317.061 282.121 316.836 281.538 316.836 280.781C316.836 279.16 318.132 278.31 320.725 278.232L322.087 278.188V277.69C322.087 277.06 321.951 276.596 321.677 276.298C321.409 275.996 320.977 275.844 320.381 275.844C319.712 275.844 318.955 276.049 318.11 276.459L317.737 275.529C318.132 275.314 318.564 275.146 319.033 275.024C319.507 274.902 319.98 274.841 320.454 274.841C321.411 274.841 322.119 275.053 322.578 275.478C323.042 275.903 323.274 276.584 323.274 277.521V283H322.373ZM319.626 282.143C320.383 282.143 320.977 281.936 321.406 281.521C321.841 281.105 322.058 280.524 322.058 279.777V279.052L320.842 279.104C319.875 279.138 319.177 279.289 318.748 279.558C318.323 279.821 318.11 280.234 318.11 280.795C318.11 281.235 318.242 281.569 318.506 281.799C318.774 282.028 319.148 282.143 319.626 282.143ZM328.379 282.143C328.594 282.143 328.801 282.128 329.001 282.099C329.202 282.065 329.36 282.031 329.478 281.997V282.927C329.346 282.99 329.15 283.042 328.892 283.081C328.638 283.125 328.408 283.146 328.203 283.146C326.65 283.146 325.874 282.329 325.874 280.693V275.917H324.724V275.332L325.874 274.826L326.387 273.112H327.09V274.973H329.419V275.917H327.09V280.642C327.09 281.125 327.205 281.496 327.434 281.755C327.664 282.014 327.979 282.143 328.379 282.143ZM332.305 283H331.089V274.973H332.305V283ZM330.986 272.797C330.986 272.519 331.055 272.316 331.191 272.189C331.328 272.058 331.499 271.992 331.704 271.992C331.899 271.992 332.068 272.058 332.209 272.189C332.351 272.321 332.422 272.524 332.422 272.797C332.422 273.071 332.351 273.276 332.209 273.413C332.068 273.544 331.899 273.61 331.704 273.61C331.499 273.61 331.328 273.544 331.191 273.413C331.055 273.276 330.986 273.071 330.986 272.797ZM341.812 278.979C341.812 280.288 341.482 281.311 340.823 282.048C340.164 282.78 339.253 283.146 338.091 283.146C337.373 283.146 336.736 282.978 336.179 282.641C335.623 282.304 335.193 281.821 334.89 281.191C334.587 280.561 334.436 279.824 334.436 278.979C334.436 277.67 334.763 276.652 335.417 275.925C336.072 275.192 336.98 274.826 338.142 274.826C339.265 274.826 340.156 275.2 340.815 275.947C341.479 276.694 341.812 277.705 341.812 278.979ZM335.696 278.979C335.696 280.004 335.901 280.786 336.311 281.323C336.721 281.86 337.324 282.128 338.12 282.128C338.916 282.128 339.519 281.862 339.929 281.33C340.344 280.793 340.552 280.009 340.552 278.979C340.552 277.958 340.344 277.185 339.929 276.657C339.519 276.125 338.911 275.859 338.105 275.859C337.31 275.859 336.709 276.12 336.304 276.643C335.898 277.165 335.696 277.944 335.696 278.979ZM349.443 283V277.807C349.443 277.153 349.294 276.665 348.997 276.342C348.699 276.02 348.232 275.859 347.598 275.859C346.758 275.859 346.143 276.086 345.752 276.54C345.361 276.994 345.166 277.744 345.166 278.789V283H343.95V274.973H344.939L345.137 276.071H345.195C345.444 275.676 345.793 275.371 346.243 275.156C346.692 274.936 347.192 274.826 347.744 274.826C348.711 274.826 349.438 275.061 349.927 275.529C350.415 275.993 350.659 276.738 350.659 277.763V283H349.443Z" fill="black"/>
<path d="M434.02 248.201C434.02 249.458 433.564 250.438 432.652 251.141C431.741 251.844 430.504 252.195 428.941 252.195C427.249 252.195 425.947 251.977 425.035 251.541V249.939C425.621 250.187 426.259 250.382 426.949 250.525C427.639 250.669 428.323 250.74 429 250.74C430.107 250.74 430.94 250.532 431.5 250.115C432.06 249.692 432.34 249.106 432.34 248.357C432.34 247.863 432.239 247.459 432.037 247.146C431.842 246.827 431.51 246.535 431.041 246.268C430.579 246.001 429.872 245.698 428.922 245.359C427.594 244.884 426.643 244.321 426.07 243.67C425.504 243.019 425.221 242.169 425.221 241.121C425.221 240.021 425.634 239.145 426.461 238.494C427.288 237.843 428.382 237.518 429.742 237.518C431.161 237.518 432.467 237.778 433.658 238.299L433.141 239.744C431.962 239.249 430.816 239.002 429.703 239.002C428.824 239.002 428.137 239.191 427.643 239.568C427.148 239.946 426.9 240.47 426.9 241.141C426.9 241.635 426.992 242.042 427.174 242.361C427.356 242.674 427.662 242.964 428.092 243.23C428.528 243.491 429.192 243.781 430.084 244.1C431.581 244.633 432.61 245.206 433.17 245.818C433.736 246.43 434.02 247.225 434.02 248.201ZM445.992 241.883C445.992 243.328 445.497 244.441 444.508 245.223C443.525 245.997 442.115 246.385 440.279 246.385H438.6V252H436.939V237.723H440.641C444.208 237.723 445.992 239.109 445.992 241.883ZM438.6 244.959H440.094C441.565 244.959 442.63 244.721 443.287 244.246C443.945 243.771 444.273 243.009 444.273 241.961C444.273 241.017 443.964 240.314 443.346 239.852C442.727 239.389 441.764 239.158 440.455 239.158H438.6V244.959ZM457.047 248.201C457.047 249.458 456.591 250.438 455.68 251.141C454.768 251.844 453.531 252.195 451.969 252.195C450.276 252.195 448.974 251.977 448.062 251.541V249.939C448.648 250.187 449.286 250.382 449.977 250.525C450.667 250.669 451.35 250.74 452.027 250.74C453.134 250.74 453.967 250.532 454.527 250.115C455.087 249.692 455.367 249.106 455.367 248.357C455.367 247.863 455.266 247.459 455.064 247.146C454.869 246.827 454.537 246.535 454.068 246.268C453.606 246.001 452.9 245.698 451.949 245.359C450.621 244.884 449.671 244.321 449.098 243.67C448.531 243.019 448.248 242.169 448.248 241.121C448.248 240.021 448.661 239.145 449.488 238.494C450.315 237.843 451.409 237.518 452.77 237.518C454.189 237.518 455.494 237.778 456.686 238.299L456.168 239.744C454.99 239.249 453.844 239.002 452.73 239.002C451.852 239.002 451.165 239.191 450.67 239.568C450.175 239.946 449.928 240.47 449.928 241.141C449.928 241.635 450.019 242.042 450.201 242.361C450.383 242.674 450.689 242.964 451.119 243.23C451.555 243.491 452.219 243.781 453.111 244.1C454.609 244.633 455.637 245.206 456.197 245.818C456.764 246.43 457.047 247.225 457.047 248.201ZM468.023 248.201C468.023 249.458 467.568 250.438 466.656 251.141C465.745 251.844 464.508 252.195 462.945 252.195C461.253 252.195 459.951 251.977 459.039 251.541V249.939C459.625 250.187 460.263 250.382 460.953 250.525C461.643 250.669 462.327 250.74 463.004 250.74C464.111 250.74 464.944 250.532 465.504 250.115C466.064 249.692 466.344 249.106 466.344 248.357C466.344 247.863 466.243 247.459 466.041 247.146C465.846 246.827 465.514 246.535 465.045 246.268C464.583 246.001 463.876 245.698 462.926 245.359C461.598 244.884 460.647 244.321 460.074 243.67C459.508 243.019 459.225 242.169 459.225 241.121C459.225 240.021 459.638 239.145 460.465 238.494C461.292 237.843 462.385 237.518 463.746 237.518C465.165 237.518 466.471 237.778 467.662 238.299L467.145 239.744C465.966 239.249 464.82 239.002 463.707 239.002C462.828 239.002 462.141 239.191 461.646 239.568C461.152 239.946 460.904 240.47 460.904 241.141C460.904 241.635 460.995 242.042 461.178 242.361C461.36 242.674 461.666 242.964 462.096 243.23C462.532 243.491 463.196 243.781 464.088 244.1C465.585 244.633 466.614 245.206 467.174 245.818C467.74 246.43 468.023 247.225 468.023 248.201Z" fill="black"/>
<path d="M90.9375 310L89.1602 305.459H83.4375L81.6797 310H80L85.6445 295.664H87.041L92.6562 310H90.9375ZM88.6426 303.965L86.9824 299.541C86.7676 298.981 86.5462 298.294 86.3184 297.48C86.1751 298.105 85.9701 298.792 85.7031 299.541L84.0234 303.965H88.6426ZM101.66 308.564H101.572C100.824 309.652 99.7038 310.195 98.2129 310.195C96.8132 310.195 95.7227 309.717 94.9414 308.76C94.1667 307.803 93.7793 306.442 93.7793 304.678C93.7793 302.913 94.1699 301.543 94.9512 300.566C95.7324 299.59 96.8197 299.102 98.2129 299.102C99.6647 299.102 100.778 299.629 101.553 300.684H101.68L101.611 299.912L101.572 299.16V294.805H103.193V310H101.875L101.66 308.564ZM98.418 308.838C99.5247 308.838 100.326 308.538 100.82 307.939C101.322 307.334 101.572 306.361 101.572 305.02V304.678C101.572 303.161 101.318 302.08 100.811 301.436C100.309 300.785 99.5052 300.459 98.3984 300.459C97.4479 300.459 96.7188 300.83 96.2109 301.572C95.7096 302.308 95.459 303.35 95.459 304.697C95.459 306.064 95.7096 307.096 96.2109 307.793C96.7122 308.49 97.4479 308.838 98.418 308.838ZM115.879 304.639C115.879 306.383 115.439 307.747 114.561 308.73C113.682 309.707 112.467 310.195 110.918 310.195C109.961 310.195 109.111 309.971 108.369 309.521C107.627 309.072 107.054 308.428 106.65 307.588C106.247 306.748 106.045 305.765 106.045 304.639C106.045 302.894 106.481 301.536 107.354 300.566C108.226 299.59 109.437 299.102 110.986 299.102C112.484 299.102 113.672 299.6 114.551 300.596C115.436 301.592 115.879 302.939 115.879 304.639ZM107.725 304.639C107.725 306.006 107.998 307.048 108.545 307.764C109.092 308.48 109.896 308.838 110.957 308.838C112.018 308.838 112.822 308.483 113.369 307.773C113.923 307.057 114.199 306.012 114.199 304.639C114.199 303.278 113.923 302.246 113.369 301.543C112.822 300.833 112.012 300.479 110.938 300.479C109.876 300.479 109.076 300.827 108.535 301.523C107.995 302.22 107.725 303.258 107.725 304.639ZM123.711 299.121C125.117 299.121 126.208 299.603 126.982 300.566C127.764 301.523 128.154 302.881 128.154 304.639C128.154 306.396 127.76 307.764 126.973 308.74C126.191 309.71 125.104 310.195 123.711 310.195C123.014 310.195 122.376 310.068 121.797 309.814C121.224 309.554 120.742 309.157 120.352 308.623H120.234L119.893 310H118.73V294.805H120.352V298.496C120.352 299.323 120.326 300.065 120.273 300.723H120.352C121.107 299.655 122.227 299.121 123.711 299.121ZM123.477 300.479C122.37 300.479 121.572 300.798 121.084 301.436C120.596 302.067 120.352 303.135 120.352 304.639C120.352 306.143 120.602 307.22 121.104 307.871C121.605 308.516 122.409 308.838 123.516 308.838C124.512 308.838 125.254 308.477 125.742 307.754C126.23 307.025 126.475 305.98 126.475 304.619C126.475 303.226 126.23 302.188 125.742 301.504C125.254 300.82 124.499 300.479 123.477 300.479ZM135.518 310.195C133.936 310.195 132.686 309.714 131.768 308.75C130.856 307.786 130.4 306.449 130.4 304.736C130.4 303.011 130.824 301.641 131.67 300.625C132.523 299.609 133.665 299.102 135.098 299.102C136.439 299.102 137.5 299.544 138.281 300.43C139.062 301.309 139.453 302.471 139.453 303.916V304.941H132.08C132.113 306.198 132.428 307.152 133.027 307.803C133.633 308.454 134.482 308.779 135.576 308.779C136.729 308.779 137.868 308.538 138.994 308.057V309.502C138.421 309.749 137.878 309.925 137.363 310.029C136.855 310.14 136.24 310.195 135.518 310.195ZM135.078 300.459C134.219 300.459 133.532 300.739 133.018 301.299C132.51 301.859 132.21 302.633 132.119 303.623H137.715C137.715 302.601 137.487 301.82 137.031 301.279C136.576 300.732 135.924 300.459 135.078 300.459ZM157.168 310H155.283L151.445 303.721L147.539 310H145.781L150.527 302.539L146.104 295.723H147.939L151.484 301.377L155.059 295.723H156.826L152.402 302.48L157.168 310ZM170.605 302.725C170.605 305.081 169.964 306.885 168.682 308.135C167.406 309.378 165.566 310 163.164 310H159.209V295.723H163.584C165.804 295.723 167.529 296.338 168.76 297.568C169.99 298.799 170.605 300.518 170.605 302.725ZM168.848 302.783C168.848 300.921 168.379 299.518 167.441 298.574C166.51 297.63 165.124 297.158 163.281 297.158H160.869V308.564H162.891C164.87 308.564 166.357 308.079 167.354 307.109C168.35 306.133 168.848 304.691 168.848 302.783Z" fill="black"/>
<path d="M313.833 341.864V349.717C313.833 351.1 313.415 352.188 312.579 352.979C311.743 353.77 310.595 354.166 309.134 354.166C307.673 354.166 306.542 353.768 305.739 352.971C304.942 352.174 304.544 351.078 304.544 349.684V341.864H305.955V349.783C305.955 350.796 306.232 351.573 306.785 352.116C307.339 352.658 308.152 352.929 309.226 352.929C310.249 352.929 311.038 352.658 311.591 352.116C312.145 351.568 312.421 350.785 312.421 349.767V341.864H313.833ZM325.13 354H323.528L320.266 348.663L316.945 354H315.451L319.485 347.658L315.725 341.864H317.286L320.299 346.67L323.337 341.864H324.839L321.079 347.608L325.13 354ZM304.668 377V364.864H306.08V377H304.668ZM315.435 377V371.115C315.435 370.373 315.266 369.82 314.928 369.455C314.591 369.089 314.062 368.907 313.343 368.907C312.391 368.907 311.694 369.164 311.251 369.679C310.808 370.193 310.587 371.043 310.587 372.227V377H309.209V367.902H310.33L310.554 369.147H310.62C310.902 368.699 311.298 368.353 311.807 368.11C312.316 367.861 312.883 367.736 313.509 367.736C314.604 367.736 315.429 368.002 315.982 368.533C316.536 369.059 316.812 369.903 316.812 371.065V377H315.435ZM322.59 376.029C322.833 376.029 323.069 376.012 323.295 375.979C323.522 375.94 323.702 375.902 323.835 375.863V376.917C323.686 376.989 323.464 377.047 323.171 377.091C322.883 377.141 322.623 377.166 322.391 377.166C320.631 377.166 319.751 376.239 319.751 374.385V368.973H318.448V368.309L319.751 367.736L320.332 365.794H321.129V367.902H323.769V368.973H321.129V374.327C321.129 374.875 321.259 375.296 321.519 375.589C321.779 375.882 322.136 376.029 322.59 376.029ZM329.504 377.166C328.16 377.166 327.097 376.757 326.317 375.938C325.542 375.118 325.155 373.981 325.155 372.526C325.155 371.059 325.514 369.895 326.234 369.031C326.959 368.168 327.93 367.736 329.147 367.736C330.287 367.736 331.189 368.113 331.854 368.865C332.518 369.612 332.85 370.6 332.85 371.829V372.7H326.583C326.61 373.768 326.879 374.579 327.388 375.132C327.902 375.686 328.625 375.962 329.554 375.962C330.534 375.962 331.502 375.758 332.459 375.348V376.577C331.972 376.787 331.51 376.936 331.073 377.025C330.642 377.119 330.119 377.166 329.504 377.166ZM329.131 368.89C328.4 368.89 327.817 369.128 327.379 369.604C326.948 370.08 326.693 370.738 326.616 371.58H331.372C331.372 370.711 331.178 370.047 330.791 369.587C330.404 369.123 329.85 368.89 329.131 368.89ZM339.357 367.736C339.761 367.736 340.124 367.77 340.445 367.836L340.254 369.114C339.878 369.031 339.546 368.99 339.258 368.99C338.522 368.99 337.891 369.289 337.365 369.886C336.845 370.484 336.585 371.228 336.585 372.119V377H335.207V367.902H336.344L336.502 369.587H336.568C336.906 368.995 337.313 368.539 337.789 368.218C338.264 367.897 338.787 367.736 339.357 367.736ZM344.139 377L340.686 367.902H342.163L344.122 373.298C344.565 374.56 344.825 375.379 344.902 375.755H344.969C345.03 375.462 345.221 374.856 345.542 373.937C345.868 373.013 346.596 371.001 347.725 367.902H349.202L345.749 377H344.139ZM352.041 377H350.663V367.902H352.041V377ZM350.547 365.437C350.547 365.122 350.624 364.892 350.779 364.748C350.934 364.599 351.128 364.524 351.36 364.524C351.582 364.524 351.773 364.599 351.933 364.748C352.094 364.897 352.174 365.127 352.174 365.437C352.174 365.747 352.094 365.979 351.933 366.134C351.773 366.284 351.582 366.358 351.36 366.358C351.128 366.358 350.934 366.284 350.779 366.134C350.624 365.979 350.547 365.747 350.547 365.437ZM358.806 377.166C357.461 377.166 356.399 376.757 355.619 375.938C354.844 375.118 354.457 373.981 354.457 372.526C354.457 371.059 354.816 369.895 355.536 369.031C356.261 368.168 357.232 367.736 358.449 367.736C359.589 367.736 360.491 368.113 361.155 368.865C361.819 369.612 362.151 370.6 362.151 371.829V372.7H355.884C355.912 373.768 356.18 374.579 356.689 375.132C357.204 375.686 357.926 375.962 358.856 375.962C359.835 375.962 360.804 375.758 361.761 375.348V376.577C361.274 376.787 360.812 376.936 360.375 377.025C359.943 377.119 359.42 377.166 358.806 377.166ZM358.433 368.89C357.702 368.89 357.118 369.128 356.681 369.604C356.25 370.08 355.995 370.738 355.917 371.58H360.674C360.674 370.711 360.48 370.047 360.093 369.587C359.705 369.123 359.152 368.89 358.433 368.89ZM371.938 377L370.27 371.663C370.164 371.336 369.968 370.595 369.68 369.438H369.614C369.392 370.406 369.199 371.153 369.033 371.679L367.314 377H365.721L363.239 367.902H364.683C365.27 370.188 365.715 371.928 366.02 373.124C366.329 374.319 366.507 375.124 366.551 375.539H366.617C366.678 375.224 366.775 374.817 366.908 374.319C367.046 373.815 367.165 373.417 367.265 373.124L368.933 367.902H370.427L372.054 373.124C372.364 374.075 372.574 374.875 372.685 375.522H372.751C372.774 375.323 372.832 375.016 372.926 374.601C373.025 374.186 373.604 371.953 374.661 367.902H376.088L373.573 377H371.938ZM383.609 374.518C383.609 375.365 383.293 376.018 382.663 376.477C382.032 376.936 381.146 377.166 380.006 377.166C378.8 377.166 377.859 376.975 377.184 376.593V375.315C377.621 375.536 378.089 375.711 378.587 375.838C379.09 375.965 379.575 376.029 380.04 376.029C380.759 376.029 381.312 375.915 381.7 375.688C382.087 375.456 382.281 375.105 382.281 374.634C382.281 374.28 382.126 373.979 381.816 373.729C381.512 373.475 380.914 373.176 380.023 372.833C379.176 372.518 378.573 372.244 378.213 372.011C377.859 371.773 377.594 371.505 377.417 371.206C377.245 370.907 377.159 370.55 377.159 370.135C377.159 369.394 377.461 368.81 378.064 368.384C378.667 367.952 379.494 367.736 380.546 367.736C381.525 367.736 382.483 367.936 383.418 368.334L382.928 369.455C382.015 369.078 381.188 368.89 380.446 368.89C379.793 368.89 379.301 368.993 378.969 369.197C378.637 369.402 378.471 369.684 378.471 370.044C378.471 370.287 378.532 370.495 378.653 370.667C378.781 370.838 378.983 371.001 379.259 371.156C379.536 371.311 380.067 371.535 380.853 371.829C381.932 372.222 382.66 372.617 383.036 373.016C383.418 373.414 383.609 373.915 383.609 374.518Z" fill="black"/>
<path d="M165.938 254L164.16 249.459H158.438L156.68 254H155L160.645 239.664H162.041L167.656 254H165.938ZM163.643 247.965L161.982 243.541C161.768 242.981 161.546 242.294 161.318 241.48C161.175 242.105 160.97 242.792 160.703 243.541L159.023 247.965H163.643ZM169.619 239.723H173.652C175.547 239.723 176.917 240.006 177.764 240.572C178.61 241.139 179.033 242.034 179.033 243.258C179.033 244.104 178.796 244.804 178.32 245.357C177.852 245.904 177.165 246.259 176.26 246.422V246.52C178.428 246.891 179.512 248.03 179.512 249.938C179.512 251.214 179.079 252.21 178.213 252.926C177.354 253.642 176.149 254 174.6 254H169.619V239.723ZM171.279 245.836H174.014C175.186 245.836 176.029 245.654 176.543 245.289C177.057 244.918 177.314 244.296 177.314 243.424C177.314 242.623 177.028 242.047 176.455 241.695C175.882 241.337 174.971 241.158 173.721 241.158H171.279V245.836ZM171.279 247.242V252.584H174.258C175.41 252.584 176.276 252.363 176.855 251.92C177.441 251.471 177.734 250.771 177.734 249.82C177.734 248.935 177.435 248.284 176.836 247.867C176.243 247.451 175.339 247.242 174.121 247.242H171.279ZM161.357 281H159.697V268.197H155.176V266.723H165.879V268.197H161.357V281ZM172.314 281.195C170.732 281.195 169.482 280.714 168.564 279.75C167.653 278.786 167.197 277.449 167.197 275.736C167.197 274.011 167.62 272.641 168.467 271.625C169.32 270.609 170.462 270.102 171.895 270.102C173.236 270.102 174.297 270.544 175.078 271.43C175.859 272.309 176.25 273.471 176.25 274.916V275.941H168.877C168.91 277.198 169.225 278.152 169.824 278.803C170.43 279.454 171.279 279.779 172.373 279.779C173.525 279.779 174.665 279.538 175.791 279.057V280.502C175.218 280.749 174.674 280.925 174.16 281.029C173.652 281.14 173.037 281.195 172.314 281.195ZM171.875 271.459C171.016 271.459 170.329 271.739 169.814 272.299C169.307 272.859 169.007 273.633 168.916 274.623H174.512C174.512 273.601 174.284 272.82 173.828 272.279C173.372 271.732 172.721 271.459 171.875 271.459ZM185.928 278.08C185.928 279.076 185.557 279.844 184.814 280.385C184.072 280.925 183.031 281.195 181.689 281.195C180.27 281.195 179.163 280.971 178.369 280.521V279.018C178.883 279.278 179.434 279.483 180.02 279.633C180.612 279.783 181.182 279.857 181.729 279.857C182.575 279.857 183.226 279.724 183.682 279.457C184.137 279.184 184.365 278.77 184.365 278.217C184.365 277.8 184.183 277.445 183.818 277.152C183.46 276.853 182.757 276.501 181.709 276.098C180.713 275.727 180.003 275.404 179.58 275.131C179.163 274.851 178.851 274.535 178.643 274.184C178.441 273.832 178.34 273.412 178.34 272.924C178.34 272.051 178.695 271.365 179.404 270.863C180.114 270.355 181.087 270.102 182.324 270.102C183.477 270.102 184.603 270.336 185.703 270.805L185.127 272.123C184.053 271.68 183.079 271.459 182.207 271.459C181.439 271.459 180.859 271.579 180.469 271.82C180.078 272.061 179.883 272.393 179.883 272.816C179.883 273.103 179.954 273.347 180.098 273.549C180.247 273.751 180.485 273.943 180.811 274.125C181.136 274.307 181.761 274.571 182.686 274.916C183.955 275.378 184.811 275.844 185.254 276.312C185.703 276.781 185.928 277.37 185.928 278.08ZM192.031 279.857C192.318 279.857 192.594 279.838 192.861 279.799C193.128 279.753 193.34 279.708 193.496 279.662V280.902C193.32 280.987 193.06 281.055 192.715 281.107C192.376 281.166 192.07 281.195 191.797 281.195C189.727 281.195 188.691 280.105 188.691 277.924V271.557H187.158V270.775L188.691 270.102L189.375 267.816H190.312V270.297H193.418V271.557H190.312V277.855C190.312 278.5 190.465 278.995 190.771 279.34C191.077 279.685 191.497 279.857 192.031 279.857ZM197.266 281H195.645V270.297H197.266V281ZM195.508 267.396C195.508 267.025 195.599 266.755 195.781 266.586C195.964 266.41 196.191 266.322 196.465 266.322C196.725 266.322 196.95 266.41 197.139 266.586C197.327 266.762 197.422 267.032 197.422 267.396C197.422 267.761 197.327 268.035 197.139 268.217C196.95 268.393 196.725 268.48 196.465 268.48C196.191 268.48 195.964 268.393 195.781 268.217C195.599 268.035 195.508 267.761 195.508 267.396ZM208.027 281V274.076C208.027 273.204 207.829 272.553 207.432 272.123C207.035 271.693 206.413 271.479 205.566 271.479C204.447 271.479 203.626 271.781 203.105 272.387C202.585 272.992 202.324 273.992 202.324 275.385V281H200.703V270.297H202.021L202.285 271.762H202.363C202.695 271.234 203.161 270.827 203.76 270.541C204.359 270.248 205.026 270.102 205.762 270.102C207.051 270.102 208.021 270.414 208.672 271.039C209.323 271.658 209.648 272.65 209.648 274.018V281H208.027ZM221.748 270.297V271.322L219.766 271.557C219.948 271.785 220.111 272.084 220.254 272.455C220.397 272.82 220.469 273.233 220.469 273.695C220.469 274.743 220.111 275.58 219.395 276.205C218.678 276.83 217.695 277.143 216.445 277.143C216.126 277.143 215.827 277.117 215.547 277.064C214.857 277.429 214.512 277.888 214.512 278.441C214.512 278.734 214.632 278.952 214.873 279.096C215.114 279.232 215.527 279.301 216.113 279.301H218.008C219.167 279.301 220.055 279.545 220.674 280.033C221.299 280.521 221.611 281.231 221.611 282.162C221.611 283.347 221.136 284.249 220.186 284.867C219.235 285.492 217.848 285.805 216.025 285.805C214.626 285.805 213.545 285.544 212.783 285.023C212.028 284.503 211.65 283.767 211.65 282.816C211.65 282.165 211.859 281.602 212.275 281.127C212.692 280.652 213.278 280.329 214.033 280.16C213.76 280.036 213.529 279.844 213.34 279.584C213.158 279.324 213.066 279.021 213.066 278.676C213.066 278.285 213.171 277.943 213.379 277.65C213.587 277.357 213.916 277.074 214.365 276.801C213.812 276.573 213.359 276.186 213.008 275.639C212.663 275.092 212.49 274.467 212.49 273.764C212.49 272.592 212.842 271.69 213.545 271.059C214.248 270.421 215.244 270.102 216.533 270.102C217.093 270.102 217.598 270.167 218.047 270.297H221.748ZM213.213 282.797C213.213 283.376 213.457 283.816 213.945 284.115C214.434 284.415 215.133 284.564 216.045 284.564C217.406 284.564 218.411 284.359 219.062 283.949C219.72 283.546 220.049 282.995 220.049 282.299C220.049 281.719 219.87 281.316 219.512 281.088C219.154 280.867 218.48 280.756 217.49 280.756H215.547C214.811 280.756 214.238 280.932 213.828 281.283C213.418 281.635 213.213 282.139 213.213 282.797ZM214.092 273.725C214.092 274.473 214.303 275.04 214.727 275.424C215.15 275.808 215.739 276 216.494 276C218.076 276 218.867 275.232 218.867 273.695C218.867 272.087 218.066 271.283 216.465 271.283C215.703 271.283 215.117 271.488 214.707 271.898C214.297 272.309 214.092 272.917 214.092 273.725Z" fill="black"/>
<path d="M41.1152 156H39.2207L31.418 144.018H31.3398C31.444 145.424 31.4961 146.713 31.4961 147.885V156H29.9629V141.723H31.8379L39.6211 153.656H39.6992C39.6862 153.48 39.6569 152.917 39.6113 151.967C39.5658 151.01 39.5495 150.326 39.5625 149.916V141.723H41.1152V156ZM54.0352 150.639C54.0352 152.383 53.5957 153.747 52.7168 154.73C51.8379 155.707 50.6237 156.195 49.0742 156.195C48.1172 156.195 47.2676 155.971 46.5254 155.521C45.7832 155.072 45.2103 154.428 44.8066 153.588C44.403 152.748 44.2012 151.765 44.2012 150.639C44.2012 148.894 44.6374 147.536 45.5098 146.566C46.3822 145.59 47.5931 145.102 49.1426 145.102C50.64 145.102 51.8281 145.6 52.707 146.596C53.5924 147.592 54.0352 148.939 54.0352 150.639ZM45.8809 150.639C45.8809 152.006 46.1543 153.048 46.7012 153.764C47.248 154.48 48.0521 154.838 49.1133 154.838C50.1745 154.838 50.9785 154.483 51.5254 153.773C52.0788 153.057 52.3555 152.012 52.3555 150.639C52.3555 149.278 52.0788 148.246 51.5254 147.543C50.9785 146.833 50.168 146.479 49.0938 146.479C48.0326 146.479 47.2318 146.827 46.6914 147.523C46.151 148.22 45.8809 149.258 45.8809 150.639ZM59.2305 156L55.168 145.297H56.9062L59.2109 151.645C59.7318 153.129 60.0378 154.092 60.1289 154.535H60.207C60.2786 154.19 60.5033 153.477 60.8809 152.396C61.265 151.309 62.1211 148.943 63.4492 145.297H65.1875L61.125 156H59.2305ZM68.5273 156H66.9062V145.297H68.5273V156ZM66.7695 142.396C66.7695 142.025 66.8607 141.755 67.043 141.586C67.2253 141.41 67.4531 141.322 67.7266 141.322C67.987 141.322 68.2116 141.41 68.4004 141.586C68.5892 141.762 68.6836 142.032 68.6836 142.396C68.6836 142.761 68.5892 143.035 68.4004 143.217C68.2116 143.393 67.987 143.48 67.7266 143.48C67.4531 143.48 67.2253 143.393 67.043 143.217C66.8607 143.035 66.7695 142.761 66.7695 142.396ZM76.2422 156.195C74.6927 156.195 73.4915 155.72 72.6387 154.77C71.7923 153.812 71.3691 152.462 71.3691 150.717C71.3691 148.926 71.7988 147.543 72.6582 146.566C73.5241 145.59 74.7546 145.102 76.3496 145.102C76.8639 145.102 77.3783 145.157 77.8926 145.268C78.4069 145.378 78.8105 145.508 79.1035 145.658L78.6055 147.035C78.2474 146.892 77.8568 146.775 77.4336 146.684C77.0104 146.586 76.6361 146.537 76.3105 146.537C74.1361 146.537 73.0488 147.924 73.0488 150.697C73.0488 152.012 73.3125 153.021 73.8398 153.725C74.3737 154.428 75.1615 154.779 76.2031 154.779C77.0951 154.779 78.0098 154.587 78.9473 154.203V155.639C78.2311 156.01 77.3294 156.195 76.2422 156.195ZM86.0176 156.195C84.4355 156.195 83.1855 155.714 82.2676 154.75C81.3561 153.786 80.9004 152.449 80.9004 150.736C80.9004 149.011 81.3236 147.641 82.1699 146.625C83.0228 145.609 84.1654 145.102 85.5977 145.102C86.9388 145.102 88 145.544 88.7812 146.43C89.5625 147.309 89.9531 148.471 89.9531 149.916V150.941H82.5801C82.6126 152.198 82.9284 153.152 83.5273 153.803C84.1328 154.454 84.9824 154.779 86.0762 154.779C87.2285 154.779 88.3678 154.538 89.4941 154.057V155.502C88.9212 155.749 88.3776 155.925 87.8633 156.029C87.3555 156.14 86.7402 156.195 86.0176 156.195ZM85.5781 146.459C84.7188 146.459 84.0319 146.739 83.5176 147.299C83.0098 147.859 82.7103 148.633 82.6191 149.623H88.2148C88.2148 148.601 87.987 147.82 87.5312 147.279C87.0755 146.732 86.4245 146.459 85.5781 146.459Z" fill="black"/>
<path d="M10.9375 21L9.16016 16.459H3.4375L1.67969 21H0L5.64453 6.66406H7.04102L12.6562 21H10.9375ZM8.64258 14.9648L6.98242 10.541C6.76758 9.98112 6.54622 9.29427 6.31836 8.48047C6.17513 9.10547 5.97005 9.79232 5.70312 10.541L4.02344 14.9648H8.64258ZM21.6602 19.5645H21.5723C20.8236 20.6517 19.7038 21.1953 18.2129 21.1953C16.8132 21.1953 15.7227 20.7168 14.9414 19.7598C14.1667 18.8027 13.7793 17.4421 13.7793 15.6777C13.7793 13.9134 14.1699 12.543 14.9512 11.5664C15.7324 10.5898 16.8197 10.1016 18.2129 10.1016C19.6647 10.1016 20.778 10.6289 21.5527 11.6836H21.6797L21.6113 10.9121L21.5723 10.1602V5.80469H23.1934V21H21.875L21.6602 19.5645ZM18.418 19.8379C19.5247 19.8379 20.3255 19.5384 20.8203 18.9395C21.3216 18.334 21.5723 17.3607 21.5723 16.0195V15.6777C21.5723 14.1608 21.3184 13.0801 20.8105 12.4355C20.3092 11.7845 19.5052 11.459 18.3984 11.459C17.4479 11.459 16.7188 11.8301 16.2109 12.5723C15.7096 13.3079 15.459 14.3496 15.459 15.6973C15.459 17.0645 15.7096 18.0964 16.2109 18.793C16.7122 19.4896 17.4479 19.8379 18.418 19.8379ZM28.9844 21L24.9219 10.2969H26.6602L28.9648 16.6445C29.4857 18.1289 29.7917 19.0924 29.8828 19.5352H29.9609C30.0326 19.1901 30.2572 18.4772 30.6348 17.3965C31.0189 16.3092 31.875 13.9427 33.2031 10.2969H34.9414L30.8789 21H28.9844ZM43.2422 21L42.9199 19.4766H42.8418C42.3079 20.1471 41.7741 20.6029 41.2402 20.8438C40.7129 21.0781 40.0521 21.1953 39.2578 21.1953C38.1966 21.1953 37.3633 20.9219 36.7578 20.375C36.1589 19.8281 35.8594 19.0501 35.8594 18.041C35.8594 15.8796 37.5879 14.7467 41.0449 14.6426L42.8613 14.584V13.9199C42.8613 13.0801 42.679 12.4616 42.3145 12.0645C41.9564 11.6608 41.3802 11.459 40.5859 11.459C39.694 11.459 38.6849 11.7324 37.5586 12.2793L37.0605 11.0391C37.5879 10.7526 38.1641 10.528 38.7891 10.3652C39.4206 10.2025 40.0521 10.1211 40.6836 10.1211C41.9596 10.1211 42.9036 10.4043 43.5156 10.9707C44.1341 11.5371 44.4434 12.4453 44.4434 13.6953V21H43.2422ZM39.5801 19.8574C40.5892 19.8574 41.3802 19.5807 41.9531 19.0273C42.5326 18.474 42.8223 17.6992 42.8223 16.7031V15.7363L41.2012 15.8047C39.9121 15.8503 38.9811 16.0521 38.4082 16.4102C37.8418 16.7617 37.5586 17.3118 37.5586 18.0605C37.5586 18.6465 37.7344 19.0924 38.0859 19.3984C38.444 19.7044 38.9421 19.8574 39.5801 19.8574ZM55.1172 21V14.0762C55.1172 13.2038 54.9186 12.5527 54.5215 12.123C54.1243 11.6934 53.5026 11.4785 52.6562 11.4785C51.5365 11.4785 50.7161 11.7812 50.1953 12.3867C49.6745 12.9922 49.4141 13.9915 49.4141 15.3848V21H47.793V10.2969H49.1113L49.375 11.7617H49.4531C49.7852 11.2344 50.2507 10.8275 50.8496 10.541C51.4486 10.248 52.1159 10.1016 52.8516 10.1016C54.1406 10.1016 55.1107 10.4141 55.7617 11.0391C56.4128 11.6576 56.7383 12.6504 56.7383 14.0176V21H55.1172ZM64.3555 21.1953C62.806 21.1953 61.6048 20.7201 60.752 19.7695C59.9056 18.8125 59.4824 17.4616 59.4824 15.7168C59.4824 13.9264 59.9121 12.543 60.7715 11.5664C61.6374 10.5898 62.8678 10.1016 64.4629 10.1016C64.9772 10.1016 65.4915 10.1569 66.0059 10.2676C66.5202 10.3783 66.9238 10.5085 67.2168 10.6582L66.7188 12.0352C66.3607 11.8919 65.9701 11.7747 65.5469 11.6836C65.1237 11.5859 64.7493 11.5371 64.4238 11.5371C62.2493 11.5371 61.1621 12.9238 61.1621 15.6973C61.1621 17.0124 61.4258 18.0215 61.9531 18.7246C62.487 19.4277 63.2747 19.7793 64.3164 19.7793C65.2083 19.7793 66.123 19.5872 67.0605 19.2031V20.6387C66.3444 21.0098 65.4427 21.1953 64.3555 21.1953ZM74.1309 21.1953C72.5488 21.1953 71.2988 20.7135 70.3809 19.75C69.4694 18.7865 69.0137 17.4486 69.0137 15.7363C69.0137 14.0111 69.4368 12.6406 70.2832 11.625C71.1361 10.6094 72.2786 10.1016 73.7109 10.1016C75.0521 10.1016 76.1133 10.5443 76.8945 11.4297C77.6758 12.3086 78.0664 13.4707 78.0664 14.916V15.9414H70.6934C70.7259 17.1979 71.0417 18.1517 71.6406 18.8027C72.2461 19.4538 73.0957 19.7793 74.1895 19.7793C75.3418 19.7793 76.4811 19.5384 77.6074 19.0566V20.502C77.0345 20.7493 76.4909 20.9251 75.9766 21.0293C75.4688 21.14 74.8535 21.1953 74.1309 21.1953ZM73.6914 11.459C72.832 11.459 72.1452 11.7389 71.6309 12.2988C71.123 12.8587 70.8236 13.6335 70.7324 14.623H76.3281C76.3281 13.6009 76.1003 12.8197 75.6445 12.2793C75.1888 11.7324 74.5378 11.459 73.6914 11.459ZM88.125 19.5645H88.0371C87.2884 20.6517 86.1686 21.1953 84.6777 21.1953C83.278 21.1953 82.1875 20.7168 81.4062 19.7598C80.6315 18.8027 80.2441 17.4421 80.2441 15.6777C80.2441 13.9134 80.6348 12.543 81.416 11.5664C82.1973 10.5898 83.2845 10.1016 84.6777 10.1016C86.1296 10.1016 87.2428 10.6289 88.0176 11.6836H88.1445L88.0762 10.9121L88.0371 10.1602V5.80469H89.6582V21H88.3398L88.125 19.5645ZM84.8828 19.8379C85.9896 19.8379 86.7904 19.5384 87.2852 18.9395C87.7865 18.334 88.0371 17.3607 88.0371 16.0195V15.6777C88.0371 14.1608 87.7832 13.0801 87.2754 12.4355C86.7741 11.7845 85.9701 11.459 84.8633 11.459C83.9128 11.459 83.1836 11.8301 82.6758 12.5723C82.1745 13.3079 81.9238 14.3496 81.9238 15.6973C81.9238 17.0645 82.1745 18.0964 82.6758 18.793C83.1771 19.4896 83.9128 19.8379 84.8828 19.8379Z" fill="black"/>
<line x1="102.994" y1="14.0698" x2="451.001" y2="14.0698" stroke="#B3B3B3"/>
</svg>
