<svg width="110" height="98" viewBox="0 0 110 98" fill="none" xmlns="http://www.w3.org/2000/svg">
<path d="M27.1872 62.0093C23.702 61.528 21.0889 60.6767 19.3946 59.4326C17.8615 58.3068 16.9192 56.7559 16.9192 54.1724V53.4076L16.5531 52.7362C14.8885 49.6833 14.6973 47.0291 15.3452 44.7355C16.013 42.3716 17.6661 40.0715 20.2346 38.0097C25.4166 33.85 33.7148 31.1724 41.9192 31.1724C49.7623 31.1724 57.7612 31.3748 63.7992 33.9295C66.7293 35.1692 69.0695 36.9169 70.7011 39.3835C72.3347 41.8531 73.4192 45.2873 73.4192 50.1724C73.4192 55.0193 72.7081 59.3387 71.5201 62.7896C70.3167 66.2851 68.7054 68.6631 67.0774 69.9293C65.5855 71.0897 64.05 71.3739 62.2919 70.7097C60.3284 69.9679 57.7696 67.9081 54.9361 63.5398L54.0491 62.1724H52.4192C50.0184 62.1724 47.3036 62.2563 44.5735 62.3408C42.502 62.4048 40.4216 62.4692 38.4629 62.4973L27.1872 62.0093Z" stroke="#00AD98" stroke-width="6"/>
<path d="M48.8778 59.467C48.8778 59.467 49.2873 55.4314 50.9194 53.673C52.4701 52.0022 56.2134 51.2144 56.2134 51.2144" stroke="#00AD98" stroke-width="2" stroke-linecap="round"/>
<path d="M58.6564 44.7966C58.6564 44.7966 59.0659 40.7609 60.698 39.0026C62.2487 37.3318 65.992 36.544 65.992 36.544" stroke="#00AD98" stroke-width="2" stroke-linecap="round"/>
<path d="M29.2548 52.969C29.2548 52.969 28.8452 48.9333 27.2132 47.1749C25.6624 45.5042 21.9191 44.7164 21.9191 44.7164" stroke="#00AD98" stroke-width="2" stroke-linecap="round"/>
<path d="M71.4801 64.536C71.4801 64.536 69.8209 60.8345 67.7182 59.6794C65.7203 58.5818 61.9193 59.0126 61.9193 59.0126" stroke="#00AD98" stroke-width="2" stroke-linecap="round"/>
<path d="M74.3684 55.8101C74.3684 55.8101 70.3639 55.1631 68.705 53.4301C67.1287 51.7834 66.5632 48.0002 66.5632 48.0002" stroke="#00AD98" stroke-width="2" stroke-linecap="round"/>
<path d="M42.634 55.1727C42.634 55.1727 43.1015 59.202 44.7587 60.9367C46.3334 62.585 50.0876 63.3188 50.0876 63.3188" stroke="#00AD98" stroke-width="2" stroke-linecap="round"/>
<path d="M44.634 32.1727C44.634 32.1727 45.1015 36.202 46.7587 37.9367C48.3334 39.585 52.0876 40.3188 52.0876 40.3188" stroke="#00AD98" stroke-width="2" stroke-linecap="round"/>
<path d="M36.3729 34.1727C36.3729 34.1727 35.9053 38.202 34.2481 39.9367C32.6735 41.585 28.9192 42.3188 28.9192 42.3188" stroke="#00AD98" stroke-width="2" stroke-linecap="round"/>
<path d="M43.3729 41.1727C43.3729 41.1727 42.9053 45.202 41.2481 46.9367C39.6735 48.585 35.9192 49.3188 35.9192 49.3188" stroke="#00AD98" stroke-width="2" stroke-linecap="round"/>
<path d="M34.634 53.1727C34.634 53.1727 35.1015 57.202 36.7587 58.9367C38.3334 60.585 42.0876 61.3188 42.0876 61.3188" stroke="#00AD98" stroke-width="2" stroke-linecap="round"/>
<path d="M85.6827 14.2073C87.7128 14.7897 89.1885 15.8345 90.11 17.3417C91.0314 18.8489 91.2156 20.5662 90.6627 22.4938C90.045 24.647 88.9196 26.0553 87.2867 26.7187C85.6597 27.3616 83.7081 27.3566 81.4319 26.7036L80.5013 29.5992L78.0713 28.9021L79.3425 24.0069L80.2345 24.2628C82.2646 24.8452 83.9421 24.9935 85.2669 24.7078C86.5918 24.422 87.4983 23.4281 87.9866 21.7261C88.3396 20.4957 88.2499 19.4158 87.7176 18.4863C87.1852 17.5568 86.2936 16.9126 85.0428 16.5538C83.7714 16.189 82.6666 16.2494 81.7283 16.7348C80.8165 17.2056 80.19 18.0357 79.8488 19.2251L77.2035 18.4662C77.5564 17.2358 78.1421 16.2386 78.9605 15.4747C79.7848 14.6903 80.7729 14.1858 81.9247 13.9614C83.0971 13.7429 84.3498 13.8249 85.6827 14.2073ZM77.4619 35.5519C76.9288 35.399 76.5306 35.085 76.2674 34.61C76.0041 34.135 75.949 33.6309 76.102 33.0977C76.2549 32.5646 76.5689 32.1664 77.0439 31.9032C77.5189 31.6399 78.023 31.5848 78.5561 31.7378C79.0688 31.8848 79.4465 32.1929 79.6892 32.6621C79.9524 33.1371 80.0076 33.6411 79.8546 34.1743C79.7016 34.7075 79.3877 35.1057 78.9127 35.3689C78.4582 35.638 77.9746 35.699 77.4619 35.5519Z" fill="#00AD98"/>
</svg>
