<svg width="110" height="98" viewBox="0 0 110 98" fill="none" xmlns="http://www.w3.org/2000/svg">
<g clip-path="url(#clip0)">
<rect x="91.0681" y="44.3897" width="11" height="67" transform="rotate(64.5356 91.0681 44.3897)" stroke="#00AD98" stroke-width="4"/>
<line x1="83.6521" y1="57.8898" x2="81.9323" y2="54.2784" stroke="#00AD98"/>
<line x1="86.3606" y1="56.5997" x2="84.6408" y2="52.9883" stroke="#00AD98"/>
<line x1="89.0691" y1="55.3102" x2="87.3493" y2="51.6988" stroke="#00AD98"/>
<line x1="78.2349" y1="60.4694" x2="76.5151" y2="56.858" stroke="#00AD98"/>
<line x1="80.9433" y1="59.1798" x2="79.2235" y2="55.5684" stroke="#00AD98"/>
<line x1="72.8179" y1="63.049" x2="71.0981" y2="59.4375" stroke="#00AD98"/>
<line x1="75.5264" y1="61.7594" x2="73.8066" y2="58.148" stroke="#00AD98"/>
<line x1="67.4006" y1="65.629" x2="65.6808" y2="62.0176" stroke="#00AD98"/>
<line x1="70.1091" y1="64.339" x2="68.3893" y2="60.7276" stroke="#00AD98"/>
<line x1="64.6921" y1="66.9186" x2="62.9723" y2="63.3072" stroke="#00AD98"/>
<line x1="67.4006" y1="65.629" x2="65.6808" y2="62.0176" stroke="#00AD98"/>
<line x1="59.2749" y1="69.4987" x2="57.5551" y2="65.8873" stroke="#00AD98"/>
<line x1="61.9836" y1="68.2086" x2="60.2638" y2="64.5972" stroke="#00AD98"/>
<line x1="53.8579" y1="72.0783" x2="52.1381" y2="68.4669" stroke="#00AD98"/>
<line x1="56.5664" y1="70.7882" x2="54.8466" y2="67.1768" stroke="#00AD98"/>
<line x1="48.4407" y1="74.6578" x2="46.7209" y2="71.0464" stroke="#00AD98"/>
<line x1="51.1494" y1="73.3678" x2="49.4296" y2="69.7564" stroke="#00AD98"/>
<line x1="45.7322" y1="75.9479" x2="44.0124" y2="72.3365" stroke="#00AD98"/>
<line x1="40.3152" y1="78.5275" x2="38.5954" y2="74.9161" stroke="#00AD98"/>
<line x1="43.0237" y1="77.2374" x2="41.3039" y2="73.626" stroke="#00AD98"/>
<rect x="-2.64992" y="0.988891" width="12" height="38" transform="matrix(-0.909704 -0.415258 -0.415258 0.909704 41.9763 23.3258)" stroke="#00AD98" stroke-width="4"/>
<mask id="path-23-inside-1" fill="white">
<path d="M49.1177 18.879C49.5764 17.8741 49.1337 16.6877 48.1288 16.2291L37.2124 11.246C36.2076 10.7873 35.0212 11.23 34.5625 12.2348L31.2404 19.5125L45.7957 26.1566L49.1177 18.879Z"/>
</mask>
<path d="M49.1177 18.879C49.5764 17.8741 49.1337 16.6877 48.1288 16.2291L37.2124 11.246C36.2076 10.7873 35.0212 11.23 34.5625 12.2348L31.2404 19.5125L45.7957 26.1566L49.1177 18.879Z" stroke="#00AD98" stroke-width="6" mask="url(#path-23-inside-1)"/>
<path d="M26.4132 62.928L14.9773 74.4046L16.1563 58.2459L26.4132 62.928Z" stroke="#00AD98" stroke-width="3"/>
<path d="M13.1874 78.3263L18.9767 71.9002L14.2498 69.7424L13.1874 78.3263Z" fill="#00AD98"/>
</g>
<defs>
<clipPath id="clip0">
<rect width="110" height="98" fill="white"/>
</clipPath>
</defs>
</svg>
