<svg width="40" height="31" viewBox="0 0 40 31" fill="none" xmlns="http://www.w3.org/2000/svg">
<rect x="-0.110688" y="-1.28403" width="5.30435" height="31.556" transform="matrix(-0.817209 -0.576342 0.70652 -0.707693 6.67529 26.5738)" stroke="#616161" stroke-width="2"/>
<line y1="-0.5" x2="1.94783" y2="-0.5" transform="matrix(0.817209 0.576342 -0.70652 0.707693 6.2666 21.0605)" stroke="#616161"/>
<line y1="-0.5" x2="1.94783" y2="-0.5" transform="matrix(0.817209 0.576342 -0.70652 0.707693 5.26489 22.064)" stroke="#616161"/>
<line y1="-0.5" x2="1.94783" y2="-0.5" transform="matrix(0.817209 0.576342 -0.70652 0.707693 4.26318 23.0674)" stroke="#616161"/>
<line y1="-0.5" x2="1.94783" y2="-0.5" transform="matrix(0.817209 0.576342 -0.70652 0.707693 8.27002 19.0537)" stroke="#616161"/>
<line y1="-0.5" x2="1.94783" y2="-0.5" transform="matrix(0.817209 0.576342 -0.70652 0.707693 7.26831 20.0571)" stroke="#616161"/>
<line y1="-0.5" x2="1.94783" y2="-0.5" transform="matrix(0.817209 0.576342 -0.70652 0.707693 10.2737 17.0469)" stroke="#616161"/>
<line y1="-0.5" x2="1.94783" y2="-0.5" transform="matrix(0.817209 0.576342 -0.70652 0.707693 9.27197 18.0503)" stroke="#616161"/>
<line y1="-0.5" x2="1.94783" y2="-0.5" transform="matrix(0.817209 0.576342 -0.70652 0.707693 12.2771 15.04)" stroke="#616161"/>
<line y1="-0.5" x2="1.94783" y2="-0.5" transform="matrix(0.817209 0.576342 -0.70652 0.707693 11.2754 16.0435)" stroke="#616161"/>
<line y1="-0.5" x2="1.94783" y2="-0.5" transform="matrix(0.817209 0.576342 -0.70652 0.707693 13.2788 14.0366)" stroke="#616161"/>
<line y1="-0.5" x2="1.94783" y2="-0.5" transform="matrix(0.817209 0.576342 -0.70652 0.707693 12.2771 15.04)" stroke="#616161"/>
<line y1="-0.5" x2="1.94783" y2="-0.5" transform="matrix(0.817209 0.576342 -0.70652 0.707693 15.2822 12.0298)" stroke="#616161"/>
<line y1="-0.5" x2="1.94783" y2="-0.5" transform="matrix(0.817209 0.576342 -0.70652 0.707693 14.2808 13.0332)" stroke="#616161"/>
<line y1="-0.5" x2="1.94783" y2="-0.5" transform="matrix(0.817209 0.576342 -0.70652 0.707693 17.2859 10.0229)" stroke="#616161"/>
<line y1="-0.5" x2="1.94783" y2="-0.5" transform="matrix(0.817209 0.576342 -0.70652 0.707693 16.2842 11.0264)" stroke="#616161"/>
<line y1="-0.5" x2="1.94783" y2="-0.5" transform="matrix(0.817209 0.576342 -0.70652 0.707693 19.2893 8.01636)" stroke="#616161"/>
<line y1="-0.5" x2="1.94783" y2="-0.5" transform="matrix(0.817209 0.576342 -0.70652 0.707693 18.2876 9.01978)" stroke="#616161"/>
<line y1="-0.5" x2="1.94783" y2="-0.5" transform="matrix(0.817209 0.576342 -0.70652 0.707693 20.291 7.0127)" stroke="#616161"/>
<line y1="-0.5" x2="1.94783" y2="-0.5" transform="matrix(0.817209 0.576342 -0.70652 0.707693 22.2947 5.0061)" stroke="#616161"/>
<line y1="-0.5" x2="1.94783" y2="-0.5" transform="matrix(0.817209 0.576342 -0.70652 0.707693 21.293 6.00928)" stroke="#616161"/>
<rect x="1" y="-1" width="6.31169" height="16.338" transform="matrix(1 0 0 -1 31.1689 25.5071)" stroke="#616161" stroke-width="2"/>
<mask id="path-23-inside-1" fill="white">
<path d="M31.1689 29C31.1689 30.1046 32.0644 31 33.1689 31H37.4806C38.5852 31 39.4806 30.1046 39.4806 29V26.6338H31.1689V29Z"/>
</mask>
<path d="M31.1689 29C31.1689 30.1046 32.0644 31 33.1689 31H37.4806C38.5852 31 39.4806 30.1046 39.4806 29V26.6338H31.1689V29Z" stroke="#616161" stroke-width="4.3662" mask="url(#path-23-inside-1)"/>
<path d="M32.0432 8.66901L35.3247 1.23775L38.6063 8.66901H32.0432Z" stroke="#616161"/>
<path d="M35.3246 0L33.975 3.60211H36.6743L35.3246 0Z" fill="#616161"/>
</svg>
