<svg width="493" height="364" viewBox="0 0 493 364" fill="none" xmlns="http://www.w3.org/2000/svg">
<rect x="97" y="163" width="360" height="52" fill="#1996F0"/>
<path d="M261.355 188.816C261.355 190.819 260.81 192.352 259.72 193.415C258.636 194.472 257.072 195 255.03 195H251.668V182.864H255.387C257.274 182.864 258.741 183.387 259.787 184.433C260.833 185.479 261.355 186.94 261.355 188.816ZM259.861 188.866C259.861 187.283 259.463 186.09 258.666 185.288C257.875 184.486 256.696 184.084 255.13 184.084H253.08V193.78H254.798C256.48 193.78 257.745 193.368 258.591 192.543C259.438 191.713 259.861 190.487 259.861 188.866ZM267.706 195.166C266.361 195.166 265.298 194.757 264.518 193.938C263.743 193.118 263.356 191.981 263.356 190.526C263.356 189.059 263.716 187.895 264.435 187.031C265.16 186.168 266.131 185.736 267.349 185.736C268.489 185.736 269.391 186.113 270.055 186.865C270.719 187.612 271.051 188.6 271.051 189.829V190.7H264.784C264.811 191.768 265.08 192.579 265.589 193.132C266.104 193.686 266.826 193.962 267.755 193.962C268.735 193.962 269.703 193.758 270.661 193.348V194.577C270.174 194.787 269.712 194.936 269.274 195.025C268.843 195.119 268.32 195.166 267.706 195.166ZM267.332 186.89C266.602 186.89 266.018 187.128 265.581 187.604C265.149 188.08 264.894 188.738 264.817 189.58H269.573C269.573 188.711 269.38 188.047 268.992 187.587C268.605 187.123 268.051 186.89 267.332 186.89ZM279.277 192.518C279.277 193.365 278.961 194.018 278.331 194.477C277.7 194.936 276.814 195.166 275.674 195.166C274.468 195.166 273.527 194.975 272.852 194.593V193.315C273.289 193.536 273.757 193.711 274.255 193.838C274.758 193.965 275.243 194.029 275.708 194.029C276.427 194.029 276.98 193.915 277.368 193.688C277.755 193.456 277.949 193.105 277.949 192.634C277.949 192.28 277.794 191.979 277.484 191.729C277.18 191.475 276.582 191.176 275.691 190.833C274.844 190.518 274.241 190.244 273.881 190.011C273.527 189.773 273.262 189.505 273.084 189.206C272.913 188.907 272.827 188.55 272.827 188.135C272.827 187.394 273.129 186.81 273.732 186.384C274.335 185.952 275.162 185.736 276.214 185.736C277.193 185.736 278.151 185.936 279.086 186.334L278.596 187.455C277.683 187.078 276.856 186.89 276.114 186.89C275.461 186.89 274.969 186.993 274.637 187.197C274.305 187.402 274.139 187.684 274.139 188.044C274.139 188.287 274.2 188.495 274.321 188.667C274.449 188.838 274.651 189.001 274.927 189.156C275.204 189.311 275.735 189.535 276.521 189.829C277.6 190.222 278.328 190.617 278.704 191.016C279.086 191.414 279.277 191.915 279.277 192.518ZM282.904 195H281.526V185.902H282.904V195ZM281.41 183.437C281.41 183.122 281.488 182.892 281.643 182.748C281.798 182.599 281.991 182.524 282.224 182.524C282.445 182.524 282.636 182.599 282.796 182.748C282.957 182.897 283.037 183.127 283.037 183.437C283.037 183.747 282.957 183.979 282.796 184.134C282.636 184.284 282.445 184.358 282.224 184.358C281.991 184.358 281.798 184.284 281.643 184.134C281.488 183.979 281.41 183.747 281.41 183.437ZM293.272 185.902V186.774L291.587 186.973C291.742 187.167 291.88 187.421 292.002 187.737C292.124 188.047 292.185 188.398 292.185 188.791C292.185 189.682 291.88 190.393 291.271 190.924C290.663 191.456 289.827 191.721 288.765 191.721C288.493 191.721 288.239 191.699 288.001 191.655C287.414 191.965 287.121 192.355 287.121 192.825C287.121 193.074 287.223 193.26 287.428 193.381C287.633 193.498 287.984 193.556 288.482 193.556H290.093C291.078 193.556 291.833 193.763 292.359 194.178C292.89 194.593 293.156 195.196 293.156 195.988C293.156 196.995 292.752 197.761 291.944 198.287C291.136 198.818 289.957 199.084 288.408 199.084C287.218 199.084 286.299 198.863 285.652 198.42C285.01 197.977 284.689 197.352 284.689 196.544C284.689 195.991 284.866 195.512 285.22 195.108C285.574 194.704 286.072 194.43 286.714 194.286C286.482 194.181 286.285 194.018 286.125 193.796C285.97 193.575 285.893 193.318 285.893 193.024C285.893 192.692 285.981 192.402 286.158 192.153C286.335 191.904 286.615 191.663 286.997 191.431C286.526 191.237 286.142 190.908 285.843 190.443C285.549 189.978 285.403 189.447 285.403 188.849C285.403 187.853 285.702 187.087 286.299 186.55C286.897 186.007 287.744 185.736 288.839 185.736C289.315 185.736 289.744 185.792 290.126 185.902H293.272ZM286.017 196.527C286.017 197.02 286.225 197.393 286.64 197.648C287.055 197.903 287.65 198.03 288.424 198.03C289.581 198.03 290.436 197.855 290.989 197.507C291.548 197.164 291.828 196.696 291.828 196.104C291.828 195.611 291.675 195.268 291.371 195.075C291.067 194.887 290.494 194.792 289.653 194.792H288.001C287.376 194.792 286.889 194.942 286.54 195.241C286.191 195.54 286.017 195.968 286.017 196.527ZM286.764 188.816C286.764 189.452 286.944 189.934 287.304 190.26C287.663 190.587 288.164 190.75 288.806 190.75C290.151 190.75 290.823 190.097 290.823 188.791C290.823 187.424 290.143 186.741 288.781 186.741C288.134 186.741 287.636 186.915 287.287 187.264C286.938 187.612 286.764 188.13 286.764 188.816ZM301.365 195V189.115C301.365 188.373 301.196 187.82 300.859 187.455C300.521 187.089 299.993 186.907 299.273 186.907C298.322 186.907 297.624 187.164 297.182 187.679C296.739 188.193 296.518 189.043 296.518 190.227V195H295.14V185.902H296.26L296.484 187.147H296.551C296.833 186.699 297.229 186.353 297.738 186.11C298.247 185.861 298.814 185.736 299.439 185.736C300.535 185.736 301.36 186.002 301.913 186.533C302.466 187.059 302.743 187.903 302.743 189.065V195H301.365Z" fill="white"/>
<line x1="136.5" y1="306.5" x2="136.5" y2="267.5" stroke="black" stroke-width="9" stroke-linecap="round"/>
<line x1="300.5" y1="255.5" x2="300.5" y2="223.5" stroke="black" stroke-width="9" stroke-linecap="round"/>
<line x1="184.5" y1="269.5" x2="184.5" y2="223.5" stroke="black" stroke-width="9" stroke-linecap="round"/>
<line x1="256.5" y1="285.5" x2="256.5" y2="223.5" stroke="black" stroke-width="9" stroke-linecap="round"/>
<line x1="327.5" y1="327.5" x2="327.5" y2="287.5" stroke="black" stroke-width="9" stroke-linecap="round"/>
<line x1="327.5" y1="255.5" x2="327.5" y2="223.5" stroke="black" stroke-width="9" stroke-linecap="round"/>
<line x1="401.5" y1="275.5" x2="401.5" y2="267.5" stroke="black" stroke-width="9" stroke-linecap="round"/>
<line x1="401.5" y1="225.5" x2="401.5" y2="224.5" stroke="black" stroke-width="9" stroke-linecap="round"/>
<line x1="107.5" y1="151.5" x2="107.5" y2="128.5" stroke="black" stroke-width="9" stroke-linecap="round"/>
<line x1="136.5" y1="151.5" x2="136.5" y2="81.5" stroke="black" stroke-width="9" stroke-linecap="round"/>
<line x1="183.54" y1="151.46" x2="184.549" y2="38.4604" stroke="black" stroke-width="9" stroke-linecap="round"/>
<line x1="221.5" y1="151.5" x2="221.5" y2="96.5" stroke="black" stroke-width="9" stroke-linecap="round"/>
<line x1="256.5" y1="151.5" x2="256.5" y2="107.5" stroke="black" stroke-width="9" stroke-linecap="round"/>
<line x1="300.5" y1="151.5" x2="300.5" y2="81.5" stroke="black" stroke-width="9" stroke-linecap="round"/>
<line x1="327.5" y1="151.5" x2="327.5" y2="38.5" stroke="black" stroke-width="9" stroke-linecap="round"/>
<line x1="401.5" y1="150.5" x2="401.5" y2="128.5" stroke="black" stroke-width="9" stroke-linecap="round"/>
<line x1="430.5" y1="151.5" x2="430.5" y2="48.5" stroke="black" stroke-width="9" stroke-linecap="round"/>
<line x1="107.5" y1="224.5" x2="107.5" y2="223.5" stroke="black" stroke-width="9" stroke-linecap="round"/>
<line x1="107.5" y1="224.5" x2="107.5" y2="223.5" stroke="black" stroke-width="9" stroke-linecap="round"/>
<line x1="136.5" y1="231.5" x2="136.5" y2="223.5" stroke="black" stroke-width="9" stroke-linecap="round"/>
<line x1="221.5" y1="224.5" x2="221.5" y2="223.5" stroke="black" stroke-width="9" stroke-linecap="round"/>
<line x1="430.5" y1="225.5" x2="430.5" y2="224.5" stroke="black" stroke-width="9" stroke-linecap="round"/>
<path d="M374.02 295.201C374.02 296.458 373.564 297.438 372.652 298.141C371.741 298.844 370.504 299.195 368.941 299.195C367.249 299.195 365.947 298.977 365.035 298.541V296.939C365.621 297.187 366.259 297.382 366.949 297.525C367.639 297.669 368.323 297.74 369 297.74C370.107 297.74 370.94 297.532 371.5 297.115C372.06 296.692 372.34 296.106 372.34 295.357C372.34 294.863 372.239 294.459 372.037 294.146C371.842 293.827 371.51 293.535 371.041 293.268C370.579 293.001 369.872 292.698 368.922 292.359C367.594 291.884 366.643 291.321 366.07 290.67C365.504 290.019 365.221 289.169 365.221 288.121C365.221 287.021 365.634 286.145 366.461 285.494C367.288 284.843 368.382 284.518 369.742 284.518C371.161 284.518 372.467 284.778 373.658 285.299L373.141 286.744C371.962 286.249 370.816 286.002 369.703 286.002C368.824 286.002 368.137 286.191 367.643 286.568C367.148 286.946 366.9 287.47 366.9 288.141C366.9 288.635 366.992 289.042 367.174 289.361C367.356 289.674 367.662 289.964 368.092 290.23C368.528 290.491 369.192 290.781 370.084 291.1C371.581 291.633 372.61 292.206 373.17 292.818C373.736 293.43 374.02 294.225 374.02 295.201ZM378.316 299H376.695V288.297H378.316V299ZM376.559 285.396C376.559 285.025 376.65 284.755 376.832 284.586C377.014 284.41 377.242 284.322 377.516 284.322C377.776 284.322 378.001 284.41 378.189 284.586C378.378 284.762 378.473 285.032 378.473 285.396C378.473 285.761 378.378 286.035 378.189 286.217C378.001 286.393 377.776 286.48 377.516 286.48C377.242 286.48 377.014 286.393 376.832 286.217C376.65 286.035 376.559 285.761 376.559 285.396ZM385.211 297.857C385.497 297.857 385.774 297.838 386.041 297.799C386.308 297.753 386.52 297.708 386.676 297.662V298.902C386.5 298.987 386.24 299.055 385.895 299.107C385.556 299.166 385.25 299.195 384.977 299.195C382.906 299.195 381.871 298.105 381.871 295.924V289.557H380.338V288.775L381.871 288.102L382.555 285.816H383.492V288.297H386.598V289.557H383.492V295.855C383.492 296.5 383.645 296.995 383.951 297.34C384.257 297.685 384.677 297.857 385.211 297.857ZM393.346 299.195C391.764 299.195 390.514 298.714 389.596 297.75C388.684 296.786 388.229 295.449 388.229 293.736C388.229 292.011 388.652 290.641 389.498 289.625C390.351 288.609 391.493 288.102 392.926 288.102C394.267 288.102 395.328 288.544 396.109 289.43C396.891 290.309 397.281 291.471 397.281 292.916V293.941H389.908C389.941 295.198 390.257 296.152 390.855 296.803C391.461 297.454 392.311 297.779 393.404 297.779C394.557 297.779 395.696 297.538 396.822 297.057V298.502C396.249 298.749 395.706 298.925 395.191 299.029C394.684 299.14 394.068 299.195 393.346 299.195ZM392.906 289.459C392.047 289.459 391.36 289.739 390.846 290.299C390.338 290.859 390.038 291.633 389.947 292.623H395.543C395.543 291.601 395.315 290.82 394.859 290.279C394.404 289.732 393.753 289.459 392.906 289.459ZM372.281 326L367.438 313.344H367.359C367.451 314.346 367.496 315.538 367.496 316.918V326H365.963V311.723H368.463L372.984 323.5H373.062L377.623 311.723H380.104V326H378.443V316.801C378.443 315.746 378.489 314.6 378.58 313.363H378.502L373.619 326H372.281ZM390.367 326L390.045 324.477H389.967C389.433 325.147 388.899 325.603 388.365 325.844C387.838 326.078 387.177 326.195 386.383 326.195C385.322 326.195 384.488 325.922 383.883 325.375C383.284 324.828 382.984 324.05 382.984 323.041C382.984 320.88 384.713 319.747 388.17 319.643L389.986 319.584V318.92C389.986 318.08 389.804 317.462 389.439 317.064C389.081 316.661 388.505 316.459 387.711 316.459C386.819 316.459 385.81 316.732 384.684 317.279L384.186 316.039C384.713 315.753 385.289 315.528 385.914 315.365C386.546 315.202 387.177 315.121 387.809 315.121C389.085 315.121 390.029 315.404 390.641 315.971C391.259 316.537 391.568 317.445 391.568 318.695V326H390.367ZM386.705 324.857C387.714 324.857 388.505 324.581 389.078 324.027C389.658 323.474 389.947 322.699 389.947 321.703V320.736L388.326 320.805C387.037 320.85 386.106 321.052 385.533 321.41C384.967 321.762 384.684 322.312 384.684 323.061C384.684 323.646 384.859 324.092 385.211 324.398C385.569 324.704 386.067 324.857 386.705 324.857ZM399.898 326.195C399.202 326.195 398.564 326.068 397.984 325.814C397.411 325.554 396.93 325.157 396.539 324.623H396.422C396.5 325.248 396.539 325.84 396.539 326.4V330.805H394.918V315.297H396.236L396.461 316.762H396.539C396.956 316.176 397.441 315.753 397.994 315.492C398.548 315.232 399.182 315.102 399.898 315.102C401.318 315.102 402.411 315.587 403.18 316.557C403.954 317.527 404.342 318.887 404.342 320.639C404.342 322.396 403.948 323.764 403.16 324.74C402.379 325.71 401.292 326.195 399.898 326.195ZM399.664 316.479C398.57 316.479 397.779 316.781 397.291 317.387C396.803 317.992 396.552 318.956 396.539 320.277V320.639C396.539 322.143 396.79 323.22 397.291 323.871C397.792 324.516 398.596 324.838 399.703 324.838C400.628 324.838 401.35 324.464 401.871 323.715C402.398 322.966 402.662 321.934 402.662 320.619C402.662 319.285 402.398 318.262 401.871 317.553C401.35 316.837 400.615 316.479 399.664 316.479ZM412.164 326.195C411.467 326.195 410.829 326.068 410.25 325.814C409.677 325.554 409.195 325.157 408.805 324.623H408.688C408.766 325.248 408.805 325.84 408.805 326.4V330.805H407.184V315.297H408.502L408.727 316.762H408.805C409.221 316.176 409.706 315.753 410.26 315.492C410.813 315.232 411.448 315.102 412.164 315.102C413.583 315.102 414.677 315.587 415.445 316.557C416.22 317.527 416.607 318.887 416.607 320.639C416.607 322.396 416.214 323.764 415.426 324.74C414.645 325.71 413.557 326.195 412.164 326.195ZM411.93 316.479C410.836 316.479 410.045 316.781 409.557 317.387C409.068 317.992 408.818 318.956 408.805 320.277V320.639C408.805 322.143 409.055 323.22 409.557 323.871C410.058 324.516 410.862 324.838 411.969 324.838C412.893 324.838 413.616 324.464 414.137 323.715C414.664 322.966 414.928 321.934 414.928 320.619C414.928 319.285 414.664 318.262 414.137 317.553C413.616 316.837 412.88 316.479 411.93 316.479ZM421.07 326H419.449V315.297H421.07V326ZM419.312 312.396C419.312 312.025 419.404 311.755 419.586 311.586C419.768 311.41 419.996 311.322 420.27 311.322C420.53 311.322 420.755 311.41 420.943 311.586C421.132 311.762 421.227 312.032 421.227 312.396C421.227 312.761 421.132 313.035 420.943 313.217C420.755 313.393 420.53 313.48 420.27 313.48C419.996 313.48 419.768 313.393 419.586 313.217C419.404 313.035 419.312 312.761 419.312 312.396ZM431.832 326V319.076C431.832 318.204 431.633 317.553 431.236 317.123C430.839 316.693 430.217 316.479 429.371 316.479C428.251 316.479 427.431 316.781 426.91 317.387C426.389 317.992 426.129 318.992 426.129 320.385V326H424.508V315.297H425.826L426.09 316.762H426.168C426.5 316.234 426.965 315.827 427.564 315.541C428.163 315.248 428.831 315.102 429.566 315.102C430.855 315.102 431.826 315.414 432.477 316.039C433.128 316.658 433.453 317.65 433.453 319.018V326H431.832ZM445.553 315.297V316.322L443.57 316.557C443.753 316.785 443.915 317.084 444.059 317.455C444.202 317.82 444.273 318.233 444.273 318.695C444.273 319.743 443.915 320.58 443.199 321.205C442.483 321.83 441.5 322.143 440.25 322.143C439.931 322.143 439.632 322.117 439.352 322.064C438.661 322.429 438.316 322.888 438.316 323.441C438.316 323.734 438.437 323.952 438.678 324.096C438.919 324.232 439.332 324.301 439.918 324.301H441.812C442.971 324.301 443.86 324.545 444.479 325.033C445.104 325.521 445.416 326.231 445.416 327.162C445.416 328.347 444.941 329.249 443.99 329.867C443.04 330.492 441.653 330.805 439.83 330.805C438.43 330.805 437.35 330.544 436.588 330.023C435.833 329.503 435.455 328.767 435.455 327.816C435.455 327.165 435.663 326.602 436.08 326.127C436.497 325.652 437.083 325.329 437.838 325.16C437.564 325.036 437.333 324.844 437.145 324.584C436.962 324.324 436.871 324.021 436.871 323.676C436.871 323.285 436.975 322.943 437.184 322.65C437.392 322.357 437.721 322.074 438.17 321.801C437.617 321.573 437.164 321.186 436.812 320.639C436.467 320.092 436.295 319.467 436.295 318.764C436.295 317.592 436.646 316.69 437.35 316.059C438.053 315.421 439.049 315.102 440.338 315.102C440.898 315.102 441.402 315.167 441.852 315.297H445.553ZM437.018 327.797C437.018 328.376 437.262 328.816 437.75 329.115C438.238 329.415 438.938 329.564 439.85 329.564C441.21 329.564 442.216 329.359 442.867 328.949C443.525 328.546 443.854 327.995 443.854 327.299C443.854 326.719 443.674 326.316 443.316 326.088C442.958 325.867 442.285 325.756 441.295 325.756H439.352C438.616 325.756 438.043 325.932 437.633 326.283C437.223 326.635 437.018 327.139 437.018 327.797ZM437.896 318.725C437.896 319.473 438.108 320.04 438.531 320.424C438.954 320.808 439.544 321 440.299 321C441.881 321 442.672 320.232 442.672 318.695C442.672 317.087 441.871 316.283 440.27 316.283C439.508 316.283 438.922 316.488 438.512 316.898C438.102 317.309 437.896 317.917 437.896 318.725Z" fill="black"/>
<path d="M391.424 256H389.783L386.902 246.439C386.766 246.016 386.613 245.482 386.443 244.838C386.274 244.193 386.186 243.806 386.18 243.676C386.036 244.535 385.809 245.476 385.496 246.498L382.703 256H381.062L377.264 241.723H379.021L381.277 250.541C381.59 251.778 381.818 252.898 381.961 253.9C382.137 252.709 382.397 251.544 382.742 250.404L385.301 241.723H387.059L389.744 250.482C390.057 251.492 390.32 252.631 390.535 253.9C390.659 252.976 390.893 251.85 391.238 250.521L393.484 241.723H395.242L391.424 256ZM398.855 256H397.234V245.297H398.855V256ZM397.098 242.396C397.098 242.025 397.189 241.755 397.371 241.586C397.553 241.41 397.781 241.322 398.055 241.322C398.315 241.322 398.54 241.41 398.729 241.586C398.917 241.762 399.012 242.032 399.012 242.396C399.012 242.761 398.917 243.035 398.729 243.217C398.54 243.393 398.315 243.48 398.055 243.48C397.781 243.48 397.553 243.393 397.371 243.217C397.189 243.035 397.098 242.761 397.098 242.396ZM407.176 245.102C407.651 245.102 408.077 245.141 408.455 245.219L408.23 246.723C407.788 246.625 407.397 246.576 407.059 246.576C406.193 246.576 405.451 246.928 404.832 247.631C404.22 248.334 403.914 249.21 403.914 250.258V256H402.293V245.297H403.631L403.816 247.279H403.895C404.292 246.583 404.77 246.046 405.33 245.668C405.89 245.29 406.505 245.102 407.176 245.102ZM414.979 256.195C413.396 256.195 412.146 255.714 411.229 254.75C410.317 253.786 409.861 252.449 409.861 250.736C409.861 249.011 410.285 247.641 411.131 246.625C411.984 245.609 413.126 245.102 414.559 245.102C415.9 245.102 416.961 245.544 417.742 246.43C418.523 247.309 418.914 248.471 418.914 249.916V250.941H411.541C411.574 252.198 411.889 253.152 412.488 253.803C413.094 254.454 413.943 254.779 415.037 254.779C416.189 254.779 417.329 254.538 418.455 254.057V255.502C417.882 255.749 417.339 255.925 416.824 256.029C416.316 256.14 415.701 256.195 414.979 256.195ZM414.539 246.459C413.68 246.459 412.993 246.739 412.479 247.299C411.971 247.859 411.671 248.633 411.58 249.623H417.176C417.176 248.601 416.948 247.82 416.492 247.279C416.036 246.732 415.385 246.459 414.539 246.459ZM426.512 246.557H423.787V256H422.166V246.557H420.252V245.824L422.166 245.238V244.643C422.166 242.012 423.315 240.697 425.613 240.697C426.18 240.697 426.844 240.811 427.605 241.039L427.186 242.338C426.561 242.136 426.027 242.035 425.584 242.035C424.972 242.035 424.52 242.24 424.227 242.65C423.934 243.054 423.787 243.705 423.787 244.604V245.297H426.512V246.557ZM433.348 245.102C433.823 245.102 434.249 245.141 434.627 245.219L434.402 246.723C433.96 246.625 433.569 246.576 433.23 246.576C432.365 246.576 431.622 246.928 431.004 247.631C430.392 248.334 430.086 249.21 430.086 250.258V256H428.465V245.297H429.803L429.988 247.279H430.066C430.464 246.583 430.942 246.046 431.502 245.668C432.062 245.29 432.677 245.102 433.348 245.102ZM443.211 256L442.889 254.477H442.811C442.277 255.147 441.743 255.603 441.209 255.844C440.682 256.078 440.021 256.195 439.227 256.195C438.165 256.195 437.332 255.922 436.727 255.375C436.128 254.828 435.828 254.05 435.828 253.041C435.828 250.88 437.557 249.747 441.014 249.643L442.83 249.584V248.92C442.83 248.08 442.648 247.462 442.283 247.064C441.925 246.661 441.349 246.459 440.555 246.459C439.663 246.459 438.654 246.732 437.527 247.279L437.029 246.039C437.557 245.753 438.133 245.528 438.758 245.365C439.389 245.202 440.021 245.121 440.652 245.121C441.928 245.121 442.872 245.404 443.484 245.971C444.103 246.537 444.412 247.445 444.412 248.695V256H443.211ZM439.549 254.857C440.558 254.857 441.349 254.581 441.922 254.027C442.501 253.474 442.791 252.699 442.791 251.703V250.736L441.17 250.805C439.881 250.85 438.95 251.052 438.377 251.41C437.811 251.762 437.527 252.312 437.527 253.061C437.527 253.646 437.703 254.092 438.055 254.398C438.413 254.704 438.911 254.857 439.549 254.857ZM461.404 256V249.037C461.404 248.184 461.222 247.546 460.857 247.123C460.493 246.693 459.926 246.479 459.158 246.479C458.149 246.479 457.404 246.768 456.922 247.348C456.44 247.927 456.199 248.819 456.199 250.023V256H454.578V249.037C454.578 248.184 454.396 247.546 454.031 247.123C453.667 246.693 453.097 246.479 452.322 246.479C451.307 246.479 450.561 246.785 450.086 247.396C449.617 248.002 449.383 248.998 449.383 250.385V256H447.762V245.297H449.08L449.344 246.762H449.422C449.728 246.241 450.158 245.834 450.711 245.541C451.271 245.248 451.896 245.102 452.586 245.102C454.259 245.102 455.353 245.707 455.867 246.918H455.945C456.264 246.358 456.727 245.915 457.332 245.59C457.938 245.264 458.628 245.102 459.402 245.102C460.613 245.102 461.518 245.414 462.117 246.039C462.723 246.658 463.025 247.65 463.025 249.018V256H461.404ZM467.996 256H466.375V245.297H467.996V256ZM466.238 242.396C466.238 242.025 466.329 241.755 466.512 241.586C466.694 241.41 466.922 241.322 467.195 241.322C467.456 241.322 467.68 241.41 467.869 241.586C468.058 241.762 468.152 242.032 468.152 242.396C468.152 242.761 468.058 243.035 467.869 243.217C467.68 243.393 467.456 243.48 467.195 243.48C466.922 243.48 466.694 243.393 466.512 243.217C466.329 243.035 466.238 242.761 466.238 242.396ZM478.758 256V249.076C478.758 248.204 478.559 247.553 478.162 247.123C477.765 246.693 477.143 246.479 476.297 246.479C475.177 246.479 474.357 246.781 473.836 247.387C473.315 247.992 473.055 248.992 473.055 250.385V256H471.434V245.297H472.752L473.016 246.762H473.094C473.426 246.234 473.891 245.827 474.49 245.541C475.089 245.248 475.757 245.102 476.492 245.102C477.781 245.102 478.751 245.414 479.402 246.039C480.053 246.658 480.379 247.65 480.379 249.018V256H478.758ZM492.479 245.297V246.322L490.496 246.557C490.678 246.785 490.841 247.084 490.984 247.455C491.128 247.82 491.199 248.233 491.199 248.695C491.199 249.743 490.841 250.58 490.125 251.205C489.409 251.83 488.426 252.143 487.176 252.143C486.857 252.143 486.557 252.117 486.277 252.064C485.587 252.429 485.242 252.888 485.242 253.441C485.242 253.734 485.363 253.952 485.604 254.096C485.844 254.232 486.258 254.301 486.844 254.301H488.738C489.897 254.301 490.786 254.545 491.404 255.033C492.029 255.521 492.342 256.231 492.342 257.162C492.342 258.347 491.867 259.249 490.916 259.867C489.965 260.492 488.579 260.805 486.756 260.805C485.356 260.805 484.275 260.544 483.514 260.023C482.758 259.503 482.381 258.767 482.381 257.816C482.381 257.165 482.589 256.602 483.006 256.127C483.423 255.652 484.008 255.329 484.764 255.16C484.49 255.036 484.259 254.844 484.07 254.584C483.888 254.324 483.797 254.021 483.797 253.676C483.797 253.285 483.901 252.943 484.109 252.65C484.318 252.357 484.646 252.074 485.096 251.801C484.542 251.573 484.09 251.186 483.738 250.639C483.393 250.092 483.221 249.467 483.221 248.764C483.221 247.592 483.572 246.69 484.275 246.059C484.979 245.421 485.975 245.102 487.264 245.102C487.824 245.102 488.328 245.167 488.777 245.297H492.479ZM483.943 257.797C483.943 258.376 484.188 258.816 484.676 259.115C485.164 259.415 485.864 259.564 486.775 259.564C488.136 259.564 489.142 259.359 489.793 258.949C490.451 258.546 490.779 257.995 490.779 257.299C490.779 256.719 490.6 256.316 490.242 256.088C489.884 255.867 489.21 255.756 488.221 255.756H486.277C485.542 255.756 484.969 255.932 484.559 256.283C484.148 256.635 483.943 257.139 483.943 257.797ZM484.822 248.725C484.822 249.473 485.034 250.04 485.457 250.424C485.88 250.808 486.469 251 487.225 251C488.807 251 489.598 250.232 489.598 248.695C489.598 247.087 488.797 246.283 487.195 246.283C486.434 246.283 485.848 246.488 485.438 246.898C485.027 247.309 484.822 247.917 484.822 248.725Z" fill="black"/>
<path d="M283.016 341.883C283.016 343.328 282.521 344.441 281.531 345.223C280.548 345.997 279.139 346.385 277.303 346.385H275.623V352H273.963V337.723H277.664C281.232 337.723 283.016 339.109 283.016 341.883ZM275.623 344.959H277.117C278.589 344.959 279.653 344.721 280.311 344.246C280.968 343.771 281.297 343.009 281.297 341.961C281.297 341.017 280.988 340.314 280.369 339.852C279.751 339.389 278.787 339.158 277.479 339.158H275.623V344.959ZM290.652 341.102C291.128 341.102 291.554 341.141 291.932 341.219L291.707 342.723C291.264 342.625 290.874 342.576 290.535 342.576C289.669 342.576 288.927 342.928 288.309 343.631C287.697 344.334 287.391 345.21 287.391 346.258V352H285.77V341.297H287.107L287.293 343.279H287.371C287.768 342.583 288.247 342.046 288.807 341.668C289.367 341.29 289.982 341.102 290.652 341.102ZM303.172 346.639C303.172 348.383 302.732 349.747 301.854 350.73C300.975 351.707 299.76 352.195 298.211 352.195C297.254 352.195 296.404 351.971 295.662 351.521C294.92 351.072 294.347 350.428 293.943 349.588C293.54 348.748 293.338 347.765 293.338 346.639C293.338 344.894 293.774 343.536 294.646 342.566C295.519 341.59 296.73 341.102 298.279 341.102C299.777 341.102 300.965 341.6 301.844 342.596C302.729 343.592 303.172 344.939 303.172 346.639ZM295.018 346.639C295.018 348.006 295.291 349.048 295.838 349.764C296.385 350.48 297.189 350.838 298.25 350.838C299.311 350.838 300.115 350.483 300.662 349.773C301.215 349.057 301.492 348.012 301.492 346.639C301.492 345.278 301.215 344.246 300.662 343.543C300.115 342.833 299.305 342.479 298.23 342.479C297.169 342.479 296.368 342.827 295.828 343.523C295.288 344.22 295.018 345.258 295.018 346.639ZM309.48 350.857C309.767 350.857 310.044 350.838 310.311 350.799C310.577 350.753 310.789 350.708 310.945 350.662V351.902C310.77 351.987 310.509 352.055 310.164 352.107C309.826 352.166 309.52 352.195 309.246 352.195C307.176 352.195 306.141 351.105 306.141 348.924V342.557H304.607V341.775L306.141 341.102L306.824 338.816H307.762V341.297H310.867V342.557H307.762V348.855C307.762 349.5 307.915 349.995 308.221 350.34C308.527 350.685 308.947 350.857 309.48 350.857ZM322.332 346.639C322.332 348.383 321.893 349.747 321.014 350.73C320.135 351.707 318.921 352.195 317.371 352.195C316.414 352.195 315.564 351.971 314.822 351.521C314.08 351.072 313.507 350.428 313.104 349.588C312.7 348.748 312.498 347.765 312.498 346.639C312.498 344.894 312.934 343.536 313.807 342.566C314.679 341.59 315.89 341.102 317.439 341.102C318.937 341.102 320.125 341.6 321.004 342.596C321.889 343.592 322.332 344.939 322.332 346.639ZM314.178 346.639C314.178 348.006 314.451 349.048 314.998 349.764C315.545 350.48 316.349 350.838 317.41 350.838C318.471 350.838 319.275 350.483 319.822 349.773C320.376 349.057 320.652 348.012 320.652 346.639C320.652 345.278 320.376 344.246 319.822 343.543C319.275 342.833 318.465 342.479 317.391 342.479C316.329 342.479 315.529 342.827 314.988 343.523C314.448 344.22 314.178 345.258 314.178 346.639ZM328.641 350.857C328.927 350.857 329.204 350.838 329.471 350.799C329.738 350.753 329.949 350.708 330.105 350.662V351.902C329.93 351.987 329.669 352.055 329.324 352.107C328.986 352.166 328.68 352.195 328.406 352.195C326.336 352.195 325.301 351.105 325.301 348.924V342.557H323.768V341.775L325.301 341.102L325.984 338.816H326.922V341.297H330.027V342.557H326.922V348.855C326.922 349.5 327.075 349.995 327.381 350.34C327.687 350.685 328.107 350.857 328.641 350.857ZM330.555 341.297H332.293L334.637 347.4C335.151 348.794 335.47 349.799 335.594 350.418H335.672C335.757 350.086 335.932 349.52 336.199 348.719C336.473 347.911 337.358 345.438 338.855 341.297H340.594L335.994 353.484C335.538 354.689 335.005 355.542 334.393 356.043C333.787 356.551 333.042 356.805 332.156 356.805C331.661 356.805 331.173 356.749 330.691 356.639V355.34C331.049 355.418 331.45 355.457 331.893 355.457C333.006 355.457 333.8 354.832 334.275 353.582L334.871 352.059L330.555 341.297ZM347.312 352.195C346.616 352.195 345.978 352.068 345.398 351.814C344.826 351.554 344.344 351.157 343.953 350.623H343.836C343.914 351.248 343.953 351.84 343.953 352.4V356.805H342.332V341.297H343.65L343.875 342.762H343.953C344.37 342.176 344.855 341.753 345.408 341.492C345.962 341.232 346.596 341.102 347.312 341.102C348.732 341.102 349.826 341.587 350.594 342.557C351.368 343.527 351.756 344.887 351.756 346.639C351.756 348.396 351.362 349.764 350.574 350.74C349.793 351.71 348.706 352.195 347.312 352.195ZM347.078 342.479C345.984 342.479 345.193 342.781 344.705 343.387C344.217 343.992 343.966 344.956 343.953 346.277V346.639C343.953 348.143 344.204 349.22 344.705 349.871C345.206 350.516 346.01 350.838 347.117 350.838C348.042 350.838 348.764 350.464 349.285 349.715C349.812 348.966 350.076 347.934 350.076 346.619C350.076 345.285 349.812 344.262 349.285 343.553C348.764 342.837 348.029 342.479 347.078 342.479ZM356.219 352H354.598V341.297H356.219V352ZM354.461 338.396C354.461 338.025 354.552 337.755 354.734 337.586C354.917 337.41 355.145 337.322 355.418 337.322C355.678 337.322 355.903 337.41 356.092 337.586C356.281 337.762 356.375 338.032 356.375 338.396C356.375 338.761 356.281 339.035 356.092 339.217C355.903 339.393 355.678 339.48 355.418 339.48C355.145 339.48 354.917 339.393 354.734 339.217C354.552 339.035 354.461 338.761 354.461 338.396ZM366.98 352V345.076C366.98 344.204 366.782 343.553 366.385 343.123C365.988 342.693 365.366 342.479 364.52 342.479C363.4 342.479 362.579 342.781 362.059 343.387C361.538 343.992 361.277 344.992 361.277 346.385V352H359.656V341.297H360.975L361.238 342.762H361.316C361.648 342.234 362.114 341.827 362.713 341.541C363.312 341.248 363.979 341.102 364.715 341.102C366.004 341.102 366.974 341.414 367.625 342.039C368.276 342.658 368.602 343.65 368.602 345.018V352H366.98ZM380.701 341.297V342.322L378.719 342.557C378.901 342.785 379.064 343.084 379.207 343.455C379.35 343.82 379.422 344.233 379.422 344.695C379.422 345.743 379.064 346.58 378.348 347.205C377.632 347.83 376.648 348.143 375.398 348.143C375.079 348.143 374.78 348.117 374.5 348.064C373.81 348.429 373.465 348.888 373.465 349.441C373.465 349.734 373.585 349.952 373.826 350.096C374.067 350.232 374.48 350.301 375.066 350.301H376.961C378.12 350.301 379.008 350.545 379.627 351.033C380.252 351.521 380.564 352.231 380.564 353.162C380.564 354.347 380.089 355.249 379.139 355.867C378.188 356.492 376.801 356.805 374.979 356.805C373.579 356.805 372.498 356.544 371.736 356.023C370.981 355.503 370.604 354.767 370.604 353.816C370.604 353.165 370.812 352.602 371.229 352.127C371.645 351.652 372.231 351.329 372.986 351.16C372.713 351.036 372.482 350.844 372.293 350.584C372.111 350.324 372.02 350.021 372.02 349.676C372.02 349.285 372.124 348.943 372.332 348.65C372.54 348.357 372.869 348.074 373.318 347.801C372.765 347.573 372.312 347.186 371.961 346.639C371.616 346.092 371.443 345.467 371.443 344.764C371.443 343.592 371.795 342.69 372.498 342.059C373.201 341.421 374.197 341.102 375.486 341.102C376.046 341.102 376.551 341.167 377 341.297H380.701ZM372.166 353.797C372.166 354.376 372.41 354.816 372.898 355.115C373.387 355.415 374.087 355.564 374.998 355.564C376.359 355.564 377.365 355.359 378.016 354.949C378.673 354.546 379.002 353.995 379.002 353.299C379.002 352.719 378.823 352.316 378.465 352.088C378.107 351.867 377.433 351.756 376.443 351.756H374.5C373.764 351.756 373.191 351.932 372.781 352.283C372.371 352.635 372.166 353.139 372.166 353.797ZM373.045 344.725C373.045 345.473 373.257 346.04 373.68 346.424C374.103 346.808 374.692 347 375.447 347C377.029 347 377.82 346.232 377.82 344.695C377.82 343.087 377.02 342.283 375.418 342.283C374.656 342.283 374.07 342.488 373.66 342.898C373.25 343.309 373.045 343.917 373.045 344.725Z" fill="black"/>
<path d="M272.963 276V261.723H274.623V274.496H280.922V276H272.963ZM292.348 270.639C292.348 272.383 291.908 273.747 291.029 274.73C290.15 275.707 288.936 276.195 287.387 276.195C286.43 276.195 285.58 275.971 284.838 275.521C284.096 275.072 283.523 274.428 283.119 273.588C282.715 272.748 282.514 271.765 282.514 270.639C282.514 268.894 282.95 267.536 283.822 266.566C284.695 265.59 285.906 265.102 287.455 265.102C288.952 265.102 290.141 265.6 291.02 266.596C291.905 267.592 292.348 268.939 292.348 270.639ZM284.193 270.639C284.193 272.006 284.467 273.048 285.014 273.764C285.561 274.48 286.365 274.838 287.426 274.838C288.487 274.838 289.291 274.483 289.838 273.773C290.391 273.057 290.668 272.012 290.668 270.639C290.668 269.278 290.391 268.246 289.838 267.543C289.291 266.833 288.48 266.479 287.406 266.479C286.345 266.479 285.544 266.827 285.004 267.523C284.464 268.22 284.193 269.258 284.193 270.639ZM303.959 265.297V266.322L301.977 266.557C302.159 266.785 302.322 267.084 302.465 267.455C302.608 267.82 302.68 268.233 302.68 268.695C302.68 269.743 302.322 270.58 301.605 271.205C300.889 271.83 299.906 272.143 298.656 272.143C298.337 272.143 298.038 272.117 297.758 272.064C297.068 272.429 296.723 272.888 296.723 273.441C296.723 273.734 296.843 273.952 297.084 274.096C297.325 274.232 297.738 274.301 298.324 274.301H300.219C301.378 274.301 302.266 274.545 302.885 275.033C303.51 275.521 303.822 276.231 303.822 277.162C303.822 278.347 303.347 279.249 302.396 279.867C301.446 280.492 300.059 280.805 298.236 280.805C296.837 280.805 295.756 280.544 294.994 280.023C294.239 279.503 293.861 278.767 293.861 277.816C293.861 277.165 294.07 276.602 294.486 276.127C294.903 275.652 295.489 275.329 296.244 275.16C295.971 275.036 295.74 274.844 295.551 274.584C295.368 274.324 295.277 274.021 295.277 273.676C295.277 273.285 295.382 272.943 295.59 272.65C295.798 272.357 296.127 272.074 296.576 271.801C296.023 271.573 295.57 271.186 295.219 270.639C294.874 270.092 294.701 269.467 294.701 268.764C294.701 267.592 295.053 266.69 295.756 266.059C296.459 265.421 297.455 265.102 298.744 265.102C299.304 265.102 299.809 265.167 300.258 265.297H303.959ZM295.424 277.797C295.424 278.376 295.668 278.816 296.156 279.115C296.645 279.415 297.344 279.564 298.256 279.564C299.617 279.564 300.622 279.359 301.273 278.949C301.931 278.546 302.26 277.995 302.26 277.299C302.26 276.719 302.081 276.316 301.723 276.088C301.365 275.867 300.691 275.756 299.701 275.756H297.758C297.022 275.756 296.449 275.932 296.039 276.283C295.629 276.635 295.424 277.139 295.424 277.797ZM296.303 268.725C296.303 269.473 296.514 270.04 296.938 270.424C297.361 270.808 297.95 271 298.705 271C300.287 271 301.078 270.232 301.078 268.695C301.078 267.087 300.277 266.283 298.676 266.283C297.914 266.283 297.328 266.488 296.918 266.898C296.508 267.309 296.303 267.917 296.303 268.725ZM315.395 270.639C315.395 272.383 314.955 273.747 314.076 274.73C313.197 275.707 311.983 276.195 310.434 276.195C309.477 276.195 308.627 275.971 307.885 275.521C307.143 275.072 306.57 274.428 306.166 273.588C305.762 272.748 305.561 271.765 305.561 270.639C305.561 268.894 305.997 267.536 306.869 266.566C307.742 265.59 308.952 265.102 310.502 265.102C311.999 265.102 313.188 265.6 314.066 266.596C314.952 267.592 315.395 268.939 315.395 270.639ZM307.24 270.639C307.24 272.006 307.514 273.048 308.061 273.764C308.607 274.48 309.411 274.838 310.473 274.838C311.534 274.838 312.338 274.483 312.885 273.773C313.438 273.057 313.715 272.012 313.715 270.639C313.715 269.278 313.438 268.246 312.885 267.543C312.338 266.833 311.527 266.479 310.453 266.479C309.392 266.479 308.591 266.827 308.051 267.523C307.51 268.22 307.24 269.258 307.24 270.639ZM325.15 273.08C325.15 274.076 324.779 274.844 324.037 275.385C323.295 275.925 322.253 276.195 320.912 276.195C319.493 276.195 318.386 275.971 317.592 275.521V274.018C318.106 274.278 318.656 274.483 319.242 274.633C319.835 274.783 320.404 274.857 320.951 274.857C321.798 274.857 322.449 274.724 322.904 274.457C323.36 274.184 323.588 273.77 323.588 273.217C323.588 272.8 323.406 272.445 323.041 272.152C322.683 271.853 321.98 271.501 320.932 271.098C319.936 270.727 319.226 270.404 318.803 270.131C318.386 269.851 318.074 269.535 317.865 269.184C317.663 268.832 317.562 268.412 317.562 267.924C317.562 267.051 317.917 266.365 318.627 265.863C319.337 265.355 320.31 265.102 321.547 265.102C322.699 265.102 323.826 265.336 324.926 265.805L324.35 267.123C323.275 266.68 322.302 266.459 321.43 266.459C320.661 266.459 320.082 266.579 319.691 266.82C319.301 267.061 319.105 267.393 319.105 267.816C319.105 268.103 319.177 268.347 319.32 268.549C319.47 268.751 319.708 268.943 320.033 269.125C320.359 269.307 320.984 269.571 321.908 269.916C323.178 270.378 324.034 270.844 324.477 271.312C324.926 271.781 325.15 272.37 325.15 273.08Z" fill="black"/>
<path d="M72.9629 240.723H76.9961C78.8906 240.723 80.2611 241.006 81.1074 241.572C81.9538 242.139 82.377 243.034 82.377 244.258C82.377 245.104 82.1393 245.804 81.6641 246.357C81.1953 246.904 80.5085 247.259 79.6035 247.422V247.52C81.7715 247.891 82.8555 249.03 82.8555 250.938C82.8555 252.214 82.4225 253.21 81.5566 253.926C80.6973 254.642 79.4928 255 77.9434 255H72.9629V240.723ZM74.623 246.836H77.3574C78.5293 246.836 79.3724 246.654 79.8867 246.289C80.401 245.918 80.6582 245.296 80.6582 244.424C80.6582 243.623 80.3717 243.047 79.7988 242.695C79.2259 242.337 78.3145 242.158 77.0645 242.158H74.623V246.836ZM74.623 248.242V253.584H77.6016C78.7539 253.584 79.6198 253.363 80.1992 252.92C80.7852 252.471 81.0781 251.771 81.0781 250.82C81.0781 249.935 80.7786 249.284 80.1797 248.867C79.5872 248.451 78.6823 248.242 77.4648 248.242H74.623ZM90.5703 244.102C91.0456 244.102 91.472 244.141 91.8496 244.219L91.625 245.723C91.1823 245.625 90.7917 245.576 90.4531 245.576C89.5872 245.576 88.8451 245.928 88.2266 246.631C87.6146 247.334 87.3086 248.21 87.3086 249.258V255H85.6875V244.297H87.0254L87.2109 246.279H87.2891C87.6862 245.583 88.1647 245.046 88.7246 244.668C89.2845 244.29 89.8997 244.102 90.5703 244.102ZM100.434 255L100.111 253.477H100.033C99.4993 254.147 98.9655 254.603 98.4316 254.844C97.9043 255.078 97.2435 255.195 96.4492 255.195C95.388 255.195 94.5547 254.922 93.9492 254.375C93.3503 253.828 93.0508 253.05 93.0508 252.041C93.0508 249.88 94.7793 248.747 98.2363 248.643L100.053 248.584V247.92C100.053 247.08 99.8704 246.462 99.5059 246.064C99.1478 245.661 98.5716 245.459 97.7773 245.459C96.8854 245.459 95.8763 245.732 94.75 246.279L94.252 245.039C94.7793 244.753 95.3555 244.528 95.9805 244.365C96.612 244.202 97.2435 244.121 97.875 244.121C99.151 244.121 100.095 244.404 100.707 244.971C101.326 245.537 101.635 246.445 101.635 247.695V255H100.434ZM96.7715 253.857C97.7806 253.857 98.5716 253.581 99.1445 253.027C99.724 252.474 100.014 251.699 100.014 250.703V249.736L98.3926 249.805C97.1035 249.85 96.1725 250.052 95.5996 250.41C95.0332 250.762 94.75 251.312 94.75 252.061C94.75 252.646 94.9258 253.092 95.2773 253.398C95.6354 253.704 96.1335 253.857 96.7715 253.857ZM112.309 255V248.076C112.309 247.204 112.11 246.553 111.713 246.123C111.316 245.693 110.694 245.479 109.848 245.479C108.728 245.479 107.908 245.781 107.387 246.387C106.866 246.992 106.605 247.992 106.605 249.385V255H104.984V244.297H106.303L106.566 245.762H106.645C106.977 245.234 107.442 244.827 108.041 244.541C108.64 244.248 109.307 244.102 110.043 244.102C111.332 244.102 112.302 244.414 112.953 245.039C113.604 245.658 113.93 246.65 113.93 248.018V255H112.309ZM124.555 253.564H124.467C123.718 254.652 122.598 255.195 121.107 255.195C119.708 255.195 118.617 254.717 117.836 253.76C117.061 252.803 116.674 251.442 116.674 249.678C116.674 247.913 117.064 246.543 117.846 245.566C118.627 244.59 119.714 244.102 121.107 244.102C122.559 244.102 123.673 244.629 124.447 245.684H124.574L124.506 244.912L124.467 244.16V239.805H126.088V255H124.77L124.555 253.564ZM121.312 253.838C122.419 253.838 123.22 253.538 123.715 252.939C124.216 252.334 124.467 251.361 124.467 250.02V249.678C124.467 248.161 124.213 247.08 123.705 246.436C123.204 245.785 122.4 245.459 121.293 245.459C120.342 245.459 119.613 245.83 119.105 246.572C118.604 247.308 118.354 248.35 118.354 249.697C118.354 251.064 118.604 252.096 119.105 252.793C119.607 253.49 120.342 253.838 121.312 253.838ZM131.156 255H129.535V244.297H131.156V255ZM129.398 241.396C129.398 241.025 129.49 240.755 129.672 240.586C129.854 240.41 130.082 240.322 130.355 240.322C130.616 240.322 130.84 240.41 131.029 240.586C131.218 240.762 131.312 241.032 131.312 241.396C131.312 241.761 131.218 242.035 131.029 242.217C130.84 242.393 130.616 242.48 130.355 242.48C130.082 242.48 129.854 242.393 129.672 242.217C129.49 242.035 129.398 241.761 129.398 241.396ZM141.918 255V248.076C141.918 247.204 141.719 246.553 141.322 246.123C140.925 245.693 140.303 245.479 139.457 245.479C138.337 245.479 137.517 245.781 136.996 246.387C136.475 246.992 136.215 247.992 136.215 249.385V255H134.594V244.297H135.912L136.176 245.762H136.254C136.586 245.234 137.051 244.827 137.65 244.541C138.249 244.248 138.917 244.102 139.652 244.102C140.941 244.102 141.911 244.414 142.562 245.039C143.214 245.658 143.539 246.65 143.539 248.018V255H141.918ZM155.639 244.297V245.322L153.656 245.557C153.839 245.785 154.001 246.084 154.145 246.455C154.288 246.82 154.359 247.233 154.359 247.695C154.359 248.743 154.001 249.58 153.285 250.205C152.569 250.83 151.586 251.143 150.336 251.143C150.017 251.143 149.717 251.117 149.438 251.064C148.747 251.429 148.402 251.888 148.402 252.441C148.402 252.734 148.523 252.952 148.764 253.096C149.005 253.232 149.418 253.301 150.004 253.301H151.898C153.057 253.301 153.946 253.545 154.564 254.033C155.189 254.521 155.502 255.231 155.502 256.162C155.502 257.347 155.027 258.249 154.076 258.867C153.126 259.492 151.739 259.805 149.916 259.805C148.516 259.805 147.436 259.544 146.674 259.023C145.919 258.503 145.541 257.767 145.541 256.816C145.541 256.165 145.749 255.602 146.166 255.127C146.583 254.652 147.169 254.329 147.924 254.16C147.65 254.036 147.419 253.844 147.23 253.584C147.048 253.324 146.957 253.021 146.957 252.676C146.957 252.285 147.061 251.943 147.27 251.65C147.478 251.357 147.807 251.074 148.256 250.801C147.702 250.573 147.25 250.186 146.898 249.639C146.553 249.092 146.381 248.467 146.381 247.764C146.381 246.592 146.732 245.69 147.436 245.059C148.139 244.421 149.135 244.102 150.424 244.102C150.984 244.102 151.488 244.167 151.938 244.297H155.639ZM147.104 256.797C147.104 257.376 147.348 257.816 147.836 258.115C148.324 258.415 149.024 258.564 149.936 258.564C151.296 258.564 152.302 258.359 152.953 257.949C153.611 257.546 153.939 256.995 153.939 256.299C153.939 255.719 153.76 255.316 153.402 255.088C153.044 254.867 152.37 254.756 151.381 254.756H149.438C148.702 254.756 148.129 254.932 147.719 255.283C147.309 255.635 147.104 256.139 147.104 256.797ZM147.982 247.725C147.982 248.473 148.194 249.04 148.617 249.424C149.04 249.808 149.63 250 150.385 250C151.967 250 152.758 249.232 152.758 247.695C152.758 246.087 151.957 245.283 150.355 245.283C149.594 245.283 149.008 245.488 148.598 245.898C148.188 246.309 147.982 246.917 147.982 247.725Z" fill="black"/>
<path d="M115.359 323.725C115.359 326.081 114.718 327.885 113.436 329.135C112.16 330.378 110.32 331 107.918 331H103.963V316.723H108.338C110.558 316.723 112.283 317.338 113.514 318.568C114.744 319.799 115.359 321.518 115.359 323.725ZM113.602 323.783C113.602 321.921 113.133 320.518 112.195 319.574C111.264 318.63 109.878 318.158 108.035 318.158H105.623V329.564H107.645C109.624 329.564 111.111 329.079 112.107 328.109C113.104 327.133 113.602 325.691 113.602 323.783ZM122.83 331.195C121.248 331.195 119.998 330.714 119.08 329.75C118.169 328.786 117.713 327.449 117.713 325.736C117.713 324.011 118.136 322.641 118.982 321.625C119.835 320.609 120.978 320.102 122.41 320.102C123.751 320.102 124.812 320.544 125.594 321.43C126.375 322.309 126.766 323.471 126.766 324.916V325.941H119.393C119.425 327.198 119.741 328.152 120.34 328.803C120.945 329.454 121.795 329.779 122.889 329.779C124.041 329.779 125.18 329.538 126.307 329.057V330.502C125.734 330.749 125.19 330.925 124.676 331.029C124.168 331.14 123.553 331.195 122.83 331.195ZM122.391 321.459C121.531 321.459 120.844 321.739 120.33 322.299C119.822 322.859 119.523 323.633 119.432 324.623H125.027C125.027 323.601 124.799 322.82 124.344 322.279C123.888 321.732 123.237 321.459 122.391 321.459ZM136.443 328.08C136.443 329.076 136.072 329.844 135.33 330.385C134.588 330.925 133.546 331.195 132.205 331.195C130.786 331.195 129.679 330.971 128.885 330.521V329.018C129.399 329.278 129.949 329.483 130.535 329.633C131.128 329.783 131.697 329.857 132.244 329.857C133.09 329.857 133.742 329.724 134.197 329.457C134.653 329.184 134.881 328.77 134.881 328.217C134.881 327.8 134.699 327.445 134.334 327.152C133.976 326.853 133.273 326.501 132.225 326.098C131.229 325.727 130.519 325.404 130.096 325.131C129.679 324.851 129.367 324.535 129.158 324.184C128.956 323.832 128.855 323.412 128.855 322.924C128.855 322.051 129.21 321.365 129.92 320.863C130.63 320.355 131.603 320.102 132.84 320.102C133.992 320.102 135.118 320.336 136.219 320.805L135.643 322.123C134.568 321.68 133.595 321.459 132.723 321.459C131.954 321.459 131.375 321.579 130.984 321.82C130.594 322.061 130.398 322.393 130.398 322.816C130.398 323.103 130.47 323.347 130.613 323.549C130.763 323.751 131.001 323.943 131.326 324.125C131.652 324.307 132.277 324.571 133.201 324.916C134.471 325.378 135.327 325.844 135.77 326.312C136.219 326.781 136.443 327.37 136.443 328.08ZM140.711 331H139.09V320.297H140.711V331ZM138.953 317.396C138.953 317.025 139.044 316.755 139.227 316.586C139.409 316.41 139.637 316.322 139.91 316.322C140.171 316.322 140.395 316.41 140.584 316.586C140.773 316.762 140.867 317.032 140.867 317.396C140.867 317.761 140.773 318.035 140.584 318.217C140.395 318.393 140.171 318.48 139.91 318.48C139.637 318.48 139.409 318.393 139.227 318.217C139.044 318.035 138.953 317.761 138.953 317.396ZM152.908 320.297V321.322L150.926 321.557C151.108 321.785 151.271 322.084 151.414 322.455C151.557 322.82 151.629 323.233 151.629 323.695C151.629 324.743 151.271 325.58 150.555 326.205C149.839 326.83 148.855 327.143 147.605 327.143C147.286 327.143 146.987 327.117 146.707 327.064C146.017 327.429 145.672 327.888 145.672 328.441C145.672 328.734 145.792 328.952 146.033 329.096C146.274 329.232 146.688 329.301 147.273 329.301H149.168C150.327 329.301 151.215 329.545 151.834 330.033C152.459 330.521 152.771 331.231 152.771 332.162C152.771 333.347 152.296 334.249 151.346 334.867C150.395 335.492 149.008 335.805 147.186 335.805C145.786 335.805 144.705 335.544 143.943 335.023C143.188 334.503 142.811 333.767 142.811 332.816C142.811 332.165 143.019 331.602 143.436 331.127C143.852 330.652 144.438 330.329 145.193 330.16C144.92 330.036 144.689 329.844 144.5 329.584C144.318 329.324 144.227 329.021 144.227 328.676C144.227 328.285 144.331 327.943 144.539 327.65C144.747 327.357 145.076 327.074 145.525 326.801C144.972 326.573 144.52 326.186 144.168 325.639C143.823 325.092 143.65 324.467 143.65 323.764C143.65 322.592 144.002 321.69 144.705 321.059C145.408 320.421 146.404 320.102 147.693 320.102C148.253 320.102 148.758 320.167 149.207 320.297H152.908ZM144.373 332.797C144.373 333.376 144.617 333.816 145.105 334.115C145.594 334.415 146.294 334.564 147.205 334.564C148.566 334.564 149.572 334.359 150.223 333.949C150.88 333.546 151.209 332.995 151.209 332.299C151.209 331.719 151.03 331.316 150.672 331.088C150.314 330.867 149.64 330.756 148.65 330.756H146.707C145.971 330.756 145.398 330.932 144.988 331.283C144.578 331.635 144.373 332.139 144.373 332.797ZM145.252 323.725C145.252 324.473 145.464 325.04 145.887 325.424C146.31 325.808 146.899 326 147.654 326C149.236 326 150.027 325.232 150.027 323.695C150.027 322.087 149.227 321.283 147.625 321.283C146.863 321.283 146.277 321.488 145.867 321.898C145.457 322.309 145.252 322.917 145.252 323.725ZM162.43 331V324.076C162.43 323.204 162.231 322.553 161.834 322.123C161.437 321.693 160.815 321.479 159.969 321.479C158.849 321.479 158.029 321.781 157.508 322.387C156.987 322.992 156.727 323.992 156.727 325.385V331H155.105V320.297H156.424L156.688 321.762H156.766C157.098 321.234 157.563 320.827 158.162 320.541C158.761 320.248 159.428 320.102 160.164 320.102C161.453 320.102 162.423 320.414 163.074 321.039C163.725 321.658 164.051 322.65 164.051 324.018V331H162.43ZM112.02 354.201C112.02 355.458 111.564 356.438 110.652 357.141C109.741 357.844 108.504 358.195 106.941 358.195C105.249 358.195 103.947 357.977 103.035 357.541V355.939C103.621 356.187 104.259 356.382 104.949 356.525C105.639 356.669 106.323 356.74 107 356.74C108.107 356.74 108.94 356.532 109.5 356.115C110.06 355.692 110.34 355.106 110.34 354.357C110.34 353.863 110.239 353.459 110.037 353.146C109.842 352.827 109.51 352.535 109.041 352.268C108.579 352.001 107.872 351.698 106.922 351.359C105.594 350.884 104.643 350.321 104.07 349.67C103.504 349.019 103.221 348.169 103.221 347.121C103.221 346.021 103.634 345.145 104.461 344.494C105.288 343.843 106.382 343.518 107.742 343.518C109.161 343.518 110.467 343.778 111.658 344.299L111.141 345.744C109.962 345.249 108.816 345.002 107.703 345.002C106.824 345.002 106.137 345.191 105.643 345.568C105.148 345.946 104.9 346.47 104.9 347.141C104.9 347.635 104.992 348.042 105.174 348.361C105.356 348.674 105.662 348.964 106.092 349.23C106.528 349.491 107.192 349.781 108.084 350.1C109.581 350.633 110.61 351.206 111.17 351.818C111.736 352.43 112.02 353.225 112.02 354.201ZM112.996 347.297H114.734L117.078 353.4C117.592 354.794 117.911 355.799 118.035 356.418H118.113C118.198 356.086 118.374 355.52 118.641 354.719C118.914 353.911 119.799 351.438 121.297 347.297H123.035L118.436 359.484C117.98 360.689 117.446 361.542 116.834 362.043C116.229 362.551 115.483 362.805 114.598 362.805C114.103 362.805 113.615 362.749 113.133 362.639V361.34C113.491 361.418 113.891 361.457 114.334 361.457C115.447 361.457 116.242 360.832 116.717 359.582L117.312 358.059L112.996 347.297ZM131.678 355.08C131.678 356.076 131.307 356.844 130.564 357.385C129.822 357.925 128.781 358.195 127.439 358.195C126.02 358.195 124.913 357.971 124.119 357.521V356.018C124.633 356.278 125.184 356.483 125.77 356.633C126.362 356.783 126.932 356.857 127.479 356.857C128.325 356.857 128.976 356.724 129.432 356.457C129.887 356.184 130.115 355.77 130.115 355.217C130.115 354.8 129.933 354.445 129.568 354.152C129.21 353.853 128.507 353.501 127.459 353.098C126.463 352.727 125.753 352.404 125.33 352.131C124.913 351.851 124.601 351.535 124.393 351.184C124.191 350.832 124.09 350.412 124.09 349.924C124.09 349.051 124.445 348.365 125.154 347.863C125.864 347.355 126.837 347.102 128.074 347.102C129.227 347.102 130.353 347.336 131.453 347.805L130.877 349.123C129.803 348.68 128.829 348.459 127.957 348.459C127.189 348.459 126.609 348.579 126.219 348.82C125.828 349.061 125.633 349.393 125.633 349.816C125.633 350.103 125.704 350.347 125.848 350.549C125.997 350.751 126.235 350.943 126.561 351.125C126.886 351.307 127.511 351.571 128.436 351.916C129.705 352.378 130.561 352.844 131.004 353.312C131.453 353.781 131.678 354.37 131.678 355.08ZM137.781 356.857C138.068 356.857 138.344 356.838 138.611 356.799C138.878 356.753 139.09 356.708 139.246 356.662V357.902C139.07 357.987 138.81 358.055 138.465 358.107C138.126 358.166 137.82 358.195 137.547 358.195C135.477 358.195 134.441 357.105 134.441 354.924V348.557H132.908V347.775L134.441 347.102L135.125 344.816H136.062V347.297H139.168V348.557H136.062V354.855C136.062 355.5 136.215 355.995 136.521 356.34C136.827 356.685 137.247 356.857 137.781 356.857ZM145.916 358.195C144.334 358.195 143.084 357.714 142.166 356.75C141.255 355.786 140.799 354.449 140.799 352.736C140.799 351.011 141.222 349.641 142.068 348.625C142.921 347.609 144.064 347.102 145.496 347.102C146.837 347.102 147.898 347.544 148.68 348.43C149.461 349.309 149.852 350.471 149.852 351.916V352.941H142.479C142.511 354.198 142.827 355.152 143.426 355.803C144.031 356.454 144.881 356.779 145.975 356.779C147.127 356.779 148.266 356.538 149.393 356.057V357.502C148.82 357.749 148.276 357.925 147.762 358.029C147.254 358.14 146.639 358.195 145.916 358.195ZM145.477 348.459C144.617 348.459 143.93 348.739 143.416 349.299C142.908 349.859 142.609 350.633 142.518 351.623H148.113C148.113 350.601 147.885 349.82 147.43 349.279C146.974 348.732 146.323 348.459 145.477 348.459ZM166.268 358V351.037C166.268 350.184 166.085 349.546 165.721 349.123C165.356 348.693 164.79 348.479 164.021 348.479C163.012 348.479 162.267 348.768 161.785 349.348C161.303 349.927 161.062 350.819 161.062 352.023V358H159.441V351.037C159.441 350.184 159.259 349.546 158.895 349.123C158.53 348.693 157.96 348.479 157.186 348.479C156.17 348.479 155.424 348.785 154.949 349.396C154.48 350.002 154.246 350.998 154.246 352.385V358H152.625V347.297H153.943L154.207 348.762H154.285C154.591 348.241 155.021 347.834 155.574 347.541C156.134 347.248 156.759 347.102 157.449 347.102C159.122 347.102 160.216 347.707 160.73 348.918H160.809C161.128 348.358 161.59 347.915 162.195 347.59C162.801 347.264 163.491 347.102 164.266 347.102C165.477 347.102 166.382 347.414 166.98 348.039C167.586 348.658 167.889 349.65 167.889 351.018V358H166.268ZM178.143 355.08C178.143 356.076 177.771 356.844 177.029 357.385C176.287 357.925 175.245 358.195 173.904 358.195C172.485 358.195 171.378 357.971 170.584 357.521V356.018C171.098 356.278 171.648 356.483 172.234 356.633C172.827 356.783 173.396 356.857 173.943 356.857C174.79 356.857 175.441 356.724 175.896 356.457C176.352 356.184 176.58 355.77 176.58 355.217C176.58 354.8 176.398 354.445 176.033 354.152C175.675 353.853 174.972 353.501 173.924 353.098C172.928 352.727 172.218 352.404 171.795 352.131C171.378 351.851 171.066 351.535 170.857 351.184C170.656 350.832 170.555 350.412 170.555 349.924C170.555 349.051 170.91 348.365 171.619 347.863C172.329 347.355 173.302 347.102 174.539 347.102C175.691 347.102 176.818 347.336 177.918 347.805L177.342 349.123C176.268 348.68 175.294 348.459 174.422 348.459C173.654 348.459 173.074 348.579 172.684 348.82C172.293 349.061 172.098 349.393 172.098 349.816C172.098 350.103 172.169 350.347 172.312 350.549C172.462 350.751 172.7 350.943 173.025 351.125C173.351 351.307 173.976 351.571 174.9 351.916C176.17 352.378 177.026 352.844 177.469 353.312C177.918 353.781 178.143 354.37 178.143 355.08Z" fill="black"/>
<path d="M204.242 246.52H209.096V253.463C208.34 253.704 207.572 253.886 206.791 254.01C206.01 254.133 205.105 254.195 204.076 254.195C201.915 254.195 200.232 253.554 199.027 252.271C197.823 250.982 197.221 249.179 197.221 246.861C197.221 245.377 197.517 244.078 198.109 242.965C198.708 241.845 199.568 240.992 200.688 240.406C201.807 239.814 203.119 239.518 204.623 239.518C206.146 239.518 207.566 239.798 208.881 240.357L208.236 241.822C206.947 241.275 205.707 241.002 204.516 241.002C202.777 241.002 201.42 241.52 200.443 242.555C199.467 243.59 198.979 245.025 198.979 246.861C198.979 248.788 199.447 250.25 200.385 251.246C201.329 252.242 202.712 252.74 204.535 252.74C205.525 252.74 206.492 252.626 207.436 252.398V248.004H204.242V246.52ZM212.533 254V239.723H214.193V254H212.533ZM224.438 254L219.594 241.344H219.516C219.607 242.346 219.652 243.538 219.652 244.918V254H218.119V239.723H220.619L225.141 251.5H225.219L229.779 239.723H232.26V254H230.6V244.801C230.6 243.746 230.645 242.6 230.736 241.363H230.658L225.775 254H224.438ZM245.238 243.883C245.238 245.328 244.743 246.441 243.754 247.223C242.771 247.997 241.361 248.385 239.525 248.385H237.846V254H236.186V239.723H239.887C243.454 239.723 245.238 241.109 245.238 243.883ZM237.846 246.959H239.34C240.811 246.959 241.876 246.721 242.533 246.246C243.191 245.771 243.52 245.009 243.52 243.961C243.52 243.017 243.21 242.314 242.592 241.852C241.973 241.389 241.01 241.158 239.701 241.158H237.846V246.959Z" fill="black"/>
<path d="M160.623 291H158.963V276.723H166.922V278.197H160.623V283.422H166.541V284.896H160.623V291ZM170.672 291H169.051V280.297H170.672V291ZM168.914 277.396C168.914 277.025 169.005 276.755 169.188 276.586C169.37 276.41 169.598 276.322 169.871 276.322C170.132 276.322 170.356 276.41 170.545 276.586C170.734 276.762 170.828 277.032 170.828 277.396C170.828 277.761 170.734 278.035 170.545 278.217C170.356 278.393 170.132 278.48 169.871 278.48C169.598 278.48 169.37 278.393 169.188 278.217C169.005 278.035 168.914 277.761 168.914 277.396ZM182.869 280.297V281.322L180.887 281.557C181.069 281.785 181.232 282.084 181.375 282.455C181.518 282.82 181.59 283.233 181.59 283.695C181.59 284.743 181.232 285.58 180.516 286.205C179.799 286.83 178.816 287.143 177.566 287.143C177.247 287.143 176.948 287.117 176.668 287.064C175.978 287.429 175.633 287.888 175.633 288.441C175.633 288.734 175.753 288.952 175.994 289.096C176.235 289.232 176.648 289.301 177.234 289.301H179.129C180.288 289.301 181.176 289.545 181.795 290.033C182.42 290.521 182.732 291.231 182.732 292.162C182.732 293.347 182.257 294.249 181.307 294.867C180.356 295.492 178.969 295.805 177.146 295.805C175.747 295.805 174.666 295.544 173.904 295.023C173.149 294.503 172.771 293.767 172.771 292.816C172.771 292.165 172.98 291.602 173.396 291.127C173.813 290.652 174.399 290.329 175.154 290.16C174.881 290.036 174.65 289.844 174.461 289.584C174.279 289.324 174.188 289.021 174.188 288.676C174.188 288.285 174.292 287.943 174.5 287.65C174.708 287.357 175.037 287.074 175.486 286.801C174.933 286.573 174.48 286.186 174.129 285.639C173.784 285.092 173.611 284.467 173.611 283.764C173.611 282.592 173.963 281.69 174.666 281.059C175.369 280.421 176.365 280.102 177.654 280.102C178.214 280.102 178.719 280.167 179.168 280.297H182.869ZM174.334 292.797C174.334 293.376 174.578 293.816 175.066 294.115C175.555 294.415 176.255 294.564 177.166 294.564C178.527 294.564 179.533 294.359 180.184 293.949C180.841 293.546 181.17 292.995 181.17 292.299C181.17 291.719 180.991 291.316 180.633 291.088C180.275 290.867 179.601 290.756 178.611 290.756H176.668C175.932 290.756 175.359 290.932 174.949 291.283C174.539 291.635 174.334 292.139 174.334 292.797ZM175.213 283.725C175.213 284.473 175.424 285.04 175.848 285.424C176.271 285.808 176.86 286 177.615 286C179.197 286 179.988 285.232 179.988 283.695C179.988 282.087 179.188 281.283 177.586 281.283C176.824 281.283 176.238 281.488 175.828 281.898C175.418 282.309 175.213 282.917 175.213 283.725ZM198.709 291V284.037C198.709 283.184 198.527 282.546 198.162 282.123C197.798 281.693 197.231 281.479 196.463 281.479C195.454 281.479 194.708 281.768 194.227 282.348C193.745 282.927 193.504 283.819 193.504 285.023V291H191.883V284.037C191.883 283.184 191.701 282.546 191.336 282.123C190.971 281.693 190.402 281.479 189.627 281.479C188.611 281.479 187.866 281.785 187.391 282.396C186.922 283.002 186.688 283.998 186.688 285.385V291H185.066V280.297H186.385L186.648 281.762H186.727C187.033 281.241 187.462 280.834 188.016 280.541C188.576 280.248 189.201 280.102 189.891 280.102C191.564 280.102 192.658 280.707 193.172 281.918H193.25C193.569 281.358 194.031 280.915 194.637 280.59C195.242 280.264 195.932 280.102 196.707 280.102C197.918 280.102 198.823 280.414 199.422 281.039C200.027 281.658 200.33 282.65 200.33 284.018V291H198.709ZM210.262 291L209.939 289.477H209.861C209.327 290.147 208.794 290.603 208.26 290.844C207.732 291.078 207.072 291.195 206.277 291.195C205.216 291.195 204.383 290.922 203.777 290.375C203.178 289.828 202.879 289.05 202.879 288.041C202.879 285.88 204.607 284.747 208.064 284.643L209.881 284.584V283.92C209.881 283.08 209.699 282.462 209.334 282.064C208.976 281.661 208.4 281.459 207.605 281.459C206.714 281.459 205.704 281.732 204.578 282.279L204.08 281.039C204.607 280.753 205.184 280.528 205.809 280.365C206.44 280.202 207.072 280.121 207.703 280.121C208.979 280.121 209.923 280.404 210.535 280.971C211.154 281.537 211.463 282.445 211.463 283.695V291H210.262ZM206.6 289.857C207.609 289.857 208.4 289.581 208.973 289.027C209.552 288.474 209.842 287.699 209.842 286.703V285.736L208.221 285.805C206.932 285.85 206.001 286.052 205.428 286.41C204.861 286.762 204.578 287.312 204.578 288.061C204.578 288.646 204.754 289.092 205.105 289.398C205.464 289.704 205.962 289.857 206.6 289.857Z" fill="black"/>
<path d="M246.275 313H244.322L239.117 306.076L237.623 307.404V313H235.963V298.723H237.623V305.803L244.098 298.723H246.061L240.318 304.924L246.275 313ZM252.887 302.102C253.362 302.102 253.788 302.141 254.166 302.219L253.941 303.723C253.499 303.625 253.108 303.576 252.77 303.576C251.904 303.576 251.161 303.928 250.543 304.631C249.931 305.334 249.625 306.21 249.625 307.258V313H248.004V302.297H249.342L249.527 304.279H249.605C250.003 303.583 250.481 303.046 251.041 302.668C251.601 302.29 252.216 302.102 252.887 302.102ZM257.789 313H256.168V302.297H257.789V313ZM256.031 299.396C256.031 299.025 256.122 298.755 256.305 298.586C256.487 298.41 256.715 298.322 256.988 298.322C257.249 298.322 257.473 298.41 257.662 298.586C257.851 298.762 257.945 299.032 257.945 299.396C257.945 299.761 257.851 300.035 257.662 300.217C257.473 300.393 257.249 300.48 256.988 300.48C256.715 300.48 256.487 300.393 256.305 300.217C256.122 300.035 256.031 299.761 256.031 299.396ZM264.684 311.857C264.97 311.857 265.247 311.838 265.514 311.799C265.781 311.753 265.992 311.708 266.148 311.662V312.902C265.973 312.987 265.712 313.055 265.367 313.107C265.029 313.166 264.723 313.195 264.449 313.195C262.379 313.195 261.344 312.105 261.344 309.924V303.557H259.811V302.775L261.344 302.102L262.027 299.816H262.965V302.297H266.07V303.557H262.965V309.855C262.965 310.5 263.118 310.995 263.424 311.34C263.73 311.685 264.15 311.857 264.684 311.857ZM274.879 313L274.557 311.477H274.479C273.945 312.147 273.411 312.603 272.877 312.844C272.35 313.078 271.689 313.195 270.895 313.195C269.833 313.195 269 312.922 268.395 312.375C267.796 311.828 267.496 311.05 267.496 310.041C267.496 307.88 269.225 306.747 272.682 306.643L274.498 306.584V305.92C274.498 305.08 274.316 304.462 273.951 304.064C273.593 303.661 273.017 303.459 272.223 303.459C271.331 303.459 270.322 303.732 269.195 304.279L268.697 303.039C269.225 302.753 269.801 302.528 270.426 302.365C271.057 302.202 271.689 302.121 272.32 302.121C273.596 302.121 274.54 302.404 275.152 302.971C275.771 303.537 276.08 304.445 276.08 305.695V313H274.879ZM271.217 311.857C272.226 311.857 273.017 311.581 273.59 311.027C274.169 310.474 274.459 309.699 274.459 308.703V307.736L272.838 307.805C271.549 307.85 270.618 308.052 270.045 308.41C269.479 308.762 269.195 309.312 269.195 310.061C269.195 310.646 269.371 311.092 269.723 311.398C270.081 311.704 270.579 311.857 271.217 311.857Z" fill="black"/>
<path d="M41.1152 156H39.2207L31.418 144.018H31.3398C31.444 145.424 31.4961 146.713 31.4961 147.885V156H29.9629V141.723H31.8379L39.6211 153.656H39.6992C39.6862 153.48 39.6569 152.917 39.6113 151.967C39.5658 151.01 39.5495 150.326 39.5625 149.916V141.723H41.1152V156ZM54.0352 150.639C54.0352 152.383 53.5957 153.747 52.7168 154.73C51.8379 155.707 50.6237 156.195 49.0742 156.195C48.1172 156.195 47.2676 155.971 46.5254 155.521C45.7832 155.072 45.2103 154.428 44.8066 153.588C44.403 152.748 44.2012 151.765 44.2012 150.639C44.2012 148.894 44.6374 147.536 45.5098 146.566C46.3822 145.59 47.5931 145.102 49.1426 145.102C50.64 145.102 51.8281 145.6 52.707 146.596C53.5924 147.592 54.0352 148.939 54.0352 150.639ZM45.8809 150.639C45.8809 152.006 46.1543 153.048 46.7012 153.764C47.248 154.48 48.0521 154.838 49.1133 154.838C50.1745 154.838 50.9785 154.483 51.5254 153.773C52.0788 153.057 52.3555 152.012 52.3555 150.639C52.3555 149.278 52.0788 148.246 51.5254 147.543C50.9785 146.833 50.168 146.479 49.0938 146.479C48.0326 146.479 47.2318 146.827 46.6914 147.523C46.151 148.22 45.8809 149.258 45.8809 150.639ZM59.2305 156L55.168 145.297H56.9062L59.2109 151.645C59.7318 153.129 60.0378 154.092 60.1289 154.535H60.207C60.2786 154.19 60.5033 153.477 60.8809 152.396C61.265 151.309 62.1211 148.943 63.4492 145.297H65.1875L61.125 156H59.2305ZM68.5273 156H66.9062V145.297H68.5273V156ZM66.7695 142.396C66.7695 142.025 66.8607 141.755 67.043 141.586C67.2253 141.41 67.4531 141.322 67.7266 141.322C67.987 141.322 68.2116 141.41 68.4004 141.586C68.5892 141.762 68.6836 142.032 68.6836 142.396C68.6836 142.761 68.5892 143.035 68.4004 143.217C68.2116 143.393 67.987 143.48 67.7266 143.48C67.4531 143.48 67.2253 143.393 67.043 143.217C66.8607 143.035 66.7695 142.761 66.7695 142.396ZM76.2422 156.195C74.6927 156.195 73.4915 155.72 72.6387 154.77C71.7923 153.812 71.3691 152.462 71.3691 150.717C71.3691 148.926 71.7988 147.543 72.6582 146.566C73.5241 145.59 74.7546 145.102 76.3496 145.102C76.8639 145.102 77.3783 145.157 77.8926 145.268C78.4069 145.378 78.8105 145.508 79.1035 145.658L78.6055 147.035C78.2474 146.892 77.8568 146.775 77.4336 146.684C77.0104 146.586 76.6361 146.537 76.3105 146.537C74.1361 146.537 73.0488 147.924 73.0488 150.697C73.0488 152.012 73.3125 153.021 73.8398 153.725C74.3737 154.428 75.1615 154.779 76.2031 154.779C77.0951 154.779 78.0098 154.587 78.9473 154.203V155.639C78.2311 156.01 77.3294 156.195 76.2422 156.195ZM86.0176 156.195C84.4355 156.195 83.1855 155.714 82.2676 154.75C81.3561 153.786 80.9004 152.449 80.9004 150.736C80.9004 149.011 81.3236 147.641 82.1699 146.625C83.0228 145.609 84.1654 145.102 85.5977 145.102C86.9388 145.102 88 145.544 88.7812 146.43C89.5625 147.309 89.9531 148.471 89.9531 149.916V150.941H82.5801C82.6126 152.198 82.9284 153.152 83.5273 153.803C84.1328 154.454 84.9824 154.779 86.0762 154.779C87.2285 154.779 88.3678 154.538 89.4941 154.057V155.502C88.9212 155.749 88.3776 155.925 87.8633 156.029C87.3555 156.14 86.7402 156.195 86.0176 156.195ZM85.5781 146.459C84.7188 146.459 84.0319 146.739 83.5176 147.299C83.0098 147.859 82.7103 148.633 82.6191 149.623H88.2148C88.2148 148.601 87.987 147.82 87.5312 147.279C87.0755 146.732 86.4245 146.459 85.5781 146.459Z" fill="black"/>
<path d="M10.9375 21L9.16016 16.459H3.4375L1.67969 21H0L5.64453 6.66406H7.04102L12.6562 21H10.9375ZM8.64258 14.9648L6.98242 10.541C6.76758 9.98112 6.54622 9.29427 6.31836 8.48047C6.17513 9.10547 5.97005 9.79232 5.70312 10.541L4.02344 14.9648H8.64258ZM21.6602 19.5645H21.5723C20.8236 20.6517 19.7038 21.1953 18.2129 21.1953C16.8132 21.1953 15.7227 20.7168 14.9414 19.7598C14.1667 18.8027 13.7793 17.4421 13.7793 15.6777C13.7793 13.9134 14.1699 12.543 14.9512 11.5664C15.7324 10.5898 16.8197 10.1016 18.2129 10.1016C19.6647 10.1016 20.778 10.6289 21.5527 11.6836H21.6797L21.6113 10.9121L21.5723 10.1602V5.80469H23.1934V21H21.875L21.6602 19.5645ZM18.418 19.8379C19.5247 19.8379 20.3255 19.5384 20.8203 18.9395C21.3216 18.334 21.5723 17.3607 21.5723 16.0195V15.6777C21.5723 14.1608 21.3184 13.0801 20.8105 12.4355C20.3092 11.7845 19.5052 11.459 18.3984 11.459C17.4479 11.459 16.7188 11.8301 16.2109 12.5723C15.7096 13.3079 15.459 14.3496 15.459 15.6973C15.459 17.0645 15.7096 18.0964 16.2109 18.793C16.7122 19.4896 17.4479 19.8379 18.418 19.8379ZM28.9844 21L24.9219 10.2969H26.6602L28.9648 16.6445C29.4857 18.1289 29.7917 19.0924 29.8828 19.5352H29.9609C30.0326 19.1901 30.2572 18.4772 30.6348 17.3965C31.0189 16.3092 31.875 13.9427 33.2031 10.2969H34.9414L30.8789 21H28.9844ZM43.2422 21L42.9199 19.4766H42.8418C42.3079 20.1471 41.7741 20.6029 41.2402 20.8438C40.7129 21.0781 40.0521 21.1953 39.2578 21.1953C38.1966 21.1953 37.3633 20.9219 36.7578 20.375C36.1589 19.8281 35.8594 19.0501 35.8594 18.041C35.8594 15.8796 37.5879 14.7467 41.0449 14.6426L42.8613 14.584V13.9199C42.8613 13.0801 42.679 12.4616 42.3145 12.0645C41.9564 11.6608 41.3802 11.459 40.5859 11.459C39.694 11.459 38.6849 11.7324 37.5586 12.2793L37.0605 11.0391C37.5879 10.7526 38.1641 10.528 38.7891 10.3652C39.4206 10.2025 40.0521 10.1211 40.6836 10.1211C41.9596 10.1211 42.9036 10.4043 43.5156 10.9707C44.1341 11.5371 44.4434 12.4453 44.4434 13.6953V21H43.2422ZM39.5801 19.8574C40.5892 19.8574 41.3802 19.5807 41.9531 19.0273C42.5326 18.474 42.8223 17.6992 42.8223 16.7031V15.7363L41.2012 15.8047C39.9121 15.8503 38.9811 16.0521 38.4082 16.4102C37.8418 16.7617 37.5586 17.3118 37.5586 18.0605C37.5586 18.6465 37.7344 19.0924 38.0859 19.3984C38.444 19.7044 38.9421 19.8574 39.5801 19.8574ZM55.1172 21V14.0762C55.1172 13.2038 54.9186 12.5527 54.5215 12.123C54.1243 11.6934 53.5026 11.4785 52.6562 11.4785C51.5365 11.4785 50.7161 11.7812 50.1953 12.3867C49.6745 12.9922 49.4141 13.9915 49.4141 15.3848V21H47.793V10.2969H49.1113L49.375 11.7617H49.4531C49.7852 11.2344 50.2507 10.8275 50.8496 10.541C51.4486 10.248 52.1159 10.1016 52.8516 10.1016C54.1406 10.1016 55.1107 10.4141 55.7617 11.0391C56.4128 11.6576 56.7383 12.6504 56.7383 14.0176V21H55.1172ZM64.3555 21.1953C62.806 21.1953 61.6048 20.7201 60.752 19.7695C59.9056 18.8125 59.4824 17.4616 59.4824 15.7168C59.4824 13.9264 59.9121 12.543 60.7715 11.5664C61.6374 10.5898 62.8678 10.1016 64.4629 10.1016C64.9772 10.1016 65.4915 10.1569 66.0059 10.2676C66.5202 10.3783 66.9238 10.5085 67.2168 10.6582L66.7188 12.0352C66.3607 11.8919 65.9701 11.7747 65.5469 11.6836C65.1237 11.5859 64.7493 11.5371 64.4238 11.5371C62.2493 11.5371 61.1621 12.9238 61.1621 15.6973C61.1621 17.0124 61.4258 18.0215 61.9531 18.7246C62.487 19.4277 63.2747 19.7793 64.3164 19.7793C65.2083 19.7793 66.123 19.5872 67.0605 19.2031V20.6387C66.3444 21.0098 65.4427 21.1953 64.3555 21.1953ZM74.1309 21.1953C72.5488 21.1953 71.2988 20.7135 70.3809 19.75C69.4694 18.7865 69.0137 17.4486 69.0137 15.7363C69.0137 14.0111 69.4368 12.6406 70.2832 11.625C71.1361 10.6094 72.2786 10.1016 73.7109 10.1016C75.0521 10.1016 76.1133 10.5443 76.8945 11.4297C77.6758 12.3086 78.0664 13.4707 78.0664 14.916V15.9414H70.6934C70.7259 17.1979 71.0417 18.1517 71.6406 18.8027C72.2461 19.4538 73.0957 19.7793 74.1895 19.7793C75.3418 19.7793 76.4811 19.5384 77.6074 19.0566V20.502C77.0345 20.7493 76.4909 20.9251 75.9766 21.0293C75.4688 21.14 74.8535 21.1953 74.1309 21.1953ZM73.6914 11.459C72.832 11.459 72.1452 11.7389 71.6309 12.2988C71.123 12.8587 70.8236 13.6335 70.7324 14.623H76.3281C76.3281 13.6009 76.1003 12.8197 75.6445 12.2793C75.1888 11.7324 74.5378 11.459 73.6914 11.459ZM88.125 19.5645H88.0371C87.2884 20.6517 86.1686 21.1953 84.6777 21.1953C83.278 21.1953 82.1875 20.7168 81.4062 19.7598C80.6315 18.8027 80.2441 17.4421 80.2441 15.6777C80.2441 13.9134 80.6348 12.543 81.416 11.5664C82.1973 10.5898 83.2845 10.1016 84.6777 10.1016C86.1296 10.1016 87.2428 10.6289 88.0176 11.6836H88.1445L88.0762 10.9121L88.0371 10.1602V5.80469H89.6582V21H88.3398L88.125 19.5645ZM84.8828 19.8379C85.9896 19.8379 86.7904 19.5384 87.2852 18.9395C87.7865 18.334 88.0371 17.3607 88.0371 16.0195V15.6777C88.0371 14.1608 87.7832 13.0801 87.2754 12.4355C86.7741 11.7845 85.9701 11.459 84.8633 11.459C83.9128 11.459 83.1836 11.8301 82.6758 12.5723C82.1745 13.3079 81.9238 14.3496 81.9238 15.6973C81.9238 17.0645 82.1745 18.0964 82.6758 18.793C83.1771 19.4896 83.9128 19.8379 84.8828 19.8379Z" fill="black"/>
<line x1="102.994" y1="14.0034" x2="457.001" y2="14.0034" stroke="#B3B3B3"/>
</svg>
