<svg width="43" height="27" viewBox="0 0 43 27" fill="none" xmlns="http://www.w3.org/2000/svg">
<rect x="-0.647988" y="0.188807" width="4.97244" height="13.6934" transform="matrix(-0.816485 -0.537288 -0.479491 0.914903 26.484 6.30121)" stroke="#616161"/>
<path d="M27.0399 3.45587L25.4294 2.3961C24.753 1.951 23.8827 2.20459 23.4854 2.96252L23.0067 3.87599L27.0666 6.54762L27.5454 5.63416C27.9426 4.87623 27.7163 3.90098 27.0399 3.45587Z" stroke="#616161"/>
<path d="M19.6221 20.0971L15.2155 23.9509L16.0726 17.7613L19.6221 20.0971Z" stroke="#616161"/>
<path d="M14.5645 25.1932L16.7402 23.0737L15.1566 22.0316L14.5645 25.1932Z" fill="#616161"/>
<line x1="1.5" y1="-1.5" x2="15.5261" y2="-1.5" transform="matrix(0.701336 -0.712831 0.701336 0.712831 31.0588 25.0579)" stroke="#616161" stroke-width="3" stroke-linecap="round"/>
<line x1="1.5" y1="-1.5" x2="15.5261" y2="-1.5" transform="matrix(-0.701336 -0.712831 0.701336 -0.712831 43.0002 12.9216)" stroke="#616161" stroke-width="3" stroke-linecap="round"/>
<line x1="1.5" y1="-1.5" x2="15.5261" y2="-1.5" transform="matrix(-0.701336 -0.712831 -0.701336 0.712831 11.9412 24.9368)" stroke="#616161" stroke-width="3" stroke-linecap="round"/>
<line x1="1.5" y1="-1.5" x2="15.5261" y2="-1.5" transform="matrix(0.701336 -0.712831 -0.701336 -0.712831 0 12.7998)" stroke="#616161" stroke-width="3" stroke-linecap="round"/>
</svg>
