<svg width="108" height="79" viewBox="0 0 108 79" fill="none" xmlns="http://www.w3.org/2000/svg">
<g filter="url(#filter0_d)">
<line x1="3" y1="-3" x2="35.1864" y2="-3" transform="matrix(0.74069 -0.671847 0.74069 0.671847 76.5684 59.5686)" stroke="#0A51BC" stroke-width="6" stroke-linecap="round"/>
<line x1="3" y1="-3" x2="35.1864" y2="-3" transform="matrix(-0.74069 -0.671847 0.74069 -0.671847 104.853 33.9133)" stroke="#0A51BC" stroke-width="6" stroke-linecap="round"/>
<g filter="url(#filter1_d)">
<rect x="-2.05305" y="0.533855" width="10.3951" height="29.9545" transform="matrix(-0.8623 -0.506397 -0.506397 0.8623 64.7516 19.6537)" stroke="#0A51BC" stroke-width="3"/>
<path d="M69.6083 16.4255C69.888 15.9492 69.7286 15.3365 69.2524 15.0568L61.151 10.2992C60.6748 10.0195 60.062 10.1788 59.7823 10.6551L57.3282 14.834L67.1541 20.6045L69.6083 16.4255Z" stroke="#0A51BC" stroke-width="2"/>
<path d="M49.6929 49.0663L38.8728 57.5112L40.9773 43.9479L49.6929 49.0663Z" stroke="#0A51BC" stroke-width="2"/>
<path d="M37.4975 59.8532L42.6511 55.3728L38.9 53.1698L37.4975 59.8532Z" fill="#0A51BC"/>
</g>
</g>
<g filter="url(#filter2_d)">
<line x1="3" y1="-3" x2="35.1864" y2="-3" transform="matrix(-0.74069 -0.671847 -0.74069 0.671847 31.2842 59.3108)" stroke="#0A51BC" stroke-width="6" stroke-linecap="round"/>
<line x1="3" y1="-3" x2="35.1864" y2="-3" transform="matrix(0.74069 -0.671847 -0.74069 -0.671847 3 33.6555)" stroke="#0A51BC" stroke-width="6" stroke-linecap="round"/>
</g>
<defs>
<filter id="filter0_d" x="27.8706" y="8.42407" width="79.6803" height="62.7333" filterUnits="userSpaceOnUse" color-interpolation-filters="sRGB">
<feFlood flood-opacity="0" result="BackgroundImageFix"/>
<feColorMatrix in="SourceAlpha" type="matrix" values="0 0 0 0 0 0 0 0 0 0 0 0 0 0 0 0 0 0 127 0"/>
<feOffset dy="4"/>
<feGaussianBlur stdDeviation="2"/>
<feColorMatrix type="matrix" values="0 0 0 0 0 0 0 0 0 0 0 0 0 0 0 0 0 0 0.25 0"/>
<feBlend mode="normal" in2="BackgroundImageFix" result="effect1_dropShadow"/>
<feBlend mode="normal" in="SourceGraphic" in2="effect1_dropShadow" result="shape"/>
</filter>
<filter id="filter1_d" x="27.8706" y="8.42407" width="47.6128" height="62.7333" filterUnits="userSpaceOnUse" color-interpolation-filters="sRGB">
<feFlood flood-opacity="0" result="BackgroundImageFix"/>
<feColorMatrix in="SourceAlpha" type="matrix" values="0 0 0 0 0 0 0 0 0 0 0 0 0 0 0 0 0 0 127 0"/>
<feOffset dy="4"/>
<feGaussianBlur stdDeviation="2"/>
<feColorMatrix type="matrix" values="0 0 0 0 0 0 0 0 0 0 0 0 0 0 0 0 0 0 0.25 0"/>
<feBlend mode="normal" in2="BackgroundImageFix" result="effect1_dropShadow"/>
<feBlend mode="normal" in="SourceGraphic" in2="effect1_dropShadow" result="shape"/>
</filter>
<filter id="filter2_d" x="0.301514" y="9.18091" width="38.1253" height="56.9491" filterUnits="userSpaceOnUse" color-interpolation-filters="sRGB">
<feFlood flood-opacity="0" result="BackgroundImageFix"/>
<feColorMatrix in="SourceAlpha" type="matrix" values="0 0 0 0 0 0 0 0 0 0 0 0 0 0 0 0 0 0 127 0"/>
<feOffset dy="4"/>
<feGaussianBlur stdDeviation="2"/>
<feColorMatrix type="matrix" values="0 0 0 0 0 0 0 0 0 0 0 0 0 0 0 0 0 0 0.25 0"/>
<feBlend mode="normal" in2="BackgroundImageFix" result="effect1_dropShadow"/>
<feBlend mode="normal" in="SourceGraphic" in2="effect1_dropShadow" result="shape"/>
</filter>
</defs>
</svg>
