<svg width="522" height="410" viewBox="0 0 522 410" fill="none" xmlns="http://www.w3.org/2000/svg">
<rect x="103" y="162" width="404" height="52" fill="#DB1EB1"/>
<path d="M215.08 193H213.668V180.864H220.434V182.118H215.08V186.559H220.11V187.812H215.08V193ZM226.394 183.736C226.798 183.736 227.16 183.77 227.481 183.836L227.29 185.114C226.914 185.031 226.582 184.99 226.294 184.99C225.558 184.99 224.927 185.289 224.401 185.886C223.881 186.484 223.621 187.228 223.621 188.119V193H222.243V183.902H223.38L223.538 185.587H223.604C223.942 184.995 224.349 184.539 224.825 184.218C225.301 183.897 225.824 183.736 226.394 183.736ZM237.035 188.443C237.035 189.926 236.662 191.085 235.915 191.921C235.167 192.751 234.135 193.166 232.818 193.166C232.005 193.166 231.283 192.975 230.652 192.593C230.021 192.211 229.534 191.664 229.191 190.95C228.848 190.236 228.676 189.4 228.676 188.443C228.676 186.96 229.047 185.806 229.789 184.981C230.53 184.151 231.559 183.736 232.876 183.736C234.149 183.736 235.159 184.16 235.906 185.006C236.659 185.853 237.035 186.999 237.035 188.443ZM230.104 188.443C230.104 189.605 230.336 190.49 230.801 191.099C231.266 191.708 231.95 192.012 232.852 192.012C233.754 192.012 234.437 191.711 234.902 191.107C235.372 190.499 235.607 189.611 235.607 188.443C235.607 187.286 235.372 186.409 234.902 185.812C234.437 185.208 233.748 184.907 232.835 184.907C231.933 184.907 231.252 185.203 230.793 185.795C230.334 186.387 230.104 187.27 230.104 188.443ZM245.685 193V187.115C245.685 186.373 245.516 185.82 245.178 185.455C244.841 185.089 244.312 184.907 243.593 184.907C242.641 184.907 241.944 185.164 241.501 185.679C241.058 186.193 240.837 187.043 240.837 188.227V193H239.459V183.902H240.58L240.804 185.147H240.87C241.152 184.699 241.548 184.353 242.057 184.11C242.566 183.861 243.133 183.736 243.759 183.736C244.854 183.736 245.679 184.002 246.232 184.533C246.786 185.059 247.062 185.903 247.062 187.065V193H245.685ZM252.84 192.029C253.083 192.029 253.319 192.012 253.545 191.979C253.772 191.94 253.952 191.902 254.085 191.863V192.917C253.936 192.989 253.714 193.047 253.421 193.091C253.133 193.141 252.873 193.166 252.641 193.166C250.881 193.166 250.001 192.239 250.001 190.385V184.973H248.698V184.309L250.001 183.736L250.582 181.794H251.379V183.902H254.019V184.973H251.379V190.327C251.379 190.875 251.509 191.296 251.769 191.589C252.029 191.882 252.386 192.029 252.84 192.029ZM255.147 189.074V187.812H259.223V189.074H255.147ZM268.362 193H261.597V180.864H268.362V182.118H263.008V186.027H268.039V187.272H263.008V191.738H268.362V193ZM277.078 193V187.115C277.078 186.373 276.909 185.82 276.572 185.455C276.234 185.089 275.706 184.907 274.986 184.907C274.035 184.907 273.337 185.164 272.895 185.679C272.452 186.193 272.23 187.043 272.23 188.227V193H270.853V183.902H271.973L272.197 185.147H272.264C272.546 184.699 272.942 184.353 273.451 184.11C273.96 183.861 274.527 183.736 275.152 183.736C276.248 183.736 277.073 184.002 277.626 184.533C278.179 185.059 278.456 185.903 278.456 187.065V193H277.078ZM287.487 191.78H287.413C286.776 192.704 285.824 193.166 284.557 193.166C283.367 193.166 282.44 192.759 281.776 191.946C281.118 191.132 280.789 189.976 280.789 188.476C280.789 186.976 281.121 185.812 281.785 184.981C282.449 184.151 283.373 183.736 284.557 183.736C285.791 183.736 286.737 184.185 287.396 185.081H287.504L287.446 184.425L287.413 183.786V180.084H288.791V193H287.67L287.487 191.78ZM284.731 192.012C285.672 192.012 286.353 191.758 286.773 191.249C287.2 190.734 287.413 189.907 287.413 188.767V188.476C287.413 187.187 287.197 186.268 286.765 185.72C286.339 185.167 285.656 184.89 284.715 184.89C283.907 184.89 283.287 185.206 282.855 185.836C282.429 186.462 282.216 187.347 282.216 188.493C282.216 189.655 282.429 190.532 282.855 191.124C283.282 191.716 283.907 192.012 284.731 192.012ZM300.08 193H298.668V182.118H294.825V180.864H303.923V182.118H300.08V193ZM309.393 193.166C308.048 193.166 306.986 192.757 306.206 191.938C305.431 191.118 305.043 189.981 305.043 188.526C305.043 187.059 305.403 185.895 306.123 185.031C306.847 184.168 307.819 183.736 309.036 183.736C310.176 183.736 311.078 184.113 311.742 184.865C312.406 185.612 312.738 186.6 312.738 187.829V188.7H306.471C306.499 189.768 306.767 190.579 307.276 191.132C307.791 191.686 308.513 191.962 309.443 191.962C310.422 191.962 311.391 191.758 312.348 191.348V192.577C311.861 192.787 311.399 192.936 310.962 193.025C310.53 193.119 310.007 193.166 309.393 193.166ZM309.02 184.89C308.289 184.89 307.705 185.128 307.268 185.604C306.836 186.08 306.582 186.738 306.504 187.58H311.261C311.261 186.711 311.067 186.047 310.68 185.587C310.292 185.123 309.739 184.89 309.02 184.89ZM318.731 193.166C317.414 193.166 316.393 192.762 315.668 191.954C314.949 191.141 314.589 189.992 314.589 188.509C314.589 186.987 314.955 185.812 315.685 184.981C316.421 184.151 317.467 183.736 318.823 183.736C319.26 183.736 319.697 183.783 320.134 183.877C320.571 183.972 320.915 184.082 321.164 184.209L320.74 185.38C320.436 185.258 320.104 185.159 319.744 185.081C319.384 184.998 319.066 184.957 318.79 184.957C316.941 184.957 316.017 186.135 316.017 188.493C316.017 189.611 316.241 190.468 316.689 191.066C317.143 191.664 317.813 191.962 318.698 191.962C319.456 191.962 320.234 191.799 321.031 191.473V192.693C320.422 193.008 319.656 193.166 318.731 193.166ZM329.423 193V187.115C329.423 186.373 329.254 185.82 328.917 185.455C328.579 185.089 328.05 184.907 327.331 184.907C326.374 184.907 325.674 185.167 325.231 185.687C324.794 186.207 324.575 187.059 324.575 188.244V193H323.197V180.084H324.575V183.994C324.575 184.464 324.553 184.854 324.509 185.164H324.592C324.863 184.727 325.248 184.384 325.746 184.135C326.249 183.88 326.822 183.753 327.464 183.753C328.576 183.753 329.409 184.019 329.962 184.55C330.521 185.076 330.801 185.914 330.801 187.065V193H329.423ZM339.865 193V187.115C339.865 186.373 339.696 185.82 339.359 185.455C339.021 185.089 338.493 184.907 337.773 184.907C336.822 184.907 336.124 185.164 335.682 185.679C335.239 186.193 335.018 187.043 335.018 188.227V193H333.64V183.902H334.76L334.984 185.147H335.051C335.333 184.699 335.729 184.353 336.238 184.11C336.747 183.861 337.314 183.736 337.939 183.736C339.035 183.736 339.86 184.002 340.413 184.533C340.966 185.059 341.243 185.903 341.243 187.065V193H339.865ZM351.935 188.443C351.935 189.926 351.561 191.085 350.814 191.921C350.067 192.751 349.035 193.166 347.718 193.166C346.904 193.166 346.182 192.975 345.551 192.593C344.92 192.211 344.433 191.664 344.09 190.95C343.747 190.236 343.576 189.4 343.576 188.443C343.576 186.96 343.946 185.806 344.688 184.981C345.43 184.151 346.459 183.736 347.776 183.736C349.049 183.736 350.059 184.16 350.806 185.006C351.558 185.853 351.935 186.999 351.935 188.443ZM345.003 188.443C345.003 189.605 345.236 190.49 345.701 191.099C346.166 191.708 346.849 192.012 347.751 192.012C348.653 192.012 349.336 191.711 349.801 191.107C350.272 190.499 350.507 189.611 350.507 188.443C350.507 187.286 350.272 186.409 349.801 185.812C349.336 185.208 348.647 184.907 347.734 184.907C346.832 184.907 346.152 185.203 345.692 185.795C345.233 186.387 345.003 187.27 345.003 188.443ZM355.736 193H354.358V180.084H355.736V193ZM366.511 188.443C366.511 189.926 366.137 191.085 365.39 191.921C364.643 192.751 363.611 193.166 362.294 193.166C361.48 193.166 360.758 192.975 360.127 192.593C359.497 192.211 359.01 191.664 358.667 190.95C358.323 190.236 358.152 189.4 358.152 188.443C358.152 186.96 358.523 185.806 359.264 184.981C360.006 184.151 361.035 183.736 362.352 183.736C363.625 183.736 364.635 184.16 365.382 185.006C366.134 185.853 366.511 186.999 366.511 188.443ZM359.58 188.443C359.58 189.605 359.812 190.49 360.277 191.099C360.742 191.708 361.425 192.012 362.327 192.012C363.229 192.012 363.913 191.711 364.377 191.107C364.848 190.499 365.083 189.611 365.083 188.443C365.083 187.286 364.848 186.409 364.377 185.812C363.913 185.208 363.224 184.907 362.311 184.907C361.409 184.907 360.728 185.203 360.269 185.795C359.809 186.387 359.58 187.27 359.58 188.443ZM376.38 183.902V184.774L374.695 184.973C374.85 185.167 374.989 185.421 375.11 185.737C375.232 186.047 375.293 186.398 375.293 186.791C375.293 187.682 374.989 188.393 374.38 188.924C373.771 189.456 372.936 189.721 371.873 189.721C371.602 189.721 371.347 189.699 371.109 189.655C370.523 189.965 370.229 190.355 370.229 190.825C370.229 191.074 370.332 191.26 370.537 191.381C370.741 191.498 371.093 191.556 371.591 191.556H373.201C374.186 191.556 374.942 191.763 375.467 192.178C375.999 192.593 376.264 193.196 376.264 193.988C376.264 194.995 375.86 195.761 375.052 196.287C374.244 196.818 373.066 197.084 371.516 197.084C370.326 197.084 369.408 196.863 368.76 196.42C368.118 195.977 367.797 195.352 367.797 194.544C367.797 193.991 367.974 193.512 368.329 193.108C368.683 192.704 369.181 192.43 369.823 192.286C369.59 192.181 369.394 192.018 369.233 191.796C369.078 191.575 369.001 191.318 369.001 191.024C369.001 190.692 369.09 190.402 369.267 190.153C369.444 189.904 369.723 189.663 370.105 189.431C369.635 189.237 369.25 188.908 368.951 188.443C368.658 187.978 368.511 187.447 368.511 186.849C368.511 185.853 368.81 185.087 369.408 184.55C370.005 184.007 370.852 183.736 371.948 183.736C372.424 183.736 372.853 183.792 373.234 183.902H376.38ZM369.125 194.527C369.125 195.02 369.333 195.393 369.748 195.648C370.163 195.903 370.758 196.03 371.533 196.03C372.689 196.03 373.544 195.855 374.098 195.507C374.657 195.164 374.936 194.696 374.936 194.104C374.936 193.611 374.784 193.268 374.479 193.075C374.175 192.887 373.602 192.792 372.761 192.792H371.109C370.484 192.792 369.997 192.942 369.648 193.241C369.3 193.54 369.125 193.968 369.125 194.527ZM369.873 186.816C369.873 187.452 370.052 187.934 370.412 188.26C370.772 188.587 371.273 188.75 371.915 188.75C373.259 188.75 373.932 188.097 373.932 186.791C373.932 185.424 373.251 184.741 371.89 184.741C371.242 184.741 370.744 184.915 370.396 185.264C370.047 185.612 369.873 186.13 369.873 186.816ZM379.626 193H378.248V183.902H379.626V193ZM378.132 181.437C378.132 181.122 378.209 180.892 378.364 180.748C378.519 180.599 378.713 180.524 378.945 180.524C379.167 180.524 379.358 180.599 379.518 180.748C379.679 180.897 379.759 181.127 379.759 181.437C379.759 181.747 379.679 181.979 379.518 182.134C379.358 182.284 379.167 182.358 378.945 182.358C378.713 182.358 378.519 182.284 378.364 182.134C378.209 181.979 378.132 181.747 378.132 181.437ZM386.391 193.166C385.046 193.166 383.984 192.757 383.204 191.938C382.429 191.118 382.042 189.981 382.042 188.526C382.042 187.059 382.401 185.895 383.121 185.031C383.846 184.168 384.817 183.736 386.034 183.736C387.174 183.736 388.076 184.113 388.74 184.865C389.404 185.612 389.736 186.6 389.736 187.829V188.7H383.469C383.497 189.768 383.765 190.579 384.274 191.132C384.789 191.686 385.511 191.962 386.441 191.962C387.42 191.962 388.389 191.758 389.346 191.348V192.577C388.859 192.787 388.397 192.936 387.96 193.025C387.528 193.119 387.005 193.166 386.391 193.166ZM386.018 184.89C385.287 184.89 384.703 185.128 384.266 185.604C383.834 186.08 383.58 186.738 383.502 187.58H388.259C388.259 186.711 388.065 186.047 387.678 185.587C387.29 185.123 386.737 184.89 386.018 184.89ZM397.962 190.518C397.962 191.365 397.647 192.018 397.016 192.477C396.385 192.936 395.5 193.166 394.36 193.166C393.153 193.166 392.213 192.975 391.538 192.593V191.315C391.975 191.536 392.442 191.711 392.94 191.838C393.444 191.965 393.928 192.029 394.393 192.029C395.112 192.029 395.666 191.915 396.053 191.688C396.441 191.456 396.634 191.105 396.634 190.634C396.634 190.28 396.479 189.979 396.169 189.729C395.865 189.475 395.267 189.176 394.376 188.833C393.53 188.518 392.927 188.244 392.567 188.011C392.213 187.773 391.947 187.505 391.77 187.206C391.598 186.907 391.513 186.55 391.513 186.135C391.513 185.394 391.814 184.81 392.417 184.384C393.021 183.952 393.848 183.736 394.899 183.736C395.879 183.736 396.836 183.936 397.771 184.334L397.282 185.455C396.369 185.078 395.541 184.89 394.8 184.89C394.147 184.89 393.654 184.993 393.322 185.197C392.99 185.402 392.824 185.684 392.824 186.044C392.824 186.287 392.885 186.495 393.007 186.667C393.134 186.838 393.336 187.001 393.613 187.156C393.889 187.311 394.421 187.535 395.207 187.829C396.286 188.222 397.013 188.617 397.39 189.016C397.771 189.414 397.962 189.915 397.962 190.518Z" fill="white"/>
<line x1="104.5" y1="150.5" x2="104.5" y2="25.5" stroke="black" stroke-width="9" stroke-linecap="round"/>
<line x1="148" y1="238.51" x2="148" y2="222.49" stroke="black" stroke-width="9" stroke-linecap="round"/>
<line x1="148.5" y1="149.5" x2="148.5" y2="88.5" stroke="black" stroke-width="9" stroke-linecap="round"/>
<line x1="193.5" y1="271.5" x2="193.5" y2="222.5" stroke="black" stroke-width="9" stroke-linecap="round"/>
<line x1="193.5" y1="149.5" x2="193.5" y2="30.5" stroke="black" stroke-width="9" stroke-linecap="round"/>
<line x1="228.5" y1="302.5" x2="228.5" y2="222.5" stroke="black" stroke-width="9" stroke-linecap="round"/>
<line x1="228.5" y1="149.5" x2="228.5" y2="88.5" stroke="black" stroke-width="9" stroke-linecap="round"/>
<line x1="292.5" y1="270.5" x2="292.5" y2="222.5" stroke="black" stroke-width="9" stroke-linecap="round"/>
<line x1="292.5" y1="150.5" x2="292.5" y2="92.5" stroke="black" stroke-width="9" stroke-linecap="round"/>
<line x1="348.5" y1="328.5" x2="348.5" y2="286.5" stroke="black" stroke-width="9" stroke-linecap="round"/>
<line x1="348.5" y1="150.5" x2="348.5" y2="62.5" stroke="black" stroke-width="9" stroke-linecap="round"/>
<line x1="469.5" y1="277.5" x2="469.5" y2="222.5" stroke="black" stroke-width="9" stroke-linecap="round"/>
<line x1="469.5" y1="150.5" x2="469.5" y2="95.5" stroke="black" stroke-width="9" stroke-linecap="round"/>
<line x1="348.5" y1="245.5" x2="348.5" y2="222.5" stroke="black" stroke-width="9" stroke-linecap="round"/>
<line x1="378.5" y1="250.5" x2="378.5" y2="222.5" stroke="black" stroke-width="9" stroke-linecap="round"/>
<line x1="378.518" y1="150.509" x2="378.518" y2="47.4909" stroke="black" stroke-width="9" stroke-linecap="round"/>
<line x1="420.5" y1="223.5" x2="420.5" y2="222.5" stroke="black" stroke-width="9" stroke-linecap="round"/>
<line x1="420.5" y1="150.5" x2="420.5" y2="120.5" stroke="black" stroke-width="9" stroke-linecap="round"/>
<line x1="104.5" y1="223.5" x2="104.5" y2="222.5" stroke="black" stroke-width="9" stroke-linecap="round"/>
<path d="M41.1152 156H39.2207L31.418 144.018H31.3398C31.444 145.424 31.4961 146.713 31.4961 147.885V156H29.9629V141.723H31.8379L39.6211 153.656H39.6992C39.6862 153.48 39.6569 152.917 39.6113 151.967C39.5658 151.01 39.5495 150.326 39.5625 149.916V141.723H41.1152V156ZM54.0352 150.639C54.0352 152.383 53.5957 153.747 52.7168 154.73C51.8379 155.707 50.6237 156.195 49.0742 156.195C48.1172 156.195 47.2676 155.971 46.5254 155.521C45.7832 155.072 45.2103 154.428 44.8066 153.588C44.403 152.748 44.2012 151.765 44.2012 150.639C44.2012 148.894 44.6374 147.536 45.5098 146.566C46.3822 145.59 47.5931 145.102 49.1426 145.102C50.64 145.102 51.8281 145.6 52.707 146.596C53.5924 147.592 54.0352 148.939 54.0352 150.639ZM45.8809 150.639C45.8809 152.006 46.1543 153.048 46.7012 153.764C47.248 154.48 48.0521 154.838 49.1133 154.838C50.1745 154.838 50.9785 154.483 51.5254 153.773C52.0788 153.057 52.3555 152.012 52.3555 150.639C52.3555 149.278 52.0788 148.246 51.5254 147.543C50.9785 146.833 50.168 146.479 49.0938 146.479C48.0326 146.479 47.2318 146.827 46.6914 147.523C46.151 148.22 45.8809 149.258 45.8809 150.639ZM59.2305 156L55.168 145.297H56.9062L59.2109 151.645C59.7318 153.129 60.0378 154.092 60.1289 154.535H60.207C60.2786 154.19 60.5033 153.477 60.8809 152.396C61.265 151.309 62.1211 148.943 63.4492 145.297H65.1875L61.125 156H59.2305ZM68.5273 156H66.9062V145.297H68.5273V156ZM66.7695 142.396C66.7695 142.025 66.8607 141.755 67.043 141.586C67.2253 141.41 67.4531 141.322 67.7266 141.322C67.987 141.322 68.2116 141.41 68.4004 141.586C68.5892 141.762 68.6836 142.032 68.6836 142.396C68.6836 142.761 68.5892 143.035 68.4004 143.217C68.2116 143.393 67.987 143.48 67.7266 143.48C67.4531 143.48 67.2253 143.393 67.043 143.217C66.8607 143.035 66.7695 142.761 66.7695 142.396ZM76.2422 156.195C74.6927 156.195 73.4915 155.72 72.6387 154.77C71.7923 153.812 71.3691 152.462 71.3691 150.717C71.3691 148.926 71.7988 147.543 72.6582 146.566C73.5241 145.59 74.7546 145.102 76.3496 145.102C76.8639 145.102 77.3783 145.157 77.8926 145.268C78.4069 145.378 78.8105 145.508 79.1035 145.658L78.6055 147.035C78.2474 146.892 77.8568 146.775 77.4336 146.684C77.0104 146.586 76.6361 146.537 76.3105 146.537C74.1361 146.537 73.0488 147.924 73.0488 150.697C73.0488 152.012 73.3125 153.021 73.8398 153.725C74.3737 154.428 75.1615 154.779 76.2031 154.779C77.0951 154.779 78.0098 154.587 78.9473 154.203V155.639C78.2311 156.01 77.3294 156.195 76.2422 156.195ZM86.0176 156.195C84.4355 156.195 83.1855 155.714 82.2676 154.75C81.3561 153.786 80.9004 152.449 80.9004 150.736C80.9004 149.011 81.3236 147.641 82.1699 146.625C83.0228 145.609 84.1654 145.102 85.5977 145.102C86.9388 145.102 88 145.544 88.7812 146.43C89.5625 147.309 89.9531 148.471 89.9531 149.916V150.941H82.5801C82.6126 152.198 82.9284 153.152 83.5273 153.803C84.1328 154.454 84.9824 154.779 86.0762 154.779C87.2285 154.779 88.3678 154.538 89.4941 154.057V155.502C88.9212 155.749 88.3776 155.925 87.8633 156.029C87.3555 156.14 86.7402 156.195 86.0176 156.195ZM85.5781 146.459C84.7188 146.459 84.0319 146.739 83.5176 147.299C83.0098 147.859 82.7103 148.633 82.6191 149.623H88.2148C88.2148 148.601 87.987 147.82 87.5312 147.279C87.0755 146.732 86.4245 146.459 85.5781 146.459Z" fill="black"/>
<path d="M10.9375 21L9.16016 16.459H3.4375L1.67969 21H0L5.64453 6.66406H7.04102L12.6562 21H10.9375ZM8.64258 14.9648L6.98242 10.541C6.76758 9.98112 6.54622 9.29427 6.31836 8.48047C6.17513 9.10547 5.97005 9.79232 5.70312 10.541L4.02344 14.9648H8.64258ZM21.6602 19.5645H21.5723C20.8236 20.6517 19.7038 21.1953 18.2129 21.1953C16.8132 21.1953 15.7227 20.7168 14.9414 19.7598C14.1667 18.8027 13.7793 17.4421 13.7793 15.6777C13.7793 13.9134 14.1699 12.543 14.9512 11.5664C15.7324 10.5898 16.8197 10.1016 18.2129 10.1016C19.6647 10.1016 20.778 10.6289 21.5527 11.6836H21.6797L21.6113 10.9121L21.5723 10.1602V5.80469H23.1934V21H21.875L21.6602 19.5645ZM18.418 19.8379C19.5247 19.8379 20.3255 19.5384 20.8203 18.9395C21.3216 18.334 21.5723 17.3607 21.5723 16.0195V15.6777C21.5723 14.1608 21.3184 13.0801 20.8105 12.4355C20.3092 11.7845 19.5052 11.459 18.3984 11.459C17.4479 11.459 16.7188 11.8301 16.2109 12.5723C15.7096 13.3079 15.459 14.3496 15.459 15.6973C15.459 17.0645 15.7096 18.0964 16.2109 18.793C16.7122 19.4896 17.4479 19.8379 18.418 19.8379ZM28.9844 21L24.9219 10.2969H26.6602L28.9648 16.6445C29.4857 18.1289 29.7917 19.0924 29.8828 19.5352H29.9609C30.0326 19.1901 30.2572 18.4772 30.6348 17.3965C31.0189 16.3092 31.875 13.9427 33.2031 10.2969H34.9414L30.8789 21H28.9844ZM43.2422 21L42.9199 19.4766H42.8418C42.3079 20.1471 41.7741 20.6029 41.2402 20.8438C40.7129 21.0781 40.0521 21.1953 39.2578 21.1953C38.1966 21.1953 37.3633 20.9219 36.7578 20.375C36.1589 19.8281 35.8594 19.0501 35.8594 18.041C35.8594 15.8796 37.5879 14.7467 41.0449 14.6426L42.8613 14.584V13.9199C42.8613 13.0801 42.679 12.4616 42.3145 12.0645C41.9564 11.6608 41.3802 11.459 40.5859 11.459C39.694 11.459 38.6849 11.7324 37.5586 12.2793L37.0605 11.0391C37.5879 10.7526 38.1641 10.528 38.7891 10.3652C39.4206 10.2025 40.0521 10.1211 40.6836 10.1211C41.9596 10.1211 42.9036 10.4043 43.5156 10.9707C44.1341 11.5371 44.4434 12.4453 44.4434 13.6953V21H43.2422ZM39.5801 19.8574C40.5892 19.8574 41.3802 19.5807 41.9531 19.0273C42.5326 18.474 42.8223 17.6992 42.8223 16.7031V15.7363L41.2012 15.8047C39.9121 15.8503 38.9811 16.0521 38.4082 16.4102C37.8418 16.7617 37.5586 17.3118 37.5586 18.0605C37.5586 18.6465 37.7344 19.0924 38.0859 19.3984C38.444 19.7044 38.9421 19.8574 39.5801 19.8574ZM55.1172 21V14.0762C55.1172 13.2038 54.9186 12.5527 54.5215 12.123C54.1243 11.6934 53.5026 11.4785 52.6562 11.4785C51.5365 11.4785 50.7161 11.7812 50.1953 12.3867C49.6745 12.9922 49.4141 13.9915 49.4141 15.3848V21H47.793V10.2969H49.1113L49.375 11.7617H49.4531C49.7852 11.2344 50.2507 10.8275 50.8496 10.541C51.4486 10.248 52.1159 10.1016 52.8516 10.1016C54.1406 10.1016 55.1107 10.4141 55.7617 11.0391C56.4128 11.6576 56.7383 12.6504 56.7383 14.0176V21H55.1172ZM64.3555 21.1953C62.806 21.1953 61.6048 20.7201 60.752 19.7695C59.9056 18.8125 59.4824 17.4616 59.4824 15.7168C59.4824 13.9264 59.9121 12.543 60.7715 11.5664C61.6374 10.5898 62.8678 10.1016 64.4629 10.1016C64.9772 10.1016 65.4915 10.1569 66.0059 10.2676C66.5202 10.3783 66.9238 10.5085 67.2168 10.6582L66.7188 12.0352C66.3607 11.8919 65.9701 11.7747 65.5469 11.6836C65.1237 11.5859 64.7493 11.5371 64.4238 11.5371C62.2493 11.5371 61.1621 12.9238 61.1621 15.6973C61.1621 17.0124 61.4258 18.0215 61.9531 18.7246C62.487 19.4277 63.2747 19.7793 64.3164 19.7793C65.2083 19.7793 66.123 19.5872 67.0605 19.2031V20.6387C66.3444 21.0098 65.4427 21.1953 64.3555 21.1953ZM74.1309 21.1953C72.5488 21.1953 71.2988 20.7135 70.3809 19.75C69.4694 18.7865 69.0137 17.4486 69.0137 15.7363C69.0137 14.0111 69.4368 12.6406 70.2832 11.625C71.1361 10.6094 72.2786 10.1016 73.7109 10.1016C75.0521 10.1016 76.1133 10.5443 76.8945 11.4297C77.6758 12.3086 78.0664 13.4707 78.0664 14.916V15.9414H70.6934C70.7259 17.1979 71.0417 18.1517 71.6406 18.8027C72.2461 19.4538 73.0957 19.7793 74.1895 19.7793C75.3418 19.7793 76.4811 19.5384 77.6074 19.0566V20.502C77.0345 20.7493 76.4909 20.9251 75.9766 21.0293C75.4688 21.14 74.8535 21.1953 74.1309 21.1953ZM73.6914 11.459C72.832 11.459 72.1452 11.7389 71.6309 12.2988C71.123 12.8587 70.8236 13.6335 70.7324 14.623H76.3281C76.3281 13.6009 76.1003 12.8197 75.6445 12.2793C75.1888 11.7324 74.5378 11.459 73.6914 11.459ZM88.125 19.5645H88.0371C87.2884 20.6517 86.1686 21.1953 84.6777 21.1953C83.278 21.1953 82.1875 20.7168 81.4062 19.7598C80.6315 18.8027 80.2441 17.4421 80.2441 15.6777C80.2441 13.9134 80.6348 12.543 81.416 11.5664C82.1973 10.5898 83.2845 10.1016 84.6777 10.1016C86.1296 10.1016 87.2428 10.6289 88.0176 11.6836H88.1445L88.0762 10.9121L88.0371 10.1602V5.80469H89.6582V21H88.3398L88.125 19.5645ZM84.8828 19.8379C85.9896 19.8379 86.7904 19.5384 87.2852 18.9395C87.7865 18.334 88.0371 17.3607 88.0371 16.0195V15.6777C88.0371 14.1608 87.7832 13.0801 87.2754 12.4355C86.7741 11.7845 85.9701 11.459 84.8633 11.459C83.9128 11.459 83.1836 11.8301 82.6758 12.5723C82.1745 13.3079 81.9238 14.3496 81.9238 15.6973C81.9238 17.0645 82.1745 18.0964 82.6758 18.793C83.1771 19.4896 83.9128 19.8379 84.8828 19.8379Z" fill="black"/>
<path d="M434.424 299H432.783L429.902 289.439C429.766 289.016 429.613 288.482 429.443 287.838C429.274 287.193 429.186 286.806 429.18 286.676C429.036 287.535 428.809 288.476 428.496 289.498L425.703 299H424.062L420.264 284.723H422.021L424.277 293.541C424.59 294.778 424.818 295.898 424.961 296.9C425.137 295.709 425.397 294.544 425.742 293.404L428.301 284.723H430.059L432.744 293.482C433.057 294.492 433.32 295.631 433.535 296.9C433.659 295.976 433.893 294.85 434.238 293.521L436.484 284.723H438.242L434.424 299ZM449.473 293.639C449.473 295.383 449.033 296.747 448.154 297.73C447.275 298.707 446.061 299.195 444.512 299.195C443.555 299.195 442.705 298.971 441.963 298.521C441.221 298.072 440.648 297.428 440.244 296.588C439.84 295.748 439.639 294.765 439.639 293.639C439.639 291.894 440.075 290.536 440.947 289.566C441.82 288.59 443.031 288.102 444.58 288.102C446.077 288.102 447.266 288.6 448.145 289.596C449.03 290.592 449.473 291.939 449.473 293.639ZM441.318 293.639C441.318 295.006 441.592 296.048 442.139 296.764C442.686 297.48 443.49 297.838 444.551 297.838C445.612 297.838 446.416 297.483 446.963 296.773C447.516 296.057 447.793 295.012 447.793 293.639C447.793 292.278 447.516 291.246 446.963 290.543C446.416 289.833 445.605 289.479 444.531 289.479C443.47 289.479 442.669 289.827 442.129 290.523C441.589 291.22 441.318 292.258 441.318 293.639ZM457.207 288.102C457.682 288.102 458.109 288.141 458.486 288.219L458.262 289.723C457.819 289.625 457.428 289.576 457.09 289.576C456.224 289.576 455.482 289.928 454.863 290.631C454.251 291.334 453.945 292.21 453.945 293.258V299H452.324V288.297H453.662L453.848 290.279H453.926C454.323 289.583 454.801 289.046 455.361 288.668C455.921 288.29 456.536 288.102 457.207 288.102ZM467.773 297.564H467.686C466.937 298.652 465.817 299.195 464.326 299.195C462.926 299.195 461.836 298.717 461.055 297.76C460.28 296.803 459.893 295.442 459.893 293.678C459.893 291.913 460.283 290.543 461.064 289.566C461.846 288.59 462.933 288.102 464.326 288.102C465.778 288.102 466.891 288.629 467.666 289.684H467.793L467.725 288.912L467.686 288.16V283.805H469.307V299H467.988L467.773 297.564ZM464.531 297.838C465.638 297.838 466.439 297.538 466.934 296.939C467.435 296.334 467.686 295.361 467.686 294.02V293.678C467.686 292.161 467.432 291.08 466.924 290.436C466.423 289.785 465.618 289.459 464.512 289.459C463.561 289.459 462.832 289.83 462.324 290.572C461.823 291.308 461.572 292.35 461.572 293.697C461.572 295.064 461.823 296.096 462.324 296.793C462.826 297.49 463.561 297.838 464.531 297.838ZM477.734 299.195C477.038 299.195 476.4 299.068 475.82 298.814C475.247 298.554 474.766 298.157 474.375 297.623H474.258C474.336 298.248 474.375 298.84 474.375 299.4V303.805H472.754V288.297H474.072L474.297 289.762H474.375C474.792 289.176 475.277 288.753 475.83 288.492C476.383 288.232 477.018 288.102 477.734 288.102C479.154 288.102 480.247 288.587 481.016 289.557C481.79 290.527 482.178 291.887 482.178 293.639C482.178 295.396 481.784 296.764 480.996 297.74C480.215 298.71 479.128 299.195 477.734 299.195ZM477.5 289.479C476.406 289.479 475.615 289.781 475.127 290.387C474.639 290.992 474.388 291.956 474.375 293.277V293.639C474.375 295.143 474.626 296.22 475.127 296.871C475.628 297.516 476.432 297.838 477.539 297.838C478.464 297.838 479.186 297.464 479.707 296.715C480.234 295.966 480.498 294.934 480.498 293.619C480.498 292.285 480.234 291.262 479.707 290.553C479.186 289.837 478.451 289.479 477.5 289.479ZM489.902 288.102C490.378 288.102 490.804 288.141 491.182 288.219L490.957 289.723C490.514 289.625 490.124 289.576 489.785 289.576C488.919 289.576 488.177 289.928 487.559 290.631C486.947 291.334 486.641 292.21 486.641 293.258V299H485.02V288.297H486.357L486.543 290.279H486.621C487.018 289.583 487.497 289.046 488.057 288.668C488.617 288.29 489.232 288.102 489.902 288.102ZM497.705 299.195C496.123 299.195 494.873 298.714 493.955 297.75C493.044 296.786 492.588 295.449 492.588 293.736C492.588 292.011 493.011 290.641 493.857 289.625C494.71 288.609 495.853 288.102 497.285 288.102C498.626 288.102 499.688 288.544 500.469 289.43C501.25 290.309 501.641 291.471 501.641 292.916V293.941H494.268C494.3 295.198 494.616 296.152 495.215 296.803C495.82 297.454 496.67 297.779 497.764 297.779C498.916 297.779 500.055 297.538 501.182 297.057V298.502C500.609 298.749 500.065 298.925 499.551 299.029C499.043 299.14 498.428 299.195 497.705 299.195ZM497.266 289.459C496.406 289.459 495.719 289.739 495.205 290.299C494.697 290.859 494.398 291.633 494.307 292.623H499.902C499.902 291.601 499.674 290.82 499.219 290.279C498.763 289.732 498.112 289.459 497.266 289.459ZM511.318 296.08C511.318 297.076 510.947 297.844 510.205 298.385C509.463 298.925 508.421 299.195 507.08 299.195C505.661 299.195 504.554 298.971 503.76 298.521V297.018C504.274 297.278 504.824 297.483 505.41 297.633C506.003 297.783 506.572 297.857 507.119 297.857C507.965 297.857 508.617 297.724 509.072 297.457C509.528 297.184 509.756 296.77 509.756 296.217C509.756 295.8 509.574 295.445 509.209 295.152C508.851 294.853 508.148 294.501 507.1 294.098C506.104 293.727 505.394 293.404 504.971 293.131C504.554 292.851 504.242 292.535 504.033 292.184C503.831 291.832 503.73 291.412 503.73 290.924C503.73 290.051 504.085 289.365 504.795 288.863C505.505 288.355 506.478 288.102 507.715 288.102C508.867 288.102 509.993 288.336 511.094 288.805L510.518 290.123C509.443 289.68 508.47 289.459 507.598 289.459C506.829 289.459 506.25 289.579 505.859 289.82C505.469 290.061 505.273 290.393 505.273 290.816C505.273 291.103 505.345 291.347 505.488 291.549C505.638 291.751 505.876 291.943 506.201 292.125C506.527 292.307 507.152 292.571 508.076 292.916C509.346 293.378 510.202 293.844 510.645 294.312C511.094 294.781 511.318 295.37 511.318 296.08ZM520.869 296.08C520.869 297.076 520.498 297.844 519.756 298.385C519.014 298.925 517.972 299.195 516.631 299.195C515.212 299.195 514.105 298.971 513.311 298.521V297.018C513.825 297.278 514.375 297.483 514.961 297.633C515.553 297.783 516.123 297.857 516.67 297.857C517.516 297.857 518.167 297.724 518.623 297.457C519.079 297.184 519.307 296.77 519.307 296.217C519.307 295.8 519.124 295.445 518.76 295.152C518.402 294.853 517.699 294.501 516.65 294.098C515.654 293.727 514.945 293.404 514.521 293.131C514.105 292.851 513.792 292.535 513.584 292.184C513.382 291.832 513.281 291.412 513.281 290.924C513.281 290.051 513.636 289.365 514.346 288.863C515.055 288.355 516.029 288.102 517.266 288.102C518.418 288.102 519.544 288.336 520.645 288.805L520.068 290.123C518.994 289.68 518.021 289.459 517.148 289.459C516.38 289.459 515.801 289.579 515.41 289.82C515.02 290.061 514.824 290.393 514.824 290.816C514.824 291.103 514.896 291.347 515.039 291.549C515.189 291.751 515.426 291.943 515.752 292.125C516.077 292.307 516.702 292.571 517.627 292.916C518.896 293.378 519.753 293.844 520.195 294.312C520.645 294.781 520.869 295.37 520.869 296.08Z" fill="black"/>
<path d="M331.02 266.201C331.02 267.458 330.564 268.438 329.652 269.141C328.741 269.844 327.504 270.195 325.941 270.195C324.249 270.195 322.947 269.977 322.035 269.541V267.939C322.621 268.187 323.259 268.382 323.949 268.525C324.639 268.669 325.323 268.74 326 268.74C327.107 268.74 327.94 268.532 328.5 268.115C329.06 267.692 329.34 267.106 329.34 266.357C329.34 265.863 329.239 265.459 329.037 265.146C328.842 264.827 328.51 264.535 328.041 264.268C327.579 264.001 326.872 263.698 325.922 263.359C324.594 262.884 323.643 262.321 323.07 261.67C322.504 261.019 322.221 260.169 322.221 259.121C322.221 258.021 322.634 257.145 323.461 256.494C324.288 255.843 325.382 255.518 326.742 255.518C328.161 255.518 329.467 255.778 330.658 256.299L330.141 257.744C328.962 257.249 327.816 257.002 326.703 257.002C325.824 257.002 325.137 257.191 324.643 257.568C324.148 257.946 323.9 258.47 323.9 259.141C323.9 259.635 323.992 260.042 324.174 260.361C324.356 260.674 324.662 260.964 325.092 261.23C325.528 261.491 326.192 261.781 327.084 262.1C328.581 262.633 329.61 263.206 330.17 263.818C330.736 264.43 331.02 265.225 331.02 266.201ZM337.738 268.838C338.819 268.838 339.607 268.548 340.102 267.969C340.596 267.389 340.86 266.413 340.893 265.039V264.678C340.893 263.18 340.639 262.103 340.131 261.445C339.623 260.788 338.819 260.459 337.719 260.459C336.768 260.459 336.039 260.83 335.531 261.572C335.03 262.308 334.779 263.35 334.779 264.697C334.779 266.045 335.027 267.074 335.521 267.783C336.023 268.486 336.762 268.838 337.738 268.838ZM337.494 270.195C336.114 270.195 335.036 269.71 334.262 268.74C333.487 267.77 333.1 266.416 333.1 264.678C333.1 262.926 333.49 261.559 334.271 260.576C335.053 259.593 336.14 259.102 337.533 259.102C338.998 259.102 340.124 259.655 340.912 260.762H341L341.234 259.297H342.514V274.805H340.893V270.225C340.893 269.574 340.928 269.02 341 268.564H340.873C340.124 269.652 338.998 270.195 337.494 270.195ZM347.484 259.297V266.24C347.484 267.113 347.683 267.764 348.08 268.193C348.477 268.623 349.099 268.838 349.945 268.838C351.065 268.838 351.882 268.532 352.396 267.92C352.917 267.308 353.178 266.309 353.178 264.922V259.297H354.799V270H353.461L353.227 268.564H353.139C352.807 269.092 352.344 269.495 351.752 269.775C351.166 270.055 350.495 270.195 349.74 270.195C348.438 270.195 347.462 269.886 346.811 269.268C346.166 268.649 345.844 267.66 345.844 266.299V259.297H347.484ZM364.828 270L364.506 268.477H364.428C363.894 269.147 363.36 269.603 362.826 269.844C362.299 270.078 361.638 270.195 360.844 270.195C359.783 270.195 358.949 269.922 358.344 269.375C357.745 268.828 357.445 268.05 357.445 267.041C357.445 264.88 359.174 263.747 362.631 263.643L364.447 263.584V262.92C364.447 262.08 364.265 261.462 363.9 261.064C363.542 260.661 362.966 260.459 362.172 260.459C361.28 260.459 360.271 260.732 359.145 261.279L358.646 260.039C359.174 259.753 359.75 259.528 360.375 259.365C361.007 259.202 361.638 259.121 362.27 259.121C363.546 259.121 364.49 259.404 365.102 259.971C365.72 260.537 366.029 261.445 366.029 262.695V270H364.828ZM361.166 268.857C362.175 268.857 362.966 268.581 363.539 268.027C364.118 267.474 364.408 266.699 364.408 265.703V264.736L362.787 264.805C361.498 264.85 360.567 265.052 359.994 265.41C359.428 265.762 359.145 266.312 359.145 267.061C359.145 267.646 359.32 268.092 359.672 268.398C360.03 268.704 360.528 268.857 361.166 268.857ZM374.262 259.102C374.737 259.102 375.163 259.141 375.541 259.219L375.316 260.723C374.874 260.625 374.483 260.576 374.145 260.576C373.279 260.576 372.536 260.928 371.918 261.631C371.306 262.334 371 263.21 371 264.258V270H369.379V259.297H370.717L370.902 261.279H370.98C371.378 260.583 371.856 260.046 372.416 259.668C372.976 259.29 373.591 259.102 374.262 259.102ZM382.064 270.195C380.482 270.195 379.232 269.714 378.314 268.75C377.403 267.786 376.947 266.449 376.947 264.736C376.947 263.011 377.37 261.641 378.217 260.625C379.07 259.609 380.212 259.102 381.645 259.102C382.986 259.102 384.047 259.544 384.828 260.43C385.609 261.309 386 262.471 386 263.916V264.941H378.627C378.66 266.198 378.975 267.152 379.574 267.803C380.18 268.454 381.029 268.779 382.123 268.779C383.275 268.779 384.415 268.538 385.541 268.057V269.502C384.968 269.749 384.424 269.925 383.91 270.029C383.402 270.14 382.787 270.195 382.064 270.195ZM381.625 260.459C380.766 260.459 380.079 260.739 379.564 261.299C379.057 261.859 378.757 262.633 378.666 263.623H384.262C384.262 262.601 384.034 261.82 383.578 261.279C383.122 260.732 382.471 260.459 381.625 260.459ZM395.678 267.08C395.678 268.076 395.307 268.844 394.564 269.385C393.822 269.925 392.781 270.195 391.439 270.195C390.02 270.195 388.913 269.971 388.119 269.521V268.018C388.633 268.278 389.184 268.483 389.77 268.633C390.362 268.783 390.932 268.857 391.479 268.857C392.325 268.857 392.976 268.724 393.432 268.457C393.887 268.184 394.115 267.77 394.115 267.217C394.115 266.8 393.933 266.445 393.568 266.152C393.21 265.853 392.507 265.501 391.459 265.098C390.463 264.727 389.753 264.404 389.33 264.131C388.913 263.851 388.601 263.535 388.393 263.184C388.191 262.832 388.09 262.412 388.09 261.924C388.09 261.051 388.445 260.365 389.154 259.863C389.864 259.355 390.837 259.102 392.074 259.102C393.227 259.102 394.353 259.336 395.453 259.805L394.877 261.123C393.803 260.68 392.829 260.459 391.957 260.459C391.189 260.459 390.609 260.579 390.219 260.82C389.828 261.061 389.633 261.393 389.633 261.816C389.633 262.103 389.704 262.347 389.848 262.549C389.997 262.751 390.235 262.943 390.561 263.125C390.886 263.307 391.511 263.571 392.436 263.916C393.705 264.378 394.561 264.844 395.004 265.312C395.453 265.781 395.678 266.37 395.678 267.08ZM403.305 270.195C402.608 270.195 401.97 270.068 401.391 269.814C400.818 269.554 400.336 269.157 399.945 268.623H399.828C399.906 269.248 399.945 269.84 399.945 270.4V274.805H398.324V259.297H399.643L399.867 260.762H399.945C400.362 260.176 400.847 259.753 401.4 259.492C401.954 259.232 402.589 259.102 403.305 259.102C404.724 259.102 405.818 259.587 406.586 260.557C407.361 261.527 407.748 262.887 407.748 264.639C407.748 266.396 407.354 267.764 406.566 268.74C405.785 269.71 404.698 270.195 403.305 270.195ZM403.07 260.479C401.977 260.479 401.186 260.781 400.697 261.387C400.209 261.992 399.958 262.956 399.945 264.277V264.639C399.945 266.143 400.196 267.22 400.697 267.871C401.199 268.516 402.003 268.838 403.109 268.838C404.034 268.838 404.757 268.464 405.277 267.715C405.805 266.966 406.068 265.934 406.068 264.619C406.068 263.285 405.805 262.262 405.277 261.553C404.757 260.837 404.021 260.479 403.07 260.479ZM417.172 270L416.85 268.477H416.771C416.238 269.147 415.704 269.603 415.17 269.844C414.643 270.078 413.982 270.195 413.188 270.195C412.126 270.195 411.293 269.922 410.688 269.375C410.089 268.828 409.789 268.05 409.789 267.041C409.789 264.88 411.518 263.747 414.975 263.643L416.791 263.584V262.92C416.791 262.08 416.609 261.462 416.244 261.064C415.886 260.661 415.31 260.459 414.516 260.459C413.624 260.459 412.615 260.732 411.488 261.279L410.99 260.039C411.518 259.753 412.094 259.528 412.719 259.365C413.35 259.202 413.982 259.121 414.613 259.121C415.889 259.121 416.833 259.404 417.445 259.971C418.064 260.537 418.373 261.445 418.373 262.695V270H417.172ZM413.51 268.857C414.519 268.857 415.31 268.581 415.883 268.027C416.462 267.474 416.752 266.699 416.752 265.703V264.736L415.131 264.805C413.842 264.85 412.911 265.052 412.338 265.41C411.771 265.762 411.488 266.312 411.488 267.061C411.488 267.646 411.664 268.092 412.016 268.398C412.374 268.704 412.872 268.857 413.51 268.857ZM426 270.195C424.451 270.195 423.249 269.72 422.396 268.77C421.55 267.812 421.127 266.462 421.127 264.717C421.127 262.926 421.557 261.543 422.416 260.566C423.282 259.59 424.512 259.102 426.107 259.102C426.622 259.102 427.136 259.157 427.65 259.268C428.165 259.378 428.568 259.508 428.861 259.658L428.363 261.035C428.005 260.892 427.615 260.775 427.191 260.684C426.768 260.586 426.394 260.537 426.068 260.537C423.894 260.537 422.807 261.924 422.807 264.697C422.807 266.012 423.07 267.021 423.598 267.725C424.132 268.428 424.919 268.779 425.961 268.779C426.853 268.779 427.768 268.587 428.705 268.203V269.639C427.989 270.01 427.087 270.195 426 270.195ZM435.775 270.195C434.193 270.195 432.943 269.714 432.025 268.75C431.114 267.786 430.658 266.449 430.658 264.736C430.658 263.011 431.081 261.641 431.928 260.625C432.781 259.609 433.923 259.102 435.355 259.102C436.697 259.102 437.758 259.544 438.539 260.43C439.32 261.309 439.711 262.471 439.711 263.916V264.941H432.338C432.37 266.198 432.686 267.152 433.285 267.803C433.891 268.454 434.74 268.779 435.834 268.779C436.986 268.779 438.126 268.538 439.252 268.057V269.502C438.679 269.749 438.135 269.925 437.621 270.029C437.113 270.14 436.498 270.195 435.775 270.195ZM435.336 260.459C434.477 260.459 433.79 260.739 433.275 261.299C432.768 261.859 432.468 262.633 432.377 263.623H437.973C437.973 262.601 437.745 261.82 437.289 261.279C436.833 260.732 436.182 260.459 435.336 260.459Z" fill="black"/>
<path d="M416.424 247H414.783L411.902 237.439C411.766 237.016 411.613 236.482 411.443 235.838C411.274 235.193 411.186 234.806 411.18 234.676C411.036 235.535 410.809 236.476 410.496 237.498L407.703 247H406.062L402.264 232.723H404.021L406.277 241.541C406.59 242.778 406.818 243.898 406.961 244.9C407.137 243.709 407.397 242.544 407.742 241.404L410.301 232.723H412.059L414.744 241.482C415.057 242.492 415.32 243.631 415.535 244.9C415.659 243.976 415.893 242.85 416.238 241.521L418.484 232.723H420.242L416.424 247ZM423.855 247H422.234V236.297H423.855V247ZM422.098 233.396C422.098 233.025 422.189 232.755 422.371 232.586C422.553 232.41 422.781 232.322 423.055 232.322C423.315 232.322 423.54 232.41 423.729 232.586C423.917 232.762 424.012 233.032 424.012 233.396C424.012 233.761 423.917 234.035 423.729 234.217C423.54 234.393 423.315 234.48 423.055 234.48C422.781 234.48 422.553 234.393 422.371 234.217C422.189 234.035 422.098 233.761 422.098 233.396ZM429.871 241.521L426.15 236.297H427.996L430.818 240.398L433.631 236.297H435.457L431.736 241.521L435.652 247H433.816L430.818 242.664L427.791 247H425.955L429.871 241.521Z" fill="black"/>
<path d="M305.623 344.062V350H303.963V335.723H307.879C309.63 335.723 310.923 336.058 311.756 336.729C312.596 337.399 313.016 338.408 313.016 339.756C313.016 341.644 312.059 342.92 310.145 343.584L314.021 350H312.059L308.602 344.062H305.623ZM305.623 342.637H307.898C309.07 342.637 309.93 342.406 310.477 341.943C311.023 341.475 311.297 340.775 311.297 339.844C311.297 338.9 311.017 338.219 310.457 337.803C309.904 337.386 309.012 337.178 307.781 337.178H305.623V342.637ZM320.604 350.195C319.021 350.195 317.771 349.714 316.854 348.75C315.942 347.786 315.486 346.449 315.486 344.736C315.486 343.011 315.91 341.641 316.756 340.625C317.609 339.609 318.751 339.102 320.184 339.102C321.525 339.102 322.586 339.544 323.367 340.43C324.148 341.309 324.539 342.471 324.539 343.916V344.941H317.166C317.199 346.198 317.514 347.152 318.113 347.803C318.719 348.454 319.568 348.779 320.662 348.779C321.814 348.779 322.954 348.538 324.08 348.057V349.502C323.507 349.749 322.964 349.925 322.449 350.029C321.941 350.14 321.326 350.195 320.604 350.195ZM320.164 340.459C319.305 340.459 318.618 340.739 318.104 341.299C317.596 341.859 317.296 342.633 317.205 343.623H322.801C322.801 342.601 322.573 341.82 322.117 341.279C321.661 340.732 321.01 340.459 320.164 340.459ZM334.217 347.08C334.217 348.076 333.846 348.844 333.104 349.385C332.361 349.925 331.32 350.195 329.979 350.195C328.559 350.195 327.452 349.971 326.658 349.521V348.018C327.173 348.278 327.723 348.483 328.309 348.633C328.901 348.783 329.471 348.857 330.018 348.857C330.864 348.857 331.515 348.724 331.971 348.457C332.426 348.184 332.654 347.77 332.654 347.217C332.654 346.8 332.472 346.445 332.107 346.152C331.749 345.853 331.046 345.501 329.998 345.098C329.002 344.727 328.292 344.404 327.869 344.131C327.452 343.851 327.14 343.535 326.932 343.184C326.73 342.832 326.629 342.412 326.629 341.924C326.629 341.051 326.984 340.365 327.693 339.863C328.403 339.355 329.376 339.102 330.613 339.102C331.766 339.102 332.892 339.336 333.992 339.805L333.416 341.123C332.342 340.68 331.368 340.459 330.496 340.459C329.728 340.459 329.148 340.579 328.758 340.82C328.367 341.061 328.172 341.393 328.172 341.816C328.172 342.103 328.243 342.347 328.387 342.549C328.536 342.751 328.774 342.943 329.1 343.125C329.425 343.307 330.05 343.571 330.975 343.916C332.244 344.378 333.1 344.844 333.543 345.312C333.992 345.781 334.217 346.37 334.217 347.08ZM341.844 350.195C341.147 350.195 340.509 350.068 339.93 349.814C339.357 349.554 338.875 349.157 338.484 348.623H338.367C338.445 349.248 338.484 349.84 338.484 350.4V354.805H336.863V339.297H338.182L338.406 340.762H338.484C338.901 340.176 339.386 339.753 339.939 339.492C340.493 339.232 341.128 339.102 341.844 339.102C343.263 339.102 344.357 339.587 345.125 340.557C345.9 341.527 346.287 342.887 346.287 344.639C346.287 346.396 345.893 347.764 345.105 348.74C344.324 349.71 343.237 350.195 341.844 350.195ZM341.609 340.479C340.516 340.479 339.725 340.781 339.236 341.387C338.748 341.992 338.497 342.956 338.484 344.277V344.639C338.484 346.143 338.735 347.22 339.236 347.871C339.738 348.516 340.542 348.838 341.648 348.838C342.573 348.838 343.296 348.464 343.816 347.715C344.344 346.966 344.607 345.934 344.607 344.619C344.607 343.285 344.344 342.262 343.816 341.553C343.296 340.837 342.56 340.479 341.609 340.479ZM358.367 344.639C358.367 346.383 357.928 347.747 357.049 348.73C356.17 349.707 354.956 350.195 353.406 350.195C352.449 350.195 351.6 349.971 350.857 349.521C350.115 349.072 349.542 348.428 349.139 347.588C348.735 346.748 348.533 345.765 348.533 344.639C348.533 342.894 348.969 341.536 349.842 340.566C350.714 339.59 351.925 339.102 353.475 339.102C354.972 339.102 356.16 339.6 357.039 340.596C357.924 341.592 358.367 342.939 358.367 344.639ZM350.213 344.639C350.213 346.006 350.486 347.048 351.033 347.764C351.58 348.48 352.384 348.838 353.445 348.838C354.507 348.838 355.311 348.483 355.857 347.773C356.411 347.057 356.688 346.012 356.688 344.639C356.688 343.278 356.411 342.246 355.857 341.543C355.311 340.833 354.5 340.479 353.426 340.479C352.365 340.479 351.564 340.827 351.023 341.523C350.483 342.22 350.213 343.258 350.213 344.639ZM368.543 350V343.076C368.543 342.204 368.344 341.553 367.947 341.123C367.55 340.693 366.928 340.479 366.082 340.479C364.962 340.479 364.142 340.781 363.621 341.387C363.1 341.992 362.84 342.992 362.84 344.385V350H361.219V339.297H362.537L362.801 340.762H362.879C363.211 340.234 363.676 339.827 364.275 339.541C364.874 339.248 365.542 339.102 366.277 339.102C367.566 339.102 368.536 339.414 369.188 340.039C369.839 340.658 370.164 341.65 370.164 343.018V350H368.543ZM380.408 347.08C380.408 348.076 380.037 348.844 379.295 349.385C378.553 349.925 377.511 350.195 376.17 350.195C374.751 350.195 373.644 349.971 372.85 349.521V348.018C373.364 348.278 373.914 348.483 374.5 348.633C375.092 348.783 375.662 348.857 376.209 348.857C377.055 348.857 377.706 348.724 378.162 348.457C378.618 348.184 378.846 347.77 378.846 347.217C378.846 346.8 378.663 346.445 378.299 346.152C377.941 345.853 377.238 345.501 376.189 345.098C375.193 344.727 374.484 344.404 374.061 344.131C373.644 343.851 373.331 343.535 373.123 343.184C372.921 342.832 372.82 342.412 372.82 341.924C372.82 341.051 373.175 340.365 373.885 339.863C374.594 339.355 375.568 339.102 376.805 339.102C377.957 339.102 379.083 339.336 380.184 339.805L379.607 341.123C378.533 340.68 377.56 340.459 376.688 340.459C375.919 340.459 375.34 340.579 374.949 340.82C374.559 341.061 374.363 341.393 374.363 341.816C374.363 342.103 374.435 342.347 374.578 342.549C374.728 342.751 374.965 342.943 375.291 343.125C375.617 343.307 376.242 343.571 377.166 343.916C378.436 344.378 379.292 344.844 379.734 345.312C380.184 345.781 380.408 346.37 380.408 347.08ZM384.676 350H383.055V339.297H384.676V350ZM382.918 336.396C382.918 336.025 383.009 335.755 383.191 335.586C383.374 335.41 383.602 335.322 383.875 335.322C384.135 335.322 384.36 335.41 384.549 335.586C384.738 335.762 384.832 336.032 384.832 336.396C384.832 336.761 384.738 337.035 384.549 337.217C384.36 337.393 384.135 337.48 383.875 337.48C383.602 337.48 383.374 337.393 383.191 337.217C383.009 337.035 382.918 336.761 382.918 336.396ZM390.457 350L386.395 339.297H388.133L390.438 345.645C390.958 347.129 391.264 348.092 391.355 348.535H391.434C391.505 348.19 391.73 347.477 392.107 346.396C392.492 345.309 393.348 342.943 394.676 339.297H396.414L392.352 350H390.457ZM402.654 350.195C401.072 350.195 399.822 349.714 398.904 348.75C397.993 347.786 397.537 346.449 397.537 344.736C397.537 343.011 397.96 341.641 398.807 340.625C399.66 339.609 400.802 339.102 402.234 339.102C403.576 339.102 404.637 339.544 405.418 340.43C406.199 341.309 406.59 342.471 406.59 343.916V344.941H399.217C399.249 346.198 399.565 347.152 400.164 347.803C400.77 348.454 401.619 348.779 402.713 348.779C403.865 348.779 405.005 348.538 406.131 348.057V349.502C405.558 349.749 405.014 349.925 404.5 350.029C403.992 350.14 403.377 350.195 402.654 350.195ZM402.215 340.459C401.355 340.459 400.669 340.739 400.154 341.299C399.646 341.859 399.347 342.633 399.256 343.623H404.852C404.852 342.601 404.624 341.82 404.168 341.279C403.712 340.732 403.061 340.459 402.215 340.459ZM316.424 377H314.783L311.902 367.439C311.766 367.016 311.613 366.482 311.443 365.838C311.274 365.193 311.186 364.806 311.18 364.676C311.036 365.535 310.809 366.476 310.496 367.498L307.703 377H306.062L302.264 362.723H304.021L306.277 371.541C306.59 372.778 306.818 373.898 306.961 374.9C307.137 373.709 307.397 372.544 307.742 371.404L310.301 362.723H312.059L314.744 371.482C315.057 372.492 315.32 373.631 315.535 374.9C315.659 373.976 315.893 372.85 316.238 371.521L318.484 362.723H320.242L316.424 377ZM326.756 377.195C325.174 377.195 323.924 376.714 323.006 375.75C322.094 374.786 321.639 373.449 321.639 371.736C321.639 370.011 322.062 368.641 322.908 367.625C323.761 366.609 324.904 366.102 326.336 366.102C327.677 366.102 328.738 366.544 329.52 367.43C330.301 368.309 330.691 369.471 330.691 370.916V371.941H323.318C323.351 373.198 323.667 374.152 324.266 374.803C324.871 375.454 325.721 375.779 326.814 375.779C327.967 375.779 329.106 375.538 330.232 375.057V376.502C329.66 376.749 329.116 376.925 328.602 377.029C328.094 377.14 327.479 377.195 326.756 377.195ZM326.316 367.459C325.457 367.459 324.77 367.739 324.256 368.299C323.748 368.859 323.449 369.633 323.357 370.623H328.953C328.953 369.601 328.725 368.82 328.27 368.279C327.814 367.732 327.163 367.459 326.316 367.459ZM338.445 366.121C339.852 366.121 340.942 366.603 341.717 367.566C342.498 368.523 342.889 369.881 342.889 371.639C342.889 373.396 342.495 374.764 341.707 375.74C340.926 376.71 339.839 377.195 338.445 377.195C337.749 377.195 337.111 377.068 336.531 376.814C335.958 376.554 335.477 376.157 335.086 375.623H334.969L334.627 377H333.465V361.805H335.086V365.496C335.086 366.323 335.06 367.065 335.008 367.723H335.086C335.841 366.655 336.961 366.121 338.445 366.121ZM338.211 367.479C337.104 367.479 336.307 367.798 335.818 368.436C335.33 369.067 335.086 370.135 335.086 371.639C335.086 373.143 335.337 374.22 335.838 374.871C336.339 375.516 337.143 375.838 338.25 375.838C339.246 375.838 339.988 375.477 340.477 374.754C340.965 374.025 341.209 372.98 341.209 371.619C341.209 370.226 340.965 369.188 340.477 368.504C339.988 367.82 339.233 367.479 338.211 367.479ZM315.359 396.725C315.359 399.081 314.718 400.885 313.436 402.135C312.16 403.378 310.32 404 307.918 404H303.963V389.723H308.338C310.558 389.723 312.283 390.338 313.514 391.568C314.744 392.799 315.359 394.518 315.359 396.725ZM313.602 396.783C313.602 394.921 313.133 393.518 312.195 392.574C311.264 391.63 309.878 391.158 308.035 391.158H305.623V402.564H307.645C309.624 402.564 311.111 402.079 312.107 401.109C313.104 400.133 313.602 398.691 313.602 396.783ZM322.83 404.195C321.248 404.195 319.998 403.714 319.08 402.75C318.169 401.786 317.713 400.449 317.713 398.736C317.713 397.011 318.136 395.641 318.982 394.625C319.835 393.609 320.978 393.102 322.41 393.102C323.751 393.102 324.812 393.544 325.594 394.43C326.375 395.309 326.766 396.471 326.766 397.916V398.941H319.393C319.425 400.198 319.741 401.152 320.34 401.803C320.945 402.454 321.795 402.779 322.889 402.779C324.041 402.779 325.18 402.538 326.307 402.057V403.502C325.734 403.749 325.19 403.925 324.676 404.029C324.168 404.14 323.553 404.195 322.83 404.195ZM322.391 394.459C321.531 394.459 320.844 394.739 320.33 395.299C319.822 395.859 319.523 396.633 319.432 397.623H325.027C325.027 396.601 324.799 395.82 324.344 395.279C323.888 394.732 323.237 394.459 322.391 394.459ZM336.443 401.08C336.443 402.076 336.072 402.844 335.33 403.385C334.588 403.925 333.546 404.195 332.205 404.195C330.786 404.195 329.679 403.971 328.885 403.521V402.018C329.399 402.278 329.949 402.483 330.535 402.633C331.128 402.783 331.697 402.857 332.244 402.857C333.09 402.857 333.742 402.724 334.197 402.457C334.653 402.184 334.881 401.77 334.881 401.217C334.881 400.8 334.699 400.445 334.334 400.152C333.976 399.853 333.273 399.501 332.225 399.098C331.229 398.727 330.519 398.404 330.096 398.131C329.679 397.851 329.367 397.535 329.158 397.184C328.956 396.832 328.855 396.412 328.855 395.924C328.855 395.051 329.21 394.365 329.92 393.863C330.63 393.355 331.603 393.102 332.84 393.102C333.992 393.102 335.118 393.336 336.219 393.805L335.643 395.123C334.568 394.68 333.595 394.459 332.723 394.459C331.954 394.459 331.375 394.579 330.984 394.82C330.594 395.061 330.398 395.393 330.398 395.816C330.398 396.103 330.47 396.347 330.613 396.549C330.763 396.751 331.001 396.943 331.326 397.125C331.652 397.307 332.277 397.571 333.201 397.916C334.471 398.378 335.327 398.844 335.77 399.312C336.219 399.781 336.443 400.37 336.443 401.08ZM340.711 404H339.09V393.297H340.711V404ZM338.953 390.396C338.953 390.025 339.044 389.755 339.227 389.586C339.409 389.41 339.637 389.322 339.91 389.322C340.171 389.322 340.395 389.41 340.584 389.586C340.773 389.762 340.867 390.032 340.867 390.396C340.867 390.761 340.773 391.035 340.584 391.217C340.395 391.393 340.171 391.48 339.91 391.48C339.637 391.48 339.409 391.393 339.227 391.217C339.044 391.035 338.953 390.761 338.953 390.396ZM352.908 393.297V394.322L350.926 394.557C351.108 394.785 351.271 395.084 351.414 395.455C351.557 395.82 351.629 396.233 351.629 396.695C351.629 397.743 351.271 398.58 350.555 399.205C349.839 399.83 348.855 400.143 347.605 400.143C347.286 400.143 346.987 400.117 346.707 400.064C346.017 400.429 345.672 400.888 345.672 401.441C345.672 401.734 345.792 401.952 346.033 402.096C346.274 402.232 346.688 402.301 347.273 402.301H349.168C350.327 402.301 351.215 402.545 351.834 403.033C352.459 403.521 352.771 404.231 352.771 405.162C352.771 406.347 352.296 407.249 351.346 407.867C350.395 408.492 349.008 408.805 347.186 408.805C345.786 408.805 344.705 408.544 343.943 408.023C343.188 407.503 342.811 406.767 342.811 405.816C342.811 405.165 343.019 404.602 343.436 404.127C343.852 403.652 344.438 403.329 345.193 403.16C344.92 403.036 344.689 402.844 344.5 402.584C344.318 402.324 344.227 402.021 344.227 401.676C344.227 401.285 344.331 400.943 344.539 400.65C344.747 400.357 345.076 400.074 345.525 399.801C344.972 399.573 344.52 399.186 344.168 398.639C343.823 398.092 343.65 397.467 343.65 396.764C343.65 395.592 344.002 394.69 344.705 394.059C345.408 393.421 346.404 393.102 347.693 393.102C348.253 393.102 348.758 393.167 349.207 393.297H352.908ZM344.373 405.797C344.373 406.376 344.617 406.816 345.105 407.115C345.594 407.415 346.294 407.564 347.205 407.564C348.566 407.564 349.572 407.359 350.223 406.949C350.88 406.546 351.209 405.995 351.209 405.299C351.209 404.719 351.03 404.316 350.672 404.088C350.314 403.867 349.64 403.756 348.65 403.756H346.707C345.971 403.756 345.398 403.932 344.988 404.283C344.578 404.635 344.373 405.139 344.373 405.797ZM345.252 396.725C345.252 397.473 345.464 398.04 345.887 398.424C346.31 398.808 346.899 399 347.654 399C349.236 399 350.027 398.232 350.027 396.695C350.027 395.087 349.227 394.283 347.625 394.283C346.863 394.283 346.277 394.488 345.867 394.898C345.457 395.309 345.252 395.917 345.252 396.725ZM362.43 404V397.076C362.43 396.204 362.231 395.553 361.834 395.123C361.437 394.693 360.815 394.479 359.969 394.479C358.849 394.479 358.029 394.781 357.508 395.387C356.987 395.992 356.727 396.992 356.727 398.385V404H355.105V393.297H356.424L356.688 394.762H356.766C357.098 394.234 357.563 393.827 358.162 393.541C358.761 393.248 359.428 393.102 360.164 393.102C361.453 393.102 362.423 393.414 363.074 394.039C363.725 394.658 364.051 395.65 364.051 397.018V404H362.43Z" fill="black"/>
<path d="M273.115 296H271.221L263.418 284.018H263.34C263.444 285.424 263.496 286.713 263.496 287.885V296H261.963V281.723H263.838L271.621 293.656H271.699C271.686 293.48 271.657 292.917 271.611 291.967C271.566 291.01 271.549 290.326 271.562 289.916V281.723H273.115V296ZM281.318 296.195C279.736 296.195 278.486 295.714 277.568 294.75C276.657 293.786 276.201 292.449 276.201 290.736C276.201 289.011 276.624 287.641 277.471 286.625C278.324 285.609 279.466 285.102 280.898 285.102C282.24 285.102 283.301 285.544 284.082 286.43C284.863 287.309 285.254 288.471 285.254 289.916V290.941H277.881C277.913 292.198 278.229 293.152 278.828 293.803C279.434 294.454 280.283 294.779 281.377 294.779C282.529 294.779 283.669 294.538 284.795 294.057V295.502C284.222 295.749 283.678 295.925 283.164 296.029C282.656 296.14 282.041 296.195 281.318 296.195ZM280.879 286.459C280.02 286.459 279.333 286.739 278.818 287.299C278.311 287.859 278.011 288.633 277.92 289.623H283.516C283.516 288.601 283.288 287.82 282.832 287.279C282.376 286.732 281.725 286.459 280.879 286.459ZM291.484 294.857C291.771 294.857 292.048 294.838 292.314 294.799C292.581 294.753 292.793 294.708 292.949 294.662V295.902C292.773 295.987 292.513 296.055 292.168 296.107C291.829 296.166 291.523 296.195 291.25 296.195C289.18 296.195 288.145 295.105 288.145 292.924V286.557H286.611V285.775L288.145 285.102L288.828 282.816H289.766V285.297H292.871V286.557H289.766V292.855C289.766 293.5 289.919 293.995 290.225 294.34C290.531 294.685 290.951 294.857 291.484 294.857ZM296.719 296H295.098V280.805H296.719V296ZM301.777 296H300.156V285.297H301.777V296ZM300.02 282.396C300.02 282.025 300.111 281.755 300.293 281.586C300.475 281.41 300.703 281.322 300.977 281.322C301.237 281.322 301.462 281.41 301.65 281.586C301.839 281.762 301.934 282.032 301.934 282.396C301.934 282.761 301.839 283.035 301.65 283.217C301.462 283.393 301.237 283.48 300.977 283.48C300.703 283.48 300.475 283.393 300.293 283.217C300.111 283.035 300.02 282.761 300.02 282.396ZM310.039 286.557H307.314V296H305.693V286.557H303.779V285.824L305.693 285.238V284.643C305.693 282.012 306.842 280.697 309.141 280.697C309.707 280.697 310.371 280.811 311.133 281.039L310.713 282.338C310.088 282.136 309.554 282.035 309.111 282.035C308.499 282.035 308.047 282.24 307.754 282.65C307.461 283.054 307.314 283.705 307.314 284.604V285.297H310.039V286.557ZM310.293 285.297H312.031L314.375 291.4C314.889 292.794 315.208 293.799 315.332 294.418H315.41C315.495 294.086 315.671 293.52 315.938 292.719C316.211 291.911 317.096 289.438 318.594 285.297H320.332L315.732 297.484C315.277 298.689 314.743 299.542 314.131 300.043C313.525 300.551 312.78 300.805 311.895 300.805C311.4 300.805 310.911 300.749 310.43 300.639V299.34C310.788 299.418 311.188 299.457 311.631 299.457C312.744 299.457 313.538 298.832 314.014 297.582L314.609 296.059L310.293 285.297Z" fill="black"/>
<path d="M183.883 326.76C183.271 326.76 182.789 326.672 182.438 326.496V325.08C182.9 325.21 183.382 325.275 183.883 325.275C184.527 325.275 185.016 325.08 185.348 324.689C185.686 324.299 185.855 323.736 185.855 323V308.723H187.516V322.863C187.516 324.1 187.203 325.057 186.578 325.734C185.953 326.418 185.055 326.76 183.883 326.76ZM197.652 323L197.33 321.477H197.252C196.718 322.147 196.184 322.603 195.65 322.844C195.123 323.078 194.462 323.195 193.668 323.195C192.607 323.195 191.773 322.922 191.168 322.375C190.569 321.828 190.27 321.05 190.27 320.041C190.27 317.88 191.998 316.747 195.455 316.643L197.271 316.584V315.92C197.271 315.08 197.089 314.462 196.725 314.064C196.367 313.661 195.79 313.459 194.996 313.459C194.104 313.459 193.095 313.732 191.969 314.279L191.471 313.039C191.998 312.753 192.574 312.528 193.199 312.365C193.831 312.202 194.462 312.121 195.094 312.121C196.37 312.121 197.314 312.404 197.926 312.971C198.544 313.537 198.854 314.445 198.854 315.695V323H197.652ZM193.99 321.857C194.999 321.857 195.79 321.581 196.363 321.027C196.943 320.474 197.232 319.699 197.232 318.703V317.736L195.611 317.805C194.322 317.85 193.391 318.052 192.818 318.41C192.252 318.762 191.969 319.312 191.969 320.061C191.969 320.646 192.145 321.092 192.496 321.398C192.854 321.704 193.352 321.857 193.99 321.857ZM204.547 323L200.484 312.297H202.223L204.527 318.645C205.048 320.129 205.354 321.092 205.445 321.535H205.523C205.595 321.19 205.82 320.477 206.197 319.396C206.581 318.309 207.438 315.943 208.766 312.297H210.504L206.441 323H204.547ZM218.805 323L218.482 321.477H218.404C217.87 322.147 217.337 322.603 216.803 322.844C216.275 323.078 215.615 323.195 214.82 323.195C213.759 323.195 212.926 322.922 212.32 322.375C211.721 321.828 211.422 321.05 211.422 320.041C211.422 317.88 213.15 316.747 216.607 316.643L218.424 316.584V315.92C218.424 315.08 218.242 314.462 217.877 314.064C217.519 313.661 216.943 313.459 216.148 313.459C215.257 313.459 214.247 313.732 213.121 314.279L212.623 313.039C213.15 312.753 213.727 312.528 214.352 312.365C214.983 312.202 215.615 312.121 216.246 312.121C217.522 312.121 218.466 312.404 219.078 312.971C219.697 313.537 220.006 314.445 220.006 315.695V323H218.805ZM215.143 321.857C216.152 321.857 216.943 321.581 217.516 321.027C218.095 320.474 218.385 319.699 218.385 318.703V317.736L216.764 317.805C215.475 317.85 214.544 318.052 213.971 318.41C213.404 318.762 213.121 319.312 213.121 320.061C213.121 320.646 213.297 321.092 213.648 321.398C214.007 321.704 214.505 321.857 215.143 321.857ZM230.26 320.08C230.26 321.076 229.889 321.844 229.146 322.385C228.404 322.925 227.363 323.195 226.021 323.195C224.602 323.195 223.495 322.971 222.701 322.521V321.018C223.215 321.278 223.766 321.483 224.352 321.633C224.944 321.783 225.514 321.857 226.061 321.857C226.907 321.857 227.558 321.724 228.014 321.457C228.469 321.184 228.697 320.77 228.697 320.217C228.697 319.8 228.515 319.445 228.15 319.152C227.792 318.853 227.089 318.501 226.041 318.098C225.045 317.727 224.335 317.404 223.912 317.131C223.495 316.851 223.183 316.535 222.975 316.184C222.773 315.832 222.672 315.412 222.672 314.924C222.672 314.051 223.027 313.365 223.736 312.863C224.446 312.355 225.419 312.102 226.656 312.102C227.809 312.102 228.935 312.336 230.035 312.805L229.459 314.123C228.385 313.68 227.411 313.459 226.539 313.459C225.771 313.459 225.191 313.579 224.801 313.82C224.41 314.061 224.215 314.393 224.215 314.816C224.215 315.103 224.286 315.347 224.43 315.549C224.579 315.751 224.817 315.943 225.143 316.125C225.468 316.307 226.093 316.571 227.018 316.916C228.287 317.378 229.143 317.844 229.586 318.312C230.035 318.781 230.26 319.37 230.26 320.08ZM237.184 323.195C235.634 323.195 234.433 322.72 233.58 321.77C232.734 320.812 232.311 319.462 232.311 317.717C232.311 315.926 232.74 314.543 233.6 313.566C234.465 312.59 235.696 312.102 237.291 312.102C237.805 312.102 238.32 312.157 238.834 312.268C239.348 312.378 239.752 312.508 240.045 312.658L239.547 314.035C239.189 313.892 238.798 313.775 238.375 313.684C237.952 313.586 237.577 313.537 237.252 313.537C235.077 313.537 233.99 314.924 233.99 317.697C233.99 319.012 234.254 320.021 234.781 320.725C235.315 321.428 236.103 321.779 237.145 321.779C238.036 321.779 238.951 321.587 239.889 321.203V322.639C239.173 323.01 238.271 323.195 237.184 323.195ZM247.32 312.102C247.796 312.102 248.222 312.141 248.6 312.219L248.375 313.723C247.932 313.625 247.542 313.576 247.203 313.576C246.337 313.576 245.595 313.928 244.977 314.631C244.365 315.334 244.059 316.21 244.059 317.258V323H242.438V312.297H243.775L243.961 314.279H244.039C244.436 313.583 244.915 313.046 245.475 312.668C246.035 312.29 246.65 312.102 247.32 312.102ZM252.223 323H250.602V312.297H252.223V323ZM250.465 309.396C250.465 309.025 250.556 308.755 250.738 308.586C250.921 308.41 251.148 308.322 251.422 308.322C251.682 308.322 251.907 308.41 252.096 308.586C252.285 308.762 252.379 309.032 252.379 309.396C252.379 309.761 252.285 310.035 252.096 310.217C251.907 310.393 251.682 310.48 251.422 310.48C251.148 310.48 250.921 310.393 250.738 310.217C250.556 310.035 250.465 309.761 250.465 309.396ZM260.641 323.195C259.944 323.195 259.306 323.068 258.727 322.814C258.154 322.554 257.672 322.157 257.281 321.623H257.164C257.242 322.248 257.281 322.84 257.281 323.4V327.805H255.66V312.297H256.979L257.203 313.762H257.281C257.698 313.176 258.183 312.753 258.736 312.492C259.29 312.232 259.924 312.102 260.641 312.102C262.06 312.102 263.154 312.587 263.922 313.557C264.697 314.527 265.084 315.887 265.084 317.639C265.084 319.396 264.69 320.764 263.902 321.74C263.121 322.71 262.034 323.195 260.641 323.195ZM260.406 313.479C259.312 313.479 258.521 313.781 258.033 314.387C257.545 314.992 257.294 315.956 257.281 317.277V317.639C257.281 319.143 257.532 320.22 258.033 320.871C258.535 321.516 259.339 321.838 260.445 321.838C261.37 321.838 262.092 321.464 262.613 320.715C263.141 319.966 263.404 318.934 263.404 317.619C263.404 316.285 263.141 315.262 262.613 314.553C262.092 313.837 261.357 313.479 260.406 313.479ZM271.383 321.857C271.669 321.857 271.946 321.838 272.213 321.799C272.48 321.753 272.691 321.708 272.848 321.662V322.902C272.672 322.987 272.411 323.055 272.066 323.107C271.728 323.166 271.422 323.195 271.148 323.195C269.078 323.195 268.043 322.105 268.043 319.924V313.557H266.51V312.775L268.043 312.102L268.727 309.816H269.664V312.297H272.77V313.557H269.664V319.855C269.664 320.5 269.817 320.995 270.123 321.34C270.429 321.685 270.849 321.857 271.383 321.857Z" fill="black"/>
<path d="M178.803 296H177.143V289.281H169.623V296H167.963V281.723H169.623V287.797H177.143V281.723H178.803V296ZM187.123 296H185.463V283.197H180.941V281.723H191.645V283.197H187.123V296ZM200.121 296L195.277 283.344H195.199C195.29 284.346 195.336 285.538 195.336 286.918V296H193.803V281.723H196.303L200.824 293.5H200.902L205.463 281.723H207.943V296H206.283V286.801C206.283 285.746 206.329 284.6 206.42 283.363H206.342L201.459 296H200.121ZM211.869 296V281.723H213.529V294.496H219.828V296H211.869Z" fill="black"/>
<path d="M121.242 255.52H126.096V262.463C125.34 262.704 124.572 262.886 123.791 263.01C123.01 263.133 122.105 263.195 121.076 263.195C118.915 263.195 117.232 262.554 116.027 261.271C114.823 259.982 114.221 258.179 114.221 255.861C114.221 254.377 114.517 253.078 115.109 251.965C115.708 250.845 116.568 249.992 117.688 249.406C118.807 248.814 120.119 248.518 121.623 248.518C123.146 248.518 124.566 248.798 125.881 249.357L125.236 250.822C123.947 250.275 122.707 250.002 121.516 250.002C119.777 250.002 118.42 250.52 117.443 251.555C116.467 252.59 115.979 254.025 115.979 255.861C115.979 257.788 116.447 259.25 117.385 260.246C118.329 261.242 119.712 261.74 121.535 261.74C122.525 261.74 123.492 261.626 124.436 261.398V257.004H121.242V255.52ZM130.91 263H129.289V252.297H130.91V263ZM129.152 249.396C129.152 249.025 129.243 248.755 129.426 248.586C129.608 248.41 129.836 248.322 130.109 248.322C130.37 248.322 130.594 248.41 130.783 248.586C130.972 248.762 131.066 249.032 131.066 249.396C131.066 249.761 130.972 250.035 130.783 250.217C130.594 250.393 130.37 250.48 130.109 250.48C129.836 250.48 129.608 250.393 129.426 250.217C129.243 250.035 129.152 249.761 129.152 249.396ZM137.805 261.857C138.091 261.857 138.368 261.838 138.635 261.799C138.902 261.753 139.113 261.708 139.27 261.662V262.902C139.094 262.987 138.833 263.055 138.488 263.107C138.15 263.166 137.844 263.195 137.57 263.195C135.5 263.195 134.465 262.105 134.465 259.924V253.557H132.932V252.775L134.465 252.102L135.148 249.816H136.086V252.297H139.191V253.557H136.086V259.855C136.086 260.5 136.239 260.995 136.545 261.34C136.851 261.685 137.271 261.857 137.805 261.857ZM152.502 263H150.842V256.281H143.322V263H141.662V248.723H143.322V254.797H150.842V248.723H152.502V263ZM157.707 252.297V259.24C157.707 260.113 157.906 260.764 158.303 261.193C158.7 261.623 159.322 261.838 160.168 261.838C161.288 261.838 162.105 261.532 162.619 260.92C163.14 260.308 163.4 259.309 163.4 257.922V252.297H165.021V263H163.684L163.449 261.564H163.361C163.029 262.092 162.567 262.495 161.975 262.775C161.389 263.055 160.718 263.195 159.963 263.195C158.661 263.195 157.684 262.886 157.033 262.268C156.389 261.649 156.066 260.66 156.066 259.299V252.297H157.707ZM173.449 252.121C174.855 252.121 175.946 252.603 176.721 253.566C177.502 254.523 177.893 255.881 177.893 257.639C177.893 259.396 177.499 260.764 176.711 261.74C175.93 262.71 174.842 263.195 173.449 263.195C172.753 263.195 172.115 263.068 171.535 262.814C170.962 262.554 170.48 262.157 170.09 261.623H169.973L169.631 263H168.469V247.805H170.09V251.496C170.09 252.323 170.064 253.065 170.012 253.723H170.09C170.845 252.655 171.965 252.121 173.449 252.121ZM173.215 253.479C172.108 253.479 171.311 253.798 170.822 254.436C170.334 255.067 170.09 256.135 170.09 257.639C170.09 259.143 170.34 260.22 170.842 260.871C171.343 261.516 172.147 261.838 173.254 261.838C174.25 261.838 174.992 261.477 175.48 260.754C175.969 260.025 176.213 258.98 176.213 257.619C176.213 256.226 175.969 255.188 175.48 254.504C174.992 253.82 174.237 253.479 173.215 253.479Z" fill="black"/>
<path d="M93.0762 234.002C91.5072 234.002 90.2669 234.526 89.3555 235.574C88.4505 236.616 87.998 238.045 87.998 239.861C87.998 241.73 88.4342 243.175 89.3066 244.197C90.1855 245.213 91.4355 245.721 93.0566 245.721C94.0527 245.721 95.1888 245.542 96.4648 245.184V246.639C95.4753 247.01 94.2546 247.195 92.8027 247.195C90.6999 247.195 89.0755 246.557 87.9297 245.281C86.7904 244.005 86.2207 242.192 86.2207 239.842C86.2207 238.37 86.4941 237.081 87.041 235.975C87.5944 234.868 88.3887 234.015 89.4238 233.416C90.4655 232.817 91.6895 232.518 93.0957 232.518C94.5931 232.518 95.9017 232.791 97.0215 233.338L96.3184 234.764C95.2376 234.256 94.1569 234.002 93.0762 234.002ZM107.637 243.201C107.637 244.458 107.181 245.438 106.27 246.141C105.358 246.844 104.121 247.195 102.559 247.195C100.866 247.195 99.5638 246.977 98.6523 246.541V244.939C99.2383 245.187 99.8763 245.382 100.566 245.525C101.257 245.669 101.94 245.74 102.617 245.74C103.724 245.74 104.557 245.532 105.117 245.115C105.677 244.692 105.957 244.106 105.957 243.357C105.957 242.863 105.856 242.459 105.654 242.146C105.459 241.827 105.127 241.535 104.658 241.268C104.196 241.001 103.49 240.698 102.539 240.359C101.211 239.884 100.26 239.321 99.6875 238.67C99.1211 238.019 98.8379 237.169 98.8379 236.121C98.8379 235.021 99.2513 234.145 100.078 233.494C100.905 232.843 101.999 232.518 103.359 232.518C104.779 232.518 106.084 232.778 107.275 233.299L106.758 234.744C105.579 234.249 104.434 234.002 103.32 234.002C102.441 234.002 101.755 234.191 101.26 234.568C100.765 234.946 100.518 235.47 100.518 236.141C100.518 236.635 100.609 237.042 100.791 237.361C100.973 237.674 101.279 237.964 101.709 238.23C102.145 238.491 102.809 238.781 103.701 239.1C105.199 239.633 106.227 240.206 106.787 240.818C107.354 241.43 107.637 242.225 107.637 243.201ZM118.613 243.201C118.613 244.458 118.158 245.438 117.246 246.141C116.335 246.844 115.098 247.195 113.535 247.195C111.842 247.195 110.54 246.977 109.629 246.541V244.939C110.215 245.187 110.853 245.382 111.543 245.525C112.233 245.669 112.917 245.74 113.594 245.74C114.701 245.74 115.534 245.532 116.094 245.115C116.654 244.692 116.934 244.106 116.934 243.357C116.934 242.863 116.833 242.459 116.631 242.146C116.436 241.827 116.104 241.535 115.635 241.268C115.173 241.001 114.466 240.698 113.516 240.359C112.188 239.884 111.237 239.321 110.664 238.67C110.098 238.019 109.814 237.169 109.814 236.121C109.814 235.021 110.228 234.145 111.055 233.494C111.882 232.843 112.975 232.518 114.336 232.518C115.755 232.518 117.061 232.778 118.252 233.299L117.734 234.744C116.556 234.249 115.41 234.002 114.297 234.002C113.418 234.002 112.731 234.191 112.236 234.568C111.742 234.946 111.494 235.47 111.494 236.141C111.494 236.635 111.585 237.042 111.768 237.361C111.95 237.674 112.256 237.964 112.686 238.23C113.122 238.491 113.786 238.781 114.678 239.1C116.175 239.633 117.204 240.206 117.764 240.818C118.33 241.43 118.613 242.225 118.613 243.201Z" fill="black"/>
<line x1="102.994" y1="14.5068" x2="507.003" y2="14.5068" stroke="#B3B3B3"/>
</svg>
