<svg width="1440" height="1024" viewBox="0 0 1440 1024" fill="none" xmlns="http://www.w3.org/2000/svg">
<line x1="48.5" y1="1024" x2="48.5" stroke="#DDA9A9"/>
<line x1="170.5" y1="1024" x2="170.5" y2="0.000976562" stroke="#DDA9A9"/>
<line x1="292.5" y1="1024" x2="292.5" y2="0.000976562" stroke="#DDA9A9"/>
<line x1="414.5" y1="1024" x2="414.5" y2="0.00195312" stroke="#DDA9A9"/>
<line x1="536.5" y1="1024" x2="536.5" y2="0.000976562" stroke="#DDA9A9"/>
<line x1="658.5" y1="1024" x2="658.5" y2="0.00195312" stroke="#DDA9A9"/>
<line x1="780.5" y1="1024" x2="780.5" y2="0.000976562" stroke="#DDA9A9"/>
<line x1="902.5" y1="1024" x2="902.5" y2="0.00195312" stroke="#DDA9A9"/>
<line x1="-85" y1="937.5" x2="1462" y2="937.5" stroke="#DDA9A9"/>
<line x1="-77" y1="815.5" x2="1470" y2="815.5" stroke="#DDA9A9"/>
<line x1="-68" y1="693.5" x2="1479" y2="693.5" stroke="#DDA9A9"/>
<line x1="-60" y1="571.5" x2="1487" y2="571.5" stroke="#DDA9A9"/>
<line x1="-51" y1="450.5" x2="1496" y2="450.5" stroke="#DDA9A9"/>
<line x1="-43" y1="328.5" x2="1504" y2="328.5" stroke="#DDA9A9"/>
<line x1="-34" y1="206.5" x2="1513" y2="206.5" stroke="#DDA9A9"/>
<line x1="-26" y1="84.5" x2="1521" y2="84.5" stroke="#DDA9A9"/>
<line x1="1024.5" y1="1024" x2="1024.5" y2="0.00195312" stroke="#DDA9A9"/>
<line x1="1146.5" y1="1024" x2="1146.5" y2="0.00292969" stroke="#DDA9A9"/>
<line x1="1268.5" y1="1024" x2="1268.5" y2="0.00195312" stroke="#DDA9A9"/>
<line x1="1390.5" y1="1024" x2="1390.5" y2="0.00292969" stroke="#DDA9A9"/>
</svg>
