<svg width="86" height="75" viewBox="0 0 86 75" fill="none" xmlns="http://www.w3.org/2000/svg">
<path d="M43.0172 63.5398L42.1302 62.1724H40.5003C38.0995 62.1724 35.3847 62.2563 32.6545 62.3408C30.5529 62.4058 28.4422 62.471 26.4587 62.4985C22.4892 62.5535 18.7057 62.4722 15.4004 62.0274C11.849 61.5494 9.19134 60.6923 7.4757 59.4326C5.94252 58.3068 5.00027 56.7559 5.00027 54.1724V53.4076L4.63417 52.7362C2.96955 49.6833 2.77839 47.0291 3.42628 44.7355C4.09402 42.3716 5.74719 40.0715 8.31569 38.0097C13.4976 33.85 21.7959 31.1724 30.0003 31.1724C37.8434 31.1724 45.8423 31.3748 51.8803 33.9295C54.8103 35.1692 57.1505 36.9169 58.7821 39.3835C60.4157 41.8531 61.5003 45.2873 61.5003 50.1724C61.5003 55.0193 60.7892 59.3387 59.6012 62.7896C58.3978 66.2851 56.7864 68.6631 55.1585 69.9293C53.6665 71.0897 52.1311 71.3739 50.373 70.7097C48.4094 69.9679 45.8507 67.9081 43.0172 63.5398Z" stroke="#00AD98" stroke-width="6"/>
<path d="M36.9589 59.467C36.9589 59.467 37.3684 55.4314 39.0005 53.673C40.5512 52.0022 44.2945 51.2144 44.2945 51.2144" stroke="#00AD98" stroke-width="2" stroke-linecap="round"/>
<path d="M46.7374 44.7966C46.7374 44.7966 47.1469 40.7609 48.779 39.0026C50.3298 37.3318 54.0731 36.544 54.0731 36.544" stroke="#00AD98" stroke-width="2" stroke-linecap="round"/>
<path d="M17.3358 52.969C17.3358 52.969 16.9263 48.9333 15.2942 47.1749C13.7435 45.5042 10.0002 44.7164 10.0002 44.7164" stroke="#00AD98" stroke-width="2" stroke-linecap="round"/>
<path d="M59.5612 64.536C59.5612 64.536 57.9019 60.8345 55.7993 59.6794C53.8014 58.5818 50.0004 59.0126 50.0004 59.0126" stroke="#00AD98" stroke-width="2" stroke-linecap="round"/>
<path d="M62.4494 55.8101C62.4494 55.8101 58.445 55.1631 56.786 53.4301C55.2097 51.7834 54.6442 48.0002 54.6442 48.0002" stroke="#00AD98" stroke-width="2" stroke-linecap="round"/>
<path d="M30.715 55.1727C30.715 55.1727 31.1826 59.202 32.8398 60.9367C34.4144 62.585 38.1687 63.3188 38.1687 63.3188" stroke="#00AD98" stroke-width="2" stroke-linecap="round"/>
<path d="M32.715 32.1727C32.715 32.1727 33.1826 36.202 34.8398 37.9367C36.4144 39.585 40.1687 40.3188 40.1687 40.3188" stroke="#00AD98" stroke-width="2" stroke-linecap="round"/>
<path d="M24.4539 34.1727C24.4539 34.1727 23.9864 38.202 22.3291 39.9367C20.7545 41.585 17.0003 42.3188 17.0003 42.3188" stroke="#00AD98" stroke-width="2" stroke-linecap="round"/>
<path d="M31.4539 41.1727C31.4539 41.1727 30.9864 45.202 29.3291 46.9367C27.7545 48.585 24.0003 49.3188 24.0003 49.3188" stroke="#00AD98" stroke-width="2" stroke-linecap="round"/>
<path d="M22.715 53.1727C22.715 53.1727 23.1826 57.202 24.8398 58.9367C26.4144 60.585 30.1687 61.3188 30.1687 61.3188" stroke="#00AD98" stroke-width="2" stroke-linecap="round"/>
<path d="M73.7637 14.2073C75.7938 14.7897 77.2696 15.8345 78.191 17.3417C79.1125 18.8489 79.2967 20.5662 78.7437 22.4938C78.126 24.647 77.0007 26.0553 75.3678 26.7187C73.7407 27.3616 71.7891 27.3566 69.5129 26.7036L68.5823 29.5992L66.1524 28.9021L67.4236 24.0069L68.3156 24.2628C70.3457 24.8452 72.0232 24.9935 73.348 24.7078C74.6728 24.422 75.5794 23.4281 76.0676 21.7261C76.4206 20.4957 76.3309 19.4158 75.7986 18.4863C75.2663 17.5568 74.3747 16.9126 73.1238 16.5538C71.8524 16.189 70.7476 16.2494 69.8094 16.7348C68.8975 17.2056 68.271 18.0357 67.9298 19.2251L65.2845 18.4662C65.6375 17.2358 66.2232 16.2386 67.0416 15.4747C67.8658 14.6903 68.8539 14.1858 70.0058 13.9614C71.1782 13.7429 72.4308 13.8249 73.7637 14.2073ZM65.543 35.5519C65.0098 35.399 64.6116 35.085 64.3484 34.61C64.0852 34.135 64.0301 33.6309 64.183 33.0977C64.336 32.5646 64.65 32.1664 65.125 31.9032C65.6 31.6399 66.104 31.5848 66.6372 31.7378C67.1499 31.8848 67.5275 32.1929 67.7703 32.6621C68.0335 33.1371 68.0886 33.6411 67.9357 34.1743C67.7827 34.7075 67.4687 35.1057 66.9937 35.3689C66.5392 35.638 66.0556 35.699 65.543 35.5519Z" fill="#00AD98"/>
</svg>
