<svg width="271" height="122" viewBox="0 0 271 122" fill="none" xmlns="http://www.w3.org/2000/svg">
<rect width="271" height="122" fill="#3A3A3A"/>
<path d="M33.0646 40.5557H34.9726L37.2766 51.3017L39.4726 40.5557H41.3266L38.1046 55.1357H36.3226L33.0646 40.5557ZM44.4771 55.2797C44.0811 55.2797 43.7211 55.1657 43.3971 54.9377C43.0851 54.7097 42.8391 54.4097 42.6591 54.0377C42.4791 53.6657 42.3891 53.2757 42.3891 52.8677C42.3891 52.0517 42.5631 51.3917 42.9111 50.8877C43.2591 50.3717 43.7031 49.9637 44.2431 49.6637C44.7831 49.3637 45.5331 49.0217 46.4931 48.6377V47.8997C46.4931 47.2157 46.4211 46.7357 46.2771 46.4597C46.1451 46.1717 45.8691 46.0277 45.4491 46.0277C44.7171 46.0277 44.3511 46.5197 44.3511 47.5037V48.0257L42.4431 47.9537C42.4671 46.8017 42.7311 45.9557 43.2351 45.4157C43.7391 44.8637 44.5191 44.5877 45.5751 44.5877C46.5711 44.5877 47.2911 44.8637 47.7351 45.4157C48.1911 45.9557 48.4191 46.7777 48.4191 47.8817V52.6337C48.4191 53.4137 48.4791 54.2477 48.5991 55.1357H46.8351C46.7031 54.4517 46.6191 53.9417 46.5831 53.6057C46.4391 54.0737 46.1871 54.4697 45.8271 54.7937C45.4791 55.1177 45.0291 55.2797 44.4771 55.2797ZM45.2331 53.6237C45.4851 53.6237 45.7311 53.5277 45.9711 53.3357C46.2111 53.1317 46.3851 52.9397 46.4931 52.7597V49.8077C45.9771 50.0957 45.5751 50.3477 45.2871 50.5637C45.0111 50.7677 44.7771 51.0077 44.5851 51.2837C44.4051 51.5597 44.3151 51.8897 44.3151 52.2737C44.3151 52.7057 44.3931 53.0417 44.5491 53.2817C44.7051 53.5097 44.9331 53.6237 45.2331 53.6237ZM50.4491 40.5557H52.3751V55.1357H50.4491V40.5557ZM55.8764 55.2797C55.3124 55.2797 54.9104 55.0757 54.6704 54.6677C54.4304 54.2597 54.3104 53.7557 54.3104 53.1557V44.7317H56.2364V52.5797C56.2364 52.9757 56.2964 53.2757 56.4164 53.4797C56.5364 53.6717 56.7524 53.7677 57.0644 53.7677C57.4484 53.7677 57.8984 53.5517 58.4144 53.1197V44.7317H60.3404V55.1357H58.4144V54.1097C57.5864 54.8897 56.7404 55.2797 55.8764 55.2797ZM65.1901 55.2797C64.3861 55.2797 63.7621 55.1297 63.3181 54.8297C62.8741 54.5177 62.5621 54.0617 62.3821 53.4617C62.2021 52.8617 62.1121 52.0817 62.1121 51.1217V48.7457C62.1121 47.3057 62.3341 46.2557 62.7781 45.5957C63.2341 44.9237 64.0381 44.5877 65.1901 44.5877C66.0301 44.5877 66.6601 44.7617 67.0801 45.1097C67.5121 45.4577 67.7941 45.9497 67.9261 46.5857C68.0701 47.2097 68.1421 48.0557 68.1421 49.1237V49.9697H64.0381V52.0577C64.0381 52.6937 64.1281 53.1557 64.3081 53.4437C64.5001 53.7197 64.8001 53.8577 65.2081 53.8577C65.6161 53.8577 65.8921 53.7197 66.0361 53.4437C66.1801 53.1557 66.2521 52.7237 66.2521 52.1477V51.5177H68.1241V51.9137C68.1241 53.0057 67.8901 53.8397 67.4221 54.4157C66.9541 54.9917 66.2101 55.2797 65.1901 55.2797ZM66.2521 48.9257V47.9897C66.2521 47.2817 66.1801 46.7777 66.0361 46.4777C65.9041 46.1657 65.6161 46.0097 65.1721 46.0097C64.8601 46.0097 64.6201 46.0817 64.4521 46.2257C64.2961 46.3697 64.1881 46.6097 64.1281 46.9457C64.0681 47.2697 64.0381 47.7437 64.0381 48.3677V48.9257H66.2521ZM76.8616 55.2797C75.7576 55.2797 74.9716 54.9557 74.5036 54.3077C74.0476 53.6477 73.8196 52.6937 73.8196 51.4457V48.4217C73.8196 47.1737 74.0476 46.2257 74.5036 45.5777C74.9716 44.9177 75.7576 44.5877 76.8616 44.5877C77.9536 44.5877 78.7276 44.9177 79.1836 45.5777C79.6516 46.2257 79.8856 47.1737 79.8856 48.4217V51.4457C79.8856 52.6937 79.6516 53.6477 79.1836 54.3077C78.7276 54.9557 77.9536 55.2797 76.8616 55.2797ZM76.8616 53.8577C77.2096 53.8577 77.4616 53.7557 77.6176 53.5517C77.7736 53.3477 77.8696 53.0957 77.9056 52.7957C77.9416 52.4957 77.9596 52.0877 77.9596 51.5717V48.3137C77.9596 47.7977 77.9416 47.3897 77.9056 47.0897C77.8696 46.7777 77.7736 46.5197 77.6176 46.3157C77.4616 46.1117 77.2096 46.0097 76.8616 46.0097C76.5136 46.0097 76.2556 46.1117 76.0876 46.3157C75.9316 46.5197 75.8356 46.7777 75.7996 47.0897C75.7636 47.3897 75.7456 47.7977 75.7456 48.3137V51.5717C75.7456 52.0877 75.7636 52.4957 75.7996 52.7957C75.8356 53.0957 75.9316 53.3477 76.0876 53.5517C76.2556 53.7557 76.5136 53.8577 76.8616 53.8577ZM82.2581 46.1537H81.0161V44.7317H82.2581V44.1917C82.2581 43.4717 82.3121 42.8957 82.4201 42.4637C82.5281 42.0197 82.7441 41.6777 83.0681 41.4377C83.4041 41.1977 83.8841 41.0777 84.5081 41.0777C84.9281 41.0777 85.3481 41.1197 85.7681 41.2037V42.6077C85.5281 42.5477 85.2881 42.5177 85.0481 42.5177C84.7001 42.5177 84.4661 42.6317 84.3461 42.8597C84.2381 43.0757 84.1841 43.4117 84.1841 43.8677V44.7317H85.7681V46.1537H84.1841V55.1357H82.2581V46.1537ZM33.7846 67.5557H37.4026C38.6626 67.5557 39.5746 67.8977 40.1386 68.5817C40.7146 69.2657 41.0026 70.2677 41.0026 71.5877C41.0026 72.7757 40.6966 73.6997 40.0846 74.3597C39.4726 75.0197 38.5846 75.3497 37.4206 75.3497H35.8186V82.1357H33.7846V67.5557ZM36.7546 73.8917C37.3546 73.8917 37.8166 73.8257 38.1406 73.6937C38.4766 73.5617 38.7166 73.3337 38.8606 73.0097C39.0046 72.6857 39.0766 72.2177 39.0766 71.6057C39.0766 70.8617 39.0226 70.3157 38.9146 69.9677C38.8066 69.6197 38.5906 69.3737 38.2666 69.2297C37.9546 69.0857 37.4566 69.0137 36.7726 69.0137H35.8186V73.8917H36.7546ZM42.3251 71.7317H44.2511V73.2077C44.6111 72.6197 44.9771 72.2057 45.3491 71.9657C45.7331 71.7257 46.1351 71.6057 46.5551 71.6057C46.6631 71.6057 46.7651 71.6117 46.8611 71.6237V73.7477C46.4771 73.6037 46.1231 73.5317 45.7991 73.5317C45.4871 73.5317 45.2051 73.6097 44.9531 73.7657C44.7131 73.9097 44.4791 74.1677 44.2511 74.5397V82.1357H42.3251V71.7317ZM50.9163 82.2797C49.8123 82.2797 49.0263 81.9557 48.5583 81.3077C48.1023 80.6477 47.8743 79.6937 47.8743 78.4457V75.4217C47.8743 74.1737 48.1023 73.2257 48.5583 72.5777C49.0263 71.9177 49.8123 71.5877 50.9163 71.5877C52.0083 71.5877 52.7823 71.9177 53.2383 72.5777C53.7063 73.2257 53.9403 74.1737 53.9403 75.4217V78.4457C53.9403 79.6937 53.7063 80.6477 53.2383 81.3077C52.7823 81.9557 52.0083 82.2797 50.9163 82.2797ZM50.9163 80.8577C51.2643 80.8577 51.5163 80.7557 51.6723 80.5517C51.8283 80.3477 51.9243 80.0957 51.9603 79.7957C51.9963 79.4957 52.0143 79.0877 52.0143 78.5717V75.3137C52.0143 74.7977 51.9963 74.3897 51.9603 74.0897C51.9243 73.7777 51.8283 73.5197 51.6723 73.3157C51.5163 73.1117 51.2643 73.0097 50.9163 73.0097C50.5683 73.0097 50.3103 73.1117 50.1423 73.3157C49.9863 73.5197 49.8903 73.7777 49.8543 74.0897C49.8183 74.3897 49.8003 74.7977 49.8003 75.3137V78.5717C49.8003 79.0877 49.8183 79.4957 49.8543 79.7957C49.8903 80.0957 49.9863 80.3477 50.1423 80.5517C50.3103 80.7557 50.5683 80.8577 50.9163 80.8577ZM58.4728 82.2797C56.9728 82.2797 56.2228 81.4517 56.2228 79.7957V73.0097H55.1248V71.7317H56.2228V68.6897H58.1488V71.7317H59.8228V73.0097H58.1488V79.6697C58.1488 80.0897 58.2148 80.3837 58.3468 80.5517C58.4788 80.7197 58.7308 80.8037 59.1028 80.8037C59.3428 80.8037 59.5768 80.7857 59.8048 80.7497V82.1717C59.3248 82.2437 58.8808 82.2797 58.4728 82.2797ZM64.0999 82.2797C62.9959 82.2797 62.2099 81.9557 61.7419 81.3077C61.2859 80.6477 61.0579 79.6937 61.0579 78.4457V75.4217C61.0579 74.1737 61.2859 73.2257 61.7419 72.5777C62.2099 71.9177 62.9959 71.5877 64.0999 71.5877C65.1919 71.5877 65.9659 71.9177 66.4219 72.5777C66.8899 73.2257 67.1239 74.1737 67.1239 75.4217V78.4457C67.1239 79.6937 66.8899 80.6477 66.4219 81.3077C65.9659 81.9557 65.1919 82.2797 64.0999 82.2797ZM64.0999 80.8577C64.4479 80.8577 64.6999 80.7557 64.8559 80.5517C65.0119 80.3477 65.1079 80.0957 65.1439 79.7957C65.1799 79.4957 65.1979 79.0877 65.1979 78.5717V75.3137C65.1979 74.7977 65.1799 74.3897 65.1439 74.0897C65.1079 73.7777 65.0119 73.5197 64.8559 73.3157C64.6999 73.1117 64.4479 73.0097 64.0999 73.0097C63.7519 73.0097 63.4939 73.1117 63.3259 73.3157C63.1699 73.5197 63.0739 73.7777 63.0379 74.0897C63.0019 74.3897 62.9839 74.7977 62.9839 75.3137V78.5717C62.9839 79.0877 63.0019 79.4957 63.0379 79.7957C63.0739 80.0957 63.1699 80.3477 63.3259 80.5517C63.4939 80.7557 63.7519 80.8577 64.0999 80.8577ZM71.6564 82.2797C70.1564 82.2797 69.4064 81.4517 69.4064 79.7957V73.0097H68.3084V71.7317H69.4064V68.6897H71.3324V71.7317H73.0064V73.0097H71.3324V79.6697C71.3324 80.0897 71.3984 80.3837 71.5304 80.5517C71.6624 80.7197 71.9144 80.8037 72.2864 80.8037C72.5264 80.8037 72.7604 80.7857 72.9884 80.7497V82.1717C72.5084 82.2437 72.0644 82.2797 71.6564 82.2797ZM74.2595 83.2697C74.9795 83.2697 75.4715 83.2157 75.7355 83.1077C76.0115 82.9997 76.1495 82.7957 76.1495 82.4957C76.1495 82.3517 76.0175 81.7157 75.7535 80.5877L73.6655 71.7317H75.6095L77.0135 79.5077L78.3635 71.7317H80.3075L77.8235 82.7117C77.6555 83.4437 77.3015 83.9657 76.7615 84.2777C76.2215 84.5897 75.4655 84.7457 74.4935 84.7457H74.2595V83.2697ZM81.4703 71.7317H83.3963V72.5597C83.9603 71.9117 84.6203 71.5877 85.3763 71.5877C86.3243 71.5877 86.9543 71.9957 87.2663 72.8117C87.5903 73.6157 87.7523 74.5097 87.7523 75.4937V78.0137C87.7523 79.2857 87.5543 80.3177 87.1583 81.1097C86.7743 81.8897 86.1083 82.2797 85.1603 82.2797C84.5483 82.2797 83.9603 81.9737 83.3963 81.3617V85.5557H81.4703V71.7317ZM84.7823 80.7677C85.2263 80.7677 85.5083 80.5457 85.6283 80.1017C85.7603 79.6457 85.8263 78.9497 85.8263 78.0137V75.4937C85.8263 74.7257 85.7543 74.1377 85.6103 73.7297C85.4663 73.3097 85.1663 73.0997 84.7103 73.0997C84.2663 73.0997 83.8283 73.2797 83.3963 73.6397V80.2997C83.8163 80.6117 84.2783 80.7677 84.7823 80.7677ZM89.6295 68.1677H91.5555V70.1837H89.6295V68.1677ZM89.6295 71.7317H91.5555V82.1357H89.6295V71.7317ZM93.6168 71.7317H95.5428V72.7577C96.3708 71.9777 97.2168 71.5877 98.0808 71.5877C98.6448 71.5877 99.0468 71.7917 99.2868 72.1997C99.5268 72.6077 99.6468 73.1117 99.6468 73.7117V82.1357H97.7208V74.2697C97.7208 73.8737 97.6608 73.5797 97.5408 73.3877C97.4208 73.1957 97.2048 73.0997 96.8928 73.0997C96.5088 73.0997 96.0588 73.3157 95.5428 73.7477V82.1357H93.6168V71.7317ZM104.227 85.3577C103.219 85.3577 102.415 85.1957 101.815 84.8717C101.215 84.5597 100.915 84.0677 100.915 83.3957C100.915 82.9397 101.053 82.5437 101.329 82.2077C101.617 81.8717 101.977 81.6017 102.409 81.3977C102.085 81.3017 101.833 81.1517 101.653 80.9477C101.485 80.7437 101.401 80.5217 101.401 80.2817C101.401 79.9217 101.491 79.6097 101.671 79.3457C101.851 79.0817 102.145 78.7637 102.553 78.3917C102.145 78.0797 101.839 77.6897 101.635 77.2217C101.443 76.7417 101.347 76.0997 101.347 75.2957C101.347 74.0837 101.593 73.1657 102.085 72.5417C102.589 71.9057 103.321 71.5877 104.281 71.5877C104.833 71.5877 105.283 71.6837 105.631 71.8757C105.979 72.0677 106.243 72.3557 106.423 72.7397C106.507 72.6077 106.681 72.4337 106.945 72.2177C107.221 71.9897 107.515 71.8037 107.827 71.6597L108.115 71.5337L108.601 72.7757C108.361 72.8237 108.025 72.9257 107.593 73.0817C107.173 73.2377 106.921 73.3577 106.837 73.4417C106.921 73.6577 106.993 73.9577 107.053 74.3417C107.125 74.7257 107.161 75.0617 107.161 75.3497C107.161 76.4897 106.939 77.3777 106.495 78.0137C106.051 78.6377 105.313 78.9497 104.281 78.9497C103.957 78.9497 103.627 78.9077 103.291 78.8237C103.063 79.1597 102.949 79.4237 102.949 79.6157C102.949 79.7477 103.015 79.8557 103.147 79.9397C103.291 80.0117 103.513 80.0597 103.813 80.0837L105.433 80.2277C106.249 80.2997 106.855 80.5457 107.251 80.9657C107.647 81.3857 107.845 81.9857 107.845 82.7657C107.845 84.4937 106.639 85.3577 104.227 85.3577ZM104.281 77.5997C104.797 77.5997 105.133 77.4197 105.289 77.0597C105.445 76.6997 105.523 76.1117 105.523 75.2957C105.523 74.4677 105.445 73.8677 105.289 73.4957C105.133 73.1117 104.803 72.9197 104.299 72.9197C103.795 72.9197 103.453 73.1117 103.273 73.4957C103.105 73.8677 103.021 74.4677 103.021 75.2957C103.021 76.0397 103.105 76.6097 103.273 77.0057C103.453 77.4017 103.789 77.5997 104.281 77.5997ZM104.371 83.8457C105.055 83.8457 105.559 83.7617 105.883 83.5937C106.207 83.4377 106.369 83.1797 106.369 82.8197C106.369 82.4837 106.267 82.2377 106.063 82.0817C105.859 81.9137 105.487 81.8057 104.947 81.7577L103.309 81.6137C103.057 81.8657 102.865 82.0877 102.733 82.2797C102.601 82.4717 102.535 82.6817 102.535 82.9097C102.535 83.2337 102.667 83.4677 102.931 83.6117C103.207 83.7677 103.687 83.8457 104.371 83.8457Z" fill="white"/>
<path d="M146.435 51.1543H147.281L148.064 56.3923L149.045 51.1813H149.765L150.755 56.4193L151.52 51.1543H152.348L151.178 58.4443H150.44L149.423 53.0443L148.397 58.4443H147.623L146.435 51.1543ZM153.181 51.1543H154.144V53.7823C154.576 53.3743 155.011 53.1703 155.449 53.1703C155.731 53.1703 155.929 53.2723 156.043 53.4763C156.163 53.6803 156.223 53.9323 156.223 54.2323V58.4443H155.26V54.5113C155.26 54.3133 155.23 54.1663 155.17 54.0703C155.11 53.9743 155.002 53.9263 154.846 53.9263C154.636 53.9263 154.402 54.0403 154.144 54.2683V58.4443H153.181V51.1543ZM158.098 58.5163C157.9 58.5163 157.72 58.4593 157.558 58.3453C157.402 58.2313 157.279 58.0813 157.189 57.8953C157.099 57.7093 157.054 57.5143 157.054 57.3103C157.054 56.9023 157.141 56.5723 157.315 56.3203C157.489 56.0623 157.711 55.8583 157.981 55.7083C158.251 55.5583 158.626 55.3873 159.106 55.1953V54.8263C159.106 54.4843 159.07 54.2443 158.998 54.1063C158.932 53.9623 158.794 53.8903 158.584 53.8903C158.218 53.8903 158.035 54.1363 158.035 54.6283V54.8893L157.081 54.8533C157.093 54.2773 157.225 53.8543 157.477 53.5843C157.729 53.3083 158.119 53.1703 158.647 53.1703C159.145 53.1703 159.505 53.3083 159.727 53.5843C159.955 53.8543 160.069 54.2653 160.069 54.8173V57.1933C160.069 57.5833 160.099 58.0003 160.159 58.4443H159.277C159.211 58.1023 159.169 57.8473 159.151 57.6793C159.079 57.9133 158.953 58.1113 158.773 58.2733C158.599 58.4353 158.374 58.5163 158.098 58.5163ZM158.476 57.6883C158.602 57.6883 158.725 57.6403 158.845 57.5443C158.965 57.4423 159.052 57.3463 159.106 57.2563V55.7803C158.848 55.9243 158.647 56.0503 158.503 56.1583C158.365 56.2603 158.248 56.3803 158.152 56.5183C158.062 56.6563 158.017 56.8213 158.017 57.0133C158.017 57.2293 158.056 57.3973 158.134 57.5173C158.212 57.6313 158.326 57.6883 158.476 57.6883ZM162.31 58.5163C161.56 58.5163 161.185 58.1023 161.185 57.2743V53.8813H160.636V53.2423H161.185V51.7213H162.148V53.2423H162.985V53.8813H162.148V57.2113C162.148 57.4213 162.181 57.5683 162.247 57.6523C162.313 57.7363 162.439 57.7783 162.625 57.7783C162.745 57.7783 162.862 57.7693 162.976 57.7513V58.4623C162.736 58.4983 162.514 58.5163 162.31 58.5163ZM165.812 51.4603H166.775V52.4683H165.812V51.4603ZM165.812 53.2423H166.775V58.4443H165.812V53.2423ZM169.011 58.5163C168.591 58.5163 168.249 58.3843 167.985 58.1203C167.727 57.8563 167.58 57.5023 167.544 57.0583L168.345 56.8153C168.393 57.1513 168.474 57.4003 168.588 57.5623C168.708 57.7243 168.876 57.8053 169.092 57.8053C169.26 57.8053 169.389 57.7573 169.479 57.6613C169.575 57.5593 169.623 57.4243 169.623 57.2563C169.623 57.1063 169.59 56.9713 169.524 56.8513C169.458 56.7313 169.35 56.6083 169.2 56.4823L168.309 55.7173C168.105 55.5433 167.946 55.3603 167.832 55.1683C167.724 54.9703 167.67 54.7303 167.67 54.4483C167.67 54.0463 167.79 53.7343 168.03 53.5123C168.27 53.2843 168.597 53.1703 169.011 53.1703C169.407 53.1703 169.716 53.2993 169.938 53.5573C170.166 53.8093 170.298 54.1363 170.334 54.5383L169.686 54.7813C169.644 54.4873 169.575 54.2653 169.479 54.1153C169.383 53.9593 169.239 53.8813 169.047 53.8813C168.891 53.8813 168.765 53.9323 168.669 54.0343C168.579 54.1363 168.534 54.2623 168.534 54.4123C168.534 54.6043 168.621 54.7783 168.795 54.9343L169.713 55.7803C169.947 55.9963 170.127 56.2093 170.253 56.4193C170.385 56.6293 170.451 56.8843 170.451 57.1843C170.451 57.6163 170.322 57.9463 170.064 58.1743C169.806 58.4023 169.455 58.5163 169.011 58.5163ZM173.291 51.4603H174.254V52.4683H173.291V51.4603ZM173.291 53.2423H174.254V58.4443H173.291V53.2423ZM176.671 58.5163C175.921 58.5163 175.546 58.1023 175.546 57.2743V53.8813H174.997V53.2423H175.546V51.7213H176.509V53.2423H177.346V53.8813H176.509V57.2113C176.509 57.4213 176.542 57.5683 176.608 57.6523C176.674 57.7363 176.8 57.7783 176.986 57.7783C177.106 57.7783 177.223 57.7693 177.337 57.7513V58.4623C177.097 58.4983 176.875 58.5163 176.671 58.5163ZM179.025 55.5013C179.553 55.0453 179.952 54.6193 180.222 54.2233C180.498 53.8273 180.636 53.3893 180.636 52.9093C180.636 52.6153 180.561 52.3783 180.411 52.1983C180.261 52.0183 180.048 51.9283 179.772 51.9283C179.532 51.9283 179.34 51.9973 179.196 52.1353C179.058 52.2673 178.989 52.4443 178.989 52.6663C178.989 52.7743 179.01 52.9243 179.052 53.1163L178.152 53.2873C178.086 53.1013 178.053 52.9123 178.053 52.7203C178.053 52.2343 178.203 51.8413 178.503 51.5413C178.809 51.2413 179.232 51.0913 179.772 51.0913C180.342 51.0913 180.786 51.2533 181.104 51.5773C181.422 51.9013 181.581 52.3543 181.581 52.9363C181.581 53.3203 181.509 53.6743 181.365 53.9983C181.221 54.3163 181.029 54.6103 180.789 54.8803C180.549 55.1443 180.246 55.4323 179.88 55.7443V56.6173H179.025V55.5013ZM178.98 57.4543H179.943V58.4443H178.98V57.4543ZM184.334 51.1543H185.18L185.963 56.3923L186.944 51.1813H187.664L188.654 56.4193L189.419 51.1543H190.247L189.077 58.4443H188.339L187.322 53.0443L186.296 58.4443H185.522L184.334 51.1543ZM191.079 51.1543H192.042V53.7823C192.474 53.3743 192.909 53.1703 193.347 53.1703C193.629 53.1703 193.827 53.2723 193.941 53.4763C194.061 53.6803 194.121 53.9323 194.121 54.2323V58.4443H193.158V54.5113C193.158 54.3133 193.128 54.1663 193.068 54.0703C193.008 53.9743 192.9 53.9263 192.744 53.9263C192.534 53.9263 192.3 54.0403 192.042 54.2683V58.4443H191.079V51.1543ZM194.979 59.0113C195.339 59.0113 195.585 58.9843 195.717 58.9303C195.855 58.8763 195.924 58.7743 195.924 58.6243C195.924 58.5523 195.858 58.2343 195.726 57.6703L194.682 53.2423H195.654L196.356 57.1303L197.031 53.2423H198.003L196.761 58.7323C196.677 59.0983 196.5 59.3593 196.23 59.5153C195.96 59.6713 195.582 59.7493 195.096 59.7493H194.979V59.0113ZM201.847 58.5163C201.397 58.5163 201.067 58.3543 200.857 58.0303C200.647 57.7003 200.542 57.1573 200.542 56.4013V55.3933C200.542 54.7033 200.632 54.1603 200.812 53.7643C200.998 53.3683 201.334 53.1703 201.82 53.1703C202.126 53.1703 202.414 53.3053 202.684 53.5753V51.1543H203.647V58.4443H202.684V58.1113C202.432 58.3813 202.153 58.5163 201.847 58.5163ZM202.09 57.7603C202.282 57.7603 202.48 57.6943 202.684 57.5623V54.1513C202.462 54.0013 202.258 53.9263 202.072 53.9263C201.694 53.9263 201.505 54.2893 201.505 55.0153V56.4823C201.505 56.9023 201.544 57.2203 201.622 57.4363C201.7 57.6523 201.856 57.7603 202.09 57.7603ZM206.054 58.5163C205.502 58.5163 205.109 58.3543 204.875 58.0303C204.647 57.7003 204.533 57.2233 204.533 56.5993V55.0873C204.533 54.4633 204.647 53.9893 204.875 53.6653C205.109 53.3353 205.502 53.1703 206.054 53.1703C206.6 53.1703 206.987 53.3353 207.215 53.6653C207.449 53.9893 207.566 54.4633 207.566 55.0873V56.5993C207.566 57.2233 207.449 57.7003 207.215 58.0303C206.987 58.3543 206.6 58.5163 206.054 58.5163ZM206.054 57.8053C206.228 57.8053 206.354 57.7543 206.432 57.6523C206.51 57.5503 206.558 57.4243 206.576 57.2743C206.594 57.1243 206.603 56.9203 206.603 56.6623V55.0333C206.603 54.7753 206.594 54.5713 206.576 54.4213C206.558 54.2653 206.51 54.1363 206.432 54.0343C206.354 53.9323 206.228 53.8813 206.054 53.8813C205.88 53.8813 205.751 53.9323 205.667 54.0343C205.589 54.1363 205.541 54.2653 205.523 54.4213C205.505 54.5713 205.496 54.7753 205.496 55.0333V56.6623C205.496 56.9203 205.505 57.1243 205.523 57.2743C205.541 57.4243 205.589 57.5503 205.667 57.6523C205.751 57.7543 205.88 57.8053 206.054 57.8053ZM210.566 51.4603H211.529V52.4683H210.566V51.4603ZM210.566 53.2423H211.529V58.4443H210.566V53.2423ZM213.945 58.5163C213.195 58.5163 212.82 58.1023 212.82 57.2743V53.8813H212.271V53.2423H212.82V51.7213H213.783V53.2423H214.62V53.8813H213.783V57.2113C213.783 57.4213 213.816 57.5683 213.882 57.6523C213.948 57.7363 214.074 57.7783 214.26 57.7783C214.38 57.7783 214.497 57.7693 214.611 57.7513V58.4623C214.371 58.4983 214.149 58.5163 213.945 58.5163ZM216.3 55.5013C216.828 55.0453 217.227 54.6193 217.497 54.2233C217.773 53.8273 217.911 53.3893 217.911 52.9093C217.911 52.6153 217.836 52.3783 217.686 52.1983C217.536 52.0183 217.323 51.9283 217.047 51.9283C216.807 51.9283 216.615 51.9973 216.471 52.1353C216.333 52.2673 216.264 52.4443 216.264 52.6663C216.264 52.7743 216.285 52.9243 216.327 53.1163L215.427 53.2873C215.361 53.1013 215.328 52.9123 215.328 52.7203C215.328 52.2343 215.478 51.8413 215.778 51.5413C216.084 51.2413 216.507 51.0913 217.047 51.0913C217.617 51.0913 218.061 51.2533 218.379 51.5773C218.697 51.9013 218.856 52.3543 218.856 52.9363C218.856 53.3203 218.784 53.6743 218.64 53.9983C218.496 54.3163 218.304 54.6103 218.064 54.8803C217.824 55.1443 217.521 55.4323 217.155 55.7443V56.6173H216.3V55.5013ZM216.255 57.4543H217.218V58.4443H216.255V57.4543ZM221.608 51.1543H222.454L223.237 56.3923L224.218 51.1813H224.938L225.928 56.4193L226.693 51.1543H227.521L226.351 58.4443H225.613L224.596 53.0443L223.57 58.4443H222.796L221.608 51.1543ZM228.354 51.1543H229.317V53.7823C229.749 53.3743 230.184 53.1703 230.622 53.1703C230.904 53.1703 231.102 53.2723 231.216 53.4763C231.336 53.6803 231.396 53.9323 231.396 54.2323V58.4443H230.433V54.5113C230.433 54.3133 230.403 54.1663 230.343 54.0703C230.283 53.9743 230.175 53.9263 230.019 53.9263C229.809 53.9263 229.575 54.0403 229.317 54.2683V58.4443H228.354V51.1543ZM233.271 58.5163C233.073 58.5163 232.893 58.4593 232.731 58.3453C232.575 58.2313 232.452 58.0813 232.362 57.8953C232.272 57.7093 232.227 57.5143 232.227 57.3103C232.227 56.9023 232.314 56.5723 232.488 56.3203C232.662 56.0623 232.884 55.8583 233.154 55.7083C233.424 55.5583 233.799 55.3873 234.279 55.1953V54.8263C234.279 54.4843 234.243 54.2443 234.171 54.1063C234.105 53.9623 233.967 53.8903 233.757 53.8903C233.391 53.8903 233.208 54.1363 233.208 54.6283V54.8893L232.254 54.8533C232.266 54.2773 232.398 53.8543 232.65 53.5843C232.902 53.3083 233.292 53.1703 233.82 53.1703C234.318 53.1703 234.678 53.3083 234.9 53.5843C235.128 53.8543 235.242 54.2653 235.242 54.8173V57.1933C235.242 57.5833 235.272 58.0003 235.332 58.4443H234.45C234.384 58.1023 234.342 57.8473 234.324 57.6793C234.252 57.9133 234.126 58.1113 233.946 58.2733C233.772 58.4353 233.547 58.5163 233.271 58.5163ZM233.649 57.6883C233.775 57.6883 233.898 57.6403 234.018 57.5443C234.138 57.4423 234.225 57.3463 234.279 57.2563V55.7803C234.021 55.9243 233.82 56.0503 233.676 56.1583C233.538 56.2603 233.421 56.3803 233.325 56.5183C233.235 56.6563 233.19 56.8213 233.19 57.0133C233.19 57.2293 233.229 57.3973 233.307 57.5173C233.385 57.6313 233.499 57.6883 233.649 57.6883ZM237.482 58.5163C236.732 58.5163 236.357 58.1023 236.357 57.2743V53.8813H235.808V53.2423H236.357V51.7213H237.32V53.2423H238.157V53.8813H237.32V57.2113C237.32 57.4213 237.353 57.5683 237.419 57.6523C237.485 57.7363 237.611 57.7783 237.797 57.7783C237.917 57.7783 238.034 57.7693 238.148 57.7513V58.4623C237.908 58.4983 237.686 58.5163 237.482 58.5163ZM146.597 66.2423H147.56V66.6563C147.842 66.3323 148.172 66.1703 148.55 66.1703C149.024 66.1703 149.339 66.3743 149.495 66.7823C149.657 67.1843 149.738 67.6313 149.738 68.1233V69.3833C149.738 70.0193 149.639 70.5353 149.441 70.9313C149.249 71.3213 148.916 71.5163 148.442 71.5163C148.136 71.5163 147.842 71.3633 147.56 71.0573V73.1543H146.597V66.2423ZM148.253 70.7603C148.475 70.7603 148.616 70.6493 148.676 70.4273C148.742 70.1993 148.775 69.8513 148.775 69.3833V68.1233C148.775 67.7393 148.739 67.4453 148.667 67.2413C148.595 67.0313 148.445 66.9263 148.217 66.9263C147.995 66.9263 147.776 67.0163 147.56 67.1963V70.5263C147.77 70.6823 148.001 70.7603 148.253 70.7603ZM150.641 66.2423H151.604V66.9803C151.784 66.6863 151.967 66.4793 152.153 66.3593C152.345 66.2393 152.546 66.1793 152.756 66.1793C152.81 66.1793 152.861 66.1823 152.909 66.1883V67.2503C152.717 67.1783 152.54 67.1423 152.378 67.1423C152.222 67.1423 152.081 67.1813 151.955 67.2593C151.835 67.3313 151.718 67.4603 151.604 67.6463V71.4443H150.641V66.2423ZM154.937 71.5163C154.385 71.5163 153.992 71.3543 153.758 71.0303C153.53 70.7003 153.416 70.2233 153.416 69.5993V68.0873C153.416 67.4633 153.53 66.9893 153.758 66.6653C153.992 66.3353 154.385 66.1703 154.937 66.1703C155.483 66.1703 155.87 66.3353 156.098 66.6653C156.332 66.9893 156.449 67.4633 156.449 68.0873V69.5993C156.449 70.2233 156.332 70.7003 156.098 71.0303C155.87 71.3543 155.483 71.5163 154.937 71.5163ZM154.937 70.8053C155.111 70.8053 155.237 70.7543 155.315 70.6523C155.393 70.5503 155.441 70.4243 155.459 70.2743C155.477 70.1243 155.486 69.9203 155.486 69.6623V68.0333C155.486 67.7753 155.477 67.5713 155.459 67.4213C155.441 67.2653 155.393 67.1363 155.315 67.0343C155.237 66.9323 155.111 66.8813 154.937 66.8813C154.763 66.8813 154.634 66.9323 154.55 67.0343C154.472 67.1363 154.424 67.2653 154.406 67.4213C154.388 67.5713 154.379 67.7753 154.379 68.0333V69.6623C154.379 69.9203 154.388 70.1243 154.406 70.2743C154.424 70.4243 154.472 70.5503 154.55 70.6523C154.634 70.7543 154.763 70.8053 154.937 70.8053ZM158.715 71.5163C157.965 71.5163 157.59 71.1023 157.59 70.2743V66.8813H157.041V66.2423H157.59V64.7213H158.553V66.2423H159.39V66.8813H158.553V70.2113C158.553 70.4213 158.586 70.5683 158.652 70.6523C158.718 70.7363 158.844 70.7783 159.03 70.7783C159.15 70.7783 159.267 70.7693 159.381 70.7513V71.4623C159.141 71.4983 158.919 71.5163 158.715 71.5163ZM161.528 71.5163C160.976 71.5163 160.583 71.3543 160.349 71.0303C160.121 70.7003 160.007 70.2233 160.007 69.5993V68.0873C160.007 67.4633 160.121 66.9893 160.349 66.6653C160.583 66.3353 160.976 66.1703 161.528 66.1703C162.074 66.1703 162.461 66.3353 162.689 66.6653C162.923 66.9893 163.04 67.4633 163.04 68.0873V69.5993C163.04 70.2233 162.923 70.7003 162.689 71.0303C162.461 71.3543 162.074 71.5163 161.528 71.5163ZM161.528 70.8053C161.702 70.8053 161.828 70.7543 161.906 70.6523C161.984 70.5503 162.032 70.4243 162.05 70.2743C162.068 70.1243 162.077 69.9203 162.077 69.6623V68.0333C162.077 67.7753 162.068 67.5713 162.05 67.4213C162.032 67.2653 161.984 67.1363 161.906 67.0343C161.828 66.9323 161.702 66.8813 161.528 66.8813C161.354 66.8813 161.225 66.9323 161.141 67.0343C161.063 67.1363 161.015 67.2653 160.997 67.4213C160.979 67.5713 160.97 67.7753 160.97 68.0333V69.6623C160.97 69.9203 160.979 70.1243 160.997 70.2743C161.015 70.4243 161.063 70.5503 161.141 70.6523C161.225 70.7543 161.354 70.8053 161.528 70.8053ZM165.307 71.5163C164.557 71.5163 164.182 71.1023 164.182 70.2743V66.8813H163.633V66.2423H164.182V64.7213H165.145V66.2423H165.982V66.8813H165.145V70.2113C165.145 70.4213 165.178 70.5683 165.244 70.6523C165.31 70.7363 165.436 70.7783 165.622 70.7783C165.742 70.7783 165.859 70.7693 165.973 70.7513V71.4623C165.733 71.4983 165.511 71.5163 165.307 71.5163ZM166.608 72.0113C166.968 72.0113 167.214 71.9843 167.346 71.9303C167.484 71.8763 167.553 71.7743 167.553 71.6243C167.553 71.5523 167.487 71.2343 167.355 70.6703L166.311 66.2423H167.283L167.985 70.1303L168.66 66.2423H169.632L168.39 71.7323C168.306 72.0983 168.129 72.3593 167.859 72.5153C167.589 72.6713 167.211 72.7493 166.725 72.7493H166.608V72.0113ZM170.214 66.2423H171.177V66.6563C171.459 66.3323 171.789 66.1703 172.167 66.1703C172.641 66.1703 172.956 66.3743 173.112 66.7823C173.274 67.1843 173.355 67.6313 173.355 68.1233V69.3833C173.355 70.0193 173.256 70.5353 173.058 70.9313C172.866 71.3213 172.533 71.5163 172.059 71.5163C171.753 71.5163 171.459 71.3633 171.177 71.0573V73.1543H170.214V66.2423ZM171.87 70.7603C172.092 70.7603 172.233 70.6493 172.293 70.4273C172.359 70.1993 172.392 69.8513 172.392 69.3833V68.1233C172.392 67.7393 172.356 67.4453 172.284 67.2413C172.212 67.0313 172.062 66.9263 171.834 66.9263C171.612 66.9263 171.393 67.0163 171.177 67.1963V70.5263C171.387 70.6823 171.618 70.7603 171.87 70.7603ZM174.293 64.4603H175.256V65.4683H174.293V64.4603ZM174.293 66.2423H175.256V71.4443H174.293V66.2423ZM176.287 66.2423H177.25V66.7553C177.664 66.3653 178.087 66.1703 178.519 66.1703C178.801 66.1703 179.002 66.2723 179.122 66.4763C179.242 66.6803 179.302 66.9323 179.302 67.2323V71.4443H178.339V67.5113C178.339 67.3133 178.309 67.1663 178.249 67.0703C178.189 66.9743 178.081 66.9263 177.925 66.9263C177.733 66.9263 177.508 67.0343 177.25 67.2503V71.4443H176.287V66.2423ZM181.592 73.0553C181.088 73.0553 180.686 72.9743 180.386 72.8123C180.086 72.6563 179.936 72.4103 179.936 72.0743C179.936 71.8463 180.005 71.6483 180.143 71.4803C180.287 71.3123 180.467 71.1773 180.683 71.0753C180.521 71.0273 180.395 70.9523 180.305 70.8503C180.221 70.7483 180.179 70.6373 180.179 70.5173C180.179 70.3373 180.224 70.1813 180.314 70.0493C180.404 69.9173 180.551 69.7583 180.755 69.5723C180.551 69.4163 180.398 69.2213 180.296 68.9873C180.2 68.7473 180.152 68.4263 180.152 68.0243C180.152 67.4183 180.275 66.9593 180.521 66.6473C180.773 66.3293 181.139 66.1703 181.619 66.1703C181.895 66.1703 182.12 66.2183 182.294 66.3143C182.468 66.4103 182.6 66.5543 182.69 66.7463C182.732 66.6803 182.819 66.5933 182.951 66.4853C183.089 66.3713 183.236 66.2783 183.392 66.2063L183.536 66.1433L183.779 66.7643C183.659 66.7883 183.491 66.8393 183.275 66.9173C183.065 66.9953 182.939 67.0553 182.897 67.0973C182.939 67.2053 182.975 67.3553 183.005 67.5473C183.041 67.7393 183.059 67.9073 183.059 68.0513C183.059 68.6213 182.948 69.0653 182.726 69.3833C182.504 69.6953 182.135 69.8513 181.619 69.8513C181.457 69.8513 181.292 69.8303 181.124 69.7883C181.01 69.9563 180.953 70.0883 180.953 70.1843C180.953 70.2503 180.986 70.3043 181.052 70.3463C181.124 70.3823 181.235 70.4063 181.385 70.4183L182.195 70.4903C182.603 70.5263 182.906 70.6493 183.104 70.8593C183.302 71.0693 183.401 71.3693 183.401 71.7593C183.401 72.6233 182.798 73.0553 181.592 73.0553ZM181.619 69.1763C181.877 69.1763 182.045 69.0863 182.123 68.9063C182.201 68.7263 182.24 68.4323 182.24 68.0243C182.24 67.6103 182.201 67.3103 182.123 67.1243C182.045 66.9323 181.88 66.8363 181.628 66.8363C181.376 66.8363 181.205 66.9323 181.115 67.1243C181.031 67.3103 180.989 67.6103 180.989 68.0243C180.989 68.3963 181.031 68.6813 181.115 68.8793C181.205 69.0773 181.373 69.1763 181.619 69.1763ZM181.664 72.2993C182.006 72.2993 182.258 72.2573 182.42 72.1733C182.582 72.0953 182.663 71.9663 182.663 71.7863C182.663 71.6183 182.612 71.4953 182.51 71.4173C182.408 71.3333 182.222 71.2793 181.952 71.2553L181.133 71.1833C181.007 71.3093 180.911 71.4203 180.845 71.5163C180.779 71.6123 180.746 71.7173 180.746 71.8313C180.746 71.9933 180.812 72.1103 180.944 72.1823C181.082 72.2603 181.322 72.2993 181.664 72.2993ZM187.596 71.5163C186.846 71.5163 186.471 71.1023 186.471 70.2743V66.8813H185.922V66.2423H186.471V64.7213H187.434V66.2423H188.271V66.8813H187.434V70.2113C187.434 70.4213 187.467 70.5683 187.533 70.6523C187.599 70.7363 187.725 70.7783 187.911 70.7783C188.031 70.7783 188.148 70.7693 188.262 70.7513V71.4623C188.022 71.4983 187.8 71.5163 187.596 71.5163ZM190.409 71.5163C189.857 71.5163 189.464 71.3543 189.23 71.0303C189.002 70.7003 188.888 70.2233 188.888 69.5993V68.0873C188.888 67.4633 189.002 66.9893 189.23 66.6653C189.464 66.3353 189.857 66.1703 190.409 66.1703C190.955 66.1703 191.342 66.3353 191.57 66.6653C191.804 66.9893 191.921 67.4633 191.921 68.0873V69.5993C191.921 70.2233 191.804 70.7003 191.57 71.0303C191.342 71.3543 190.955 71.5163 190.409 71.5163ZM190.409 70.8053C190.583 70.8053 190.709 70.7543 190.787 70.6523C190.865 70.5503 190.913 70.4243 190.931 70.2743C190.949 70.1243 190.958 69.9203 190.958 69.6623V68.0333C190.958 67.7753 190.949 67.5713 190.931 67.4213C190.913 67.2653 190.865 67.1363 190.787 67.0343C190.709 66.9323 190.583 66.8813 190.409 66.8813C190.235 66.8813 190.106 66.9323 190.022 67.0343C189.944 67.1363 189.896 67.2653 189.878 67.4213C189.86 67.5713 189.851 67.7753 189.851 68.0333V69.6623C189.851 69.9203 189.86 70.1243 189.878 70.2743C189.896 70.4243 189.944 70.5503 190.022 70.6523C190.106 70.7543 190.235 70.8053 190.409 70.8053ZM194.232 71.5163C193.68 71.5163 193.287 71.3543 193.053 71.0303C192.825 70.7003 192.711 70.2233 192.711 69.5993V68.0873C192.711 67.4633 192.825 66.9893 193.053 66.6653C193.287 66.3353 193.68 66.1703 194.232 66.1703C194.778 66.1703 195.165 66.3353 195.393 66.6653C195.627 66.9893 195.744 67.4633 195.744 68.0873V69.5993C195.744 70.2233 195.627 70.7003 195.393 71.0303C195.165 71.3543 194.778 71.5163 194.232 71.5163ZM194.232 70.8053C194.406 70.8053 194.532 70.7543 194.61 70.6523C194.688 70.5503 194.736 70.4243 194.754 70.2743C194.772 70.1243 194.781 69.9203 194.781 69.6623V68.0333C194.781 67.7753 194.772 67.5713 194.754 67.4213C194.736 67.2653 194.688 67.1363 194.61 67.0343C194.532 66.9323 194.406 66.8813 194.232 66.8813C194.058 66.8813 193.929 66.9323 193.845 67.0343C193.767 67.1363 193.719 67.2653 193.701 67.4213C193.683 67.5713 193.674 67.7753 193.674 68.0333V69.6623C193.674 69.9203 193.683 70.1243 193.701 70.2743C193.719 70.4243 193.767 70.5503 193.845 70.6523C193.929 70.7543 194.058 70.8053 194.232 70.8053ZM196.715 64.1543H197.678V71.4443H196.715V64.1543ZM201.944 71.5163C201.524 71.5163 201.182 71.3843 200.918 71.1203C200.66 70.8563 200.513 70.5023 200.477 70.0583L201.278 69.8153C201.326 70.1513 201.407 70.4003 201.521 70.5623C201.641 70.7243 201.809 70.8053 202.025 70.8053C202.193 70.8053 202.322 70.7573 202.412 70.6613C202.508 70.5593 202.556 70.4243 202.556 70.2563C202.556 70.1063 202.523 69.9713 202.457 69.8513C202.391 69.7313 202.283 69.6083 202.133 69.4823L201.242 68.7173C201.038 68.5433 200.879 68.3603 200.765 68.1683C200.657 67.9703 200.603 67.7303 200.603 67.4483C200.603 67.0463 200.723 66.7343 200.963 66.5123C201.203 66.2843 201.53 66.1703 201.944 66.1703C202.34 66.1703 202.649 66.2993 202.871 66.5573C203.099 66.8093 203.231 67.1363 203.267 67.5383L202.619 67.7813C202.577 67.4873 202.508 67.2653 202.412 67.1153C202.316 66.9593 202.172 66.8813 201.98 66.8813C201.824 66.8813 201.698 66.9323 201.602 67.0343C201.512 67.1363 201.467 67.2623 201.467 67.4123C201.467 67.6043 201.554 67.7783 201.728 67.9343L202.646 68.7803C202.88 68.9963 203.06 69.2093 203.186 69.4193C203.318 69.6293 203.384 69.8843 203.384 70.1843C203.384 70.6163 203.255 70.9463 202.997 71.1743C202.739 71.4023 202.388 71.5163 201.944 71.5163ZM204.131 64.1543H205.094V66.7823C205.526 66.3743 205.961 66.1703 206.399 66.1703C206.681 66.1703 206.879 66.2723 206.993 66.4763C207.113 66.6803 207.173 66.9323 207.173 67.2323V71.4443H206.21V67.5113C206.21 67.3133 206.18 67.1663 206.12 67.0703C206.06 66.9743 205.952 66.9263 205.796 66.9263C205.586 66.9263 205.352 67.0403 205.094 67.2683V71.4443H204.131V64.1543ZM209.543 71.5163C208.991 71.5163 208.598 71.3543 208.364 71.0303C208.136 70.7003 208.022 70.2233 208.022 69.5993V68.0873C208.022 67.4633 208.136 66.9893 208.364 66.6653C208.598 66.3353 208.991 66.1703 209.543 66.1703C210.089 66.1703 210.476 66.3353 210.704 66.6653C210.938 66.9893 211.055 67.4633 211.055 68.0873V69.5993C211.055 70.2233 210.938 70.7003 210.704 71.0303C210.476 71.3543 210.089 71.5163 209.543 71.5163ZM209.543 70.8053C209.717 70.8053 209.843 70.7543 209.921 70.6523C209.999 70.5503 210.047 70.4243 210.065 70.2743C210.083 70.1243 210.092 69.9203 210.092 69.6623V68.0333C210.092 67.7753 210.083 67.5713 210.065 67.4213C210.047 67.2653 209.999 67.1363 209.921 67.0343C209.843 66.9323 209.717 66.8813 209.543 66.8813C209.369 66.8813 209.24 66.9323 209.156 67.0343C209.078 67.1363 209.03 67.2653 209.012 67.4213C208.994 67.5713 208.985 67.7753 208.985 68.0333V69.6623C208.985 69.9203 208.994 70.1243 209.012 70.2743C209.03 70.4243 209.078 70.5503 209.156 70.6523C209.24 70.7543 209.369 70.8053 209.543 70.8053ZM212.682 71.5163C212.4 71.5163 212.199 71.4143 212.079 71.2103C211.959 71.0063 211.899 70.7543 211.899 70.4543V66.2423H212.862V70.1663C212.862 70.3643 212.892 70.5143 212.952 70.6163C213.012 70.7123 213.12 70.7603 213.276 70.7603C213.468 70.7603 213.693 70.6523 213.951 70.4363V66.2423H214.914V71.4443H213.951V70.9313C213.537 71.3213 213.114 71.5163 212.682 71.5163ZM215.989 64.1543H216.952V71.4443H215.989V64.1543ZM219.162 71.5163C218.712 71.5163 218.382 71.3543 218.172 71.0303C217.962 70.7003 217.857 70.1573 217.857 69.4013V68.3933C217.857 67.7033 217.947 67.1603 218.127 66.7643C218.313 66.3683 218.649 66.1703 219.135 66.1703C219.441 66.1703 219.729 66.3053 219.999 66.5753V64.1543H220.962V71.4443H219.999V71.1113C219.747 71.3813 219.468 71.5163 219.162 71.5163ZM219.405 70.7603C219.597 70.7603 219.795 70.6943 219.999 70.5623V67.1513C219.777 67.0013 219.573 66.9263 219.387 66.9263C219.009 66.9263 218.82 67.2893 218.82 68.0153V69.4823C218.82 69.9023 218.859 70.2203 218.937 70.4363C219.015 70.6523 219.171 70.7603 219.405 70.7603ZM224.129 64.1543H225.128V71.4443H224.129V64.1543ZM229.03 71.5163C228.748 71.5163 228.547 71.4143 228.427 71.2103C228.307 71.0063 228.247 70.7543 228.247 70.4543V66.2423H229.21V70.1663C229.21 70.3643 229.24 70.5143 229.3 70.6163C229.36 70.7123 229.468 70.7603 229.624 70.7603C229.816 70.7603 230.041 70.6523 230.299 70.4363V66.2423H231.262V71.4443H230.299V70.9313C229.885 71.3213 229.462 71.5163 229.03 71.5163ZM233.453 71.5163C233.033 71.5163 232.691 71.3843 232.427 71.1203C232.169 70.8563 232.022 70.5023 231.986 70.0583L232.787 69.8153C232.835 70.1513 232.916 70.4003 233.03 70.5623C233.15 70.7243 233.318 70.8053 233.534 70.8053C233.702 70.8053 233.831 70.7573 233.921 70.6613C234.017 70.5593 234.065 70.4243 234.065 70.2563C234.065 70.1063 234.032 69.9713 233.966 69.8513C233.9 69.7313 233.792 69.6083 233.642 69.4823L232.751 68.7173C232.547 68.5433 232.388 68.3603 232.274 68.1683C232.166 67.9703 232.112 67.7303 232.112 67.4483C232.112 67.0463 232.232 66.7343 232.472 66.5123C232.712 66.2843 233.039 66.1703 233.453 66.1703C233.849 66.1703 234.158 66.2993 234.38 66.5573C234.608 66.8093 234.74 67.1363 234.776 67.5383L234.128 67.7813C234.086 67.4873 234.017 67.2653 233.921 67.1153C233.825 66.9593 233.681 66.8813 233.489 66.8813C233.333 66.8813 233.207 66.9323 233.111 67.0343C233.021 67.1363 232.976 67.2623 232.976 67.4123C232.976 67.6043 233.063 67.7783 233.237 67.9343L234.155 68.7803C234.389 68.9963 234.569 69.2093 234.695 69.4193C234.827 69.6293 234.893 69.8843 234.893 70.1843C234.893 70.6163 234.764 70.9463 234.506 71.1743C234.248 71.4023 233.897 71.5163 233.453 71.5163ZM237.053 71.5163C236.651 71.5163 236.339 71.4413 236.117 71.2913C235.895 71.1353 235.739 70.9073 235.649 70.6073C235.559 70.3073 235.514 69.9173 235.514 69.4373V68.2493C235.514 67.5293 235.625 67.0043 235.847 66.6743C236.075 66.3383 236.477 66.1703 237.053 66.1703C237.473 66.1703 237.788 66.2573 237.998 66.4313C238.214 66.6053 238.355 66.8513 238.421 67.1693C238.493 67.4813 238.529 67.9043 238.529 68.4383V68.8613H236.477V69.9053C236.477 70.2233 236.522 70.4543 236.612 70.5983C236.708 70.7363 236.858 70.8053 237.062 70.8053C237.266 70.8053 237.404 70.7363 237.476 70.5983C237.548 70.4543 237.584 70.2383 237.584 69.9503V69.6353H238.52V69.8333C238.52 70.3793 238.403 70.7963 238.169 71.0843C237.935 71.3723 237.563 71.5163 237.053 71.5163ZM237.584 68.3393V67.8713C237.584 67.5173 237.548 67.2653 237.476 67.1153C237.41 66.9593 237.266 66.8813 237.044 66.8813C236.888 66.8813 236.768 66.9173 236.684 66.9893C236.606 67.0613 236.552 67.1813 236.522 67.3493C236.492 67.5113 236.477 67.7483 236.477 68.0603V68.3393H237.584ZM240.373 68.5013C240.901 68.0453 241.3 67.6193 241.57 67.2233C241.846 66.8273 241.984 66.3893 241.984 65.9093C241.984 65.6153 241.909 65.3783 241.759 65.1983C241.609 65.0183 241.396 64.9283 241.12 64.9283C240.88 64.9283 240.688 64.9973 240.544 65.1353C240.406 65.2673 240.337 65.4443 240.337 65.6663C240.337 65.7743 240.358 65.9243 240.4 66.1163L239.5 66.2873C239.434 66.1013 239.401 65.9123 239.401 65.7203C239.401 65.2343 239.551 64.8413 239.851 64.5413C240.157 64.2413 240.58 64.0913 241.12 64.0913C241.69 64.0913 242.134 64.2533 242.452 64.5773C242.77 64.9013 242.929 65.3543 242.929 65.9363C242.929 66.3203 242.857 66.6743 242.713 66.9983C242.569 67.3163 242.377 67.6103 242.137 67.8803C241.897 68.1443 241.594 68.4323 241.228 68.7443V69.6173H240.373V68.5013ZM240.328 70.4543H241.291V71.4443H240.328V70.4543Z" fill="white"/>
</svg>
