<svg width="1157" height="671" viewBox="0 0 1157 671" fill="none" xmlns="http://www.w3.org/2000/svg">
<g clip-path="url(#clip0)">
<rect width="1157" height="671" rx="15" fill="#8304E7"/>
<path d="M-2 0H1155V220.994C1155 220.994 969.709 187.743 859 220.994C727.12 260.605 708.53 392.891 576.5 432C468.193 464.082 397.969 409.615 287.25 432C166.097 456.494 -2 560.5 -2 560.5L-2 0Z" fill="#0066FF"/>
<path d="M161 235C161 218.979 162.694 203.114 165.986 188.313C169.278 173.511 174.102 160.062 180.185 148.733C186.267 137.404 193.487 128.418 201.434 122.287C209.381 116.156 217.898 113 226.5 113C235.102 113 243.619 116.156 251.566 122.287C259.513 128.418 266.733 137.404 272.815 148.733C278.898 160.062 283.722 173.511 287.014 188.313C290.306 203.114 292 218.979 292 235L226.5 235H161Z" fill="#3A3A3A"/>
<path d="M276 176C276 203.614 253.614 224 226 224C198.386 224 176 203.614 176 176C176 148.386 198.386 126 226 126C253.614 126 276 148.386 276 176Z" fill="#F4E1AF"/>
<ellipse cx="198.5" cy="196" rx="4.5" ry="6" fill="#424242"/>
<ellipse cx="253.5" cy="196" rx="4.5" ry="6" fill="#424242"/>
<path d="M173 182C173 167.481 179.611 146.301 189.501 136.034C199.391 125.768 212.805 120 226.791 120C240.778 120 254.191 125.768 264.081 136.034C273.971 146.301 279 167.481 279 182C279 182 247.376 174.827 226.791 174.745C205.594 174.66 173 182 173 182Z" fill="#3A3A3A"/>
<path d="M226.984 199C226.984 199 228.494 200.342 228.596 201.498C228.745 203.169 226 204.919 226 204.919" stroke="#383838" stroke-linecap="round"/>
<circle cx="226.5" cy="104.5" r="12.5" fill="#3A3A3A"/>
<path d="M181 262C181 245.431 194.431 232 211 232H239C255.569 232 269 245.431 269 262V298H181V262Z" fill="#C94DDD"/>
<ellipse cx="479" cy="149.5" rx="67" ry="55.5" fill="#3F3F3F"/>
<path d="M529 173.55C529 198.154 506.614 223 479 223C451.386 223 429 198.154 429 173.55C429 148.946 451.386 129 479 129C506.614 129 529 148.946 529 173.55Z" fill="#97610F"/>
<path d="M461 185C461 187.651 458.985 191 456.5 191C454.015 191 452 187.651 452 185C452 182.349 454.015 179 456.5 179C458.985 179 461 182.349 461 185Z" fill="#424242"/>
<path d="M507 185C507 187.651 504.985 191 502.5 191C500.015 191 498 187.651 498 185C498 182.349 500.015 179 502.5 179C504.985 179 507 182.349 507 185Z" fill="#424242"/>
<path d="M479 185C479 185 481.237 185.098 482.298 186C485.008 188.306 479 195 479 195" stroke="#303030"/>
<path d="M446 171L467 169.5V175H446V171Z" fill="#393939"/>
<path d="M513 170.5L492 169V174.5H513V170.5Z" fill="#393939"/>
<rect x="472" y="207" width="13" height="25" fill="#97610F"/>
<path d="M435 262C435 245.431 448.431 232 465 232H493C509.569 232 523 245.431 523 262V298H435V262Z" fill="#5BD123"/>
<path d="M728.311 141.616C720.818 152.747 746.818 192.516 743.493 200.879C752.742 207.106 754.314 175.296 761.807 164.166C769.3 153.035 763.996 135.495 754.746 129.268C745.496 123.041 735.805 130.485 728.311 141.616Z" fill="#F3C212"/>
<path d="M758.875 179.818C758.875 207.432 744.989 222 717.375 222C689.76 222 671.875 207.432 671.875 179.818C671.875 152.204 689.76 140.318 717.375 140.318C744.989 140.318 758.875 152.204 758.875 179.818Z" fill="#EFE0BA"/>
<path d="M722.334 127.023C709.855 122.093 673.319 144.406 664.437 142.953C660.34 153.323 679.458 159.023 691.937 163.953C704.417 168.884 735.97 160.563 740.067 150.192C744.164 139.822 734.814 131.953 722.334 127.023Z" fill="#F3C212"/>
<path d="M716.88 193.165C716.88 193.165 718.959 194.782 719.355 196.19C720.079 198.77 714.912 199.824 714.912 199.824" stroke="#303030"/>
<path d="M698.437 191C698.437 193.651 696.423 197 693.937 197C691.452 197 689.437 193.651 689.437 191C689.437 188.349 691.452 185 693.937 185C696.423 185 698.437 188.349 698.437 191Z" fill="#7892EF"/>
<path d="M743.437 191C743.437 193.651 741.423 197 738.937 197C736.452 197 734.437 193.651 734.437 191C734.437 188.349 736.452 185 738.937 185C741.423 185 743.437 188.349 743.437 191Z" fill="#7892EF"/>
<path d="M679.414 178.139C682.535 175.463 687.875 174 693.437 174C699 174 704.339 175.463 707.461 178.139C709.946 180.268 710.656 183.2 710.115 186.439C709.566 189.724 707.731 193.202 705.301 196.02C699.126 203.182 687.103 203.25 681.089 196.039C678.719 193.197 677.008 189.726 676.562 186.454C676.123 183.225 676.912 180.283 679.414 178.139Z" stroke="#B1852F" stroke-width="3"/>
<path d="M724.903 177.639C728.025 174.963 733.364 173.5 738.927 173.5C744.489 173.5 749.829 174.963 752.951 177.639C755.435 179.768 756.145 182.7 755.604 185.939C755.056 189.224 753.221 192.702 750.791 195.52C744.615 202.682 732.592 202.75 726.579 195.539C724.208 192.697 722.497 189.226 722.052 185.954C721.613 182.725 722.401 179.783 724.903 177.639Z" stroke="#B1852F" stroke-width="3"/>
<path d="M711.437 186.5C711.437 186.5 714.446 185.5 716.437 185.5C718.429 185.5 721.437 186.5 721.437 186.5" stroke="#2A967C"/>
<path d="M672 262C672 245.431 685.431 232 702 232H730C746.569 232 760 245.431 760 262V297H672V262Z" fill="#D76E0E"/>
<rect x="710" y="207" width="13" height="25" fill="#EFE0BA"/>
<path d="M974.781 183.646C970.637 210.249 961.073 228 935.644 228C910.215 228 901.111 213.763 893.744 185.654C888.679 166.329 910.215 146 935.644 146C961.073 146 977.083 170.595 974.781 183.646Z" fill="#E1BC5E"/>
<path d="M909.233 133.758C914.61 133.007 919.157 137.716 918.22 143.063L916.198 154.596C915.818 156.764 914.539 158.669 912.677 159.842L894.847 171.076C893.691 171.804 892.292 170.593 892.847 169.345V169.345C892.947 169.119 892.985 168.87 892.957 168.625L890.148 144.31C889.65 139.994 892.686 136.07 896.989 135.469L909.233 133.758Z" fill="#2E2E2E"/>
<path d="M934 195C934 195 936.237 195.098 937.298 196C940.008 198.306 934 205 934 205" stroke="#303030"/>
<path d="M979.207 151.714C968.442 198.905 983.244 156.251 942.426 157.736C908.823 157.736 918.205 159.205 918.205 143.685C918.205 128.165 931.815 132.159 948.257 129.634C971.133 126.121 989.136 108.19 979.207 151.714Z" fill="#2E2E2E"/>
<path d="M899.928 180.058L920.672 176.463L921.223 181.935L900.328 184.037L899.928 180.058Z" fill="#2E2E2E"/>
<path d="M967.054 179.094L946.172 176.412L945.862 181.903L966.828 183.088L967.054 179.094Z" fill="#2E2E2E"/>
<ellipse cx="953.5" cy="191" rx="4.5" ry="6" fill="#3E372D"/>
<ellipse cx="914.5" cy="191" rx="4.5" ry="6" fill="#3E372D"/>
<path d="M890 263C890 246.431 903.431 233 920 233H948C964.569 233 978 246.431 978 263V298H890V263Z" fill="#2B2B2B"/>
<rect x="928" y="208" width="13" height="25" fill="#E1BC5E"/>
<path d="M981 482.821C981 508.679 960.629 517 935.5 517C910.371 517 890 508.679 890 482.821C890 456.962 910.371 436 935.5 436C960.629 436 981 456.962 981 482.821Z" fill="#F8E5C9"/>
<path d="M892.07 478.152C888.338 474.286 887.137 468.284 888.731 461.465C890.325 454.645 894.584 447.568 900.569 441.789C906.555 436.01 913.778 432.003 920.649 430.65C927.52 429.297 933.477 430.709 937.208 434.574L914.639 456.363L892.07 478.152Z" fill="#C4C4C4"/>
<ellipse cx="929.233" cy="427.482" rx="15.7611" ry="9.91817" transform="rotate(170.093 929.233 427.482)" fill="#C4C4C4"/>
<path d="M980.273 478.662C984.685 469.505 985.731 459.188 983.18 449.981C980.629 440.774 974.691 433.431 966.672 429.567C958.653 425.704 949.209 425.636 940.419 429.38C931.629 433.123 924.212 440.37 919.801 449.527L950.037 464.095L980.273 478.662Z" fill="#C4C4C4"/>
<path d="M906.5 494L916.945 492.503" stroke="black"/>
<path d="M937.083 493.46C937.083 493.46 941.32 491.167 941.132 488.892C940.958 486.784 937.008 484.965 937.008 484.965" stroke="black"/>
<line x1="964.95" y1="494.498" x2="954.95" y2="493.497" stroke="black"/>
<path d="M944.068 428.495C944.068 428.495 935.46 428.774 930 429.5C924.105 430.284 915.068 432.495 915.068 432.495" stroke="#CE5353"/>
<ellipse cx="911.5" cy="482" rx="4.5" ry="6" fill="#4F4F4F"/>
<ellipse cx="961.5" cy="482" rx="4.5" ry="6" fill="#4F4F4F"/>
<path d="M893 550C893 533.431 906.431 520 923 520H951C967.569 520 981 533.431 981 550V585H893V550Z" fill="#4EADA7"/>
<rect x="930" y="495" width="13" height="25" fill="#F8E5C9"/>
<path d="M739.501 537.5C739.501 575.312 721.78 568.196 684.501 568.196C647.222 568.196 624.501 575.312 624.501 537.5C624.501 499.688 617.501 409.5 681.501 412C750.501 407.5 739.501 499.688 739.501 537.5Z" fill="#81520C"/>
<path d="M724.001 479C724.001 506.614 712.115 509.5 684.501 509.5C656.887 509.5 640.001 505.614 640.001 478C640.001 450.386 654.387 435 682.001 435C709.615 435 724.001 451.386 724.001 479Z" fill="#D8AF71"/>
<ellipse cx="708.501" cy="478" rx="4.5" ry="6" fill="#3A2300"/>
<ellipse cx="655.501" cy="478" rx="4.5" ry="6" fill="#3A2300"/>
<path d="M682.076 491.531C682.076 491.531 684.935 489.25 684.801 486.974C684.677 484.866 682.001 483.036 682.001 483.036" stroke="black"/>
<path d="M631.762 463.813L663.522 416.999L680.43 434.975L631.762 463.813Z" fill="#81520C"/>
<path d="M736.526 474.628L711.501 424.5L669.859 432.696L736.526 474.628Z" fill="#81520C"/>
<path d="M646.501 469.5C646.501 469.5 652.411 466.875 655.501 466.504C658.39 466.158 662.935 466.504 662.935 466.504" stroke="black"/>
<path d="M717.54 468.97C717.54 468.97 711.631 466.345 708.54 465.975C705.651 465.628 701.106 465.975 701.106 465.975" stroke="black"/>
<path d="M639 550C639 533.431 652.431 520 669 520H697C713.569 520 727 533.431 727 550V585H639V550Z" fill="#2B3EEE"/>
<path d="M407 550C407 533.431 420.431 520 437 520H465C481.569 520 495 533.431 495 550V585H407V550Z" fill="#EB10D5"/>
<path d="M410.483 435.602C418.511 421.583 451.483 430.102 451.483 430.102C451.483 430.102 455.983 424.956 462.483 423.602C468.983 422.248 493.483 423.602 493.483 423.602C493.483 423.602 495.483 450.102 493.483 463.602C491.483 477.102 489.483 488.602 489.483 488.602H410.483C410.483 488.602 408.121 469.423 408.483 457.102C408.731 448.673 406.292 442.919 410.483 435.602Z" fill="#5A3407"/>
<path d="M489.983 483.602C489.983 511.216 479.097 511.102 451.483 511.102C423.869 511.102 410.983 511.216 410.983 483.602C410.983 455.988 423.869 438.102 451.483 438.102C479.097 438.102 489.983 455.988 489.983 483.602Z" fill="#E6D59C"/>
<path d="M452.468 480.602C452.468 480.602 453.977 481.944 454.079 483.1C454.228 484.771 451.483 486.521 451.483 486.521" stroke="#383838" stroke-linecap="round"/>
<path d="M477.483 503.615C477.483 519.631 470.761 526.115 451.983 526.115C433.205 526.115 423.483 519.631 423.483 503.615C423.483 487.599 433.205 488.615 451.983 488.615C470.761 488.615 477.483 487.599 477.483 503.615Z" fill="#5A3407"/>
<ellipse cx="427.983" cy="478.602" rx="4.5" ry="6" fill="#0C5E36"/>
<ellipse cx="473.983" cy="478.602" rx="4.5" ry="6" fill="#0C5E36"/>
<path d="M418.428 462.548L427.378 461.607L436.329 460.667L436.538 462.656L418.637 464.537L418.428 462.548Z" fill="#5A3407"/>
<rect x="464.428" y="468.65" width="18" height="2" transform="rotate(-6.64663 464.428 468.65)" fill="#5A3407"/>
<rect x="219" y="533" width="13" height="25" fill="#CFAA72"/>
<path d="M184.5 550C184.5 533.708 197.708 520.5 214 520.5H242C258.292 520.5 271.5 533.708 271.5 550V584.5H184.5V550Z" fill="#F7F7F7" stroke="#A2A2A2"/>
<path d="M269 487C269 514.614 257.114 517.5 229.5 517.5C201.886 517.5 185 513.614 185 486C185 458.386 199.386 443 227 443C254.614 443 269 459.386 269 487Z" fill="#CFAA72"/>
<path d="M199.178 457.502C200.034 453.98 196.973 450.746 193.409 451.406L190.431 451.957C188.625 452.292 187.148 453.589 186.584 455.336L179.112 478.463C178.069 481.692 180.477 485 183.87 485H188.569C190.876 485 192.883 483.422 193.428 481.18L199.178 457.502Z" fill="#8E8E8E"/>
<path d="M255.822 457.502C254.966 453.98 258.027 450.746 261.591 451.406L264.569 451.957C266.375 452.292 267.852 453.589 268.416 455.336L275.888 478.463C276.931 481.692 274.523 485 271.13 485H266.431C264.124 485 262.117 483.422 261.572 481.18L255.822 457.502Z" fill="#8E8E8E"/>
<path d="M198.037 492.497L208.482 491" stroke="black"/>
<line x1="256.95" y1="492.498" x2="246.95" y2="491.498" stroke="black"/>
<ellipse cx="202.5" cy="483" rx="4.5" ry="6" fill="#656565"/>
<ellipse cx="251.5" cy="483" rx="4.5" ry="6" fill="#656565"/>
<path d="M238 493.999C238 491.864 235.261 491 227.611 491C219.961 491 216 491.864 216 493.999C216 496.134 219.961 495.998 227.611 495.998C235.261 495.998 238 496.134 238 493.999Z" fill="#8E8E8E"/>
<path d="M227.984 486C227.984 486 229.494 487.342 229.596 488.498C229.745 490.169 227 491.919 227 491.919" stroke="black" stroke-linecap="round"/>
<rect x="221" y="502" width="13" height="18" fill="#CFAA72"/>
<rect x="677" y="495" width="13" height="25" fill="#D8AF71"/>
<rect x="222" y="207" width="13" height="25" fill="#F4E1AF"/>
</g>
<defs>
<clipPath id="clip0">
<rect width="1157" height="671" rx="15" fill="white"/>
</clipPath>
</defs>
</svg>
